<svg width="39" height="39" fill="none" xmlns="http://www.w3.org/2000/svg"><path fill-rule="evenodd" clip-rule="evenodd" d="M19.5 39C30.27 39 39 30.27 39 19.5S30.27 0 19.5 0 0 8.73 0 19.5 8.73 39 19.5 39z" fill="#C5E7F1"/><mask id="a" maskUnits="userSpaceOnUse" x="11" y="14" width="17" height="15"><path fill-rule="evenodd" clip-rule="evenodd" d="M11.47 14.434h15.663v13.86H11.47v-13.86z" fill="#fff"/></mask><g mask="url(#a)"><path fill-rule="evenodd" clip-rule="evenodd" d="M27.06 14.703a.528.528 0 00-.727-.196l-7.032 4.104-7.03-4.104a.529.529 0 00-.729.196.543.543 0 00.195.737l7.03 4.105v8.21c0 .297.24.54.534.54a.536.536 0 00.533-.54v-8.21l7.032-4.105a.543.543 0 00.195-.737" fill="#00A6DA"/></g><mask id="b" maskUnits="userSpaceOnUse" x="11" y="9" width="17" height="20"><path fill-rule="evenodd" clip-rule="evenodd" d="M11.47 9.87h15.663v18.424H11.471V9.87z" fill="#fff"/></mask><g mask="url(#b)"><path fill-rule="evenodd" clip-rule="evenodd" d="M12.537 15.066l6.764-4.015 6.766 4.015v8.03l-6.765 4.016-6.765-4.016v-8.03zm-1.066-.316v8.664a.55.55 0 00.267.474l7.297 4.333a.53.53 0 00.532 0l7.299-4.333a.551.551 0 00.267-.474V14.75a.55.55 0 00-.267-.475l-7.298-4.332a.522.522 0 00-.533 0l-7.297 4.332a.55.55 0 00-.267.475z" fill="#00A6DA"/></g></svg>