<svg xmlns="http://www.w3.org/2000/svg" width="18.702" height="22"><defs><clipPath id="a"><path d="M0 0h18.7v17.436H0z" fill="none"/></clipPath><clipPath id="b"><path d="M0 0h18.7v22H0z" fill="none"/></clipPath></defs><path d="M0 4.564h18.7V22H0z" fill="none"/><g clip-path="url(#a)" transform="translate(0 4.564)"><path d="M18.616.339a.614.614 0 00-.869-.247L9.35 5.255.955.092a.615.615 0 00-.87.247.7.7 0 00.233.927L8.713 6.43v10.328a.638.638 0 101.274 0V6.43l8.4-5.164a.7.7 0 00.232-.927" fill="#00a6da"/></g><path d="M0 0h18.7v22H0z" fill="none"/><g clip-path="url(#b)"><path d="M9.351 22a.628.628 0 01-.318-.087L.319 16.739A.658.658 0 010 16.172V5.827a.655.655 0 01.319-.566L9.033.087A.63.63 0 019.351 0a.623.623 0 01.317.087l8.714 5.174a.657.657 0 01.319.566v10.345a.659.659 0 01-.319.567l-8.713 5.174a.628.628 0 01-.318.087zm0-20.589L1.274 6.205v9.588l8.077 4.8 8.078-4.8V6.205L9.351 1.411z" fill="#00a6da"/></g></svg>