<svg xmlns="http://www.w3.org/2000/svg" width="51" height="51"><g transform="translate(-831 -1729)"><circle cx="25.5" cy="25.5" r="25.5" transform="translate(831 1729)" fill="#c5e7f1"/><path d="M846 1747.875h20.481V1766H846z" fill="none"/><path d="M866.387 1748.227a.691.691 0 00-.951-.252l-9.2 5.367-9.19-5.367a.692.692 0 00-.953.252.71.71 0 00.255.963l9.194 5.369v10.736a.7.7 0 101.395 0v-10.736l9.2-5.368a.709.709 0 00.254-.963" fill="#00a6da"/><path d="M846 1747.875h20.481V1766H846z" fill="none"/><path d="M846 1741.907h20.482V1766H846z" fill="none"/><path d="M856.24 1766a.688.688 0 01-.348-.1l-9.543-5.661a.721.721 0 01-.349-.621v-11.329a.718.718 0 01.349-.62l9.543-5.662a.69.69 0 01.349-.1.682.682 0 01.348.1l9.544 5.666a.719.719 0 01.349.62v11.325a.722.722 0 01-.349.621l-9.544 5.668a.688.688 0 01-.349.093zm0-22.548l-8.84 5.255v10.5l8.845 5.252 8.842-5.252v-10.5l-8.847-5.255z" fill="#00a6da"/><path d="M846 1741.907h20.482V1766H846z" fill="none"/></g></svg>