<svg width="46" height="46" fill="none" xmlns="http://www.w3.org/2000/svg"><mask id="a" maskUnits="userSpaceOnUse" x="0" y="0" width="46" height="46"><path fill-rule="evenodd" clip-rule="evenodd" d="M0 23c0 12.702 10.298 23 23 23s23-10.298 23-23S35.702 0 23 0 0 10.298 0 23z" fill="#fff"/></mask><g mask="url(#a)"><path fill-rule="evenodd" clip-rule="evenodd" d="M-4.51 50.51h55.02V-4.51H-4.51v55.02z" fill="#C5E7F1"/><path fill-rule="evenodd" clip-rule="evenodd" d="M20.916 13.761c-.62.694-1.033 1.597-1.033 2.568v2.499c0 .972.414 1.944 1.034 2.569a3.599 3.599 0 005.165 0c.62-.625 1.034-1.597 1.034-2.57V16.33c0-.971-.413-1.874-1.034-2.568a3.599 3.599 0 00-5.166 0m-1.721 8.815c.688-.347 1.17.625.55.972 0 0-2.892 1.597-3.926 1.944-1.034.416-1.446 1.388-1.516 2.43-.068 1.11-.068 1.734-.068 2.081 3.03 2.777 15.499 2.777 18.53 0 0-.347 0-.971-.07-2.082-.069-1.041-.481-2.013-1.515-2.43-.964-.346-3.858-1.943-3.858-1.943-.688-.347-.137-1.319.483-.972 0 0 2.825 1.458 3.789 1.874 1.446.556 2.066 1.874 2.204 3.401.068 1.666.068 2.36.068 2.36 0 .139-.068.347-.137.417-3.169 3.609-17.29 3.609-20.458 0-.07-.07-.138-.278-.138-.417 0 0 0-.694.138-2.36.068-1.527.757-2.845 2.204-3.401.896-.416 3.72-1.874 3.72-1.874m7.715-9.647c.895.832 1.446 2.082 1.446 3.4v2.499c0 1.32-.552 2.569-1.446 3.401-1.86 1.944-4.891 1.944-6.82 0-.827-.832-1.378-2.082-1.378-3.401V16.33c0-1.318.551-2.568 1.378-3.4 1.929-1.944 4.96-1.944 6.82 0" fill="#00A6DA"/><path d="M20.916 13.761l-.177-.176-.009.01.186.166zm0 7.636l-.177.176.177-.176zm5.166 0l.178.176-.178-.176zm0-7.635l.187-.167-.009-.01-.178.176zm-6.887 8.814l-.113-.223h-.002l.115.223zm.55.972l.12.22.002-.002-.122-.218zm-3.926 1.944l-.08-.238-.007.003-.006.003.093.231zm-1.516 2.43l-.25-.017.25.016zm-.068 2.081h-.25v.11l.081.075.169-.185zm18.53 0l.168.184.081-.074v-.11h-.25zm-.07-2.082l.25-.015v-.001l-.25.016zm-1.515-2.43l.094-.232-.01-.003-.084.235zm-3.858-1.943l.121-.219-.008-.004-.113.223zm.483-.972l-.123.218.008.004.114-.222zm3.789 1.874l-.1.23.01.003.09-.233zm2.204 3.401l.25-.01-.001-.012-.25.022zm.068 2.36h-.25.25zm-.137.417l-.179-.175-.009.01.188.165zm-20.458 0l.188-.165-.005-.006-.006-.005-.177.176zm0-2.777l.249.02v-.008l-.25-.012zm2.204-3.401l.09.233.007-.003.008-.003-.105-.227zM26.91 12.929l-.18.173.004.005.005.005.17-.183zm0 9.3l-.17-.183-.006.005-.005.005.18.173zm-6.82 0l.178-.176-.178.176zm0-9.3l.178.176-.178-.176zm.64.666c-.653.731-1.097 1.69-1.097 2.734h.5c0-.9.383-1.745.97-2.4l-.373-.334zm-1.097 2.734v2.499h.5v-2.499h-.5zm0 2.499c0 1.037.439 2.072 1.106 2.745l.355-.353c-.573-.577-.961-1.485-.961-2.392h-.5zm1.106 2.745a3.849 3.849 0 005.521 0l-.355-.353c-1.348 1.36-3.463 1.36-4.811 0l-.355.353zm5.521 0c.667-.673 1.106-1.708 1.106-2.745h-.5c0 .907-.388 1.815-.96 2.392l.354.353zm1.106-2.745v-2.499h-.5v2.499h.5zm0-2.499c0-1.043-.444-2.003-1.097-2.734l-.373.333c.587.656.97 1.502.97 2.401h.5zm-1.106-2.744a3.849 3.849 0 00-5.52 0l.354.353c1.348-1.36 3.463-1.36 4.811 0l.355-.353zM19.307 22.8c.116-.058.204-.054.266-.031a.314.314 0 01.167.151c.078.147.052.317-.117.411l.244.437c.451-.254.494-.744.314-1.082a.814.814 0 00-.438-.387.826.826 0 00-.661.055l.225.446zm.438.75l-.12-.22h-.001l-.002.002-.006.003-.024.013a66.437 66.437 0 01-.434.236c-.286.155-.679.365-1.104.585-.857.445-1.82.92-2.314 1.087l.159.474c.539-.181 1.538-.677 2.386-1.117a79.31 79.31 0 001.454-.775l.094-.051.024-.014.007-.003.001-.001-.12-.22zm-4.02 1.71c-1.159.468-1.598 1.556-1.671 2.646l.499.033c.066-.993.452-1.849 1.36-2.215l-.188-.463zm-1.671 2.647c-.07 1.117-.07 1.747-.07 2.097h.5c0-.344 0-.963.069-2.066l-.5-.031zm.012 2.282c.81.74 2.213 1.272 3.865 1.622 1.663.351 3.618.526 5.569.526 1.95 0 3.905-.175 5.568-.526 1.652-.35 3.056-.881 3.865-1.622l-.338-.37c-.706.648-1.997 1.157-3.63 1.502-1.622.343-3.541.516-5.465.516s-3.844-.173-5.466-.516c-1.633-.345-2.924-.854-3.63-1.501l-.338.369zm18.948-.185c0-.35 0-.98-.069-2.097l-.499.03c.068 1.104.068 1.723.068 2.067h.5zm-.069-2.098c-.072-1.09-.512-2.178-1.672-2.645l-.186.463c.907.366 1.293 1.222 1.36 2.215l.498-.033zm-1.68-2.649c-.463-.166-1.41-.643-2.26-1.087a95.836 95.836 0 01-1.436-.77l-.093-.052-.025-.013-.006-.003-.001-.001-.122.218-.12.22h.002l.006.004.025.014a35.31 35.31 0 00.436.237c.287.155.68.366 1.103.588.838.44 1.82.935 2.321 1.116l.17-.47zm-3.83-1.93c-.114-.058-.157-.13-.173-.189a.305.305 0 01.032-.218.32.32 0 01.164-.152c.058-.021.132-.024.224.027l.245-.436a.755.755 0 00-.643-.06.82.82 0 00-.432.387.805.805 0 00-.074.58c.056.21.202.39.432.507l.225-.447zm.37-.75l-.115.222.002.001.006.003.024.013.091.047a219.906 219.906 0 001.412.718c.825.416 1.78.888 2.27 1.1l.198-.46c-.474-.204-1.414-.669-2.243-1.086-.413-.208-.796-.403-1.075-.546l-.333-.17-.091-.048-.024-.012-.006-.003h-.001v-.001l-.116.222zm3.699 2.107c1.321.508 1.911 1.713 2.045 3.19l.498-.044c-.143-1.577-.792-3.009-2.364-3.612l-.179.466zm2.044 3.178a97.58 97.58 0 01.067 2.219l.001.1v.031h.5v-.137a98.433 98.433 0 00-.068-2.233l-.5.02zm.068 2.35a.56.56 0 01-.06.228c-.01.021-.013.022-.005.014l.357.35a.745.745 0 00.153-.28c.03-.094.055-.208.055-.312h-.5zm-.075.252c-.74.843-2.154 1.504-3.96 1.952-1.795.446-3.936.67-6.081.67-2.146 0-4.286-.224-6.081-.67-1.806-.448-3.22-1.11-3.96-1.952l-.376.33c.844.961 2.383 1.653 4.215 2.108 1.843.457 4.025.684 6.202.684 2.176 0 4.358-.227 6.201-.684 1.832-.455 3.372-1.147 4.216-2.108l-.376-.33zm-20.093-.011c.008.008.005.007-.006-.014a.558.558 0 01-.06-.227h-.5c0 .104.025.218.056.313a.738.738 0 00.155.28l.355-.352zm-.315-.24h.25v-.031c0-.021 0-.054.002-.098.002-.09.006-.227.015-.416.017-.378.051-.965.12-1.795l-.498-.041c-.07.835-.104 1.429-.122 1.814a20.098 20.098 0 00-.017.53v.035h.25zm.387-2.35c.066-1.459.717-2.669 2.044-3.179l-.179-.466c-1.565.601-2.293 2.028-2.364 3.623l.5.023zm2.06-3.185a90.84 90.84 0 002.204-1.097l1.07-.547.332-.171.091-.047.024-.013a.153.153 0 00.006-.003h.002l-.114-.223-.115-.222h-.002a.433.433 0 00-.006.004l-.024.012-.091.047a280.709 280.709 0 01-1.4.717c-.82.418-1.745.884-2.187 1.09l.21.453zm11.16-11.565c.842.784 1.366 1.966 1.366 3.217h.5c0-1.386-.58-2.702-1.526-3.583l-.34.366zm1.366 3.217v2.499h.5V16.33h-.5zm0 2.499c0 1.252-.524 2.434-1.367 3.218l.341.366c.947-.88 1.526-2.197 1.526-3.584h-.5zm-1.377 3.228c-1.76 1.84-4.629 1.844-6.461-.003l-.355.352c2.024 2.04 5.217 2.046 7.177-.003l-.36-.346zm-6.461-.003c-.782-.786-1.306-1.973-1.306-3.225h-.5c0 1.386.578 2.698 1.45 3.577l.356-.352zm-1.306-3.225V16.33h-.5v2.499h.5zm0-2.499c0-1.251.524-2.438 1.306-3.224l-.355-.352c-.873.879-1.45 2.191-1.45 3.576h.5zm1.306-3.224c1.832-1.847 4.701-1.843 6.461-.003l.361-.346c-1.96-2.049-5.153-2.044-7.177-.003l.355.352z" fill="#00A6DA"/></g></svg>