<svg width="46" height="46" fill="none" xmlns="http://www.w3.org/2000/svg"><mask id="a" maskUnits="userSpaceOnUse" x="0" y="0" width="46" height="46"><path fill-rule="evenodd" clip-rule="evenodd" d="M0 23c0 12.702 10.298 23 23 23s23-10.298 23-23S35.702 0 23 0 0 10.298 0 23z" fill="#fff"/></mask><g mask="url(#a)"><path fill-rule="evenodd" clip-rule="evenodd" d="M-4.51 50.51h55.02V-4.51H-4.51v55.02z" fill="#C5E7F1"/><path fill-rule="evenodd" clip-rule="evenodd" d="M21.765 27.93a.189.189 0 01-.19.189h-3.854a.188.188 0 010-.377h3.855c.105 0 .189.085.189.189zm-4.232-3.066c0-.103.084-.188.188-.188h6.938a.188.188 0 110 .375h-6.938a.188.188 0 01-.188-.187zm0-3.067c0-.103.084-.187.188-.187h11.562a.188.188 0 110 .375H17.721a.188.188 0 01-.188-.188zm7.72 11.325c.323-.258.642-.62.657-1.06v-2.784a2.751 2.751 0 012.755-2.74h2.37a1.852 1.852 0 001.425-.563c-.48 3.74-3.446 6.68-7.207 7.147zm-6.57.062c-2.325-.004-4.207-1.88-4.206-4.191v-8.258c-.001-2.312 1.88-4.188 4.205-4.19h9.64c2.325.002 4.207 1.878 4.206 4.19v4.538c-.108.188-.566.939-1.475.89h-2.389a3.127 3.127 0 00-3.132 3.115v2.776c-.017.51-.74.964-1.073 1.125h-.22l-5.557.005zm14.211-7.834a.174.174 0 000-.091v-4.524c.001-2.514-2.043-4.557-4.571-4.566h-9.64c-2.533.003-4.584 2.047-4.583 4.566v8.258c-.001 2.519 2.05 4.563 4.582 4.566h5.771a.134.134 0 00.038 0 .11.11 0 00.034 0c4.511-.155 8.15-3.724 8.37-8.209z" fill="#00A6DA"/><path d="M25.253 33.122l-.312-.39-1.382 1.104 1.756-.218-.062-.496zm.657-1.06l.5.016v-.016h-.5zm0-2.784l-.5-.001h.5zm2.755-2.74v-.5h-.001v.5zm2.37 0l.025-.5h-.024v.5zm1.425-.563l.496.064.192-1.5-1.048 1.09.36.346zm-13.778 7.209v.5-.5zm-4.205-4.191h.5-.5zm0-8.258h.5-.5zm4.205-4.19v-.5.5zm9.64 0l.001-.5v.5zm4.206 4.19h-.5.5zm0 4.538l.434.248.066-.115v-.133h-.5zm-1.475.89l.027-.5h-.027v.5zm-2.389 0v-.5.5zm-3.132 3.115h-.5.5zm0 2.776l.5.016v-.016h-.5zm-1.073 1.125v.5h.115l.103-.05-.218-.45zm-.22 0v-.5h-.001v.5zm8.655-7.829l-.483-.128-.014.05-.002.054.5.024zm0-.091h-.5v.067l.018.065.482-.132zm0-4.524h-.5.5zm-4.571-4.566l.001-.5h-.002v.5zm-9.64 0v-.5h-.001v.5zM14.1 20.735h.5-.5zm0 8.258h.5-.5zm4.582 4.566v.5-.5zm5.77 0l.071-.495-.035-.005h-.035v.5zm.039 0l.075-.494-.072-.011-.073.01.07.495zm.034 0l-.017-.5-.03.002-.029.004.076.494zm-3.26-5.628a.31.31 0 01.31-.312v1a.69.69 0 00.69-.688h-1zm.31-.312h-3.854v1h3.855v-1zm-3.854 0c.173 0 .312.14.312.312h-1c0 .379.307.688.688.688v-1zm.312.312a.31.31 0 01-.312.311v-1a.69.69 0 00-.688.689h1zm-.312.311h3.855v-1H17.72v1zm3.855 0a.311.311 0 01-.311-.311h1a.689.689 0 00-.69-.689v1zm-3.543-3.378a.312.312 0 01-.312.312v-1a.69.69 0 00-.688.688h1zm-.312.312h6.938v-1h-6.938v1zm6.938 0a.312.312 0 01-.312-.312h1a.688.688 0 00-.688-.688v1zm-.312-.312c0-.175.142-.313.312-.313v1a.688.688 0 00.688-.687h-1zm.312-.313h-6.938v1h6.938v-1zm-6.938 0c.17 0 .312.138.312.313h-1c0 .382.31.688.688.688v-1zm.312-2.754a.312.312 0 01-.312.313v-1a.688.688 0 00-.688.687h1zm-.312.313h11.562v-1H17.721v1zm11.562 0a.312.312 0 01-.312-.313h1a.688.688 0 00-.688-.687v1zm-.312-.313c0-.173.141-.312.312-.312v1c.38 0 .688-.306.688-.688h-1zm.312-.312H17.721v1h11.562v-1zm-11.562 0c.171 0 .312.14.312.312h-1c0 .381.31.688.688.688v-1zm7.845 12.027c.346-.277.821-.762.843-1.434l-1-.033c-.006.21-.17.448-.468.686l.625.781zm.844-1.45v-2.784h-1v2.784h1zm0-2.783a2.251 2.251 0 012.255-2.24l-.001-1a3.251 3.251 0 00-3.255 3.238l1 .002zm2.255-2.24h2.37v-1h-2.37v1zm2.346-.001a2.352 2.352 0 001.81-.716l-.721-.694c-.27.28-.65.43-1.04.41l-.049 1zm.953-1.127c-.451 3.511-3.237 6.275-6.772 6.715l.123.992c3.985-.495 7.131-3.612 7.64-7.58l-.991-.127zm-13.281 6.773c-2.05-.003-3.707-1.657-3.706-3.691h-1c-.001 2.59 2.107 4.687 4.704 4.69l.002-1zm-3.706-3.691v-8.258h-1v8.258h1zm0-8.258a3.7 3.7 0 013.706-3.69l-.001-1c-2.598.003-4.706 2.1-4.705 4.69h1zm3.705-3.69h9.64v-1h-9.64v1zm9.64 0c2.05.002 3.707 1.656 3.706 3.69h1c0-2.59-2.107-4.687-4.705-4.69l-.001 1zm3.706 3.69v4.204h1v-4.204h-1zm0 4.204v.334h1v-.334h-1zm.066.085c-.107.186-.426.671-1.014.64l-.054.998c1.23.066 1.827-.95 1.936-1.14l-.868-.497zm-1.041.639h-2.389v1h2.389v-1zm-2.39 0a3.627 3.627 0 00-3.63 3.614l1 .001a2.627 2.627 0 012.632-2.615l-.001-1zm-3.63 3.615v2.776h1v-2.776h-1zm0 2.759c-.002.036-.046.156-.25.335a2.66 2.66 0 01-.542.358l.436.9c.195-.095.5-.272.767-.507.245-.216.572-.579.588-1.053l-1-.033zm-.574.642h-.22v1h.22v-1zm-.221 0l-5.556.005v1l5.557-.005-.001-1zm9.14-7.2a.676.676 0 00-.002-.353l-.964.265a.325.325 0 01-.001-.17l.966.258zm.016-.22v-.32h-1v.32h1zm0-.32v-4.204h-1v4.204h1zm0-4.204c.001-2.792-2.268-5.056-5.07-5.066l-.003 1c2.255.008 4.074 1.83 4.073 4.066h1zm-5.071-5.066h-9.64v1h9.64v-1zm-9.641 0c-2.806.003-5.083 2.269-5.082 5.066h1c-.001-2.24 1.824-4.063 4.083-4.066l-.001-1zM13.6 20.735v8.258h1v-8.258h-1zm0 8.257c-.001 2.798 2.276 5.063 5.082 5.067v-1c-2.258-.003-4.083-1.826-4.082-4.066h-1zm5.082 5.067h5.556v-1h-5.556v1zm5.556 0h.215v-1h-.215v1zm.145-.005a.59.59 0 00.178 0l-.14-.99a.36.36 0 01.102 0l-.14.99zm.032 0a.644.644 0 00.186 0l-.151-.99a.396.396 0 01.116 0l-.15.99zm.127.005c4.77-.164 8.62-3.938 8.852-8.684l-1-.05c-.205 4.224-3.632 7.588-7.886 7.735l.034.999z" fill="#00A6DA"/></g></svg>