<svg width="39" height="39" fill="none" xmlns="http://www.w3.org/2000/svg"><path fill-rule="evenodd" clip-rule="evenodd" d="M19.5 39C30.27 39 39 30.27 39 19.5S30.27 0 19.5 0 0 8.73 0 19.5 8.73 39 19.5 39z" fill="#C5E7F1"/><path fill-rule="evenodd" clip-rule="evenodd" d="M13.293 18.974a.521.521 0 00.384-.382 6.169 6.169 0 01.767-1.96.433.433 0 00-.049-.525l-1.006-1.243 1.198-1.243 1.294.956c.144.095.336.095.528 0 .575-.43 1.245-.669 1.916-.86.24-.048.383-.24.383-.43l.192-1.577 1.726-.048.239 1.577c0 .19.143.382.383.43a5.808 5.808 0 011.965.765.437.437 0 00.527-.048l1.15-1.1 1.247 1.196-.96 1.29c-.095.143-.095.335 0 .525.432.574.672 1.243.864 1.913a.453.453 0 00.43.382l1.582.19.048 1.722-1.582.238a.52.52 0 00-.382.383 6.19 6.19 0 01-.767 1.96.434.434 0 00.047.525l1.007 1.242-1.199 1.243-1.293-.956a.521.521 0 00-.527 0c-.575.43-1.246.67-1.917.86-.24.049-.384.24-.384.431l-.192 1.577-1.724.048-.24-1.578a.519.519 0 00-.383-.382 6.215 6.215 0 01-1.965-.764c-.048-.048-.144-.048-.24-.048s-.191 0-.191.143l-1.246 1.004-1.246-1.195.959-1.29c.095-.144.095-.335 0-.526-.432-.573-.671-1.242-.863-1.912-.049-.24-.24-.383-.432-.383l-1.581-.19-.048-1.721 1.582-.239zm-2.108 2.724l1.678.192c.191.573.43 1.099.718 1.625L12.575 24.9c-.144.191-.144.477.048.62l1.82 1.77c.144.19.432.19.623.047l1.343-1.051c.526.287 1.053.525 1.628.669l.24 1.672c.048.24.24.43.48.43H21.2c.24 0 .432-.19.48-.43l.191-1.672a9.947 9.947 0 001.63-.718l1.39 1.004c.191.144.479.144.622-.048l1.773-1.816c.192-.143.192-.43.048-.62l-1.054-1.339c.287-.526.527-1.052.67-1.625l1.678-.24c.24-.046.431-.238.431-.477l-.047-2.533c0-.239-.192-.43-.432-.478l-1.677-.191a9.838 9.838 0 00-.719-1.625l1.006-1.386c.144-.192.144-.478-.047-.622l-1.822-1.768c-.143-.19-.43-.19-.623-.047l-1.341 1.05c-.527-.286-1.054-.525-1.63-.668l-.24-1.673c-.047-.239-.239-.43-.479-.43l-2.539.048c-.24 0-.432.19-.48.43l-.19 1.672a9.947 9.947 0 00-1.63.717l-1.342-1.003c-.191-.143-.479-.143-.623.047l-1.725 1.769c-.192.143-.192.43-.048.621l1.054 1.338c-.287.526-.527 1.052-.67 1.625l-1.678.24c-.24.047-.43.238-.43.477l.047 2.534c0 .238.191.43.431.477z" fill="#00A6DA"/><path fill-rule="evenodd" clip-rule="evenodd" d="M17.003 19.686c.049-.686.342-1.275.783-1.764.538-.54 1.272-.883 2.006-.883h.049c.734 0 1.418.294 1.86.833.537.54.88 1.275.88 2.01 0 .735-.245 1.47-.783 2.01-.44.44-1.076.784-1.712.833a2.733 2.733 0 01-2.251-.784c-.588-.589-.88-1.422-.832-2.255m2.838 4.02c.098 0 .245-.05.44-.05a3.933 3.933 0 002.349-1.127c.733-.735 1.076-1.666 1.076-2.696-.05-1.03-.44-2.01-1.174-2.696-.734-.736-1.664-1.078-2.691-1.078-1.028.048-2.006.441-2.692 1.176a3.63 3.63 0 00-1.075 2.353c-.098 1.128.293 2.255 1.125 3.039.733.686 1.664 1.079 2.642 1.079" fill="#00A6DA"/></svg>