<svg xmlns="http://www.w3.org/2000/svg" width="23" height="23"><path d="M13.151 23h-3.062a.639.639 0 01-.6-.54l-.3-2.1a8.484 8.484 0 01-2.042-.839l-1.682 1.322a.643.643 0 01-.383.128.481.481 0 01-.4-.188L2.4 18.567a.558.558 0 01-.059-.778L3.6 16.052a12.4 12.4 0 01-.9-2.036l-2.1-.24a.637.637 0 01-.541-.6L0 10a.638.638 0 01.54-.6l2.1-.3a8.463 8.463 0 01.842-2.036l-1.32-1.673a.651.651 0 01-.129-.4.477.477 0 01.189-.377L4.383 2.4a.486.486 0 01.4-.188.643.643 0 01.383.128l1.68 1.257a12.561 12.561 0 012.042-.9L9.128.6a.633.633 0 01.6-.539L12.911 0a.64.64 0 01.6.539l.3 2.1a8.465 8.465 0 012.041.838l1.682-1.318a.644.644 0 01.382-.128.484.484 0 01.4.187L20.6 4.432a.469.469 0 01.183.317.637.637 0 01-.123.462L19.4 6.948a12.37 12.37 0 01.9 2.037l2.1.239a.639.639 0 01.541.6L23 13a.639.639 0 01-.541.6l-2.1.3a8.518 8.518 0 01-.841 2.038l1.321 1.677a.635.635 0 01.123.462.467.467 0 01-.183.316l-2.222 2.276a.483.483 0 01-.4.189.641.641 0 01-.382-.128l-1.741-1.257a12.438 12.438 0 01-2.042.9l-.24 2.1a.64.64 0 01-.601.527zm-6.065-4.732a.453.453 0 01.3.06 7.832 7.832 0 002.462.958.649.649 0 01.48.479l.3 1.977 2.162-.06.24-1.976a.573.573 0 01.481-.539 7.311 7.311 0 002.4-1.078.653.653 0 01.661 0l1.621 1.2 1.5-1.557-1.263-1.558a.546.546 0 01-.059-.659 7.77 7.77 0 00.961-2.455.65.65 0 01.48-.48l1.983-.3-.06-2.156-1.982-.239a.57.57 0 01-.54-.479 7.253 7.253 0 00-1.082-2.4.648.648 0 010-.659l1.2-1.616-1.562-1.5-1.435 1.381a.512.512 0 01-.367.144.535.535 0 01-.294-.083 7.277 7.277 0 00-2.462-.958.571.571 0 01-.481-.539l-.3-1.977-2.163.06-.24 1.975a.571.571 0 01-.481.54 7.287 7.287 0 00-2.4 1.078.792.792 0 01-.352.089.552.552 0 01-.308-.089l-1.622-1.2-1.5 1.557 1.259 1.559a.543.543 0 01.061.659 7.733 7.733 0 00-.961 2.456.654.654 0 01-.481.479l-1.982.3.059 2.156 1.982.239a.566.566 0 01.541.48 7.246 7.246 0 001.082 2.4.647.647 0 010 .659l-1.2 1.616 1.561 1.5 1.561-1.258c-.001-.186.122-.186.24-.186z" fill="#00a6da"/><path d="M11.45 16a4.56 4.56 0 01-3.108-1.27 4.353 4.353 0 01-1.325-3.576 4.273 4.273 0 011.266-2.77A4.567 4.567 0 0111.45 7a4.308 4.308 0 013.168 1.269A4.593 4.593 0 0116 11.442a4.331 4.331 0 01-1.267 3.173 4.64 4.64 0 01-2.763 1.327 1.984 1.984 0 00-.346.036 1.117 1.117 0 01-.174.022zm-.056-7.846a3.359 3.359 0 00-3.283 3.115 3.463 3.463 0 00.979 2.654 3.238 3.238 0 002.275.945 3.193 3.193 0 00.374-.022 3.279 3.279 0 002.937-3.346 3.408 3.408 0 00-1.037-2.365 2.8 2.8 0 00-2.189-.981z" fill="#00a6da"/></svg>