<svg xmlns="http://www.w3.org/2000/svg" width="3" height="123"><g transform="translate(-494 -3327)" fill="#bdbdbd"><circle cx="1.5" cy="1.5" r="1.5" transform="translate(494 3327)"/><circle cx="1.5" cy="1.5" r="1.5" transform="translate(494 3333)"/><circle cx="1.5" cy="1.5" r="1.5" transform="translate(494 3339)"/><circle cx="1.5" cy="1.5" r="1.5" transform="translate(494 3345)"/><circle cx="1.5" cy="1.5" r="1.5" transform="translate(494 3351)"/><circle cx="1.5" cy="1.5" r="1.5" transform="translate(494 3357)"/><circle cx="1.5" cy="1.5" r="1.5" transform="translate(494 3363)"/><circle cx="1.5" cy="1.5" r="1.5" transform="translate(494 3369)"/><circle cx="1.5" cy="1.5" r="1.5" transform="translate(494 3375)"/><circle cx="1.5" cy="1.5" r="1.5" transform="translate(494 3381)"/><circle cx="1.5" cy="1.5" r="1.5" transform="translate(494 3387)"/><circle cx="1.5" cy="1.5" r="1.5" transform="translate(494 3393)"/><circle cx="1.5" cy="1.5" r="1.5" transform="translate(494 3399)"/><circle cx="1.5" cy="1.5" r="1.5" transform="translate(494 3405)"/><circle cx="1.5" cy="1.5" r="1.5" transform="translate(494 3411)"/><circle cx="1.5" cy="1.5" r="1.5" transform="translate(494 3417)"/><circle cx="1.5" cy="1.5" r="1.5" transform="translate(494 3423)"/><circle cx="1.5" cy="1.5" r="1.5" transform="translate(494 3429)"/><circle cx="1.5" cy="1.5" r="1.5" transform="translate(494 3435)"/><circle cx="1.5" cy="1.5" r="1.5" transform="translate(494 3441)"/><circle cx="1.5" cy="1.5" r="1.5" transform="translate(494 3447)"/></g></svg>