<svg xmlns="http://www.w3.org/2000/svg" width="57" height="3"><g transform="translate(-456 -797)" fill="#bdbdbd"><circle cx="1.5" cy="1.5" r="1.5" transform="rotate(180 256.5 400)"/><circle cx="1.5" cy="1.5" r="1.5" transform="rotate(180 253.5 400)"/><circle cx="1.5" cy="1.5" r="1.5" transform="rotate(180 250.5 400)"/><circle cx="1.5" cy="1.5" r="1.5" transform="rotate(180 247.5 400)"/><circle cx="1.5" cy="1.5" r="1.5" transform="rotate(180 244.5 400)"/><circle cx="1.5" cy="1.5" r="1.5" transform="rotate(180 241.5 400)"/><circle cx="1.5" cy="1.5" r="1.5" transform="rotate(180 238.5 400)"/><circle cx="1.5" cy="1.5" r="1.5" transform="rotate(180 235.5 400)"/><circle cx="1.5" cy="1.5" r="1.5" transform="rotate(180 232.5 400)"/><circle cx="1.5" cy="1.5" r="1.5" transform="rotate(180 229.5 400)"/></g></svg>