<svg xmlns="http://www.w3.org/2000/svg" width="28" height="28"><defs><clipPath id="a"><path d="M0 0h28v13.774H0z" fill="none"/></clipPath></defs><path d="M0 14.226h28V28H0z" fill="none"/><g clip-path="url(#a)" transform="translate(0 14.226)"><path d="M27.2.123a.81.81 0 00-.8.823v7.49a3.646 3.646 0 01-3.595 3.69H5.2a3.649 3.649 0 01-3.6-3.69V.825A.811.811 0 00.8 0a.811.811 0 00-.8.825v7.611a5.275 5.275 0 005.2 5.339h17.6A5.278 5.278 0 0028 8.436V.947a.814.814 0 00-.8-.823" fill="#3fa5f3"/></g><path d="M13.212 19.76a.722.722 0 00.523.24.7.7 0 00.526-.24l4.752-5.146a.857.857 0 000-1.146.709.709 0 00-1.059 0l-3.469 3.767V.808a.776.776 0 00-.75-.808.776.776 0 00-.748.808v16.427l-3.475-3.767a.706.706 0 00-1.057 0 .854.854 0 000 1.146z" fill="#3fa5f3"/></svg>