<svg xmlns="http://www.w3.org/2000/svg" width="20" height="18"><defs><clipPath id="a"><path d="M0 0h20v10H0z" fill="none"/></clipPath></defs><g transform="translate(0 8)" clip-path="url(#a)"><path d="M19.427.089a.584.584 0 00-.574.6v5.435A2.627 2.627 0 0116.285 8.8H3.713a2.629 2.629 0 01-2.568-2.676V.6A.584.584 0 00.573 0 .584.584 0 000 .6v5.524A3.8 3.8 0 003.713 10h12.572A3.8 3.8 0 0020 6.124V.687a.586.586 0 00-.573-.6" fill="#3fa5f3"/></g><path d="M9.167 13.832A.442.442 0 009.5 14a.429.429 0 00.334-.168l3.024-3.6a.645.645 0 000-.8.425.425 0 00-.674 0l-2.207 2.632V.566A.524.524 0 009.5 0a.524.524 0 00-.476.566v11.5L6.813 9.428a.423.423 0 00-.672 0 .643.643 0 000 .8z" fill="#3fa5f3"/></svg>