<svg xmlns="http://www.w3.org/2000/svg" width="14" height="19"><path d="M11.678 19H2.322A2.414 2.414 0 010 16.508V2.492A2.414 2.414 0 012.322 0h6.893a.415.415 0 01.308.147l4.353 4.91a.514.514 0 01.124.321v11.13A2.414 2.414 0 0111.678 19zM2.318.9A1.547 1.547 0 00.849 2.481v14.038A1.547 1.547 0 002.318 18.1h9.364a1.528 1.528 0 001.47-1.577v-10.7H10.67A1.95 1.95 0 018.794 3.81V.9zm7.015.453v2.422a1.131 1.131 0 001.04 1.2H12.3z" fill="#00a6da"/><path d="M10.562 15H3.433a.472.472 0 00-.433.5.472.472 0 00.433.5h7.134a.472.472 0 00.433-.5.472.472 0 00-.438-.5z" fill="#00a6da"/><path data-name="Path" d="M3.892 10.609L5.995 8.6v4.947a.486.486 0 00.51.453.486.486 0 00.51-.453V8.6l2.1 2.006a.552.552 0 00.72.023.416.416 0 00.026-.638L6.873 7.145a.551.551 0 00-.745 0L3.137 9.993a.416.416 0 00.025.638.569.569 0 00.73-.022z" fill="#00a6da"/></svg>