<svg width="23" height="21" fill="none" xmlns="http://www.w3.org/2000/svg"><path fill-rule="evenodd" clip-rule="evenodd" d="M1.7 19.284V1.716h6.47l1.75 2.51h.004l1.642 2.348a.35.35 0 00.284.15v.011h9.45v12.547H1.7zM21.3 4.226v1.792h-9.263l-1.252-1.793H21.3zm-11.017-.718l-1.615-2.31L8.53 1H1v19h21V3.51H10.284z" fill="#00A6DA"/><path d="M1.7 19.284h-.15v.15h.15v-.15zm0-17.567v-.15h-.15v.15h.15zm6.47 0l.123-.086-.045-.064h-.079v.15zm1.75 2.51l-.124.085.045.064h.079v-.15zm.004 0l.123-.086-.045-.064h-.078v.15zm1.642 2.348l-.123.086.123-.086zm.284.15H12v-.149h-.15v.15zm0 .011h-.15v.15h.15v-.15zm9.45 0h.15v-.15h-.15v.15zm0 12.547v.15h.15v-.15h-.15zm0-15.057h.15v-.15h-.15v.15zm0 1.793v.15h.15v-.15h-.15zm-9.263 0l-.123.086.045.064h.079v-.15zm-1.252-1.793v-.15h-.288l.165.236.123-.086zm-.502-.716l-.122.085.044.064h.079v-.15zM8.668 1.196l-.124.085.123-.085zM8.53 1l.123-.086L8.609.85H8.53V1zM1 1V.85H.85V1H1zm0 19H.85v.15H1V20zm21 0v.15h.15V20H22zm0-16.49h.15v-.15H22v.15zM1.85 19.283V1.716h-.3v17.567h.3zM1.7 1.866h6.47v-.3H1.7v.3zm6.346-.064l1.75 2.51.247-.172-1.75-2.51-.247.172zM9.92 4.377h.005v-.3H9.92v.3zm-.118-.065l1.642 2.35.245-.173-1.641-2.348-.246.171zm1.642 2.35a.5.5 0 00.406.213l.002-.3a.2.2 0 01-.163-.086l-.245.173zm.257.063v.011h.3v-.01h-.3zm.15.161h9.45v-.3h-9.45v.3zm9.3-.15v12.547h.3V6.736h-.3zm.15 12.398H1.7v.3h19.6v-.3zm-.15-14.908V6.02h.3V4.226h-.3zm.15 1.643h-9.263v.3H21.3v-.3zm-9.14.064l-1.252-1.792-.246.171 1.252 1.793.247-.172zm-1.375-1.556H21.3v-.3H10.785v.3zm-.379-.953L8.79 1.11l-.245.172 1.616 2.312.245-.171zM8.791 1.11L8.654.914l-.247.172.137.196.247-.171zM8.53.85H1v.3h7.53v-.3zM.85 1v19h.3V1h-.3zM1 20.15h21v-.3H1v.3zM22.15 20V3.51h-.3V20h.3zM22 3.36H10.284v.3H22v-.3z" fill="#00A6DA"/></svg>