<svg width="43" height="43" fill="none" xmlns="http://www.w3.org/2000/svg"><path fill-rule="evenodd" clip-rule="evenodd" d="M21.5 43C33.374 43 43 33.374 43 21.5S33.374 0 21.5 0 0 9.626 0 21.5 9.626 43 21.5 43z" fill="#C5E7F1"/><path fill-rule="evenodd" clip-rule="evenodd" d="M28.557 18.68a1.69 1.69 0 01-1.682-1.692 1.69 1.69 0 011.682-1.692 1.69 1.69 0 011.683 1.692 1.69 1.69 0 01-1.683 1.693m.534 2.153c0 3.023-1.916 5.75-4.708 6.784a2.64 2.64 0 00-2.47-1.734 2.643 2.643 0 00-2.472 1.733c-2.793-1.032-4.707-3.758-4.707-6.783 0-.413.035-.826.104-1.232.146.025.295.041.448.041a2.65 2.65 0 002.638-2.655c0-.645-.23-1.238-.612-1.698a7.118 7.118 0 014.6-1.68 7.12 7.12 0 014.611 1.689 2.652 2.652 0 00-.604 1.689 2.65 2.65 0 002.638 2.655c.147 0 .29-.015.43-.038.068.404.104.817.104 1.229m-7.178 9.399a1.69 1.69 0 01-1.683-1.693 1.69 1.69 0 011.683-1.693c.926 0 1.68.76 1.68 1.693a1.69 1.69 0 01-1.68 1.693m-6.627-14.937c.927 0 1.68.759 1.68 1.692 0 .933-.753 1.693-1.68 1.693a1.69 1.69 0 01-1.683-1.693 1.69 1.69 0 011.683-1.692m15.91 1.692a2.65 2.65 0 00-2.639-2.656c-.467 0-.906.124-1.288.34a8.065 8.065 0 00-5.356-2.025 8.07 8.07 0 00-5.349 2.02 2.614 2.614 0 00-1.278-.335 2.65 2.65 0 00-2.639 2.656c0 .965.515 1.81 1.283 2.274a8.283 8.283 0 00-.153 1.573c0 3.487 2.244 6.623 5.499 7.747a2.647 2.647 0 002.637 2.614 2.649 2.649 0 002.636-2.614c3.253-1.123 5.499-4.263 5.499-7.747a8.25 8.25 0 00-.151-1.562 2.66 2.66 0 001.299-2.285" fill="#00A6DA"/><path d="M24.383 27.618l-.14.052.051.14.141-.051-.052-.141zm-4.942-.001l-.052.14.14.052.053-.14-.14-.052zm-4.602-8.015l.025-.148-.148-.025-.025.148.147.025zm2.473-4.312l-.097-.115-.113.096.094.114.116-.095zm9.211.009l.116.095.094-.115-.113-.095-.097.115zm2.464 4.306l.148-.025-.025-.147-.148.024.025.148zm-1.718-4.933l-.1.113.08.07.094-.052-.074-.13zm-10.705-.006l-.073.131.093.052.08-.07-.1-.113zm-2.634 4.596l.147.028.02-.102-.09-.054-.077.128zm5.346 9.32l.15-.002-.002-.105-.099-.035-.049.142zm5.273 0l-.049-.142-.1.035v.105l.15.002zm5.348-9.31l-.077-.128-.09.054.02.103.146-.028zm-1.34-.741a1.54 1.54 0 01-1.532-1.543h-.3a1.84 1.84 0 001.832 1.843v-.3zm-1.532-1.543a1.54 1.54 0 011.532-1.542v-.3a1.84 1.84 0 00-1.832 1.842h.3zm1.532-1.542a1.54 1.54 0 011.533 1.542h.3a1.84 1.84 0 00-1.833-1.842v.3zm1.533 1.542a1.54 1.54 0 01-1.533 1.543v.3a1.84 1.84 0 001.833-1.843h-.3zm-1.15 3.846c0 2.96-1.876 5.632-4.609 6.643l.104.282c2.85-1.056 4.806-3.839 4.806-6.925h-.3zm-4.416 6.732a2.79 2.79 0 00-2.611-1.832v.3a2.49 2.49 0 012.33 1.636l.28-.104zm-2.611-1.832a2.793 2.793 0 00-2.613 1.83l.282.105a2.493 2.493 0 012.33-1.635v-.3zm-2.42 1.742c-2.734-1.01-4.61-3.68-4.61-6.642h-.3c0 3.088 1.954 5.87 4.806 6.924l.104-.282zm-4.61-6.642c0-.405.036-.81.103-1.206l-.295-.05a7.412 7.412 0 00-.107 1.256h.3zm-.07-1.084a2.8 2.8 0 00.473.043v-.3a2.5 2.5 0 01-.422-.038l-.05.295zm.473.043a2.8 2.8 0 002.788-2.805h-.3a2.5 2.5 0 01-2.489 2.505v.3zm2.788-2.805a2.8 2.8 0 00-.647-1.794l-.23.191c.36.435.577.994.577 1.603h.3zm-.666-1.584a6.968 6.968 0 014.505-1.645v-.3c-1.73 0-3.381.607-4.698 1.716l.194.23zm4.505-1.645a6.97 6.97 0 014.513 1.654l.194-.23a7.27 7.27 0 00-4.707-1.723v.3zm4.494 1.444a2.802 2.802 0 00-.638 1.785h.3a2.5 2.5 0 01.57-1.594l-.232-.19zm-.638 1.785a2.8 2.8 0 002.788 2.805v-.3a2.5 2.5 0 01-2.488-2.505h-.3zm2.788 2.805c.157 0 .308-.016.454-.04l-.049-.296a2.506 2.506 0 01-.405.036v.3zm.282-.163c.067.396.102.8.102 1.204h.3c0-.421-.037-.841-.106-1.254l-.296.05zm-6.926 10.453a1.54 1.54 0 01-1.533-1.543h-.3a1.84 1.84 0 001.833 1.843v-.3zM20.38 28.54a1.54 1.54 0 011.533-1.543v-.3a1.84 1.84 0 00-1.833 1.843h.3zm1.533-1.543a1.54 1.54 0 011.53 1.543h.3a1.84 1.84 0 00-1.83-1.843v.3zm1.53 1.543a1.54 1.54 0 01-1.53 1.543v.3a1.84 1.84 0 001.83-1.843h-.3zm-8.158-13.094c.844 0 1.532.69 1.532 1.542h.3c0-1.015-.82-1.842-1.832-1.842v.3zm1.532 1.542a1.54 1.54 0 01-1.531 1.543v.3a1.839 1.839 0 001.83-1.843h-.3zm-1.531 1.543a1.54 1.54 0 01-1.533-1.543h-.3a1.84 1.84 0 001.833 1.843v-.3zm-1.533-1.543a1.54 1.54 0 011.533-1.542v-.3a1.84 1.84 0 00-1.833 1.842h.3zm17.593 0a2.8 2.8 0 00-2.789-2.806v.3a2.5 2.5 0 012.489 2.506h.3zm-2.789-2.806a2.76 2.76 0 00-1.362.36l.148.261c.36-.204.774-.32 1.214-.32v-.3zm-1.189.378a8.215 8.215 0 00-5.455-2.063v.3c1.947 0 3.8.703 5.257 1.988l.198-.225zm-5.455-2.063a8.22 8.22 0 00-5.448 2.057l.198.225a7.92 7.92 0 015.25-1.982v-.3zm-5.276 2.039a2.765 2.765 0 00-1.351-.354v.3c.437 0 .847.115 1.205.316l.146-.262zm-1.351-.354a2.8 2.8 0 00-2.789 2.806h.3a2.5 2.5 0 012.489-2.506v-.3zm-2.789 2.806c0 1.02.545 1.911 1.355 2.402l.155-.256a2.506 2.506 0 01-1.21-2.146h-.3zm1.285 2.245a8.438 8.438 0 00-.155 1.602h.3c0-.52.052-1.037.15-1.545l-.295-.056zm-.155 1.602c0 3.551 2.285 6.744 5.6 7.889l.098-.284c-3.194-1.102-5.398-4.181-5.398-7.605h-.3zm5.499 7.75a2.797 2.797 0 002.787 2.761v-.3a2.497 2.497 0 01-2.487-2.466l-.3.005zm2.787 2.761c1.524 0 2.762-1.236 2.786-2.761l-.3-.005a2.499 2.499 0 01-2.486 2.466v.3zm2.685-2.622c3.314-1.144 5.6-4.341 5.6-7.89h-.3c0 3.422-2.206 6.505-5.398 7.607l.098.283zm5.6-7.89c0-.535-.054-1.068-.154-1.59l-.295.057c.097.504.149 1.018.149 1.534h.3zm-.225-1.432a2.81 2.81 0 001.373-2.414h-.3a2.51 2.51 0 01-1.226 2.156l.153.258z" fill="#00A6DA"/></svg>