<svg xmlns="http://www.w3.org/2000/svg" width="22.3" height="22.3"><path d="M11.139 22.15a3.151 3.151 0 01-3.127-3.1 9.606 9.606 0 01-4.708-3.543 9.692 9.692 0 01-1.813-5.646 9.9 9.9 0 01.18-1.866 3.142 3.142 0 013.125-5.45 9.6 9.6 0 0112.7.007 3.123 3.123 0 014.654 2.746 3.174 3.174 0 01-1.541 2.711 9.823 9.823 0 01.179 1.852 9.692 9.692 0 01-1.814 5.645 9.6 9.6 0 01-4.707 3.544 3.153 3.153 0 01-3.128 3.1zm0-5.157a2.007 2.007 0 101.994 2.008 2 2 0 00-1.994-2.008zm0-1.143a3.142 3.142 0 012.93 2.057A8.605 8.605 0 0019.65 9.86a8.762 8.762 0 00-.123-1.457 3.178 3.178 0 01-.509.045 3.153 3.153 0 01-2.413-5.153 8.464 8.464 0 00-10.924-.01A3.152 3.152 0 013.279 8.45a3.109 3.109 0 01-.53-.049 8.724 8.724 0 00-.124 1.459 8.6 8.6 0 005.584 8.045 3.145 3.145 0 012.93-2.055zM19.02 3.291a2.007 2.007 0 102 2.007 2 2 0 00-2-2.007zm-15.741 0a2.007 2.007 0 101.995 2.007 2 2 0 00-1.995-2.007z" fill="#00a6da"/><path d="M11.139 22.15a3.151 3.151 0 01-3.127-3.1 9.606 9.606 0 01-4.708-3.543 9.692 9.692 0 01-1.813-5.646 9.9 9.9 0 01.18-1.866 3.142 3.142 0 013.125-5.45 9.6 9.6 0 0112.7.007 3.123 3.123 0 014.654 2.746 3.174 3.174 0 01-1.541 2.711 9.823 9.823 0 01.179 1.852 9.692 9.692 0 01-1.814 5.645 9.6 9.6 0 01-4.707 3.544 3.153 3.153 0 01-3.128 3.1zm0-5.157a2.007 2.007 0 101.994 2.008 2 2 0 00-1.994-2.008zm0-1.143a3.142 3.142 0 012.93 2.057A8.605 8.605 0 0019.65 9.86a8.762 8.762 0 00-.123-1.457 3.178 3.178 0 01-.509.045 3.153 3.153 0 01-2.413-5.153 8.464 8.464 0 00-10.924-.01A3.152 3.152 0 013.279 8.45a3.109 3.109 0 01-.53-.049 8.724 8.724 0 00-.124 1.459 8.6 8.6 0 005.584 8.045 3.145 3.145 0 012.93-2.055zM19.02 3.291a2.007 2.007 0 102 2.007 2 2 0 00-2-2.007zm-15.741 0a2.007 2.007 0 101.995 2.007 2 2 0 00-1.995-2.007z" fill="none" stroke="#00a6da" stroke-miterlimit="10" stroke-width=".3"/></svg>