<svg xmlns="http://www.w3.org/2000/svg" viewBox="0 0 78.1 67.2"><path d="M50.5 15.5H23c-2.6 0-4.8 2.1-4.8 4.7v27.5c0 2.6 2.1 4.7 4.8 4.7h27.5c2.6 0 4.8-2.1 4.8-4.7V20.3c-.1-2.7-2.2-4.8-4.8-4.8zm-5.8 5.8c0-.8.6-1.4 1.4-1.4h3.4c.8 0 1.4.6 1.4 1.4v3.4c0 .8-.6 1.4-1.4 1.4h-3.4c-.8 0-1.4-.6-1.4-1.4v-3.4zm-8 4.8c4.4 0 7.9 3.5 7.9 7.9s-3.5 7.9-7.9 7.9-7.9-3.5-7.9-7.9 3.6-7.9 7.9-7.9zm15 21.4c0 .8-.7 1.5-1.5 1.5h-27c-.8 0-1.5-.7-1.5-1.5V31.4h3.8c-.2.8-.3 1.7-.3 2.6 0 6.3 5.1 11.5 11.5 11.5 6.3 0 11.5-5.1 11.5-11.5 0-.9-.1-1.8-.3-2.6h3.8v16.1z" fill="#3b82b9"/></svg>