<svg xmlns="http://www.w3.org/2000/svg" width="51" height="51"><g transform="translate(-125 -1729)"><circle cx="25.5" cy="25.5" r="25.5" transform="translate(125 1729)" fill="#c5e7f1"/><path d="M150.5 1767h0l-13.5-7.658 4.744-2.674-4.744-2.691.3-.168-.3-.161 4.475-2.5-4.475-2.538 13.5-7.61 13.5 7.61-4.475 2.54 4.475 2.498-.3.163.3.167-4.744 2.691 4.744 2.673-13.5 7.658zm-13.2-13.191l13.329 7.191 13.071-7.19-4.444-2.51.269-.152-.269-.148-8.756 4.915h0l-8.756-4.915-.269.15.269.152z" fill="none" stroke="#00a6da" stroke-miterlimit="10" stroke-width="1.2"/></g></svg>