<svg width="23" height="23" fill="none" xmlns="http://www.w3.org/2000/svg"><path fill-rule="evenodd" clip-rule="evenodd" d="M20.826 1.594a5.027 5.027 0 00-7.102 0L9.877 5.441a.42.42 0 00.592.592l3.847-3.847a4.151 4.151 0 012.959-1.22c1.122 0 2.172.433 2.959 1.22a4.156 4.156 0 011.22 2.96 4.151 4.151 0 01-1.22 2.958l-5.03 5.032a4.192 4.192 0 01-5.92 0 .418.418 0 10-.591.592 5.012 5.012 0 003.55 1.468c1.287 0 2.573-.49 3.553-1.468l5.03-5.032a4.987 4.987 0 001.466-3.551 4.987 4.987 0 00-1.466-3.551" fill="#00A1CD"/><path clip-rule="evenodd" d="M20.826 1.594a5.027 5.027 0 00-7.102 0L9.877 5.441a.42.42 0 00.592.592l3.847-3.847a4.151 4.151 0 012.959-1.22c1.122 0 2.172.433 2.959 1.22a4.156 4.156 0 011.22 2.96 4.151 4.151 0 01-1.22 2.958l-5.03 5.032a4.192 4.192 0 01-5.92 0 .418.418 0 10-.591.592 5.012 5.012 0 003.55 1.468c1.287 0 2.573-.49 3.553-1.468l5.03-5.032a4.987 4.987 0 001.466-3.551 4.987 4.987 0 00-1.466-3.551z" stroke="#00A1CD" stroke-width=".25"/><path fill-rule="evenodd" clip-rule="evenodd" d="M11.356 16.982l-3.255 3.255a4.155 4.155 0 01-2.959 1.221 4.156 4.156 0 01-2.96-1.22 4.19 4.19 0 010-5.919l4.736-4.735a4.19 4.19 0 015.918 0 .42.42 0 00.592-.592 5.027 5.027 0 00-7.102 0L1.59 13.728a4.98 4.98 0 00-1.464 3.55c0 1.346.52 2.606 1.464 3.551a4.988 4.988 0 003.551 1.466 4.987 4.987 0 003.552-1.466l3.255-3.255a.42.42 0 00-.592-.592" fill="#00A1CD"/><path clip-rule="evenodd" d="M11.356 16.982l-3.255 3.255a4.155 4.155 0 01-2.959 1.221 4.156 4.156 0 01-2.96-1.22 4.19 4.19 0 010-5.919l4.736-4.735a4.19 4.19 0 015.918 0 .42.42 0 00.592-.592 5.027 5.027 0 00-7.102 0L1.59 13.728a4.98 4.98 0 00-1.464 3.55c0 1.346.52 2.606 1.464 3.551a4.988 4.988 0 003.551 1.466 4.987 4.987 0 003.552-1.466l3.255-3.255a.42.42 0 00-.592-.592z" stroke="#00A1CD" stroke-width=".25"/></svg>