<svg width="26" height="28" fill="none" xmlns="http://www.w3.org/2000/svg"><path fill-rule="evenodd" clip-rule="evenodd" d="M17.639 12.359a.578.578 0 00-.019.026l-5.04 6.843-4.988-6.771a.545.545 0 00-.042-.062 7.175 7.175 0 01-1.492-4.398c0-3.81 2.926-6.91 6.523-6.91 3.596 0 6.522 3.1 6.522 6.91 0 1.586-.52 3.135-1.464 4.362M12.581 0C8.418 0 5.032 3.587 5.032 7.997a8.31 8.31 0 001.688 5.04.52.52 0 00.026.039l5.43 7.37c.097.132.247.21.405.21a.503.503 0 00.404-.21l5.457-7.41.005-.007a8.315 8.315 0 001.682-5.032c0-4.41-3.386-7.997-7.548-7.997" fill="#00A6DA"/><mask id="a" maskUnits="userSpaceOnUse" x="0" y="15" width="26" height="13"><path fill-rule="evenodd" clip-rule="evenodd" d="M0 15.278h25.997V27.84H0V15.278z" fill="#fff"/></mask><g mask="url(#a)"><path fill-rule="evenodd" clip-rule="evenodd" d="M20.158 16.695c-.088.292.057.607.324.703 2.817 1.016 4.5 2.538 4.5 4.071 0 1.297-1.221 2.609-3.35 3.6-2.298 1.07-5.364 1.659-8.633 1.659-3.27 0-6.336-.59-8.634-1.66-2.129-.99-3.35-2.302-3.35-3.599 0-1.086.855-2.189 2.408-3.106 1.64-.969 3.963-1.67 6.541-1.976.279-.033-.394-.128-.424-.434-.03-.305-.035-.54-.314-.507-2.705.32-4.532.902-6.285 1.938C1.017 18.52 0 19.934 0 21.469c0 1.79 1.41 3.433 3.968 4.624 2.42 1.126 5.628 1.747 9.03 1.747 3.404 0 6.61-.62 9.031-1.747 2.56-1.191 3.968-2.833 3.968-4.624 0-2.068-1.894-3.937-5.198-5.128-.266-.096-.553.063-.641.354z" fill="#00A6DA"/></g><path fill-rule="evenodd" clip-rule="evenodd" d="M14.694 16.894c-.274-.024-.434.37-.455.676-.021.305-.351.578-.078.602 3.246.283 4.974 1.343 4.974 2 0 .316-.452.854-1.725 1.328-1.283.477-2.998.74-4.83.74-1.83 0-3.546-.263-4.828-.74-1.274-.474-1.726-1.012-1.726-1.328 0-.29.352-.654.94-.976.247-.135.349-.467.228-.742-.12-.276-.418-.39-.665-.255-1.237.676-1.497 1.446-1.497 1.973 0 2.086 3.798 3.178 7.549 3.178 3.75 0 7.548-1.092 7.548-3.178 0-1.913-3.173-2.87-5.89-3.107l.455-.171z" fill="#00A6DA"/><path clip-rule="evenodd" d="M12.5 12a3.5 3.5 0 100-7 3.5 3.5 0 000 7z" stroke="#00A6DA"/></svg>