<svg xmlns="http://www.w3.org/2000/svg" width="52" height="51"><g transform="translate(-650.685 -48)"><ellipse cx="26" cy="25.5" rx="26" ry="25.5" transform="translate(650.685 48)" fill="#c5e7f1"/><path d="M682.574 82a.405.405 0 01-.261-.1l-4.048-3.416h-8.97a2.781 2.781 0 01-2.776-2.774v-7.931A2.781 2.781 0 01669.295 65h14.424a2.781 2.781 0 012.776 2.779v7.931a2.78 2.78 0 01-2.776 2.778h-.737v3.106a.4.4 0 01-.234.367.416.416 0 01-.174.039zm-13.279-16.188a1.969 1.969 0 00-1.966 1.967v7.931a1.969 1.969 0 001.966 1.967h9.117a.4.4 0 01.261.1l3.495 2.949v-2.643a.406.406 0 01.406-.406h1.145a1.969 1.969 0 001.966-1.967v-7.931a1.969 1.969 0 00-1.966-1.967z" fill="#00a6da"/></g></svg>