<svg xmlns="http://www.w3.org/2000/svg" width="78.1" height="67.2"><path d="M32.82 50.342c14.6 0 22.6-12.1 22.6-22.6v-1c1.6-1.1 2.9-2.5 4-4.1-1.4.6-3 1.1-4.6 1.3 1.6-1 2.9-2.5 3.5-4.4-1.5.9-3.2 1.6-5 1.9a7.99 7.99 0 00-5.8-2.5c-4.4 0-7.9 3.6-7.9 7.9 0 .6.1 1.2.2 1.8-6.6-.3-12.5-3.5-16.4-8.3-.7 1.2-1.1 2.5-1.1 4 0 2.8 1.4 5.2 3.5 6.6-1.3 0-2.5-.4-3.6-1v.1c0 3.8 2.7 7.1 6.4 7.8-.7.2-1.4.3-2.1.3-.5 0-1-.1-1.5-.1 1 3.2 3.9 5.5 7.4 5.5-2.7 2.1-6.1 3.4-9.9 3.4-.6 0-1.3 0-1.9-.1 3.6 2.2 7.8 3.5 12.2 3.5" fill="#1da1f2"/></svg>