<svg xmlns="http://www.w3.org/2000/svg" width="22" height="20"><path d="M0 0h22v20H0z" fill="none"/><path d="M19.9 20H2.1a2.1 2.1 0 01-1.82-1.069 2.179 2.179 0 010-2.138L9.18 1.07a2.077 2.077 0 013.632 0l8.9 15.723a2.181 2.181 0 010 2.138A2.1 2.1 0 0119.9 20zM11 1.347a.774.774 0 00-.671.4l-8.9 15.723a.81.81 0 000 .791.775.775 0 00.672.4H19.9a.774.774 0 00.671-.4.806.806 0 000-.791l-8.9-15.723a.777.777 0 00-.671-.4zm.661 14.814h-1.322v-2.077h1.321v2.076zm0-3.4h-1.322V6.2h1.321v6.567z" fill="#00a6da"/><path d="M0 0h22v20H0z" fill="none"/></svg>