<svg width="40" height="40" fill="none" xmlns="http://www.w3.org/2000/svg"><path fill-rule="evenodd" clip-rule="evenodd" d="M20 40c11.046 0 20-8.954 20-20S31.046 0 20 0 0 8.954 0 20s8.954 20 20 20z" fill="#C5E7F1"/><mask id="a" maskUnits="userSpaceOnUse" x="10" y="10" width="19" height="17"><path fill-rule="evenodd" clip-rule="evenodd" d="M10.98 10.98h17.255v15.687H10.98V10.98z" fill="#fff"/></mask><g mask="url(#a)"><path fill-rule="evenodd" clip-rule="evenodd" d="M19.09 23.656h1.036v-1.629H19.09v1.63zm0-2.664h1.036V15.84H19.09v5.152zm8.028 4.308a.607.607 0 01-.527.31H12.625a.608.608 0 01-.527-.31.632.632 0 010-.62l6.983-12.333a.609.609 0 01.527-.31c.216 0 .418.12.527.31l6.983 12.332a.633.633 0 010 .621zm-6.086-13.48a1.644 1.644 0 00-1.424-.839c-.586 0-1.132.322-1.425.839l-6.982 12.332a1.709 1.709 0 000 1.677c.292.517.838.839 1.424.839H26.59c.586 0 1.132-.322 1.424-.839a1.71 1.71 0 000-1.677L21.031 11.82z" fill="#00A6DA"/></g></svg>