<svg xmlns="http://www.w3.org/2000/svg" viewBox="0 0 78.1 67.2"><path d="M23.4 36.3h2.1v10.4h2V36.3h2.1v-1.8h-6.2v1.8zm10.3 8.2c-.2.2-.4.4-.6.5-.2.1-.4.2-.5.2-.2 0-.3 0-.4-.1-.1-.1-.1-.2-.1-.5v-6.9h-1.8v7.5c0 .5.1.9.3 1.2.2.3.5.4.9.4.3 0 .7-.1 1-.3.4-.2.7-.5 1-.8v1h1.8v-9h-1.8v6.8zm6.5-6.9c-.3 0-.6.1-.8.2-.3.1-.5.4-.8.6v-3.9h-1.8v12.1h1.8V46c.2.3.5.5.8.6.3.1.6.2.9.2.5 0 .9-.2 1.2-.5.3-.3.4-.8.4-1.5v-5c0-.7-.1-1.3-.5-1.7-.2-.3-.6-.5-1.2-.5zm-.1 7c0 .3-.1.5-.2.6-.1.1-.3.2-.5.2s-.3 0-.4-.1c-.1-.1-.3-.2-.4-.3v-5.6c.1-.1.2-.2.4-.3.1-.1.3-.1.4-.1.2 0 .4.1.6.2.1.2.2.4.2.7v4.7zm5.5-7.1c-.8 0-1.5.2-2 .7-.5.5-.8 1.1-.8 1.9v4c0 .9.2 1.5.7 2s1.1.7 1.9.7c.9 0 1.6-.2 2-.7.5-.5.7-1.2.7-2.1v-.5h-1.8v.4c0 .5-.1.9-.2 1-.1.2-.3.2-.6.2s-.5-.1-.6-.3c-.1-.2-.2-.5-.2-1v-1.7h3.4v-2.3c0-.8-.2-1.5-.7-2-.3-.1-1-.3-1.8-.3zm.7 3.5h-1.6v-.9c0-.4.1-.6.2-.8.1-.2.3-.2.6-.2s.5.1.6.2c.1.2.2.4.2.8v.9zM35.9 20.4c-.2 0-.4.1-.6.2-.2.1-.2.3-.2.5v5.4c0 .3.1.5.2.6.1.1.3.2.6.2s.5-.1.7-.2c.2-.2.2-.4.2-.6v-5.4c0-.2-.1-.4-.2-.5-.2-.1-.4-.2-.7-.2zM52.8 13h-34c-2.5 0-4.5 2-4.5 4.5V27c0 2.5 2 4.5 4.5 4.5h34c2.5 0 4.5-2 4.5-4.5v-9.6c0-2.4-2-4.4-4.5-4.4zM30.2 23.3v5.6H28v-5.3l-2.7-8.1h2.3l1.5 5.3h.1l1.4-5.3h2.3l-2.7 7.8zm8.7 3.1c0 .8-.3 1.5-.8 2s-1.2.7-2.2.7c-.9 0-1.6-.2-2.1-.7-.5-.5-.8-1.2-.8-2v-5.1c0-.8.3-1.4.8-1.8.5-.5 1.3-.7 2.2-.7.8 0 1.5.2 2.1.7.5.5.8 1.1.8 1.8v5.1zm7.4 2.4h-2v-1.1c-.4.4-.8.7-1.2.9-.4.2-.8.3-1.2.3-.5 0-.8-.1-1.1-.4-.2-.3-.4-.7-.4-1.3V19h2v7.6c0 .2 0 .4.1.5.1.1.2.2.4.2.1 0 .3-.1.6-.2.2-.1.4-.3.6-.5V19h2v9.8z" fill="#eb5350"/></svg>