<svg xmlns="http://www.w3.org/2000/svg" width="150.767" height="151.821"><defs><linearGradient id="b" y1=".5" x2="1" y2=".5" gradientUnits="objectBoundingBox"><stop offset="0" stop-color="#99cee3"/><stop offset="1" stop-color="#c9d1e2"/></linearGradient><linearGradient id="d" y1=".5" x2="1" y2=".5" gradientUnits="objectBoundingBox"><stop offset="0" stop-color="#c9d1e2"/><stop offset="1" stop-color="#99cee3"/></linearGradient><clipPath id="a"><path d="M12.494 9.309q-.348.365-.694.743C-11.316 35.228-1.032 98.128 47.638 112.464 98.145 127.34 146.26 100 149.079 74.335 151.9 48.665 129.643 40.6 95.1 47.778c-19.513 4.055-28.225-11.3-32.112-25.426A30.066 30.066 0 0033.921 0a29.3 29.3 0 00-21.427 9.309" fill="none"/></clipPath><clipPath id="c"><path d="M0 3.819c0 2.109 28.508 3.818 63.675 3.818 35.166 0 63.675-1.71 63.675-3.818C127.35 1.71 98.841 0 63.675 0 28.508 0 0 1.71 0 3.819" fill="none"/></clipPath></defs><path d="M13.943 27.638q-.348.365-.694.743C-9.867 53.557.417 116.457 49.087 130.793c50.507 14.876 98.622-12.464 101.441-38.129 2.821-25.67-19.436-33.735-53.979-26.557-19.513 4.055-28.225-11.3-32.112-25.426A30.066 30.066 0 0035.37 18.329a29.3 29.3 0 00-21.427 9.309" fill="none"/><g transform="translate(1.449 18.329)" clip-path="url(#a)"><path d="M12.494 9.309q-.348.365-.694.743C-11.316 35.228-1.032 98.128 47.638 112.464 98.145 127.34 146.26 100 149.079 74.335 151.9 48.665 129.643 40.6 95.1 47.778c-19.513 4.055-28.225-11.3-32.112-25.426A30.066 30.066 0 0033.921 0a29.3 29.3 0 00-21.427 9.309" fill="url(#b)"/></g><path d="M14.159 148.002c0 2.109 28.508 3.818 63.675 3.818 35.166 0 63.675-1.71 63.675-3.818 0-2.109-28.509-3.819-63.675-3.819-35.167 0-63.675 1.71-63.675 3.819" fill="none"/><g transform="translate(14.159 144.183)" clip-path="url(#c)"><path d="M63.675 7.637c35.166 0 63.675-1.71 63.675-3.818S98.841 0 63.675 0 0 1.71 0 3.819s28.508 3.818 63.675 3.818z" transform="translate(-.121 -3.788)" fill="url(#d)"/></g><path d="M51.467 136.806H42.39a2.852 2.852 0 01-2.71-1.979l-3.851-11.908a.791.791 0 01.689-1.033 132.617 132.617 0 0120.823 0 .791.791 0 01.687 1.033l-3.85 11.91a2.851 2.851 0 01-2.71 1.979" fill="#28aec9"/><path d="M47.409 122.75v-14.858a.48.48 0 10-.96 0v14.858a.893.893 0 00.96 0" fill="#6bbed9"/><path d="M46.928 111.392s.909-6.589 9.3-6.589c0 0-1.435 9.32-9.3 6.589" fill="#6bbed9"/><path d="M47.354 113.416s-.9-6.589-9.3-6.589c0 0 1.439 9.32 9.3 6.589m.098 5.852s-2.149-6.291-10.389-4.673c0 0 3.192 8.87 10.389 4.672" fill="#6bbed9"/><path d="M46.922 119.215s6.169 2.412 10.258-4.956c0 0-8.8-3.277-10.258 4.956" fill="#6bbed9"/><path d="M33.09 65.206a.274.274 0 01-.273-.276v-.549a.274.274 0 11.547 0v.549a.274.274 0 01-.274.276m.019-1.481a.284.284 0 01-.292-.275v-.93a.284.284 0 01.292-.275.284.284 0 01.292.275v.93a.284.284 0 01-.292.275zm0-1.861a.284.284 0 01-.292-.28v-.925a.284.284 0 01.292-.275.284.284 0 01.293.275v.925a.284.284 0 01-.293.28zm-.019-1.861a.274.274 0 01-.273-.276v-.549a.274.274 0 11.547 0v.549a.274.274 0 01-.274.276" fill="#28aec9"/><path d="M70.046 82.195h-1.089a.284.284 0 01-.274-.293.284.284 0 01.274-.292h1.089a.284.284 0 01.274.292.284.284 0 01-.274.293zm-2.188 0h-1.089a.284.284 0 01-.273-.293.284.284 0 01.273-.292h1.094a.284.284 0 01.273.292.284.284 0 01-.273.293zm-2.182 0h-1.094a.284.284 0 01-.273-.293.284.284 0 01.273-.292h1.094a.283.283 0 01.27.292.284.284 0 01-.27.293zm-2.188 0h-1.093a.284.284 0 01-.274-.293.284.284 0 01.274-.292h1.093a.284.284 0 01.274.292.284.284 0 01-.274.293zm-2.188 0h-1.093a.284.284 0 01-.273-.293.284.284 0 01.273-.292H61.3a.284.284 0 01.274.292.284.284 0 01-.274.293zm-2.187 0H58.02a.284.284 0 01-.274-.293.284.284 0 01.274-.292h1.093a.284.284 0 01.273.292.284.284 0 01-.273.293zm-8.234-58.917h-.14a.284.284 0 01-.273-.293.284.284 0 01.273-.292h.14a.284.284 0 01.274.292.284.284 0 01-.274.293zm-1.233 0h-1.094a.284.284 0 01-.273-.293.284.284 0 01.273-.292h1.093a.284.284 0 01.274.292.284.284 0 01-.274.293zm-2.188 0h-1.094a.284.284 0 01-.273-.293.284.284 0 01.273-.292h1.094a.284.284 0 01.273.292.284.284 0 01-.273.293zM82.37 10.662h-1.094a.284.284 0 01-.273-.293.284.284 0 01.273-.292h1.094a.284.284 0 01.274.292.284.284 0 01-.274.293zm-2.187 0h-1.094a.284.284 0 01-.274-.293.284.284 0 01.274-.292h1.093a.284.284 0 01.274.292.284.284 0 01-.274.293zm-2.188 0h-1.094a.284.284 0 01-.273-.293.284.284 0 01.273-.292h1.094a.284.284 0 01.273.292.284.284 0 01-.273.293zm58.289-.585h-1.093a.275.275 0 000 .549h1.093a.275.275 0 000-.549m-.501 79.269h-1.094a.275.275 0 000 .55h1.094a.275.275 0 000-.55m2.188 0h-1.094a.275.275 0 000 .55h1.094a.275.275 0 000-.55m.501-79.269h-1.093a.275.275 0 000 .549h1.093a.275.275 0 000-.549m-6.562 0h-.112v.549h.112a.275.275 0 000-.549m1.686 79.269h-1.094a.275.275 0 000 .55h1.094a.275.275 0 000-.55m.501-79.269h-1.094a.275.275 0 000 .549h1.094a.275.275 0 000-.549m6.791 77.805a.275.275 0 00-.273.275v1.1a.274.274 0 10.547 0v-1.1a.275.275 0 00-.274-.275m0-6.594a.274.274 0 00-.273.275v1.1a.274.274 0 10.547 0v-1.1a.274.274 0 00-.274-.275m-9.48 8.058h-1.094a.275.275 0 000 .55h1.094a.275.275 0 000-.55m9.48-12.455a.274.274 0 00-.273.275v1.1a.274.274 0 10.547 0v-1.1a.274.274 0 00-.274-.275m0 2.199a.274.274 0 00-.273.275v1.1a.274.274 0 10.547 0v-1.1a.274.274 0 00-.274-.275m0 4.396a.275.275 0 00-.273.275v1.1a.274.274 0 10.547 0v-1.1a.275.275 0 00-.274-.275m0 2.198a.275.275 0 00-.273.275v1.1a.274.274 0 10.547 0v-1.1a.275.275 0 00-.274-.275m0-10.991a.274.274 0 00-.273.275v1.1a.274.274 0 10.547 0v-1.1a.274.274 0 00-.274-.275m-31.354 14.653h-1.094a.275.275 0 000 .55h1.094a.275.275 0 000-.55m2.187 0h-1.094a.275.275 0 000 .55h1.094a.275.275 0 000-.55m-4.375 0h-1.093a.275.275 0 000 .55h1.093a.275.275 0 000-.55m21.875 0h-1.094a.275.275 0 000 .55h1.094a.275.275 0 000-.55m-24.062 0h-1.093a.275.275 0 000 .55h1.093a.275.275 0 000-.55m8.75 0h-1.094a.275.275 0 000 .55h1.094a.275.275 0 000-.55m-10.937 0h-1.094a.275.275 0 000 .55h1.094a.275.275 0 000-.55m36.594-78.72h1.093a.275.275 0 000-.549h-1.093a.275.275 0 000 .549m-14.72 78.72h-1.093a.275.275 0 000 .55h1.093a.275.275 0 000-.55m2.187 0h-1.094a.275.275 0 000 .55h1.094a.275.275 0 000-.55m-10.937 0h-1.094a.275.275 0 000 .55h1.094a.275.275 0 000-.55m6.562 0h-1.093a.275.275 0 000 .55h1.093a.275.275 0 000-.55m-2.187 0h-1.094a.275.275 0 000 .55h1.094a.275.275 0 000-.55m-2.187 0h-1.094a.275.275 0 000 .55h1.094a.275.275 0 000-.55m21.874 0h-1.094a.275.275 0 000 .55h1.094a.275.275 0 000-.55m.73-65.211a.274.274 0 00-.273.275v1.1a.274.274 0 10.547 0v-1.1a.274.274 0 00-.274-.275m0 4.396a.275.275 0 00-.273.275v1.1a.274.274 0 10.547 0v-1.1a.275.275 0 00-.274-.275m0-2.198a.274.274 0 00-.273.275v1.1a.274.274 0 10.547 0v-1.1a.274.274 0 00-.274-.275m0 4.396a.274.274 0 00-.273.275v1.1a.274.274 0 10.547 0v-1.1a.274.274 0 00-.274-.275m0 6.595a.274.274 0 00-.273.275v1.1a.274.274 0 10.547 0v-1.1a.274.274 0 00-.274-.275m0-2.199a.274.274 0 00-.273.275v1.1a.274.274 0 10.547 0v-1.1a.274.274 0 00-.274-.275m0-2.198a.274.274 0 00-.273.275v1.1a.274.274 0 10.547 0v-1.1a.274.274 0 00-.274-.275m0-21.982a.274.274 0 00-.273.275v1.1a.274.274 0 10.547 0v-1.1a.274.274 0 00-.274-.275m0 2.199a.274.274 0 00-.273.275v1.1a.274.274 0 10.547 0v-1.1a.274.274 0 00-.274-.275m0 26.378a.274.274 0 00-.273.275v1.1a.274.274 0 10.547 0v-1.1a.274.274 0 00-.274-.275m0-24.18a.274.274 0 00-.273.275v1.1a.274.274 0 10.547 0v-1.1a.274.274 0 00-.274-.275m0 2.198a.274.274 0 00-.273.275v1.1a.274.274 0 10.547 0v-1.1a.274.274 0 00-.274-.275m0 2.198a.274.274 0 00-.273.275v1.1a.274.274 0 10.547 0v-1.1a.274.274 0 00-.274-.275m0 2.198a.274.274 0 00-.273.275v1.1a.274.274 0 10.547 0v-1.1a.274.274 0 00-.274-.275m0 43.964a.274.274 0 00-.273.275v1.1a.274.274 0 10.547 0v-1.1a.274.274 0 00-.274-.275m0-4.396a.274.274 0 00-.273.275v1.1a.274.274 0 10.547 0v-1.1a.274.274 0 00-.274-.275m0-2.198a.274.274 0 00-.273.275v1.1a.274.274 0 10.547 0v-1.1a.274.274 0 00-.274-.275m0 4.396a.274.274 0 00-.273.275v1.1a.274.274 0 10.547 0v-1.1a.274.274 0 00-.274-.275m0 6.595a.274.274 0 00-.273.275v1.1a.274.274 0 10.547 0v-1.1a.274.274 0 00-.274-.275m0-13.19a.275.275 0 00-.273.275v1.1a.274.274 0 10.547 0v-1.1a.275.275 0 00-.274-.275m0-15.387a.274.274 0 00-.273.275v1.1a.274.274 0 10.547 0v-1.1a.274.274 0 00-.274-.275m0 26.378a.275.275 0 00-.273.275v1.1a.274.274 0 10.547 0v-1.1a.275.275 0 00-.274-.275m0 4.397a.274.274 0 00-.273.275v1.1a.274.274 0 10.547 0v-1.1a.274.274 0 00-.274-.275m0-26.378a.274.274 0 00-.273.275v1.1a.274.274 0 10.547 0v-1.1a.274.274 0 00-.274-.275m0-2.199a.274.274 0 00-.273.275v1.1a.274.274 0 10.547 0v-1.1a.274.274 0 00-.274-.275m0 4.397a.274.274 0 00-.273.275v1.1a.274.274 0 10.547 0v-1.1a.274.274 0 00-.274-.275m0 6.594a.274.274 0 00-.273.275v1.1a.274.274 0 10.547 0v-1.1a.274.274 0 00-.274-.275m0-2.198a.274.274 0 00-.273.275v1.1a.274.274 0 10.547 0v-1.1a.274.274 0 00-.274-.275m0-2.198a.274.274 0 00-.273.275v1.1a.274.274 0 10.547 0v-1.1a.274.274 0 00-.274-.275M8.846 82.16H7.752a.275.275 0 010-.55h1.094a.275.275 0 010 .55zm-2.188 0H5.565a.275.275 0 010-.55h1.094a.275.275 0 010 .55zm-1.113-1.079a.275.275 0 01-.273-.276v-1.1a.274.274 0 11.547 0v1.1a.275.275 0 01-.274.276zm0-2.2a.274.274 0 01-.273-.274v-1.1a.274.274 0 11.547 0v1.1a.275.275 0 01-.274.275zm0-2.2a.274.274 0 01-.273-.272v-1.1a.274.274 0 11.547 0v1.1a.275.275 0 01-.274.275zm0-2.2a.274.274 0 01-.273-.27v-1.1a.274.274 0 11.547 0v1.1a.274.274 0 01-.274.274zm0-2.2a.274.274 0 01-.273-.268v-1.1a.274.274 0 11.547 0v1.1a.274.274 0 01-.274.275zm0-2.2a.274.274 0 01-.273-.266v-1.1a.274.274 0 11.547 0v1.1a.275.275 0 01-.274.278zm0-2.2a.274.274 0 01-.273-.265v-1.1a.274.274 0 11.547 0v1.1a.275.275 0 01-.274.277zm0-2.2a.274.274 0 01-.273-.263v-1.1a.274.274 0 11.547 0v1.1a.275.275 0 01-.274.275zm0-2.2a.274.274 0 01-.273-.261v-1.1a.274.274 0 11.547 0v1.1a.274.274 0 01-.274.273zm0-2.2a.274.274 0 01-.273-.259v-1.1a.274.274 0 11.547 0v1.1a.275.275 0 01-.274.271zm0-2.2a.274.274 0 01-.273-.257v-1.1a.274.274 0 11.547 0v1.1a.274.274 0 01-.274.274zm0-2.2a.275.275 0 01-.273-.256v-1.1a.274.274 0 11.547 0v1.1a.275.275 0 01-.274.275zm0-2.2a.274.274 0 01-.273-.254v-1.1a.274.274 0 11.547 0v1.1a.274.274 0 01-.274.275zm0-2.2a.274.274 0 01-.273-.252v-1.1a.274.274 0 11.547 0v1.1a.274.274 0 01-.274.275zm0-2.2a.274.274 0 01-.273-.25v-1.1a.274.274 0 11.547 0v1.1a.274.274 0 01-.274.275zm0-2.2a.274.274 0 01-.273-.248v-1.1a.274.274 0 11.547 0v1.1a.274.274 0 01-.274.274zm0-2.2a.275.275 0 01-.273-.247v-1.1a.274.274 0 11.547 0v1.1a.275.275 0 01-.274.276zm0-2.2a.274.274 0 01-.273-.245v-1.1a.274.274 0 11.547 0v1.1a.274.274 0 01-.274.275zm0-2.2a.274.274 0 01-.273-.243v-1.1a.274.274 0 11.547 0v1.1a.274.274 0 01-.274.275zm0-2.2a.274.274 0 01-.273-.241v-1.1a.274.274 0 11.547 0v1.1a.274.274 0 01-.274.275zm0-2.2a.274.274 0 01-.273-.24v-1.1a.274.274 0 11.547 0v1.1a.275.275 0 01-.274.275zm0-2.2a.274.274 0 01-.273-.237v-1.1a.274.274 0 11.547 0v1.1a.274.274 0 01-.274.274zm0-2.2a.274.274 0 01-.273-.236v-1.1a.274.274 0 11.547 0v1.1a.275.275 0 01-.274.275zm0-2.2a.274.274 0 01-.273-.234v-1.1a.274.274 0 11.547 0v1.1a.275.275 0 01-.274.275zm0-2.2a.274.274 0 01-.273-.232v-1.1a.274.274 0 11.547 0v1.1a.275.275 0 01-.274.275zm0-2.2a.274.274 0 01-.273-.23v-1.1a.274.274 0 11.547 0v1.1a.274.274 0 01-.274.274zm0-2.2a.274.274 0 01-.273-.228v-.685a.274.274 0 01.273-.275h.412a.275.275 0 010 .55h-.138v.41a.274.274 0 01-.274.274zm15.727-.638h-1.1a.275.275 0 010-.55h1.1a.275.275 0 010 .55zm-2.19 0h-1.094a.275.275 0 010-.55h1.094a.275.275 0 010 .55zm-2.188 0h-1.093a.275.275 0 010-.55h1.094a.275.275 0 010 .55zm-2.187 0h-1.094a.275.275 0 010-.55h1.094a.275.275 0 010 .55zm-2.187 0h-1.094a.275.275 0 010-.55h1.094a.275.275 0 010 .55zm-2.187 0H9.238a.275.275 0 010-.55h1.095a.275.275 0 010 .55zm-2.188 0H7.051a.275.275 0 010-.55h1.094a.275.275 0 010 .55z" fill="#00a2d6"/><path d="M145.272 75.364h-9.046a1.81 1.81 0 01-1.8-1.809v-6.516a1.81 1.81 0 011.8-1.81h9.046a1.81 1.81 0 011.8 1.81v6.516a1.811 1.811 0 01-1.8 1.81" fill="#acbcd6"/><path d="M140.75 73.774a3.478 3.478 0 113.461-3.478 3.473 3.473 0 01-3.461 3.478zm.139-1.914v1.63a2.915 2.915 0 00.769-.7 3.588 3.588 0 00.516-.926zm-1.531 0a3.314 3.314 0 001.253 1.612V71.86zm-1.384 0a3.193 3.193 0 002.115 1.565 3.581 3.581 0 01-.426-.456 3.908 3.908 0 01-.6-1.108zm4.5 0a3.908 3.908 0 01-.6 1.108 3.486 3.486 0 01-.417.447 3.19 3.19 0 002.068-1.555h-1.054zm.261-1.5a4.937 4.937 0 01-.176 1.22h1.105a3.181 3.181 0 00.268-1.219zm-1.843 0v1.22h1.377a4.631 4.631 0 00.185-1.219zm-1.811 0a4.613 4.613 0 00.185 1.219h1.345v-1.217zm-1.51 0a3.171 3.171 0 00.264 1.22h1.138a4.916 4.916 0 01-.173-1.219zm4.939-1.5a4.3 4.3 0 01.223 1.219h1.192a3.165 3.165 0 00-.33-1.219zm-1.618 0v1.222h1.56a4.008 4.008 0 00-.24-1.219zm-1.569 0a4.023 4.023 0 00-.24 1.219h1.528v-1.216zm-1.415 0a3.178 3.178 0 00-.334 1.222h1.228a4.3 4.3 0 01.223-1.219h-1.12zm3.59-1.673a4.7 4.7 0 01.438.542 4.57 4.57 0 01.466.855h1.034a3.222 3.222 0 00-1.938-1.397zm-.609-.086v1.483h1.209a4.339 4.339 0 00-1.085-1.475zm-.278 0h-.084a4.077 4.077 0 00-.7.789 4.305 4.305 0 00-.388.688h1.172zm-.568.076a3.213 3.213 0 00-1.979 1.407h1.066a4.57 4.57 0 01.466-.855 4.739 4.739 0 01.447-.552z" fill="#fcfafa"/><path d="M145.272 48.986h-9.046a1.81 1.81 0 01-1.8-1.809v-6.516a1.81 1.81 0 011.8-1.81h9.046a1.811 1.811 0 011.8 1.81v6.516a1.811 1.811 0 01-1.8 1.81" fill="#acbcd6"/><path d="M140.889 47.389a3.28 3.28 0 113.263-3.28 3.276 3.276 0 01-3.263 3.28zm0-6.193a2.914 2.914 0 102.9 2.914 2.91 2.91 0 00-2.9-2.915zm-1.084 4.725a.179.179 0 01-.09-.025.182.182 0 01-.09-.159V42.48a.181.181 0 01.092-.158.179.179 0 01.182 0l2.767 1.629a.183.183 0 010 .316l-2.769 1.629a.179.179 0 01-.092.025zm.183-3.121v2.618l2.225-1.309z" fill="#fcfafa"/><path d="M9.29 47.592H1.8A1.811 1.811 0 010 45.783v-5.269a1.811 1.811 0 011.8-1.81h7.49a1.811 1.811 0 011.8 1.81v5.269a1.811 1.811 0 01-1.8 1.81" fill="#acbcd6"/><path d="M7.009 45.283H2.862a.49.49 0 01-.488-.491v-3.288a.49.49 0 01.488-.491h4.147a.489.489 0 01.488.491v3.288a.489.489 0 01-.488.491m2.357-3.219v2.167a.232.232 0 01-.331.21l-1.066-.51a.233.233 0 01-.132-.21v-1.146a.233.233 0 01.132-.21l1.068-.511a.232.232 0 01.331.21" fill="#fcfafa"/><path d="M50.634 6.38v42.978a2.433 2.433 0 002.427 2.439h21.3a2.415 2.415 0 001.722-.72 2.441 2.441 0 00.7-1.719V6.38a2.433 2.433 0 00-2.424-2.439H53.061a2.4 2.4 0 00-1.1.265 2.439 2.439 0 00-1.327 2.174" fill="#6bbed9"/><path d="M75.575 6.231v43.274a1.07 1.07 0 01-1.069 1.074H52.915a1.071 1.071 0 01-1.07-1.074V6.231a1.018 1.018 0 01.014-.173 1.079 1.079 0 01.635-.814 1.046 1.046 0 01.216-.067 1.059 1.059 0 01.205-.019h21.591a1.072 1.072 0 011.069 1.073" fill="#fcfafa"/><path d="M75.575 42.561v6.943a1.094 1.094 0 01-.085.421 1.071 1.071 0 01-.985.653h-21.59a1.071 1.071 0 01-1.07-1.074v-6.943c0-3.437 1.454-4.617 1.454-4.617a20.375 20.375 0 014.388-2.276c.013-.007.917-.313 1.885-.643 1.119-.381 2.322-.791 2.338-.801l4.358.31a20.66 20.66 0 002.014.773 33.54 33.54 0 013.137 1.259c.261.129.415.2.566.287a6.535 6.535 0 012.5 2.11 9.625 9.625 0 011.095 3.6" fill="#6bbed9"/><path d="M68.282 35.307l-.82 15.271H60.3l-.728-15.554c1.12-.38 2.322-.79 2.338-.8l4.362.31a20.761 20.761 0 002.014.773" fill="#fcfafa"/><path d="M66.998 15.816c-1.733.487-4.607-.6-6.515.233a2.337 2.337 0 00-1.51 2.6 4.326 4.326 0 00-1.813 2.991c-.361 1.816.959 3.93 1.27 4.916h5.248l5.9-5.3a4.452 4.452 0 00.972-2.945 2.7 2.7 0 00-3.552-2.495" fill="#3f4d6c"/><path d="M69.3 25.145s1.023-1.37 1.784-.237-.316 4.478-2.177 3.662z" fill="#e69277"/><path d="M69.313 27.535a.158.158 0 00.152-.115 2.437 2.437 0 011.364-1.456.16.16 0 00-.112-.3 2.713 2.713 0 00-1.555 1.671.158.158 0 00.109.195.147.147 0 00.043.006" fill="#e37c65"/><path d="M70.389 27.015a.158.158 0 00.132-.244 1.437 1.437 0 00-.591-.478.157.157 0 00-.208.08.158.158 0 00.08.206 1.134 1.134 0 01.454.363.157.157 0 00.133.073" fill="#e37c65"/><path d="M61.515 31.407v3.328s.987 1.695 2.323 1.81 2.519-1.459 2.519-1.459v-3.445z" fill="#e9b395"/><path d="M61.515 31.407v1.477c.9 1 2.487 1.249 4.842.9v-2.143z" fill="#e69277"/><path d="M69.894 24.11a23.34 23.34 0 01-.09 1.446c-.05.547-.123 1.111-.225 1.673a.026.026 0 010 .007c0 .009 0 .023-.006.043l-.022.115c-.016.079-.031.158-.049.239-.024.123-.052.251-.082.381-.512 2.169-1.515 4.169-3.44 4.855-4.57 1.638-6.388-1.943-7.173-4.417-.055-.169-.102-.333-.147-.49-.075-.266-.14-.564-.203-.879a.064.064 0 010-.012 22.076 22.076 0 01-.3-2.256 51.587 51.587 0 01-.137-1.953 3.484 3.484 0 01.121-1.079c.022-.08.048-.163.079-.244l.046-.122c.032-.08.067-.158.1-.235s.078-.153.12-.227.09-.146.134-.216a3.486 3.486 0 01.907-.906c.071-.048.146-.1.221-.139a3.482 3.482 0 01.483-.229 9.16 9.16 0 017.92.256 3.462 3.462 0 011.423 1.539c.032.067.061.136.089.2a3.136 3.136 0 01.13.403 2.471 2.471 0 01.057.26 3.427 3.427 0 01.054.549c.008.425.008.91-.01 1.434" fill="#e9b395"/><path d="M58.157 24.815c.141.1.169.335.438.454l.025.124h.88c-.015-.117-.03-.232-.042-.342-.078-.712-.5-2.115.1-2.28s-.01-1.447.828-2.1a3.886 3.886 0 013.95-.075c1.236.763 2.63-.058 3.2.075s1.345.921 1.136 1.66.419 1.185.571 1.949a4.035 4.035 0 01-.023 1.113h.6a23.421 23.421 0 00.076-1.283c.018-.522.019-1.007.011-1.432a3.337 3.337 0 00-.056-.55 2.5 2.5 0 00-.057-.26 2.82 2.82 0 00-.082-.271c-.015-.045-.032-.088-.048-.132a3.026 3.026 0 00-.089-.2 3.462 3.462 0 00-1.423-1.539 9.162 9.162 0 00-7.921-.261 3.508 3.508 0 00-.479.228 4.12 4.12 0 00-.221.139 3.484 3.484 0 00-.673.6 3.555 3.555 0 00-.234.3 3.602 3.602 0 00-.257.443 2.4 2.4 0 00-.1.235l-.046.122a3.257 3.257 0 00-.08.251 3.487 3.487 0 00-.121 1.079c.029.6.07 1.275.133 1.953" fill="#3f4d6c"/><path d="M58.821 25.643a1.373 1.373 0 00-.664-1.041.8.8 0 00-1.176.305c-.76 1.133.315 4.479 2.176 3.662z" fill="#e9b395"/><path d="M58.75 27.535a.158.158 0 01-.152-.115 2.437 2.437 0 00-1.365-1.456.158.158 0 01-.09-.206.157.157 0 01.203-.09 2.713 2.713 0 011.555 1.667.158.158 0 01-.109.195.147.147 0 01-.043.006" fill="#e69277"/><path d="M57.675 27.015a.158.158 0 01-.132-.244 1.437 1.437 0 01.59-.478.157.157 0 01.208.08.158.158 0 01-.079.206 1.133 1.133 0 00-.454.363.157.157 0 01-.133.073" fill="#e69277"/><path d="M131.825.951v31.391a.948.948 0 01-.946.951h-47.42a.948.948 0 01-.946-.951V.951A.948.948 0 0183.459 0h47.419a.948.948 0 01.946.951" fill="#6bbed9"/><path d="M130.522 2.296v28.7a.963.963 0 01-.962.966H84.782a.923.923 0 01-.334-.061.961.961 0 01-.626-.9V2.296a.963.963 0 01.96-.966h44.774a.931.931 0 01.366.073.962.962 0 01.6.894" fill="#fcfafa"/><path d="M130.521 2.296v1.428h-46.7V2.296a.962.962 0 01.96-.965h44.776a.962.962 0 01.964.965" fill="#d3d7de"/><path d="M90.151 2.546a.316.316 0 00.315.316h31.54a.317.317 0 000-.633h-31.54a.316.316 0 00-.315.317" fill="#fcfafa"/><path d="M86.555 2.546v.235a.087.087 0 01-.13.075l-.203-.117-.202-.115a.088.088 0 010-.152l.2-.117.2-.117a.087.087 0 01.135.074zm1.052 0v.235a.087.087 0 00.13.075l.2-.117.205-.115a.088.088 0 000-.152l-.202-.119-.203-.117a.087.087 0 00-.13.076z" fill="#3f4d6c"/><path d="M126.854 2.528a.466.466 0 11-.466-.469.467.467 0 01.466.469" fill="#6d6da4"/><path d="M125.127 2.528a.467.467 0 11-.466-.469.468.468 0 01.466.469" fill="#ecaa35"/><path d="M128.58 2.528a.467.467 0 11-.466-.469.468.468 0 01.466.469" fill="#e1666a"/><path d="M120.785 31.957H97.451l-2.788.005a9.524 9.524 0 01.951-2.38 12.735 12.735 0 01.727-1.186v-.006a10.2 10.2 0 012.681-2.217l.449-.287c.514-.322 4.708-1.753 5.241-2.068l4.433-.312c.027.017 4.264 1.453 4.292 1.468.182.1.367.21.548.316a24.98 24.98 0 014.01 2.693 4.3 4.3 0 01.346.351 2.524 2.524 0 01.207.266 21.834 21.834 0 012.236 3.355" fill="#6bbed9"/><path d="M101.211 11.439s-2.479-.869-2.232-2.806c.21-1.649 2.031-.58 1.871-1.869s-.516-2.459 1.051-2.782c1.371-.281 1.394.718 3.194-.732 2.126-1.712 3.759 2.253 5.656 2.372 2.8.176 3.152 1.859 3.427 3.207s-1.078 2.929-1.078 2.929z" fill="#3f4d6c"/><path d="M101.626 14.272s-1.04-1.4-1.813-.244.32 4.556 2.214 3.725z" fill="#e69277"/><path d="M101.613 16.702a.16.16 0 01-.154-.117 2.482 2.482 0 00-1.391-1.482.161.161 0 01.116-.301 2.762 2.762 0 011.584 1.695.162.162 0 01-.111.2.155.155 0 01-.043.006" fill="#e37c65"/><path d="M100.519 16.172a.161.161 0 01-.135-.248 1.468 1.468 0 01.6-.486.16.16 0 01.13.293 1.16 1.16 0 00-.46.367.16.16 0 01-.135.074" fill="#e37c65"/><path d="M112.345 14.272s1.04-1.4 1.813-.244-.32 4.557-2.213 3.726z" fill="#e69277"/><path d="M112.358 16.702a.161.161 0 00.154-.117 2.48 2.48 0 011.386-1.482.161.161 0 00-.113-.3 2.761 2.761 0 00-1.582 1.7.161.161 0 00.111.2.155.155 0 00.044-.001" fill="#e37c65"/><path d="M113.451 16.172a.161.161 0 00.135-.248 1.469 1.469 0 00-.6-.486.161.161 0 00-.131.293 1.16 1.16 0 01.462.367.16.16 0 00.134.074" fill="#e37c65"/><path d="M109.545 20.64v3.385s-1 1.724-2.363 1.841-2.563-1.484-2.563-1.484v-3.504z" fill="#e9b395"/><path d="M109.545 20.64v1.5c-.911 1.018-2.526 1.272-4.926.917v-2.179z" fill="#e69277"/><path d="M113.096 11.948a32.813 32.813 0 01-.436 4.275.073.073 0 010 .013 11.386 11.386 0 01-.357 1.395c-.797 2.519-2.651 6.165-7.297 4.495-1.96-.701-2.981-2.73-3.5-4.937a15.31 15.31 0 01-.084-.386l-.049-.244-.023-.118c0-.02-.006-.034-.007-.043a.048.048 0 010-.007 24.263 24.263 0 01-.337-4.633 3.536 3.536 0 011.789-3.006 9.318 9.318 0 018.056-.256 3.519 3.519 0 012.245 3.452" fill="#e9b395"/><path d="M113.097 11.947a33.1 33.1 0 01-.437 4.276l-.715-.051s.173-1.111.253-1.834.215-2.076-.4-2.245-.253-1.71-1.106-2.379a3.954 3.954 0 00-4.018-.076c-1.258.777-2.676-.059-3.255.076s-1.368.937-1.155 1.688-.425 1.206-.58 1.982a10.927 10.927 0 00.341 2.868l-.683.138a24.223 24.223 0 01-.336-4.631 3.535 3.535 0 011.789-3.007 9.32 9.32 0 018.057-.256 3.524 3.524 0 012.245 3.456" fill="#3f4d6c"/><path d="M58.509 65.118v31.391a.948.948 0 01-.946.951h-47.42a.948.948 0 01-.946-.951V65.118a.948.948 0 01.946-.951h47.419a.948.948 0 01.946.951" fill="#6bbed9"/><path d="M57.205 66.463v28.7a.963.963 0 01-.961.966H11.465a.92.92 0 01-.333-.061.962.962 0 01-.626-.9V66.463a.963.963 0 01.959-.966H56.24a.941.941 0 01.365.072.964.964 0 01.6.894" fill="#fcfafa"/><path d="M57.205 66.462v1.429h-46.7v-1.429a.963.963 0 01.961-.965h44.775a.963.963 0 01.96.965" fill="#d3d7de"/><path d="M16.835 66.714a.316.316 0 00.315.316h31.54a.317.317 0 000-.633H17.15a.316.316 0 00-.315.317" fill="#fcfafa"/><path d="M13.239 66.713v.235a.087.087 0 01-.13.075l-.203-.117-.202-.115a.088.088 0 010-.151l.2-.117.2-.117a.087.087 0 01.135.073zm1.052 0v.235a.087.087 0 00.13.075l.2-.117.205-.115a.088.088 0 000-.151l-.202-.12-.203-.117a.087.087 0 00-.13.076z" fill="#3f4d6c"/><path d="M53.538 66.695a.466.466 0 11-.467-.469.467.467 0 01.467.469" fill="#6d6da4"/><path d="M51.812 66.695a.466.466 0 11-.466-.469.467.467 0 01.466.469" fill="#ecaa35"/><path d="M55.263 66.695a.467.467 0 11-.466-.469.467.467 0 01.466.469" fill="#e1666a"/><path d="M45.334 96.138a795.35 795.35 0 00-.543-2.161c-1.024-.223-1.985.903-2.716 2.161z" fill="#e9b395"/><path d="M44.834 96.138a4.888 4.888 0 00-.153-2.394 6.437 6.437 0 00-1.367-1.18 33.769 33.769 0 00-3.2-1.867c-1.55-.822-3.071-1.575-3.88-2.116a5.537 5.537 0 01-2.295.582.541.541 0 01-.061 0 .609.609 0 01-.064 0 5.526 5.526 0 01-2.292-.582c-.871.582-2.609 1.435-4.321 2.353-.721.389-1.44.789-2.086 1.185-.274.168-.533.336-.776.5a6.565 6.565 0 00-1.419 1.217 4.567 4.567 0 00-.131 2.3z" fill="#6bbed9"/><path d="M40.118 90.696c-1.052 2.411-3.523 5.685-6.886 5.098-3.256-.566-4.915-3.07-6.03-4.86 1.712-.919 3.45-1.77 4.321-2.353a5.535 5.535 0 002.292.582.6.6 0 00.064 0 .566.566 0 00.063 0 5.544 5.544 0 002.294-.582c.808.54 2.329 1.293 3.882 2.115" fill="#e9b395"/><path d="M33.941 89.247h-.063.063m3.579-19.915a3.514 3.514 0 01-.08.745 3.413 3.413 0 01-6.663.015 3.435 3.435 0 013.329-4.191 3.423 3.423 0 013.414 3.431" fill="#3f4d6c"/><path d="M37.44 70.077a3.424 3.424 0 01-.533 1.22l-.171.172h-5.302a3.42 3.42 0 01-.657-1.377 7.409 7.409 0 013.329-.76 7.671 7.671 0 013.334.745" fill="#6bbed9"/><path d="M28.534 79.072s-1.012-1.358-1.767-.235.311 4.441 2.155 3.631z" fill="#e69277"/><path d="M28.518 81.442a.157.157 0 01-.15-.115 2.419 2.419 0 00-1.35-1.446.157.157 0 01.111-.29 2.693 2.693 0 011.542 1.652.156.156 0 01-.108.193.165.165 0 01-.042.006" fill="#e37c65"/><path d="M38.982 79.072s1.01-1.358 1.768-.235-.312 4.441-2.158 3.631z" fill="#e69277"/><path d="M38.995 81.442a.157.157 0 00.15-.115 2.419 2.419 0 011.353-1.446.157.157 0 00-.111-.29 2.693 2.693 0 00-1.542 1.652.156.156 0 00.108.193.165.165 0 00.042.006" fill="#e37c65"/><path d="M40.061 80.926a.157.157 0 00.131-.241 1.426 1.426 0 00-.585-.474.157.157 0 00-.128.286 1.137 1.137 0 01.45.358.156.156 0 00.132.071" fill="#e37c65"/><path d="M36.252 85.282v3.3s-.979 1.68-2.3 1.795-2.5-1.447-2.5-1.447v-3.416z" fill="#e9b395"/><path d="M36.252 85.282v1.464c-.888.99-2.466 1.342-4.8 1v-2.232z" fill="#e69277"/><path d="M39.715 76.809a32.244 32.244 0 01-.426 4.168c-.061.319-.129.621-.206.89-.691 2.431-2.419 6.6-7.257 4.863-2.137-.765-3.127-3.158-3.569-5.591a23.608 23.608 0 01-.327-4.514 3.446 3.446 0 011.744-2.931 9.083 9.083 0 017.856-.254 3.434 3.434 0 012.188 3.368" fill="#e9b395"/><path d="M40.342 76.553a.514.514 0 01-.375.289 9.972 9.972 0 01-.057 1.16c-.193 2.265-.761 2.663-.89 2.1a26.529 26.529 0 01-.039-3.2 7.458 7.458 0 01-.825-.1l-.523-2.2-.183 2.171a6.817 6.817 0 01-2.614-.165l-.613-2.168-.38 2.085a4.339 4.339 0 01-2.646.192l-.338-2.248-.78 2.249a8.568 8.568 0 01-1.4.362c0 .7-.045 2.612-.4 2.5-.371-.116-.57-1.633-.522-2.54a.347.347 0 01-.216-.323 8.833 8.833 0 01.39-3.26 5.028 5.028 0 012.528-2.934c2.682-1.242 6.491-.711 7.588.021 2.947 1.967 2.3 6.009 2.3 6.009" fill="#3f4d6c"/><path d="M24.963 96.138a54.7 54.7 0 00-.623-3.518 6.543 6.543 0 00-1.419 1.215 4.567 4.567 0 00-.131 2.3zm19.875 0a4.888 4.888 0 00-.154-2.395 6.437 6.437 0 00-1.366-1.18c-.17.829-.391 2.084-.57 3.575z" fill="#e9b395"/><path d="M23.449 96.138l-.619-2.117-.71 2.117z" fill="#e9b395"/><path d="M46.929 14.137v42.978a2.433 2.433 0 01-2.427 2.439H23.204a2.433 2.433 0 01-2.427-2.439V14.137a2.433 2.433 0 012.427-2.439h21.3a2.4 2.4 0 011.1.265 2.439 2.439 0 011.326 2.174" fill="#6bbed9"/><path d="M45.718 13.988v43.274a1.071 1.071 0 01-1.07 1.074h-21.6a1.069 1.069 0 01-1.06-1.074V13.988a1.072 1.072 0 011.069-1.074h21.591a1.14 1.14 0 01.2.019 1.116 1.116 0 01.215.068 1.075 1.075 0 01.639.813 1.011 1.011 0 01.016.176" fill="#fcfafa"/><path d="M28.404 38.013a42.165 42.165 0 01-1.539-4.772.138.138 0 10-.267.068 42.523 42.523 0 001.548 4.8m4.158 8.021c.059-.074.118-.147.176-.222" fill="#d1713a"/><path d="M41.43 41.202l4.287 6.274v8.318l-2.576-3.165-1.447-1.782s-1.953-7.973-.265-9.645z" fill="#6bbed9"/><path d="M43.723 58.336H29.237l-1.346-4.638-2.8-9.68 4.26-1.689.367-.146.373-.147.044-.016 1.143-.455c.1-.041.2-.078.3-.115.133-.048.266-.094.4-.137a11.3 11.3 0 011.85-.433 11.522 11.522 0 012.627-.086h.057l.331.027.4.032h.042l.516.042.2.015 3.429.282c.049.743.253 3.259.319 4a12.672 12.672 0 011.618 5.461 8.078 8.078 0 01-.223 1.966c-.05.239-.109.5-.176.786a.61.61 0 01-.014.067l-.025.115a.148.148 0 01-.006.027c.007.047.017.1.025.146s.019.123.031.185v.007c.095.647.149 1.068.185 1.356z" fill="#6bbed9"/><path d="M38.002 40.92c.358 1.46.5 3.606-.424 4.545-1.501 1.529-5.946-.666-8.225-3.136l.368-.145.367-.145.044-.015 1.146-.458c.1-.041.2-.078.3-.115a11.482 11.482 0 014.875-.657h.057l.73.06h.043l.515.041z" fill="#e9b395"/><path d="M28.766 36.698a3.183 3.183 0 01-2.653-3.556c0-.015 0-.032.006-.047.228-1.845.568-4.391.568-4.391.791-5.519 6.446-6.01 6.446-6.01 6.82-.726 8.593 5.078 8.482 8.226a8.969 8.969 0 01-.047.649v.018a9.579 9.579 0 01-.27 1.636 5.641 5.641 0 01-6.192 4.372q-3.176-.4-6.339-.9" fill="#3f4d6c"/><path d="M36.901 23.358s-3.109-5.922-8.484-1.628-.325 16.957-6.125 18.029c0 0 2.585 2.175 6.065-.187s-1.5-15.293 8.544-16.214" fill="#3f4d6c"/><path d="M39.728 31.886s1-1.209 1.7-.167-.412 4.031-2.158 3.246z" fill="#e69277"/><path d="M39.682 34.044a.148.148 0 00.146-.1 2.265 2.265 0 011.331-1.278.142.142 0 00.092-.177.152.152 0 00-.19-.088 2.521 2.521 0 00-1.518 1.458.142.142 0 00.1.178.152.152 0 00.04.007" fill="#e37c65"/><path d="M40.715 33.602a.151.151 0 00.082-.02.139.139 0 00.05-.2 1.34 1.34 0 00-.549-.443.152.152 0 00-.2.067.14.14 0 00.07.19 1.075 1.075 0 01.423.338.15.15 0 00.124.068" fill="#e37c65"/><path d="M32.073 37.992l-.1 3.7a7.585 7.585 0 003.008 1.529c1.331.154 1.836-1.416 1.836-1.416l.094-3.445z" fill="#e9b395"/><path d="M32.064 38.355l-.04 1.477c.869 1.023 2.45 1.423 4.815 1.138l.062-2.247z" fill="#e69277"/><path d="M40.273 33.31c-.052.356-.113.719-.186 1.079-.489 2.4-2.075 4.954-4 5.337-4.159.831-5.785-2.479-6.38-4.904-.069-.265.08-.571.031-.889a24.424 24.424 0 01-.44-2.455 50.217 50.217 0 01-.06-1.678 3.4 3.4 0 012.186-3.275 8.435 8.435 0 017.508.458 3.435 3.435 0 011.586 2.947 25.888 25.888 0 01-.245 3.38" fill="#e9b395"/><path d="M38.793 29.211c1.595.785 1.029 2.7 1.548 3.681.033.064.07.076.109.045a25.468 25.468 0 00.255-3.445 3.482 3.482 0 00-1.674-3.005 9.165 9.165 0 00-7.916-.475 3.461 3.461 0 00-2.3 3.336c.011.53.031 1.116.063 1.71.264.168.917.259.932.693.041 1.147.075 1.932.315 1.871.4-.1.692-1.485.258-2.394a3.844 3.844 0 011.907-1.135 29.006 29.006 0 003.839-1.75 3.48 3.48 0 001.04-.9 3.436 3.436 0 001.624 1.768" fill="#3f4d6c"/><path d="M29.777 31.602s-1.091-1.407-1.784-.434.168 3.93 1.818 3.257z" fill="#e9b395"/><path d="M29.48 33.513a.138.138 0 01-.13-.1 2.139 2.139 0 00-1.16-1.314.138.138 0 01.105-.256 2.382 2.382 0 011.322 1.5.139.139 0 01-.1.168.15.15 0 01-.038 0" fill="#e69277"/><path d="M28.551 33.031a.143.143 0 01-.074-.024.139.139 0 01-.036-.193 1.254 1.254 0 01.528-.4.138.138 0 01.106.251 1 1 0 00-.406.305.138.138 0 01-.118.061" fill="#e69277"/><path d="M27.894 53.698c0 1.492.136 3.152.168 4.638h-5.014c-.037-2.13.064-4.493.074-6.669.013-2.782.118-6.159 1.969-7.65a8.463 8.463 0 012.04 2.854 17.169 17.169 0 01.775 6q-.015.4-.013.821" fill="#6bbed9"/><path d="M101.003 11.353l-.444-1.321 4.128-3.106 3.831.075 4.332 1.915.5 2.214-.249.628-.38-.089-1.018-1.19-.778-.853-.629-.763-1.445-.411-1.962.13-2.573.5-1.443.244-1.093 1.023z" fill="#3f4d6c"/><path d="M122.144 136.08H101.35a3.883 3.883 0 011.131-2.745 3.838 3.838 0 012.731-1.137h.038s4.413-.578 4.413-4.2V106.38h4.17v21.613c0 3.622 4.413 4.2 4.413 4.2h.036a3.871 3.871 0 013.862 3.887" fill="#28aec9"/><path d="M113.832 106.381v.86l-4.171 1.24v-2.1z" fill="#28aec9"/><path d="M131.744 106.38H91.75a7.664 7.664 0 017.553-6.32l12.447.033 12.441-.033a7.664 7.664 0 017.553 6.32" fill="#6bbed9"/><path d="M103.243 59.417c-1.04 3.874-6.3 13.968-8.34 15.415-2.66 1.883-10.992 5.417-15.326 7.22-.782.325 2.119 3.764 2.119 3.764s11.21-2.865 15.777-5.794c1.292-.829 4.091-3.643 7.635-9.285 1.074-1.711 3.562-5.111 3.838-7.538.316-2.794-2.816-4.721-5.703-3.782" fill="#28aec9"/><path d="M90.72 126.641l.145 4.216a4.27 4.27 0 01-3.182.384l-.876-4.53z" fill="#e9b395"/><path d="M88.138 130.695s-.73-1.016-1.323-.982-5.208 3.616-6.776 3.894-1.49 2.239-.874 2.461c.7.254 12.294.035 12.294.035s.44-4.144.058-5.265-2.162.139-3.379-.143" fill="#28aec9"/><path d="M85.579 133.203a.22.22 0 00.258-.317 3.379 3.379 0 00-1.123-1.21 1.5 1.5 0 00-1.551.05.221.221 0 00-.05.307.218.218 0 00.306.053 1.072 1.072 0 011.092-.019 2.989 2.989 0 01.942 1.032.221.221 0 00.126.1" fill="#fcfafa"/><path d="M86.242 132.593a.218.218 0 00.171-.017.221.221 0 00.086-.3 3.383 3.383 0 00-1.123-1.21 1.5 1.5 0 00-1.551.05.221.221 0 00-.05.307.218.218 0 00.306.053 1.072 1.072 0 011.092-.019 2.976 2.976 0 01.942 1.032.216.216 0 00.126.1m-1.554 1.104a.218.218 0 00.172-.017.22.22 0 00.086-.3 3.379 3.379 0 00-1.123-1.21 1.5 1.5 0 00-1.551.051.22.22 0 00-.049.307.218.218 0 00.305.052 1.074 1.074 0 011.092-.019 2.975 2.975 0 01.942 1.033.218.218 0 00.126.1" fill="#fcfafa"/><path d="M101.687 90.713s-16.235-2.692-21.111.377c-3.696 2.331 5.827 36.685 5.827 36.685a5.726 5.726 0 004.973-1.134s1.5-4.055.122-15.785a51.56 51.56 0 00-1.652-11.414l12.357-5.483z" fill="#172337"/><path d="M116.141 54.478s4.5 1.476 6.9 3.6.394 8.455.452 12.05-.531 24.472-5.657 27.095c-3.868 1.979-20.164-1.029-18.972-6.366a175.464 175.464 0 003.338-18.9c.689-5.822.4-10.123 1.044-12.54s8.177-5.187 8.177-5.187z" fill="#6bbed9"/><path d="M105.662 44.677a6.641 6.641 0 007.7 5.409 6.4 6.4 0 005.032-7.69 6.335 6.335 0 00-7.348-5.451 6.668 6.668 0 00-5.384 7.732" fill="#3f4d6c"/><path d="M105.97 42.361s-2.968-1.163-2.226-2.646c.475-.948 1.553-.393 2.031-1.819s2.456-1.662 4.141-1.619c1.535.04 2.055-.681 4.323-.341s3.286 2.128 2.268 3.409-10.537 3.016-10.537 3.016" fill="#3f4d6c"/><path d="M107.086 46.321s-1.279-1.204-1.848.08 1.117 4.479 2.857 3.318z" fill="#e69277"/><path d="M107.499 48.744a.162.162 0 01-.174-.09 2.5 2.5 0 00-1.641-1.228.164.164 0 01.06-.323 2.787 2.787 0 011.873 1.41.163.163 0 01-.076.217.173.173 0 01-.042.014" fill="#e37c65"/><path d="M106.318 48.41a.16.16 0 01-.09-.01.163.163 0 01-.087-.213 1.482 1.482 0 01.513-.59.161.161 0 01.224.043.163.163 0 01-.043.229 1.173 1.173 0 00-.4.447.163.163 0 01-.121.1" fill="#e37c65"/><path d="M115.712 51.329l.593 3.37a5.469 5.469 0 01-2.45 2.087c-1.329.359-2.436-1.108-2.436-1.108l-.569-3.241z" fill="#e9b395"/><path d="M115.712 51.329l.263 1.5c-.725 1.168-2.297 1.707-4.744 1.777l-.381-2.169z" fill="#e69277"/><path d="M118.039 46.381c0 .338-.02.658-.05.947s-.068.6-.12.923c-.424 2.626-1.743 6.158-6.419 5.361-2.321-.394-3.761-2.658-4.65-5.063a21.014 21.014 0 01-.547-1.732 27.018 27.018 0 01-.593-2.82 3.587 3.587 0 011.25-3.31 9.432 9.432 0 017.976-1.684 3.556 3.556 0 012.841 3.044 33.249 33.249 0 01.313 4.334" fill="#e9b395"/><path d="M107.111 47.418a6.816 6.816 0 01-.494-1.922c.019-.8.576-1.369.233-2.076a1.6 1.6 0 01.853-1.886 9.285 9.285 0 003.167-1.057c1.161-.831 3.44-.789 3.947-.036.609.913.034 1.111 1.408 1.97.547.343.182 1.551.228 2.285a4.966 4.966 0 00.121.854l.037.18 1.419-.252a39.276 39.276 0 00-.3-3.433 3.555 3.555 0 00-2.845-3.042 9.427 9.427 0 00-7.976 1.685 3.582 3.582 0 00-1.249 3.308 25.988 25.988 0 00.8 3.537z" fill="#3f4d6c"/><path d="M117.506 46.206a6.113 6.113 0 01-.109-1.129 1.363 1.363 0 01.54-1.3.884.884 0 011.215.088c.972 1.012.745 4.734-1.288 4.241z" fill="#e9b395"/><path d="M118.045 47.002a.163.163 0 00.1-.168 2.52 2.52 0 01.769-1.907.163.163 0 00.01-.23.161.161 0 00-.228-.011 2.806 2.806 0 00-.871 2.18.162.162 0 00.177.146.166.166 0 00.043-.01" fill="#e69277"/><path d="M118.881 46.099a.159.159 0 00.073-.055.164.164 0 00-.036-.228 1.473 1.473 0 00-.744-.236.163.163 0 00-.016.325 1.164 1.164 0 01.57.175.161.161 0 00.154.02" fill="#e69277"/><path d="M99.813 126.641l.145 4.216a4.27 4.27 0 01-3.182.384l-.875-4.53z" fill="#e9b395"/><path d="M97.232 130.695s-.73-1.016-1.322-.982-5.209 3.616-6.777 3.894-1.49 2.239-.874 2.461c.7.254 12.294.035 12.294.035s.44-4.144.058-5.265-2.162.139-3.379-.143" fill="#28aec9"/><path d="M94.673 133.203a.22.22 0 00.257-.317 3.379 3.379 0 00-1.123-1.21 1.505 1.505 0 00-1.551.05.22.22 0 00.256.36 1.071 1.071 0 011.092-.019 2.992 2.992 0 01.943 1.032.22.22 0 00.126.1" fill="#fcfafa"/><path d="M95.334 132.593a.218.218 0 00.172-.017.222.222 0 00.087-.3 3.387 3.387 0 00-1.124-1.21 1.5 1.5 0 00-1.551.05.22.22 0 00-.049.308.218.218 0 00.305.052 1.072 1.072 0 011.092-.019 2.976 2.976 0 01.942 1.032.216.216 0 00.126.1m-1.553 1.104a.218.218 0 00.172-.017.221.221 0 00.087-.3 3.379 3.379 0 00-1.124-1.21 1.5 1.5 0 00-1.551.051.22.22 0 00-.049.307.218.218 0 00.305.052 1.072 1.072 0 011.092-.019 2.978 2.978 0 01.943 1.033.217.217 0 00.126.1" fill="#fcfafa"/><path d="M121.274 91.109s-28.153-1.56-32.985-.019c-4.158 1.325 7.207 36.685 7.207 36.685a5.725 5.725 0 004.978-1.134s.864-2.11-.512-13.841a72.117 72.117 0 00-2.033-12.718l18.677.095c4 0 5.266-3.391 4.846-7.389z" fill="#3f4d6c"/><path d="M94.152 82.431s-4.239.72-6.007 2.2-4.138 2.763-3.785 3.53 2.849-.861 2.849-.861a4.064 4.064 0 002.638 1.983c2.044.6 6.412-2.93 6.412-2.93z" fill="#e9b395"/><path d="M122.088 57.333c-2.365 3.6-11.414 16.052-13.456 17.5a103.619 103.619 0 01-14.427 7.6c-.782.325 1.737 4.028 1.737 4.028s10.693-3.507 15.261-6.437c1.292-.829 6.665-6.238 10.091-11.036 1.172-1.645 3.081-3.928 3.36-6.355.318-2.794-.556-4.29-2.564-5.3" fill="#28aec9"/><path d="M100.077 91.09H78.693a1.075 1.075 0 01-1.072-1.081v-.923a1.075 1.075 0 011.072-1.077h21.384a1.074 1.074 0 011.072 1.077v.923a1.074 1.074 0 01-1.072 1.077" fill="#172337"/><path d="M73.664 91.089l-4.787-18.017a1.593 1.593 0 011.532-2.005h10.534a1.586 1.586 0 011.527 1.163l5.272 18.859z" fill="#3f4d6c"/><path d="M82.471 72.231l5.228 18.7h1.2l-5.224-18.7a1.59 1.59 0 00-1.532-1.164h-1.2a1.589 1.589 0 011.528 1.164" fill="#172337"/><path d="M79.763 81.885a1.654 1.654 0 01-1.646 2.148 2.862 2.862 0 01-2.637-2.148 1.654 1.654 0 011.643-2.152 2.862 2.862 0 012.64 2.152" fill="#6bbed9"/></svg>