<svg xmlns="http://www.w3.org/2000/svg" width="453" height="291.656"><defs><linearGradient id="a" y1=".5" x2="1" y2=".5" gradientUnits="objectBoundingBox"><stop offset="0" stop-color="#99cee3"/><stop offset="1" stop-color="#c9d1e2"/></linearGradient><linearGradient id="b" y1=".5" x2="1" y2=".5" gradientUnits="objectBoundingBox"><stop offset="0" stop-color="#c9d1e2"/><stop offset="1" stop-color="#99cee3"/></linearGradient></defs><g transform="translate(-277 -741.065)"><path d="M389.814 794.159q-.668.7-1.334 1.427c-44.392 48.365-24.642 169.2 68.829 196.738 97 28.578 189.407-23.935 194.821-73.247 5.413-49.313-37.328-64.807-103.66-51.018-37.476 7.79-54.207-21.707-61.671-48.845a57.744 57.744 0 00-55.832-42.938 56.267 56.267 0 00-41.153 17.883" fill="none"/><path d="M23.994 17.883q-.668.7-1.334 1.427c-44.392 48.365-24.642 169.2 68.829 196.738 97 28.578 189.407-23.935 194.821-73.247 5.413-49.313-37.328-64.807-103.66-51.018-37.476 7.79-54.207-21.707-61.671-48.845A57.744 57.744 0 0065.147 0a56.267 56.267 0 00-41.153 17.883" transform="translate(365.82 776.276)" fill="url(#a)"/><path d="M389.814 794.159q-.668.7-1.334 1.427c-44.392 48.365-24.642 169.2 68.829 196.738 97 28.578 189.407-23.935 194.821-73.247 5.413-49.313-37.328-64.807-103.66-51.018-37.476 7.79-54.207-21.707-61.671-48.845a57.744 57.744 0 00-55.832-42.938 56.267 56.267 0 00-41.153 17.883m.418 231.227c0 4.051 54.75 7.335 122.289 7.335 67.538 0 122.29-3.284 122.29-7.335 0-4.053-54.752-7.337-122.29-7.337-67.539 0-122.289 3.284-122.289 7.337" fill="none"/><path d="M122.289 14.672c67.538 0 122.29-3.284 122.29-7.335S189.827 0 122.289 0 0 3.284 0 7.337s54.75 7.335 122.289 7.335z" transform="translate(390 1010.772)" fill="url(#b)"/><path d="M390.232 1025.386c0 4.051 54.75 7.335 122.289 7.335 67.538 0 122.29-3.284 122.29-7.335 0-4.053-54.752-7.337-122.29-7.337-67.539 0-122.289 3.284-122.289 7.337" fill="none"/><path d="M461.883 1003.876h-17.435a5.477 5.477 0 01-5.205-3.8l-7.394-22.877a1.52 1.52 0 011.325-1.985 254.627 254.627 0 0139.991 0 1.519 1.519 0 011.32 1.984l-7.394 22.88a5.476 5.476 0 01-5.205 3.8" fill="#28aec9"/><path d="M454.087 976.875v-28.543a.922.922 0 10-1.843 0v28.543a1.715 1.715 0 001.843 0" fill="#6bbed9"/><path d="M453.166 955.055s1.746-12.657 17.87-12.657c0 0-2.764 17.9-17.87 12.657" fill="#6bbed9"/><path d="M453.99 958.942s-1.746-12.657-17.869-12.657c0 0 2.764 17.9 17.869 12.657m.182 11.242s-4.128-12.087-19.953-8.976c0 0 6.13 17.04 19.953 8.976" fill="#6bbed9"/><path d="M453.153 970.083s11.848 4.633 19.7-9.522c0 0-16.9-6.3-19.7 9.522" fill="#6bbed9"/><path d="M426.59 866.327a.526.526 0 01-.525-.528v-1.055a.525.525 0 111.05 0v1.055a.526.526 0 01-.525.528m.037-6.419a.545.545 0 01-.562-.528v-1.787a.545.545 0 01.562-.528.545.545 0 01.562.528v1.787a.545.545 0 01-.562.528m0 3.576a.545.545 0 01-.562-.528v-1.787a.546.546 0 01.562-.529.546.546 0 01.562.529v1.787a.545.545 0 01-.562.528m-.037-7.151a.526.526 0 01-.525-.528v-1.055a.525.525 0 111.05 0v1.055a.526.526 0 01-.525.528" fill="#28aec9"/><path d="M476.567 898.967h-2.1a.544.544 0 01-.526-.562.544.544 0 01.526-.562h2.1a.544.544 0 01.525.562.544.544 0 01-.525.562m4.2 0h-2.1a.544.544 0 01-.525-.562.544.544 0 01.525-.562h2.1a.545.545 0 01.526.562.545.545 0 01-.526.562m4.202 0h-2.1a.544.544 0 01-.525-.562.544.544 0 01.525-.562h2.1a.544.544 0 01.525.562.544.544 0 01-.525.562m4.201 0h-2.101a.545.545 0 01-.525-.562.545.545 0 01.525-.562h2.1a.544.544 0 01.525.562.544.544 0 01-.524.562m4.201 0h-2.1a.544.544 0 01-.525-.562.544.544 0 01.525-.562h2.1a.544.544 0 01.525.562.544.544 0 01-.525.562m4.201 0h-2.1a.545.545 0 01-.526-.562.545.545 0 01.526-.562h2.1a.544.544 0 01.525.562.544.544 0 01-.525.562m-43.391-113.183h-2.1a.544.544 0 01-.525-.562.544.544 0 01.525-.562h2.1a.544.544 0 01.525.562.544.544 0 01-.525.562m4.202 0h-2.101a.544.544 0 01-.524-.562.544.544 0 01.524-.562h2.1a.545.545 0 01.526.562.545.545 0 01-.525.562m2.369 0h-.269a.544.544 0 01-.525-.562.544.544 0 01.525-.562h.269a.545.545 0 01.525.562.545.545 0 01-.525.562m52.078-24.237h-2.1a.544.544 0 01-.525-.562.544.544 0 01.525-.562h2.1a.544.544 0 01.525.562.544.544 0 01-.525.562m4.202 0h-2.101a.544.544 0 01-.525-.562.544.544 0 01.525-.562h2.1a.545.545 0 01.525.562.545.545 0 01-.525.562m4.201 0h-2.1a.544.544 0 01-.525-.562.544.544 0 01.525-.562h2.1a.544.544 0 01.525.562.544.544 0 01-.525.562m103.544-1.124h-2.1a.528.528 0 000 1.056h2.1a.528.528 0 000-1.056m-.963 152.28h-2.1a.528.528 0 000 1.056h2.1a.528.528 0 000-1.056m4.202 0h-2.1a.528.528 0 000 1.056h2.1a.528.528 0 000-1.056m.963-152.28h-2.1a.528.528 0 000 1.056h2.1a.528.528 0 000-1.056m-12.604 0h-.215v1.056h.215a.528.528 0 000-1.056m3.238 152.28h-2.1a.528.528 0 000 1.056h2.1a.528.528 0 000-1.056m.963-152.28h-2.1a.528.528 0 000 1.056h2.1a.528.528 0 000-1.056m13.044 149.468a.527.527 0 00-.525.528v2.111a.526.526 0 101.051 0v-2.111a.528.528 0 00-.526-.528m0-12.668a.527.527 0 00-.525.528v2.111a.526.526 0 101.051 0v-2.111a.527.527 0 00-.526-.528m-18.208 15.48h-2.1a.528.528 0 000 1.056h2.1a.528.528 0 000-1.056m18.208-23.926a.527.527 0 00-.525.528v2.112a.526.526 0 101.051 0v-2.112a.527.527 0 00-.526-.528m0 4.223a.527.527 0 00-.525.528v2.111a.526.526 0 101.051 0v-2.111a.527.527 0 00-.526-.528m0 8.445a.528.528 0 00-.525.529v2.111a.526.526 0 101.051 0v-2.111a.528.528 0 00-.526-.529m0 4.223a.528.528 0 00-.525.529v2.111a.526.526 0 101.051 0v-2.111a.528.528 0 00-.526-.529m0-21.114a.527.527 0 00-.525.528v2.111a.526.526 0 101.051 0v-2.111a.527.527 0 00-.526-.528m-60.218 28.149h-2.1a.528.528 0 000 1.056h2.1a.528.528 0 000-1.056m4.201 0h-2.1a.528.528 0 000 1.056h2.1a.528.528 0 000-1.056m-8.402 0h-2.099a.528.528 0 000 1.056h2.1a.528.528 0 00-.001-1.056m42.01 0h-2.1a.528.528 0 000 1.056h2.1a.528.528 0 000-1.056m-46.211 0h-2.1a.528.528 0 000 1.056h2.1a.528.528 0 000-1.056m16.804 0h-2.1a.528.528 0 000 1.056h2.1a.528.528 0 000-1.056m-21.005 0h-2.1a.528.528 0 000 1.056h2.1a.528.528 0 000-1.056m70.28-151.224h2.1a.528.528 0 00-.001-1.056h-2.099a.528.528 0 000 1.056m-28.269 151.224h-2.1a.528.528 0 000 1.056h2.1a.528.528 0 000-1.056m4.2 0h-2.1a.528.528 0 000 1.056h2.1a.528.528 0 000-1.056m-21.005 0h-2.1a.528.528 0 000 1.056h2.1a.528.528 0 000-1.056m12.604 0h-2.1a.528.528 0 000 1.056h2.1a.528.528 0 000-1.056m-4.202 0h-2.1a.528.528 0 000 1.056h2.1a.528.528 0 000-1.056m-4.201 0h-2.1a.528.528 0 000 1.056h2.1a.528.528 0 000-1.056m42.011 0h-2.1a.528.528 0 000 1.056h2.1a.528.528 0 000-1.056m1.403-125.274a.527.527 0 00-.525.528v2.111a.526.526 0 101.051 0v-2.111a.527.527 0 00-.526-.528m0 8.445a.527.527 0 00-.525.528v2.112a.526.526 0 101.051 0v-2.112a.528.528 0 00-.526-.528m0-4.222a.527.527 0 00-.525.528v2.111a.526.526 0 101.051 0v-2.111a.527.527 0 00-.526-.528m0 8.445a.527.527 0 00-.525.528v2.112a.526.526 0 101.051 0v-2.112a.527.527 0 00-.526-.528m0 12.669a.527.527 0 00-.525.528v2.111a.526.526 0 101.051 0v-2.111a.527.527 0 00-.526-.528m0-4.223a.527.527 0 00-.525.528v2.111a.526.526 0 101.051 0v-2.111a.527.527 0 00-.526-.528m0-4.223a.527.527 0 00-.525.528v2.111a.526.526 0 101.051 0v-2.111a.527.527 0 00-.526-.528m0-42.228a.527.527 0 00-.525.528v2.112a.526.526 0 101.051 0v-2.112a.527.527 0 00-.526-.528m0 4.223a.527.527 0 00-.525.528v2.111a.526.526 0 101.051 0v-2.111a.527.527 0 00-.526-.528m0 50.674a.527.527 0 00-.525.528v2.112a.526.526 0 101.051 0v-2.112a.527.527 0 00-.526-.528m0-46.451a.527.527 0 00-.525.528v2.111a.526.526 0 101.051 0v-2.111a.527.527 0 00-.526-.528m0 4.222a.527.527 0 00-.525.528v2.111a.526.526 0 101.051 0v-2.111a.527.527 0 00-.526-.528m0 4.223a.527.527 0 00-.525.528v2.112a.526.526 0 101.051 0v-2.112a.527.527 0 00-.526-.528m0 4.223a.527.527 0 00-.525.528v2.111a.526.526 0 101.051 0v-2.111a.527.527 0 00-.526-.528m0 84.457a.527.527 0 00-.525.528v2.111a.526.526 0 101.051 0v-2.111a.527.527 0 00-.526-.528m0-8.446a.527.527 0 00-.525.528v2.111a.526.526 0 101.051 0v-2.111a.527.527 0 00-.526-.528m0-4.223a.527.527 0 00-.525.528v2.112a.526.526 0 101.051 0v-2.112a.527.527 0 00-.526-.528m0 8.446a.527.527 0 00-.525.528v2.111a.526.526 0 101.051 0v-2.111a.527.527 0 00-.526-.528m0 12.669a.527.527 0 00-.525.528v2.112a.526.526 0 101.051 0v-2.112a.527.527 0 00-.526-.528m0-25.338a.527.527 0 00-.525.528v2.112a.526.526 0 101.051 0v-2.112a.528.528 0 00-.526-.528m0-29.559a.527.527 0 00-.525.528v2.111a.526.526 0 101.051 0v-2.111a.527.527 0 00-.526-.528m0 50.674a.527.527 0 00-.525.528v2.112a.526.526 0 101.051 0v-2.112a.528.528 0 00-.526-.528m0 8.445a.527.527 0 00-.525.528v2.111a.526.526 0 101.051 0v-2.111a.527.527 0 00-.526-.528m0-50.674a.527.527 0 00-.525.528v2.111a.526.526 0 101.051 0v-2.111a.527.527 0 00-.526-.528m0-4.222a.527.527 0 00-.525.528v2.111a.526.526 0 101.051 0v-2.111a.527.527 0 00-.526-.528m0 8.445a.527.527 0 00-.525.528v2.112a.526.526 0 101.051 0v-2.112a.527.527 0 00-.526-.528m0 12.669a.527.527 0 00-.525.528v2.111a.526.526 0 101.051 0v-2.111a.527.527 0 00-.526-.528m0-4.223a.527.527 0 00-.525.528v2.111a.526.526 0 101.051 0v-2.111a.527.527 0 00-.526-.528m0-4.223a.527.527 0 00-.525.528v2.111a.526.526 0 101.051 0v-2.111a.527.527 0 00-.526-.528m-254.938-52.387h-2.1a.528.528 0 010-1.056h2.1a.528.528 0 010 1.056m4.201 0h-2.101a.528.528 0 010-1.056h2.1a.528.528 0 010 1.056m4.202 0h-2.1a.528.528 0 010-1.056h2.1a.528.528 0 010 1.056m4.201 0h-2.101a.528.528 0 010-1.056h2.1a.528.528 0 010 1.056m4.202 0h-2.1a.528.528 0 010-1.056h2.1a.528.528 0 010 1.056m4.201 0h-2.1a.528.528 0 010-1.056h2.1a.528.528 0 010 1.056m4.201 0h-2.1a.528.528 0 010-1.056h2.1a.528.528 0 010 1.056m-30.198 1.315a.526.526 0 01-.525-.527v-1.316a.526.526 0 01.525-.528h.791a.528.528 0 010 1.056h-.266v.788a.526.526 0 01-.525.528m0 4.222a.526.526 0 01-.525-.528v-2.111a.525.525 0 111.05 0v2.111a.526.526 0 01-.525.528m0 4.223a.526.526 0 01-.525-.528v-2.112a.525.525 0 111.05 0v2.112a.526.526 0 01-.525.528m0 4.224a.527.527 0 01-.525-.529v-2.111a.525.525 0 111.05 0v2.111a.527.527 0 01-.525.529m0 4.222a.526.526 0 01-.525-.528v-2.111a.525.525 0 111.05 0v2.111a.526.526 0 01-.525.528m0 4.223a.526.526 0 01-.525-.528v-2.111a.525.525 0 111.05 0v2.111a.526.526 0 01-.525.528m0 4.223a.526.526 0 01-.525-.528v-2.111a.525.525 0 111.05 0v2.111a.526.526 0 01-.525.528m0 4.223a.527.527 0 01-.525-.528v-2.112a.525.525 0 111.05 0v2.112a.527.527 0 01-.525.528m0 4.222a.526.526 0 01-.525-.527v-2.112a.525.525 0 111.05 0v2.112a.526.526 0 01-.525.527m0 4.223a.526.526 0 01-.525-.528v-2.111a.525.525 0 111.05 0v2.111a.526.526 0 01-.525.528m0 4.224a.526.526 0 01-.525-.529v-2.11a.525.525 0 111.05 0v2.11a.526.526 0 01-.525.529m0 4.222a.526.526 0 01-.525-.528v-2.111a.525.525 0 111.05 0v2.111a.526.526 0 01-.525.528m0 4.223a.526.526 0 01-.525-.528v-2.112a.525.525 0 111.05 0v2.112a.526.526 0 01-.525.528m0 4.222a.526.526 0 01-.525-.527v-2.112a.525.525 0 111.05 0v2.112a.526.526 0 01-.525.527m0 4.223a.526.526 0 01-.525-.528v-2.111a.525.525 0 111.05 0v2.111a.526.526 0 01-.525.528m0 4.224a.526.526 0 01-.525-.529v-2.111a.525.525 0 111.05 0v2.111a.526.526 0 01-.525.529m0 4.222a.526.526 0 01-.525-.528v-2.111a.525.525 0 111.05 0v2.111a.526.526 0 01-.525.528m0 4.223a.526.526 0 01-.525-.528v-2.111a.525.525 0 111.05 0v2.111a.526.526 0 01-.525.528m0 4.223a.526.526 0 01-.525-.527v-2.112a.525.525 0 111.05 0v2.112a.526.526 0 01-.525.527m0 4.223a.526.526 0 01-.525-.528v-2.111a.525.525 0 111.05 0v2.111a.526.526 0 01-.525.528m0 4.223a.526.526 0 01-.525-.529v-2.111a.525.525 0 111.05 0v2.111a.526.526 0 01-.525.529m0 4.222a.526.526 0 01-.525-.528v-2.111a.525.525 0 111.05 0v2.111a.526.526 0 01-.525.528m0 4.224a.526.526 0 01-.525-.528v-2.111a.525.525 0 111.05 0v2.111a.526.526 0 01-.525.528m0 4.222a.526.526 0 01-.525-.528v-2.111a.525.525 0 111.05 0v2.111a.526.526 0 01-.525.528m0 4.223a.526.526 0 01-.525-.528v-2.112a.525.525 0 111.05 0v2.112a.526.526 0 01-.525.528m0 4.223a.527.527 0 01-.525-.529v-2.11a.525.525 0 111.05 0v2.11a.527.527 0 01-.525.529m0 4.224a.527.527 0 01-.525-.529v-2.112a.525.525 0 111.05 0v2.112a.527.527 0 01-.525.529m2.137 2.072h-2.1a.528.528 0 010-1.056h2.1a.528.528 0 010 1.056m4.201 0h-2.1a.528.528 0 010-1.056h2.1a.528.528 0 010 1.056" fill="#00a2d6"/><path d="M642.038 885.844h-17.373a3.477 3.477 0 01-3.457-3.476V869.85a3.477 3.477 0 013.457-3.476h17.373a3.477 3.477 0 013.459 3.476v12.518a3.478 3.478 0 01-3.459 3.476" fill="#acbcd6"/><path d="M633.08 879.113v3.1a6.32 6.32 0 01-2.4-3.1zm-2.972 0a7.489 7.489 0 001.155 2.129 6.857 6.857 0 00.82.877 6.168 6.168 0 01-4.061-3.006zm-2.855-3.415a6.1 6.1 0 01.635-2.341h2.15a8.258 8.258 0 00-.428 2.341zm5.831.536v2.341h-2.588a8.843 8.843 0 01-.355-2.341zm-4.891-3.416a6.135 6.135 0 013.8-2.7 9.1 9.1 0 00-.858 1.06 8.734 8.734 0 00-.9 1.642zm4.891.539v2.341h-2.939a7.756 7.756 0 01.461-2.341zm-2.261-.538a8.212 8.212 0 01.744-1.322 7.831 7.831 0 011.349-1.516c.055 0 .112-.007.168-.01v2.848zm-.881 5.756h-2.187a6.088 6.088 0 01-.513-2.341h2.365a9.452 9.452 0 00.335 2.341zm9.52-2.341a6.106 6.106 0 01-.513 2.341h-2.124a9.452 9.452 0 00.333-2.341zm-2.307-.536a8.258 8.258 0 00-.428-2.341h2.089a6.078 6.078 0 01.635 2.341zm-3.536 0v-2.341h2.54a7.725 7.725 0 01.46 2.341zm2.905-2.879a8.734 8.734 0 00-.9-1.642 9.006 9.006 0 00-.836-1.041 6.146 6.146 0 013.723 2.683zm-2.905 0v-2.848c.078 0 .158.009.238.015a8.323 8.323 0 012.084 2.833zm2.468 6.294a6.872 6.872 0 01-.991 1.78 5.573 5.573 0 01-1.477 1.353v-3.133zm-.586 2.129a7.489 7.489 0 001.156-2.129h2.025a6.089 6.089 0 01-3.981 2.988 6.747 6.747 0 00.8-.859zm-1.882-2.667v-2.341h3.005a8.914 8.914 0 01-.356 2.341z" fill="#fcfafa"/><path d="M633.352 869.427a6.682 6.682 0 106.647 6.681 6.672 6.672 0 00-6.647-6.681z" fill="#fcfafa"/><path d="M642.038 835.169h-17.373a3.477 3.477 0 01-3.457-3.476v-12.518a3.477 3.477 0 013.457-3.476h17.373a3.478 3.478 0 013.459 3.476v12.518a3.478 3.478 0 01-3.459 3.476" fill="#acbcd6"/><path d="M631.887 823.287v5.03l4.275-2.515z" fill="#fcfafa"/><path d="M631.537 829.282a.347.347 0 01-.174-.047.351.351 0 01-.176-.305v-6.258a.351.351 0 01.176-.3.346.346 0 01.351 0l5.318 3.126a.351.351 0 010 .607l-5.318 3.129a.347.347 0 01-.177.048z" fill="#fcfafa"/><path d="M633.619 820.205a5.6 5.6 0 105.567 5.6 5.589 5.589 0 00-5.567-5.6z" fill="#fcfafa"/><path d="M633.619 832.101a6.3 6.3 0 116.268-6.3 6.293 6.293 0 01-6.268 6.3z" fill="#fcfafa"/><path d="M380.88 832.492h-14.384a3.478 3.478 0 01-3.458-3.474v-10.124a3.478 3.478 0 013.458-3.476h14.384a3.478 3.478 0 013.458 3.476v10.124a3.478 3.478 0 01-3.458 3.476" fill="#acbcd6"/><path d="M376.498 828.054h-7.962a.941.941 0 01-.938-.941v-6.316a.941.941 0 01.938-.943h7.962a.94.94 0 01.938.943v6.316a.94.94 0 01-.938.941m4.529-6.182v4.165a.445.445 0 01-.636.4l-2.047-.978a.448.448 0 01-.254-.404v-2.201a.448.448 0 01.254-.4l2.046-.986a.445.445 0 01.636.4" fill="#fcfafa"/><path d="M460.282 753.322v82.563a4.673 4.673 0 004.661 4.686h40.9a4.638 4.638 0 003.308-1.384 4.69 4.69 0 001.354-3.3v-82.565a4.673 4.673 0 00-4.659-4.686h-40.903a4.616 4.616 0 00-2.114.509 4.687 4.687 0 00-2.547 4.177" fill="#6bbed9"/><path d="M508.182 753.036v83.13a2.073 2.073 0 01-.163.81 2.053 2.053 0 01-1.89 1.254h-41.466a2.057 2.057 0 01-2.055-2.064v-83.13a1.955 1.955 0 01.028-.338 2.072 2.072 0 011.218-1.559 2.008 2.008 0 01.415-.128 2.033 2.033 0 01.394-.037h41.466a2.059 2.059 0 012.053 2.062" fill="#fcfafa"/><path d="M508.182 822.827v13.339a2.1 2.1 0 01-.163.81 2.056 2.056 0 01-1.892 1.254h-41.464a2.057 2.057 0 01-2.055-2.064v-13.339c0-6.593 2.792-8.868 2.792-8.868a39.126 39.126 0 018.428-4.373c.025-.013 1.761-.6 3.62-1.235 2.149-.733 4.46-1.519 4.489-1.539l8.371.595a39.671 39.671 0 003.867 1.485 64.405 64.405 0 016.025 2.42c.5.248.8.392 1.087.552a12.553 12.553 0 014.793 4.048 18.494 18.494 0 012.1 6.911" fill="#6bbed9"/><path d="M494.175 808.892L492.6 838.23h-13.752l-1.4-29.88c2.15-.732 4.46-1.518 4.491-1.538l8.368.595a39.865 39.865 0 003.868 1.485" fill="#fcfafa"/><path d="M491.706 771.449c-3.325.93-8.845-1.154-12.51.447a4.49 4.49 0 00-2.9 5s-2.625 1.435-3.481 5.741c-.692 3.488 1.842 7.55 2.438 9.443h10.08l11.323-10.175a8.553 8.553 0 001.866-5.657c0-3.6-3.49-5.73-6.816-4.8" fill="#3f4d6c"/><path d="M496.132 789.369s1.964-2.632 3.424-.455-.605 8.604-4.18 7.038z" fill="#e69277"/><path d="M496.154 793.962a.3.3 0 00.291-.222 4.682 4.682 0 012.62-2.8.3.3 0 00.177-.384.3.3 0 00-.388-.18 5.211 5.211 0 00-2.988 3.2.3.3 0 00.209.374.283.283 0 00.079.012" fill="#e37c65"/><path d="M498.221 792.963a.3.3 0 00.254-.468 2.761 2.761 0 00-1.134-.92.3.3 0 00-.4.154.3.3 0 00.152.4 2.177 2.177 0 01.872.693.3.3 0 00.255.14" fill="#e37c65"/><path d="M481.179 801.4v6.393s1.9 3.255 4.461 3.477 4.839-2.803 4.839-2.803v-6.617z" fill="#e9b395"/><path d="M481.179 801.4v2.837c1.721 1.92 4.777 2.4 9.3 1.728v-4.115z" fill="#e69277"/><path d="M497.272 787.381a44.411 44.411 0 01-.109 2.01 38.838 38.838 0 01-.496 3.983.05.05 0 010 .014c0 .018-.006.044-.012.082l-.043.221c-.03.151-.06.3-.094.46-.046.237-.1.482-.158.732-.98 4.161-2.907 8-6.6 9.323-8.782 3.15-12.274-3.731-13.781-8.484a21.002 21.002 0 01-.672-2.629.124.124 0 010-.023v-.014c-.259-1.323-.44-2.826-.578-4.32a86.66 86.66 0 01-.255-3.752 6.7 6.7 0 01.225-2.067c.044-.161.092-.319.148-.474l.088-.234c.062-.153.132-.303.199-.453s.15-.294.23-.436.171-.282.263-.415a6.7 6.7 0 011.74-1.742c.136-.093.279-.183.425-.267a6.687 6.687 0 01.921-.44c3.843-1.486 9.679-2.66 15.21.492a6.651 6.651 0 012.733 2.958c.061.129.117.26.171.394.032.084.064.167.093.254.06.172.113.344.158.52a4.749 4.749 0 01.109.5 6.586 6.586 0 01.1 1.055 50.75 50.75 0 01-.019 2.754" fill="#e9b395"/><path d="M474.729 788.735c.271.2.324.644.841.872l.051.239h1.691a33.376 33.376 0 01-.08-.658c-.15-1.367-.969-4.063.19-4.381s-.02-2.78 1.59-4.042a7.46 7.46 0 017.586-.144c2.374 1.466 5.051-.112 6.144.144s2.584 1.771 2.182 3.191.8 2.277 1.1 3.745a7.754 7.754 0 01-.047 2.147h1.152c.013-.152.028-.305.037-.455a51.825 51.825 0 00.13-4.762 6.412 6.412 0 00-.107-1.057 4.8 4.8 0 00-.109-.5c-.044-.176-.1-.35-.158-.52-.028-.086-.061-.17-.093-.254a7.42 7.42 0 00-.171-.393 6.651 6.651 0 00-2.733-2.956c-5.532-3.152-11.369-1.979-15.212-.495a6.736 6.736 0 00-.919.438 7.072 7.072 0 00-.425.267 6.691 6.691 0 00-1.292 1.158 6.829 6.829 0 00-.449.585 5.86 5.86 0 00-.493.852c-.072.149-.137.3-.2.452l-.088.233c-.055.155-.1.314-.148.473a6.7 6.7 0 00-.224 2.07c.056 1.158.135 2.45.255 3.751" fill="#3f4d6c"/><path d="M476.004 790.326a2.637 2.637 0 00-1.274-2 1.535 1.535 0 00-2.26.588c-1.46 2.176.6 8.6 4.179 7.036z" fill="#e9b395"/><path d="M475.864 793.962a.3.3 0 01-.291-.222 4.682 4.682 0 00-2.615-2.797.3.3 0 01-.174-.387.3.3 0 01.388-.18 5.211 5.211 0 012.992 3.201.3.3 0 01-.209.374.283.283 0 01-.082.012" fill="#e69277"/><path d="M473.803 792.963a.3.3 0 01-.252-.468 2.761 2.761 0 011.134-.92.3.3 0 01.4.154.3.3 0 01-.151.4 2.176 2.176 0 00-.873.693.3.3 0 01-.255.14" fill="#e69277"/><path d="M616.207 742.892v60.3a1.822 1.822 0 01-1.817 1.827h-91.066a1.822 1.822 0 01-1.817-1.823v-60.304a1.822 1.822 0 011.817-1.827h91.07a1.822 1.822 0 011.813 1.827" fill="#6bbed9"/><path d="M613.701 745.477v55.134a1.85 1.85 0 01-1.847 1.855h-85.991a1.773 1.773 0 01-.641-.118 1.845 1.845 0 01-1.202-1.737v-55.134a1.85 1.85 0 011.843-1.856h85.991a1.788 1.788 0 01.7.14 1.849 1.849 0 011.15 1.717" fill="#fcfafa"/><path d="M613.701 745.476v2.746h-89.682v-2.746a1.848 1.848 0 011.844-1.854h85.993a1.849 1.849 0 011.845 1.854" fill="#d3d7de"/><path d="M536.177 745.956a.607.607 0 00.605.608h60.573a.609.609 0 000-1.217h-60.573a.607.607 0 00-.605.609" fill="#fcfafa"/><path d="M529.27 745.956v.45a.167.167 0 01-.251.146l-.388-.225-.388-.225a.169.169 0 010-.292l.388-.225.388-.225a.168.168 0 01.251.145zm2.02 0v.45a.167.167 0 00.25.146l.389-.225.388-.225a.169.169 0 000-.292l-.388-.225-.389-.225a.167.167 0 00-.25.145z" fill="#3f4d6c"/><path d="M606.664 745.92a.9.9 0 11-.891-.9.9.9 0 01.9.9" fill="#6d6da4"/><path d="M603.349 745.92a.9.9 0 11-.892-.9.9.9 0 01.9.9" fill="#ecaa35"/><path d="M609.979 745.92a.9.9 0 11-.892-.9.9.9 0 01.9.9" fill="#e1666a"/><path d="M595.009 802.457h-44.813l-5.355.009a18.3 18.3 0 011.826-4.573c.182-.335.359-.642.522-.917.464-.776.819-1.285.873-1.362a.037.037 0 00.007-.011 19.583 19.583 0 015.144-4.257q.426-.274.863-.551c.987-.619 9.041-3.373 10.065-3.973l8.512-.6c.053.032 8.19 2.791 8.243 2.821.35.2.7.4 1.053.607a47.974 47.974 0 017.702 5.172 8.252 8.252 0 01.665.674 4.849 4.849 0 01.4.512 41.944 41.944 0 014.294 6.445" fill="#6bbed9"/><path d="M557.417 763.041s-4.762-1.67-4.286-5.391c.4-3.168 3.9-1.114 3.593-3.59s-.99-4.725 2.018-5.344c2.633-.541 2.677 1.379 6.134-1.406 4.083-3.289 7.222 4.328 10.863 4.557 5.375.337 6.054 3.572 6.582 6.16s-2.07 5.627-2.07 5.627z" fill="#3f4d6c"/><path d="M558.214 768.477s-1.998-2.677-3.483-.463.618 8.753 4.251 7.156z" fill="#e69277"/><path d="M558.188 773.15a.307.307 0 01-.3-.225 4.767 4.767 0 00-2.659-2.844.31.31 0 01.215-.58 5.3 5.3 0 013.04 3.256.311.311 0 01-.214.381.3.3 0 01-.083.012" fill="#e37c65"/><path d="M556.087 772.133a.309.309 0 01-.258-.477 2.82 2.82 0 011.151-.934.308.308 0 01.25.564 2.227 2.227 0 00-.887.7.307.307 0 01-.259.142" fill="#e37c65"/><path d="M578.8 768.477s2-2.677 3.482-.463-.614 8.753-4.25 7.156z" fill="#e69277"/><path d="M578.825 773.15a.309.309 0 00.3-.225 4.764 4.764 0 012.661-2.844.308.308 0 00.178-.4.306.306 0 00-.4-.18 5.3 5.3 0 00-3.034 3.256.309.309 0 00.213.381.3.3 0 00.083.012" fill="#e37c65"/><path d="M580.925 772.133a.309.309 0 00.258-.477 2.821 2.821 0 00-1.153-.934.306.306 0 00-.406.156.309.309 0 00.155.408 2.227 2.227 0 01.887.7.307.307 0 00.259.142" fill="#e37c65"/><path d="M573.424 780.717v6.5s-1.929 3.314-4.539 3.54-4.922-2.851-4.922-2.851v-6.732z" fill="#e9b395"/><path d="M573.424 780.717v2.885c-1.751 1.953-4.861 2.44-9.461 1.758v-4.186z" fill="#e69277"/><path d="M580.242 764.018a63.052 63.052 0 01-.837 8.212v.007a.141.141 0 010 .024v.005a19.77 19.77 0 01-.4 1.718 25.81 25.81 0 01-.287.954c-1.537 4.836-5.095 11.835-14.019 8.633-3.759-1.347-5.719-5.25-6.715-9.484-.058-.252-.114-.5-.162-.742-.033-.16-.066-.316-.094-.469l-.044-.226-.014-.082a.092.092 0 010-.014 46.623 46.623 0 01-.638-8.904 6.794 6.794 0 013.428-5.772c5.624-3.207 11.563-2.01 15.471-.5a6.76 6.76 0 014.311 6.639" fill="#e9b395"/><path d="M580.244 764.016a63.6 63.6 0 01-.839 8.214l-1.373-.1s.333-2.134.487-3.524.414-3.989-.766-4.314-.488-3.281-2.13-4.566a7.593 7.593 0 00-7.717-.147c-2.416 1.492-5.138-.113-6.251.147s-2.623 1.801-2.213 3.244-.819 2.316-1.119 3.808.654 5.509.654 5.509l-1.309.263a46.547 46.547 0 01-.635-8.9 6.792 6.792 0 013.426-5.771c5.627-3.207 11.564-2.011 15.473-.501a6.769 6.769 0 014.312 6.639" fill="#3f4d6c"/><path d="M475.402 866.161v60.3a1.822 1.822 0 01-1.817 1.827h-91.066a1.822 1.822 0 01-1.817-1.823v-60.304a1.822 1.822 0 011.817-1.827h91.07a1.822 1.822 0 011.813 1.827" fill="#6bbed9"/><path d="M472.895 868.744v55.135a1.849 1.849 0 01-1.846 1.855h-85.992a1.767 1.767 0 01-.64-.117 1.848 1.848 0 01-1.203-1.738v-55.135a1.849 1.849 0 011.843-1.855h85.992a1.807 1.807 0 01.7.139 1.853 1.853 0 011.149 1.717" fill="#fcfafa"/><path d="M472.895 868.743v2.746h-89.682v-2.746a1.85 1.85 0 011.845-1.854h85.993a1.849 1.849 0 011.844 1.854" fill="#d3d7de"/><path d="M395.371 869.225a.607.607 0 00.605.608h60.574a.609.609 0 000-1.217h-60.574a.607.607 0 00-.605.609" fill="#fcfafa"/><path d="M388.464 869.225v.45a.167.167 0 01-.251.146l-.388-.225-.388-.226a.168.168 0 010-.291l.388-.225.388-.225a.168.168 0 01.251.145zm2.02 0v.45a.167.167 0 00.25.146l.389-.225.388-.226a.168.168 0 000-.291l-.388-.225-.389-.225a.167.167 0 00-.25.145z" fill="#3f4d6c"/><path d="M465.858 869.188a.9.9 0 11-.891-.9.9.9 0 01.9.9" fill="#6d6da4"/><path d="M462.543 869.188a.9.9 0 11-.891-.9.9.9 0 01.9.9" fill="#ecaa35"/><path d="M469.173 869.188a.9.9 0 11-.892-.9.9.9 0 01.9.9" fill="#e1666a"/><path d="M450.104 925.747c-.639-2.546-1.043-4.145-1.043-4.145-1.968-.429-3.817 1.734-5.217 4.145z" fill="#e9b395"/><path d="M449.15 925.751c.161-2.461.115-4.081-.295-4.6a12.364 12.364 0 00-2.624-2.268 64.851 64.851 0 00-6.146-3.587c-2.985-1.578-5.904-3.024-7.456-4.063a10.632 10.632 0 01-4.407 1.117 1.039 1.039 0 01-.117 0 1.168 1.168 0 01-.123 0 10.611 10.611 0 01-4.404-1.117c-1.673 1.118-5.01 2.756-8.3 4.519-1.384.747-2.764 1.516-4.005 2.281-.526.323-1.024.646-1.491.964a12.61 12.61 0 00-2.724 2.33c-.4.508-.433 2.063-.252 4.424z" fill="#6bbed9"/><path d="M440.084 915.298c-2.02 4.631-6.766 10.913-13.224 9.792-6.254-1.087-9.44-5.897-11.581-9.337 3.288-1.765 6.626-3.4 8.3-4.519a10.628 10.628 0 004.4 1.117 1.143 1.143 0 00.123 0 1.087 1.087 0 00.12 0 10.645 10.645 0 004.407-1.117c1.551 1.037 4.474 2.484 7.455 4.064" fill="#e9b395"/><path d="M428.224 912.513v.006h-.12.12m6.873-38.263a6.752 6.752 0 01-.154 1.43 6.554 6.554 0 01-12.8.03 6.6 6.6 0 016.397-8.051 6.574 6.574 0 016.557 6.591" fill="#3f4d6c"/><path d="M434.946 875.686a6.579 6.579 0 01-1.024 2.343l-.328.33h-10.186a6.571 6.571 0 01-1.262-2.642 14.226 14.226 0 016.394-1.461 14.729 14.729 0 016.4 1.43" fill="#6bbed9"/><path d="M417.838 892.966s-1.947-2.606-3.394-.452.6 8.531 4.143 6.976z" fill="#e69277"/><path d="M417.813 897.521a.3.3 0 01-.288-.22 4.647 4.647 0 00-2.598-2.774.3.3 0 01.212-.563 5.172 5.172 0 012.962 3.174.3.3 0 01-.207.371.316.316 0 01-.081.012" fill="#e37c65"/><path d="M437.903 892.966s1.952-2.606 3.396-.452-.599 8.532-4.144 6.976z" fill="#e69277"/><path d="M437.929 897.521a.3.3 0 00.288-.22 4.647 4.647 0 012.598-2.774.301.301 0 00-.213-.563 5.172 5.172 0 00-2.962 3.174.3.3 0 00.207.371.316.316 0 00.082.012" fill="#e37c65"/><path d="M439.975 896.528a.3.3 0 00.252-.463 2.738 2.738 0 00-1.124-.911.3.3 0 00-.244.55 2.184 2.184 0 01.865.688.3.3 0 00.252.138" fill="#e37c65"/><path d="M432.664 904.896v6.338s-1.881 3.228-4.422 3.448-4.8-2.779-4.8-2.779v-6.562z" fill="#e9b395"/><path d="M432.664 904.896v2.812c-1.706 1.903-4.737 2.578-9.222 1.912v-4.279z" fill="#e69277"/><path d="M439.311 888.619a61.959 61.959 0 01-.818 8.006 18.362 18.362 0 01-.4 1.71c-1.327 4.67-4.645 12.679-13.937 9.343-4.1-1.472-6.006-6.067-6.854-10.74a45.364 45.364 0 01-.615-8.671 6.62 6.62 0 013.34-5.63c5.484-3.126 11.271-1.961 15.082-.488a6.6 6.6 0 014.2 6.47" fill="#e9b395"/><path d="M440.512 888.129a.988.988 0 01-.721.555 19.161 19.161 0 01-.109 2.228c-.37 4.351-1.461 5.116-1.709 4.04a50.977 50.977 0 01-.076-6.15 14.319 14.319 0 01-1.585-.2l-1-4.225-.352 4.173c-1.506.526-5.021-.317-5.021-.317l-1.176-4.163-.73 4a8.331 8.331 0 01-5.082.369l-.648-4.32-1.5 4.32a16.451 16.451 0 01-2.694.7c0 1.351-.086 5.018-.761 4.806-.714-.225-1.1-3.14-1-4.881a.667.667 0 01-.414-.621 16.973 16.973 0 01.744-6.263c1.2-2.882 2.664-4.623 4.858-5.637 5.15-2.377 12.466-1.363 14.576.042 5.656 3.779 4.4 11.544 4.4 11.544" fill="#3f4d6c"/><path d="M410.98 925.751a105.88 105.88 0 00-1.196-6.758 12.567 12.567 0 00-2.725 2.335c-.4.508-.433 2.063-.252 4.424zm38.17.001c.161-2.461.115-4.081-.295-4.6a12.364 12.364 0 00-2.624-2.268c-.334 1.593-.751 4-1.095 6.868z" fill="#e9b395"/><path d="M408.07 925.752l-1.188-4.068-1.363 4.068z" fill="#e9b395"/><path d="M453.166 768.223v82.563a4.673 4.673 0 01-4.661 4.686h-40.903a4.638 4.638 0 01-3.308-1.384 4.686 4.686 0 01-1.353-3.302v-82.563a4.673 4.673 0 014.661-4.686h40.9a4.619 4.619 0 012.114.509 4.687 4.687 0 012.547 4.177" fill="#6bbed9"/><path d="M450.841 767.938v83.13a2.058 2.058 0 01-2.055 2.064h-41.484a2.054 2.054 0 01-2.035-2.064v-83.13a2.059 2.059 0 012.053-2.064h41.466a2.188 2.188 0 01.393.037 2.143 2.143 0 01.414.13 2.065 2.065 0 011.217 1.559 1.942 1.942 0 01.03.338" fill="#fcfafa"/><path d="M417.59 814.09a81.017 81.017 0 01-2.956-9.16.26.26 0 10-.506.122 81.706 81.706 0 002.974 9.219m7.977 15.412l.338-.426" fill="#d1713a"/><path d="M442.607 820.216l8.233 12.052v15.979l-4.942-6.079-2.784-3.423s-3.756-15.317-.509-18.529z" fill="#6bbed9"/><path d="M447.01 853.131h-27.82l-2.58-8.91-5.383-18.594 8.18-3.243.7-.28.72-.285.084-.03 2.2-.874a21.124 21.124 0 011.354-.486 21.7 21.7 0 013.543-.83 22.122 22.122 0 015.044-.166l.109.006.635.052.764.062.087.007.991.081.384.03 6.585.542c.093 1.427.487 6.26.613 7.685 1.188 2.817 2.977 5.488 3.107 10.49a15.522 15.522 0 01-.429 3.776c-.1.459-.21.955-.337 1.51a1.172 1.172 0 01-.027.128l-.049.22a.284.284 0 01-.012.053c.014.091.032.185.047.28.02.118.037.237.06.355v.014c.182 1.243.286 2.051.355 2.606z" fill="#6bbed9"/><path d="M436.021 819.675c.687 2.8.956 6.927-.814 8.731-2.882 2.936-11.418-1.281-15.796-6.024l.707-.278.7-.279.093-.036 2.2-.875c.195-.078.387-.15.585-.222a22.046 22.046 0 019.356-1.26l.109.008 1.4.115.083.008.99.08z" fill="#e9b395"/><path d="M418.284 811.564a6.114 6.114 0 01-5.1-6.83c0-.03.008-.061.012-.091.439-3.544 1.087-8.436 1.087-8.436 1.527-10.603 12.388-11.544 12.388-11.544 13.1-1.395 16.5 9.755 16.289 15.8-.015.411-.044.829-.091 1.246v.034a18.407 18.407 0 01-.519 3.143 10.834 10.834 0 01-11.892 8.4q-6.1-.768-12.173-1.723" fill="#3f4d6c"/><path d="M433.908 785.936s-5.975-11.377-16.295-3.128-.622 32.575-11.763 34.635c0 0 4.965 4.178 11.647-.359s-2.879-29.376 16.411-31.148" fill="#3f4d6c"/><path d="M439.337 802.321s1.929-2.322 3.261-.321-.786 7.744-4.14 6.235z" fill="#e69277"/><path d="M439.248 806.464a.285.285 0 00.281-.192 4.35 4.35 0 012.556-2.454.272.272 0 00.176-.349.292.292 0 00-.365-.169 4.843 4.843 0 00-2.915 2.809.273.273 0 00.19.343.292.292 0 00.077.013" fill="#e37c65"/><path d="M441.232 805.616a.29.29 0 00.157-.039.267.267 0 00.1-.376 2.574 2.574 0 00-1.058-.857.292.292 0 00-.383.127.268.268 0 00.135.365 2.065 2.065 0 01.812.649.289.289 0 00.238.132" fill="#e37c65"/><path d="M424.637 814.051l-.195 7.112s3.218 2.641 5.777 2.933 3.523-2.719 3.523-2.719l.184-6.619z" fill="#e9b395"/><path d="M424.618 814.747l-.077 2.837c1.669 1.963 4.706 2.733 9.248 2.187l.119-4.316z" fill="#e69277"/><path d="M440.383 805.055c-.1.684-.216 1.38-.358 2.073-.94 4.6-3.986 9.517-7.685 10.253-7.983 1.592-11.106-4.764-12.249-9.421-.126-.517.153-1.1.059-1.709a46.931 46.931 0 01-.845-4.714 103.301 103.301 0 01-.114-3.226 6.536 6.536 0 014.2-6.29c3.688-1.357 9.258-2.359 14.42.88a6.6 6.6 0 013.045 5.661 49.745 49.745 0 01-.471 6.494" fill="#e9b395"/><path d="M437.541 797.181c3.063 1.508 1.977 5.184 2.973 7.071.064.123.134.147.21.086a48.939 48.939 0 00.489-6.619 6.69 6.69 0 00-3.214-5.773c-5.445-3.305-11.316-2.29-15.201-.912a6.649 6.649 0 00-4.42 6.41c.023 1.018.06 2.144.123 3.29.507.323 1.76.5 1.791 1.331.079 2.2.144 3.712.605 3.593.777-.2 1.329-2.853.495-4.6 0 0 .74-1.141 3.66-2.18a55.7 55.7 0 007.372-3.361 6.684 6.684 0 002-1.726 6.6 6.6 0 003.119 3.393" fill="#3f4d6c"/><path d="M420.225 801.773s-2.095-2.703-3.426-.833.323 7.55 3.491 6.263z" fill="#e9b395"/><path d="M419.655 805.445a.265.265 0 01-.249-.2 4.109 4.109 0 00-2.228-2.515.266.266 0 01.201-.492 4.575 4.575 0 012.535 2.88.267.267 0 01-.192.323.287.287 0 01-.072.008" fill="#e69277"/><path d="M417.87 804.519a.275.275 0 01-.142-.047.267.267 0 01-.069-.367 2.409 2.409 0 011.015-.78.266.266 0 01.2.491 1.918 1.918 0 00-.78.586.266.266 0 01-.226.116" fill="#e69277"/><path d="M416.609 844.224c.009 2.866.261 6.054.322 8.91h-9.629c-.07-4.093.123-8.632.142-12.811.025-5.348.219-11.836 3.783-14.699a16.258 16.258 0 013.917 5.484 32.991 32.991 0 011.489 11.535q-.028.768-.024 1.578" fill="#6bbed9"/><path d="M557.017 762.87l-.853-2.532 7.928-5.968 7.359.143 8.313 3.68.96 4.253-.479 1.207-.731-.171-1.95-2.287-1.492-1.644-1.208-1.465-2.774-.785-3.768.25-4.942.965-2.773.464-2.1 1.965z" fill="#3f4d6c"/><path d="M597.619 1002.474h-39.935a7.46 7.46 0 012.172-5.273 7.369 7.369 0 015.245-2.185h.069s8.476-1.111 8.476-8.069v-41.519h8.009v41.52c0 6.958 8.476 8.069 8.476 8.069h.069a7.436 7.436 0 017.418 7.457" fill="#28aec9"/><path d="M581.656 945.428v1.652l-8.01 2.391v-4.043z" fill="#28aec9"/><path d="M616.056 945.428h-76.81a14.719 14.719 0 0114.506-12.142l23.9.064 23.894-.064a14.72 14.72 0 0114.51 12.142" fill="#6bbed9"/><path d="M561.326 855.209c-2 7.443-12.1 26.834-16.025 29.613-5.105 3.617-21.109 10.407-29.434 13.87-1.5.625 4.069 7.232 4.069 7.232s21.529-5.5 30.3-11.131c2.481-1.592 7.856-7 14.663-17.837 2.063-3.287 6.84-9.818 7.37-14.481.61-5.368-5.406-9.062-10.943-7.266" fill="#28aec9"/><path d="M537.268 984.349l.278 8.1s-1.993 1.482-6.111.744l-1.682-8.709z" fill="#e9b395"/><path d="M532.311 992.137s-1.403-1.952-2.541-1.887-10 6.944-13.014 7.479-2.866 4.302-1.679 4.73c1.348.488 23.612.068 23.612.068s.845-7.962.112-10.114-4.149.265-6.489-.276" fill="#28aec9"/><path d="M527.396 996.957a.422.422 0 00.495-.607 6.49 6.49 0 00-2.157-2.328 2.888 2.888 0 00-2.978.1.424.424 0 00-.1.59.419.419 0 00.587.1 2.059 2.059 0 012.1-.032 5.741 5.741 0 011.811 1.977.424.424 0 00.242.2" fill="#fcfafa"/><path d="M528.667 995.784a.418.418 0 00.329-.032.425.425 0 00.166-.575 6.5 6.5 0 00-2.158-2.327 2.887 2.887 0 00-2.979.1.424.424 0 00-.1.59.419.419 0 00.587.1 2.059 2.059 0 012.1-.032 5.717 5.717 0 011.813 1.976.415.415 0 00.242.2m-2.985 2.115a.419.419 0 00.329-.033.424.424 0 00.166-.574 6.49 6.49 0 00-2.157-2.327 2.885 2.885 0 00-2.979.1.423.423 0 00-.094.59.418.418 0 00.586.1 2.061 2.061 0 012.1-.032 5.715 5.715 0 011.807 1.976.418.418 0 00.242.2" fill="#fcfafa"/><path d="M558.33 915.332s-31.18-5.173-40.543.722c-7.099 4.469 11.19 70.478 11.19 70.478a10.994 10.994 0 009.551-2.178s2.876-7.79.235-30.325c-.352-2.995 0-9.828-3.174-21.927l23.733-10.536z" fill="#172337"/><path d="M586.091 845.719s8.64 2.836 13.258 6.912.756 16.242.869 23.149-1.02 47.012-10.865 52.051c-7.435 3.805-38.732-1.973-36.443-12.225a337.158 337.158 0 006.412-36.308c1.322-11.185.764-19.447 2-24.09s15.707-9.965 15.707-9.965z" fill="#6bbed9"/><path d="M565.973 826.893a12.755 12.755 0 0014.772 10.389c6.934-1.232 10.889-7.8 9.664-14.773s-7.17-11.7-14.103-10.463a12.81 12.81 0 00-10.333 14.847" fill="#3f4d6c"/><path d="M566.553 822.443s-5.7-2.235-4.271-5.084c.911-1.82 2.983-.754 3.9-3.494s4.716-3.193 7.954-3.109c2.948.076 3.946-1.309 8.3-.655s6.309 4.086 4.356 6.539-20.239 5.803-20.239 5.803" fill="#3f4d6c"/><path d="M568.7 830.049s-2.457-2.312-3.548.155 2.144 8.604 5.484 6.373z" fill="#e69277"/><path d="M569.493 834.706a.311.311 0 01-.338-.172 4.8 4.8 0 00-3.148-2.361.313.313 0 01.116-.615 5.353 5.353 0 013.6 2.7.312.312 0 01-.145.417.331.331 0 01-.081.027" fill="#e37c65"/><path d="M567.223 834.064a.308.308 0 01-.173-.016.313.313 0 01-.166-.409 2.846 2.846 0 01.985-1.137.31.31 0 01.43.083.314.314 0 01-.083.434 2.253 2.253 0 00-.76.86.312.312 0 01-.233.186" fill="#e37c65"/><path d="M585.267 839.671l1.138 6.474s-2.145 3.326-4.704 4.009-4.678-2.129-4.678-2.129l-1.094-6.226z" fill="#e9b395"/><path d="M585.267 839.671l.505 2.872c-1.401 2.254-4.411 3.29-9.111 3.428l-.732-4.172z" fill="#e69277"/><path d="M589.736 830.164c-.009.649-.038 1.264-.1 1.82s-.131 1.15-.231 1.774c-.813 5.045-3.347 11.831-12.327 10.3-4.457-.758-7.223-5.106-8.93-9.726a39.47 39.47 0 01-1.052-3.328 51.915 51.915 0 01-1.136-5.418 6.892 6.892 0 012.4-6.359c5.042-4.189 11.162-4.048 15.318-3.236a6.83 6.83 0 015.456 5.847 63.889 63.889 0 01.6 8.327" fill="#e9b395"/><path d="M568.747 832.156a13.1 13.1 0 01-.952-3.692c.036-1.539 1.106-2.629.448-3.988s.572-3.171 1.635-3.623 3.75-.361 6.086-2.031c2.229-1.6 6.607-1.515 7.573-.068 1.169 1.753.065 2.134 2.7 3.785 1.05.659.349 2.979.438 4.39a9.543 9.543 0 00.233 1.642l.07.345 2.726-.484c-.077-2.2-.322-4.6-.577-6.595a6.828 6.828 0 00-5.449-5.845c-4.157-.812-10.275-.954-15.318 3.235a6.881 6.881 0 00-2.4 6.357 49.936 49.936 0 001.537 6.794z" fill="#3f4d6c"/><path d="M588.712 829.83a11.747 11.747 0 01-.21-2.168 2.619 2.619 0 011.037-2.497 1.7 1.7 0 012.334.168c1.866 1.947 1.429 9.094-2.471 8.147z" fill="#e9b395"/><path d="M589.747 831.359a.314.314 0 00.2-.322 4.841 4.841 0 011.466-3.664.313.313 0 00.021-.444.309.309 0 00-.438-.02 5.392 5.392 0 00-1.672 4.189.311.311 0 00.34.28.32.32 0 00.083-.02" fill="#e69277"/><path d="M591.353 829.627a.306.306 0 00.139-.109.315.315 0 00-.07-.437 2.829 2.829 0 00-1.428-.454.312.312 0 00-.026.624 2.235 2.235 0 011.09.336.31.31 0 00.3.038" fill="#e69277"/><path d="M554.733 984.349l.278 8.1s-1.992 1.482-6.111.744l-1.681-8.709z" fill="#e9b395"/><path d="M549.775 992.137s-1.404-1.952-2.54-1.887-10 6.944-13.014 7.479-2.867 4.302-1.68 4.73c1.347.488 23.611.068 23.611.068s.845-7.962.112-10.114-4.148.265-6.489-.276" fill="#28aec9"/><path d="M544.861 996.957a.422.422 0 00.495-.607 6.49 6.49 0 00-2.158-2.328 2.89 2.89 0 00-2.979.1.422.422 0 00.492.686 2.057 2.057 0 012.1-.032 5.747 5.747 0 011.808 1.981.422.422 0 00.242.2" fill="#fcfafa"/><path d="M546.131 995.784a.418.418 0 00.329-.032.426.426 0 00.166-.575 6.507 6.507 0 00-2.157-2.327 2.889 2.889 0 00-2.98.1.423.423 0 00-.094.59.418.418 0 00.586.1 2.059 2.059 0 012.1-.032 5.717 5.717 0 011.808 1.976.415.415 0 00.242.2m-2.984 2.115a.418.418 0 00.329-.033.424.424 0 00.166-.574 6.49 6.49 0 00-2.156-2.327 2.887 2.887 0 00-2.98.1.423.423 0 00-.094.59.419.419 0 00.587.1 2.059 2.059 0 012.1-.032 5.721 5.721 0 011.807 1.976.417.417 0 00.241.2" fill="#fcfafa"/><path d="M595.949 916.084s-54.071-2.99-63.351-.03c-7.984 2.546 13.844 70.473 13.844 70.473a10.993 10.993 0 009.55-2.181s1.66-4.054-.982-26.59a138.577 138.577 0 00-3.9-24.43l35.869.182c7.685 0 10.114-6.514 9.307-14.195z" fill="#3f4d6c"/><path d="M543.859 899.419s-8.14 1.384-11.536 4.232-7.947 5.302-7.268 6.776 5.471-1.654 5.471-1.654 1.141 2.656 5.066 3.809 12.316-5.628 12.316-5.628z" fill="#e9b395"/><path d="M597.511 851.205c-4.539 6.919-21.92 30.837-25.839 33.617-5.1 3.618-19.385 11.135-27.709 14.6-1.5.625 3.335 7.739 3.335 7.739s20.537-6.738 29.308-12.365c2.481-1.593 12.8-11.983 19.38-21.2 2.253-3.157 5.92-7.543 6.45-12.206.611-5.372-1.064-8.245-4.925-10.185" fill="#28aec9"/><path d="M555.24 916.053h-41.069a2.064 2.064 0 01-2.059-2.069v-1.781a2.064 2.064 0 012.059-2.069h41.069a2.063 2.063 0 012.058 2.069v1.781a2.064 2.064 0 01-2.058 2.069" fill="#172337"/><path d="M504.512 916.053l-9.2-34.612a3.059 3.059 0 012.949-3.852h20.231a3.047 3.047 0 012.932 2.235l10.125 36.23z" fill="#3f4d6c"/><path d="M521.426 879.824l10.04 35.931h2.311l-10.039-35.931a3.053 3.053 0 00-2.934-2.236h-2.312a3.052 3.052 0 012.934 2.236" fill="#172337"/><path d="M516.225 898.371a3.178 3.178 0 01-3.162 4.134 5.5 5.5 0 01-5.063-4.134 3.178 3.178 0 013.161-4.134 5.5 5.5 0 015.064 4.134" fill="#6bbed9"/><rect width="3" height="1" rx=".5" transform="translate(369 785)" fill="#0da1d6"/><rect width="3" height="1" rx=".5" transform="translate(337 785)" fill="#0da1d6"/><rect width="3" height="1" rx=".5" transform="translate(305 785)" fill="#0da1d6"/><rect width="3" height="1" rx=".5" transform="translate(353 785)" fill="#0da1d6"/><rect width="3" height="1" rx=".5" transform="translate(321 785)" fill="#0da1d6"/><rect width="3" height="1" rx=".5" transform="translate(289 785)" fill="#0da1d6"/><rect width="3" height="1" rx=".5" transform="translate(365 785)" fill="#0da1d6"/><rect width="3" height="1" rx=".5" transform="translate(333 785)" fill="#0da1d6"/><rect width="3" height="1" rx=".5" transform="translate(301 785)" fill="#0da1d6"/><rect width="3" height="1" rx=".5" transform="translate(349 785)" fill="#0da1d6"/><rect width="3" height="1" rx=".5" transform="translate(317 785)" fill="#0da1d6"/><rect width="3" height="1" rx=".5" transform="translate(285 785)" fill="#0da1d6"/><rect width="3" height="1" rx=".5" transform="translate(361 785)" fill="#0da1d6"/><rect width="3" height="1" rx=".5" transform="translate(329 785)" fill="#0da1d6"/><rect width="3" height="1" rx=".5" transform="translate(297 785)" fill="#0da1d6"/><rect width="3" height="1" rx=".5" transform="translate(345 785)" fill="#0da1d6"/><rect width="3" height="1" rx=".5" transform="translate(313 785)" fill="#0da1d6"/><rect width="3" height="1" rx=".5" transform="translate(281 785)" fill="#0da1d6"/><rect width="3" height="1" rx=".5" transform="translate(357 785)" fill="#0da1d6"/><rect width="3" height="1" rx=".5" transform="translate(325 785)" fill="#0da1d6"/><rect width="3" height="1" rx=".5" transform="translate(293 785)" fill="#0da1d6"/><rect width="3" height="1" rx=".5" transform="translate(341 785)" fill="#0da1d6"/><rect width="3" height="1" rx=".5" transform="translate(309 785)" fill="#0da1d6"/><rect width="3" height="1" rx=".5" transform="translate(277 785)" fill="#0da1d6"/><rect width="3" height="1" rx=".5" transform="translate(727 782)" fill="#0da1d6"/><rect width="3" height="1" rx=".5" transform="translate(695 782)" fill="#0da1d6"/><rect width="3" height="1" rx=".5" transform="translate(663 782)" fill="#0da1d6"/><rect width="3" height="1" rx=".5" transform="translate(711 782)" fill="#0da1d6"/><rect width="3" height="1" rx=".5" transform="translate(679 782)" fill="#0da1d6"/><rect width="3" height="1" rx=".5" transform="translate(647 782)" fill="#0da1d6"/><rect width="3" height="1" rx=".5" transform="translate(723 782)" fill="#0da1d6"/><rect width="3" height="1" rx=".5" transform="translate(691 782)" fill="#0da1d6"/><rect width="3" height="1" rx=".5" transform="translate(659 782)" fill="#0da1d6"/><rect width="3" height="1" rx=".5" transform="translate(707 782)" fill="#0da1d6"/><rect width="3" height="1" rx=".5" transform="translate(675 782)" fill="#0da1d6"/><rect width="3" height="1" rx=".5" transform="translate(643 782)" fill="#0da1d6"/><rect width="3" height="1" rx=".5" transform="translate(719 782)" fill="#0da1d6"/><rect width="3" height="1" rx=".5" transform="translate(687 782)" fill="#0da1d6"/><rect width="3" height="1" rx=".5" transform="translate(655 782)" fill="#0da1d6"/><rect width="3" height="1" rx=".5" transform="translate(703 782)" fill="#0da1d6"/><rect width="3" height="1" rx=".5" transform="translate(671 782)" fill="#0da1d6"/><rect width="3" height="1" rx=".5" transform="translate(639 782)" fill="#0da1d6"/><rect width="3" height="1" rx=".5" transform="translate(715 782)" fill="#0da1d6"/><rect width="3" height="1" rx=".5" transform="translate(683 782)" fill="#0da1d6"/><rect width="3" height="1" rx=".5" transform="translate(651 782)" fill="#0da1d6"/><rect width="3" height="1" rx=".5" transform="translate(699 782)" fill="#0da1d6"/><rect width="3" height="1" rx=".5" transform="translate(667 782)" fill="#0da1d6"/><rect width="3" height="1" rx=".5" transform="translate(635 782)" fill="#0da1d6"/><rect width="3" height="1" rx=".5" transform="translate(369 944)" fill="#0da1d6"/><rect width="3" height="1" rx=".5" transform="translate(337 944)" fill="#0da1d6"/><rect width="3" height="1" rx=".5" transform="translate(305 944)" fill="#0da1d6"/><rect width="3" height="1" rx=".5" transform="translate(353 944)" fill="#0da1d6"/><rect width="3" height="1" rx=".5" transform="translate(321 944)" fill="#0da1d6"/><rect width="3" height="1" rx=".5" transform="translate(289 944)" fill="#0da1d6"/><rect width="3" height="1" rx=".5" transform="translate(365 944)" fill="#0da1d6"/><rect width="3" height="1" rx=".5" transform="translate(333 944)" fill="#0da1d6"/><rect width="3" height="1" rx=".5" transform="translate(301 944)" fill="#0da1d6"/><rect width="3" height="1" rx=".5" transform="translate(349 944)" fill="#0da1d6"/><rect width="3" height="1" rx=".5" transform="translate(317 944)" fill="#0da1d6"/><rect width="3" height="1" rx=".5" transform="translate(285 944)" fill="#0da1d6"/><rect width="3" height="1" rx=".5" transform="translate(361 944)" fill="#0da1d6"/><rect width="3" height="1" rx=".5" transform="translate(329 944)" fill="#0da1d6"/><rect width="3" height="1" rx=".5" transform="translate(297 944)" fill="#0da1d6"/><rect width="3" height="1" rx=".5" transform="translate(345 944)" fill="#0da1d6"/><rect width="3" height="1" rx=".5" transform="translate(313 944)" fill="#0da1d6"/><rect width="3" height="1" rx=".5" transform="translate(281 944)" fill="#0da1d6"/><rect width="3" height="1" rx=".5" transform="translate(357 944)" fill="#0da1d6"/><rect width="3" height="1" rx=".5" transform="translate(325 944)" fill="#0da1d6"/><rect width="3" height="1" rx=".5" transform="translate(293 944)" fill="#0da1d6"/><rect width="3" height="1" rx=".5" transform="translate(341 944)" fill="#0da1d6"/><rect width="3" height="1" rx=".5" transform="translate(309 944)" fill="#0da1d6"/><rect width="3" height="1" rx=".5" transform="translate(277 944)" fill="#0da1d6"/><rect width="1" height="3" rx=".5" transform="translate(373 942)" fill="#0da1d6"/><rect width="1" height="3" rx=".5" transform="translate(373 930)" fill="#0da1d6"/><rect width="1" height="3" rx=".5" transform="translate(373 914)" fill="#0da1d6"/><rect width="1" height="3" rx=".5" transform="translate(373 938)" fill="#0da1d6"/><rect width="1" height="3" rx=".5" transform="translate(373 926)" fill="#0da1d6"/><rect width="1" height="3" rx=".5" transform="translate(373 910)" fill="#0da1d6"/><rect width="1" height="3" rx=".5" transform="translate(373 934)" fill="#0da1d6"/><rect width="1" height="3" rx=".5" transform="translate(373 918)" fill="#0da1d6"/><rect width="1" height="3" rx=".5" transform="translate(373 922)" fill="#0da1d6"/><rect width="1" height="3" rx=".5" transform="translate(373 906)" fill="#0da1d6"/><rect width="1" height="3" rx=".5" transform="translate(373 902)" fill="#0da1d6"/><rect width="1" height="3" rx=".5" transform="translate(373 898)" fill="#0da1d6"/><rect width="3" height="1" rx=".5" transform="translate(634 948)" fill="#0da1d6"/><rect width="3" height="1" rx=".5" transform="translate(666 948)" fill="#0da1d6"/><rect width="3" height="1" rx=".5" transform="translate(698 948)" fill="#0da1d6"/><rect width="3" height="1" rx=".5" transform="translate(650 948)" fill="#0da1d6"/><rect width="3" height="1" rx=".5" transform="translate(682 948)" fill="#0da1d6"/><rect width="3" height="1" rx=".5" transform="translate(714 948)" fill="#0da1d6"/><rect width="3" height="1" rx=".5" transform="translate(638 948)" fill="#0da1d6"/><rect width="3" height="1" rx=".5" transform="translate(670 948)" fill="#0da1d6"/><rect width="3" height="1" rx=".5" transform="translate(702 948)" fill="#0da1d6"/><rect width="3" height="1" rx=".5" transform="translate(654 948)" fill="#0da1d6"/><rect width="3" height="1" rx=".5" transform="translate(686 948)" fill="#0da1d6"/><rect width="3" height="1" rx=".5" transform="translate(718 948)" fill="#0da1d6"/><rect width="3" height="1" rx=".5" transform="translate(642 948)" fill="#0da1d6"/><rect width="3" height="1" rx=".5" transform="translate(674 948)" fill="#0da1d6"/><rect width="3" height="1" rx=".5" transform="translate(706 948)" fill="#0da1d6"/><rect width="3" height="1" rx=".5" transform="translate(658 948)" fill="#0da1d6"/><rect width="3" height="1" rx=".5" transform="translate(690 948)" fill="#0da1d6"/><rect width="3" height="1" rx=".5" transform="translate(722 948)" fill="#0da1d6"/><rect width="3" height="1" rx=".5" transform="translate(646 948)" fill="#0da1d6"/><rect width="3" height="1" rx=".5" transform="translate(678 948)" fill="#0da1d6"/><rect width="3" height="1" rx=".5" transform="translate(710 948)" fill="#0da1d6"/><rect width="3" height="1" rx=".5" transform="translate(662 948)" fill="#0da1d6"/><rect width="3" height="1" rx=".5" transform="translate(694 948)" fill="#0da1d6"/><rect width="3" height="1" rx=".5" transform="translate(726 948)" fill="#0da1d6"/><rect width="1" height="3" rx=".5" transform="translate(633 946)" fill="#0da1d6"/><rect width="1" height="3" rx=".5" transform="translate(633 930)" fill="#0da1d6"/><rect width="1" height="3" rx=".5" transform="translate(633 942)" fill="#0da1d6"/><rect width="1" height="3" rx=".5" transform="translate(633 926)" fill="#0da1d6"/><rect width="1" height="3" rx=".5" transform="translate(633 934)" fill="#0da1d6"/><rect width="1" height="3" rx=".5" transform="translate(633 938)" fill="#0da1d6"/><rect width="1" height="3" rx=".5" transform="translate(633 922)" fill="#0da1d6"/><rect width="1" height="3" rx=".5" transform="translate(633 918)" fill="#0da1d6"/><rect width="1" height="3" rx=".5" transform="translate(633 914)" fill="#0da1d6"/></g></svg>