<svg width="356" height="252" fill="none" xmlns="http://www.w3.org/2000/svg"><path d="M100.114 222.555l49.689 28.638c.807.484 2.019.484 2.827 0l74.897-43.24c.808-.484.808-1.129 0-1.614l-49.689-28.638c-.808-.484-2.02-.484-2.828 0l-74.896 43.24c-.808.404-.808 1.13 0 1.614zm-34.258-39.126c12.928 6.131 33.854 6.131 46.7 0 12.927-6.132 12.927-16.054 0-22.266-12.927-6.131-33.853-6.131-46.7 0-12.927 6.131-12.927 16.134 0 22.266zm177.83 31.946c12.766 6.05 33.369 6.05 46.134 0 12.766-6.051 12.766-15.893 0-21.943-12.765-6.051-33.368-6.051-46.134 0-12.765 6.05-12.765 15.892 0 21.943z" fill="#E0E0E0"/><path d="M.809 146.192c3.72-2.264 4.206-36.384 16.662-43.338 12.457-6.953 8.089 24.256 20.869 16.899 12.133-7.034 8.412-43.5 20.868-50.615 12.457-7.115 8.17 28.46 20.869 21.67 11-5.903 10.11-20.133 17.31-26.36 7.198-6.306 8.897 7.52 17.956 2.507s1.375-32.26 20.707-43.418v52.07L.809 154.196v-8.004z" fill="url(#paint0_linear)"/><path d="M.808 146.839c-.242 0-.404-.081-.485-.324-.162-.323-.08-.646.243-.808 1.132-.647 2.103-5.822 3.154-11.32 2.184-11.562 5.258-27.409 13.59-32.099 2.021-1.132 3.72-1.374 5.257-.808 2.992 1.132 4.448 5.417 5.904 9.621 1.375 3.962 2.75 8.005 5.258 8.894 1.213.485 2.67.162 4.449-.808 5.824-3.315 7.927-14.15 9.949-24.66 2.184-10.916 4.367-22.235 10.92-25.955 1.86-1.05 3.477-1.293 4.933-.727 3.236 1.293 4.692 6.387 6.31 11.724 1.455 4.931 2.91 10.025 5.66 11.156 1.133.485 2.427.324 3.964-.566 6.147-3.315 8.412-9.217 10.677-15.038 1.698-4.367 3.316-8.49 6.47-11.32 3.964-3.477 6.552-1.294 9.06.728 2.507 2.102 4.853 4.042 9.059 1.698 3.478-1.86 4.368-7.6 5.42-14.15 1.617-10.026 3.559-22.477 15.287-29.269.324-.162.647-.08.809.243.162.323.081.647-.243.808-11.162 6.469-13.103 18.597-14.721 28.38-1.132 6.872-2.022 12.856-5.986 15.039-4.934 2.668-7.926.161-10.434-1.86-2.507-2.021-4.287-3.557-7.441-.728-2.993 2.588-4.53 6.55-6.148 10.835-2.346 5.983-4.691 12.128-11.243 15.605-1.86.97-3.559 1.212-5.015.566-3.316-1.375-4.853-6.792-6.39-11.967-1.375-4.851-2.83-9.864-5.581-10.996-1.051-.404-2.346-.242-3.883.647-6.066 3.477-8.169 14.473-10.272 25.145-2.184 11.239-4.287 21.831-10.596 25.469-2.103 1.213-3.883 1.537-5.5.971-3.074-1.132-4.53-5.498-5.986-9.622-1.375-3.881-2.75-7.924-5.177-8.894-1.132-.485-2.588-.242-4.206.728-7.846 4.366-10.838 19.89-12.941 31.209-1.375 7.358-2.184 11.239-3.721 12.128-.162.324-.243.324-.405.324z" fill="#E0E0E0"/><path d="M59.29 69.866c-.162 0-.242-.08-.242-.242v-.486c0-.161.08-.242.242-.242.162 0 .243.08.243.242v.486c0 .161-.081.242-.243.242z" fill="#FAFAFA"/><path fill-rule="evenodd" clip-rule="evenodd" d="M59.047 71.726c0 .161.1.242.3.242.2 0 .3-.162.3-.242v-1.051c0-.162-.1-.243-.3-.243-.2 0-.3.08-.3.243v1.05zm.3 2.264c-.2 0-.3-.081-.3-.243v-1.051c0-.162.1-.243.3-.243.2 0 .3.081.3.243v1.051c0 .162-.1.243-.3.243zm-.3 1.86c0 .16.1.242.3.242.2 0 .3-.162.3-.243V74.8c0-.163-.1-.244-.3-.244-.2 0-.3.081-.3.243v1.051zm.3 2.263c-.2 0-.3-.08-.3-.242V76.82c0-.162.1-.243.3-.243.2 0 .3.08.3.243v1.05c0 .162-.1.243-.3.243zm-.3 1.779c0 .162.1.243.3.243.2 0 .3-.081.3-.243V78.84c0-.162-.1-.243-.3-.243-.2 0-.3.081-.3.243v1.05zm.3 2.345c-.2 0-.3-.081-.3-.243v-1.051c0-.162.1-.243.3-.243.2 0 .3.081.3.243v1.051c0 .08-.1.243-.3.243zm-.3 1.778c0 .162.1.243.3.243.2 0 .3-.08.3-.243v-1.05c0-.162-.1-.243-.3-.243-.2 0-.3.08-.3.242v1.051zm.3 2.345c-.2 0-.3-.08-.3-.242v-1.051c0-.162.1-.243.3-.243.2 0 .3.08.3.243v1.05c0 .081-.1.243-.3.243zm-.3 1.779c0 .162.1.243.3.243.2 0 .3-.081.3-.243v-1.051c0-.162-.1-.243-.3-.243-.2 0-.3.081-.3.243v1.051zm.3 2.264c-.2 0-.3-.081-.3-.243v-1.05c0-.162.1-.243.3-.243.2 0 .3.08.3.242v1.051c0 .162-.1.243-.3.243zm-.3 1.86c0 .161.1.242.3.242.2 0 .3-.162.3-.242V91.21c0-.161-.1-.242-.3-.242-.2 0-.3.08-.3.242v1.052zm.3 2.263c-.2 0-.3-.08-.3-.242v-1.051c0-.162.1-.243.3-.243.2 0 .3.081.3.243v1.05c0 .163-.1.243-.3.243zm-.3 1.86c0 .162.1.243.3.243.2 0 .3-.162.3-.243v-1.051c0-.162-.1-.243-.3-.243-.2 0-.3.081-.3.243v1.051zm.3 2.264c-.2 0-.3-.08-.3-.243v-1.05c0-.162.1-.243.3-.243.2 0 .3.08.3.242v1.051c0 .162-.1.243-.3.243zm-.3 1.86c0 .161.1.242.3.242.2 0 .3-.162.3-.242v-1.052c0-.161-.1-.242-.3-.242-.2 0-.3.08-.3.243v1.051zm.3 2.264c-.2 0-.3-.081-.3-.243v-1.051c0-.162.1-.243.3-.243.2 0 .3.081.3.243v1.051c0 .081-.1.243-.3.243zm-.3 1.778c0 .162.1.243.3.243.2 0 .3-.081.3-.243v-1.051c0-.162-.1-.242-.3-.242-.2 0-.3.08-.3.242v1.051zm.3 2.345c-.2 0-.3-.081-.3-.243v-1.051c0-.161.1-.242.3-.242.2 0 .3.081.3.242v1.051c0 .081-.1.243-.3.243zm-.3 1.779c0 .162.1.242.3.242.2 0 .3-.08.3-.242v-1.051c0-.162-.1-.243-.3-.243-.2 0-.3.081-.3.243v1.051zm.3 2.345c-.2 0-.3-.081-.3-.243v-1.051c0-.162.1-.243.3-.243.2 0 .3.081.3.243v1.051c0 .081-.1.243-.3.243zm-.3 1.778c0 .162.1.243.3.243.2 0 .3-.081.3-.243v-1.051c0-.161-.1-.242-.3-.242-.2 0-.3.081-.3.242v1.051zm.3 2.264c-.2 0-.3-.081-.3-.242v-1.051c0-.162.1-.243.3-.243.2 0 .3.081.3.243v1.051c0 .161-.1.242-.3.242zm-.3 1.86c0 .162.1.242.3.242.2 0 .3-.161.3-.242v-1.051c0-.162-.1-.243-.3-.243-.2 0-.3.081-.3.243v1.051zm0 2.021c0 .162.1.243.3.243.2 0 .3-.081.3-.243v-1.051c0-.162-.1-.242-.3-.242-.2 0-.3.08-.3.242v1.051z" fill="#FAFAFA"/><path d="M59.29 120.723c-.162 0-.242-.081-.242-.243v-.485c0-.161.08-.242.242-.242.162 0 .243.081.243.242v.485c0 .162-.081.243-.243.243zm40.605-56.84c-.162 0-.243-.081-.243-.243v-.485c0-.162.08-.242.243-.242.161 0 .242.08.242.242v.485c.081.081-.081.243-.242.243z" fill="#FAFAFA"/><path fill-rule="evenodd" clip-rule="evenodd" d="M99.652 65.743c0 .161.1.242.3.242.2 0 .4-.162.3-.242V64.69c0-.161-.1-.242-.3-.242-.2 0-.3.08-.3.242v1.052zm.3 2.344c-.2 0-.3-.08-.3-.242v-1.051c0-.162.1-.243.3-.243.2 0 .3.08.3.243v1.05c.1.082-.1.243-.3.243zm-.3 1.86c0 .162.1.242.3.242.2 0 .4-.161.3-.242v-1.051c0-.162-.1-.243-.3-.243-.2 0-.3.081-.3.243v1.05zm.3 2.264c-.2 0-.3-.081-.3-.243v-1.05c0-.163.1-.243.3-.243.2 0 .3.08.3.242v1.051c.1.162-.1.243-.3.243zm-.3 1.86c0 .161.1.242.3.242.2 0 .4-.08.3-.243v-1.05c0-.162-.1-.243-.3-.243-.2 0-.3.08-.3.242v1.051zm.3 2.344c-.2 0-.3-.08-.3-.242V75.12c0-.161.1-.242.3-.242.2 0 .3.08.3.242v1.052c.1.161-.1.242-.3.242zm-.3 1.86c0 .161.1.242.3.242.2 0 .4-.08.3-.242v-1.051c0-.162-.1-.243-.3-.243-.2 0-.3.081-.3.243v1.05zm.3 2.345c-.2 0-.3-.081-.3-.243v-1.051c0-.162.1-.243.3-.243.2 0 .3.081.3.243v1.051c.1.162-.1.243-.3.243zm-.3 1.86c0 .16.1.242.3.242.2 0 .4-.081.3-.243v-1.05c0-.163-.1-.243-.3-.243-.2 0-.3.08-.3.242v1.051zm.3 2.344c-.2 0-.3-.08-.3-.243v-1.05c0-.162.1-.243.3-.243.2 0 .3.08.3.242v1.051c.1.162-.1.243-.3.243zm-.3 1.86c0 .161.1.242.3.242.2 0 .4-.08.3-.242v-1.052c0-.161-.1-.242-.3-.242-.2 0-.3.08-.3.242v1.052zm.3 2.344c-.2 0-.3-.08-.3-.242v-1.051c0-.162.1-.243.3-.243.2 0 .3.081.3.243v1.05c.1.082-.1.243-.3.243zm-.3 1.86c0 .162.1.243.3.243.2 0 .4-.162.3-.243v-1.051c0-.162-.1-.243-.3-.243-.2 0-.3.081-.3.243v1.051zm.3 2.345c-.2 0-.3-.081-.3-.243v-1.05c0-.163.1-.243.3-.243.2 0 .3.08.3.242v1.051c.1.081-.1.243-.3.243zm0 2.102c-.2 0-.3-.08-.3-.243v-1.05c0-.162.1-.243.3-.243.2 0 .3.08.3.242v1.051c.1.081-.1.243-.3.243z" fill="#FAFAFA"/><path d="M99.895 96.871c-.162 0-.243-.08-.243-.242v-.486c0-.161.08-.242.243-.242.161 0 .242.08.242.243v.485c.081.08-.081.242-.242.242zm-80.402 6.468c-.162 0-.242-.08-.242-.242v-.485c0-.162.08-.243.242-.243.162 0 .243.081.243.243v.485c0 .081-.08.242-.243.242z" fill="#FAFAFA"/><path fill-rule="evenodd" clip-rule="evenodd" d="M19.251 105.199c0 .162.1.243.3.243.2 0 .3-.081.3-.243v-1.051c0-.162-.1-.243-.3-.243-.2 0-.3.081-.3.243v1.051zm.3 2.345c-.2 0-.3-.081-.3-.243v-1.051c0-.161.1-.242.3-.242.2 0 .3.081.3.242v1.051c0 .162-.1.243-.3.243zm-.3 1.86c0 .161.1.242.3.242.2 0 .3-.081.3-.242v-1.052c0-.161-.1-.242-.3-.242-.2 0-.3.081-.3.242v1.052zm.3 2.344c-.2 0-.3-.081-.3-.242v-1.051c0-.162.1-.243.3-.243.2 0 .3.081.3.243v1.051c0 .161-.1.242-.3.242zm-.3 1.86c0 .162.1.242.3.242.2 0 .3-.08.3-.242v-1.051c0-.162-.1-.243-.3-.243-.2 0-.3.081-.3.243v1.051zm.3 2.345c-.2 0-.3-.081-.3-.243v-1.051c0-.162.1-.243.3-.243.2 0 .3.081.3.243v1.051c0 .162-.1.243-.3.243zm-.3 1.859c0 .162.1.243.3.243.2 0 .3-.081.3-.243v-1.051c0-.162-.1-.242-.3-.242-.2 0-.3.08-.3.242v1.051zm.3 2.426c-.2 0-.3-.081-.3-.243v-1.051c0-.161.1-.242.3-.242.2 0 .3.081.3.242v1.051c0 .081-.1.243-.3.243zm-.3 1.86c0 .161.1.242.3.242.2 0 .3-.162.3-.242v-1.052c0-.161-.1-.242-.3-.242-.2 0-.3.081-.3.242v1.052zm.3 2.344c-.2 0-.3-.081-.3-.242v-1.051c0-.162.1-.243.3-.243.2 0 .3.081.3.243v1.051c0 .081-.1.242-.3.242zm-.3 1.86c0 .162.1.243.3.243.2 0 .3-.162.3-.243v-1.051c0-.162-.1-.243-.3-.243-.2 0-.3.081-.3.243v1.051zm.3 2.345c-.2 0-.3-.081-.3-.243v-1.051c0-.162.1-.243.3-.243.2 0 .3.081.3.243v1.051c0 .081-.1.243-.3.243zm-.3 1.859c0 .162.1.243.3.243.2 0 .3-.162.3-.243v-1.051c0-.161-.1-.242-.3-.242-.2 0-.3.081-.3.242v1.051zm.3 2.345c-.2 0-.3-.081-.3-.242v-1.052c0-.161.1-.242.3-.242.2 0 .3.081.3.242v1.052c0 .161-.1.242-.3.242zm-.3 1.86c0 .161.1.242.3.242.2 0 .3-.081.3-.242v-1.051c0-.162-.1-.243-.3-.243-.2 0-.3.081-.3.243v1.051zm0 2.102c0 .162.1.242.3.242.2 0 .3-.08.3-.242v-1.051c0-.162-.1-.243-.3-.243-.2 0-.3.081-.3.243v1.051z" fill="#FAFAFA"/><path d="M19.493 138.592c-.162 0-.242-.081-.242-.243v-.485c0-.162.08-.243.242-.243.162 0 .243.081.243.243v.485c0 .162-.08.243-.243.243z" fill="#FAFAFA"/><path d="M354.443 156.946c-2.751-1.698-3.074-26.844-12.295-31.938-9.221-5.093-5.986 17.869-15.368 12.452-8.979-5.175-6.229-32.018-15.369-37.274-9.14-5.255-6.066 21.022-15.368 16.009-8.089-4.366-7.442-14.796-12.78-19.405-5.339-4.608-6.552 5.498-13.265 1.86-6.714-3.638-.971-23.771-15.207-32.018v38.325l99.652 57.891v-5.902z" fill="url(#paint1_linear)"/><path d="M354.443 157.592c-.081 0-.243 0-.324-.08-1.132-.728-1.698-3.396-2.831-9.056-1.617-8.328-3.801-19.728-9.463-22.882-1.214-.647-2.184-.808-2.993-.566-1.779.647-2.75 3.639-3.721 6.469-1.051 3.153-2.184 6.387-4.529 7.196-1.214.485-2.589.242-4.206-.728-4.692-2.668-6.229-10.592-7.846-18.839-1.537-7.843-3.155-15.928-7.523-18.435-1.051-.647-1.941-.808-2.75-.485-1.941.809-2.993 4.447-4.044 8.005-1.213 4.042-2.265 7.843-4.772 8.894-1.133.485-2.427.323-3.802-.405-4.853-2.587-6.714-7.357-8.331-11.643-1.214-3.072-2.346-6.064-4.53-7.923-2.265-1.94-3.478-.97-5.258.566-1.86 1.536-4.125 3.396-7.846 1.374-2.992-1.617-3.72-6.064-4.529-11.158-1.133-7.195-2.588-16.09-10.758-20.86-.324-.162-.404-.566-.243-.808.162-.324.567-.405.809-.243 8.655 5.013 10.192 14.23 11.324 21.669.728 4.851 1.456 8.975 3.883 10.35 2.993 1.616 4.691.242 6.471-1.294 1.779-1.456 3.801-3.154 6.875-.566 2.346 2.102 3.559 5.093 4.853 8.408 1.618 4.205 3.316 8.571 7.846 10.996 1.132.566 2.022.728 2.75.405 2.022-.809 3.074-4.528 4.125-8.167 1.133-3.961 2.265-7.762 4.692-8.732 1.132-.485 2.345-.242 3.801.566 4.854 2.749 6.471 11.158 8.089 19.243 1.537 7.682 3.074 15.605 7.28 18.031 1.294.727 2.265.97 3.154.647 1.78-.647 2.831-3.639 3.802-6.469 1.051-3.072 2.184-6.306 4.449-7.196 1.132-.404 2.507-.242 4.044.566 6.228 3.477 8.412 15.201 10.111 23.771.728 3.639 1.456 7.762 2.265 8.247.323.162.404.566.242.809a.699.699 0 01-.566.323z" fill="#E0E0E0"/><path d="M311.33 100.914c-.162 0-.242-.081-.242-.243v-.485c0-.162.08-.242.242-.242.162 0 .243.08.243.242v.485c0 .162-.081.243-.243.243z" fill="#FAFAFA"/><path fill-rule="evenodd" clip-rule="evenodd" d="M311.088 102.774c0 .161.1.242.3.242.2 0 .3-.081.3-.242v-1.052c0-.161-.1-.242-.3-.242-.2 0-.3.081-.3.242v1.052zm.3 2.344c-.2 0-.3-.081-.3-.242v-1.051c0-.162.1-.243.3-.243.2 0 .3.081.3.243v1.051c0 .161-.1.242-.3.242zm-.3 1.86c0 .162.1.242.3.242.2 0 .3-.08.3-.242v-1.051c0-.162-.1-.243-.3-.243-.2 0-.3.081-.3.243v1.051zm.3 2.345c-.2 0-.3-.081-.3-.243v-1.051c0-.162.1-.243.3-.243.2 0 .3.081.3.243v1.051c0 .162-.1.243-.3.243zm-.3 1.859c0 .162.1.243.3.243.2 0 .3-.081.3-.243v-1.051c0-.161-.1-.242-.3-.242-.2 0-.3.081-.3.242v1.051zm.3 2.345c-.2 0-.3-.081-.3-.242v-1.052c0-.161.1-.242.3-.242.2 0 .3.081.3.242v1.052c0 .161-.1.242-.3.242zm-.3 1.86c0 .161.1.242.3.242.2 0 .3-.081.3-.242v-1.051c0-.162-.1-.243-.3-.243-.2 0-.3.081-.3.243v1.051zm.3 2.344c-.2 0-.3-.08-.3-.242v-1.051c0-.162.1-.243.3-.243.2 0 .3.081.3.243v1.051c0 .162-.1.242-.3.242zm-.3 1.86c0 .162.1.243.3.243.2 0 .3-.081.3-.243v-1.051c0-.162-.1-.243-.3-.243-.2 0-.3.081-.3.243v1.051zm.3 2.345c-.2 0-.3-.081-.3-.243v-1.051c0-.162.1-.242.3-.242.2 0 .3.08.3.242v1.051c0 .162-.1.243-.3.243zm-.3 1.859c0 .162.1.243.3.243.2 0 .3-.081.3-.243v-1.051c0-.161-.1-.242-.3-.242-.2 0-.3.081-.3.242v1.051zm.3 2.345c-.2 0-.3-.081-.3-.242v-1.051c0-.162.1-.243.3-.243.2 0 .3.081.3.243v1.051c0 .161-.1.242-.3.242zm-.3 1.941c0 .161.1.242.3.242.2 0 .3-.161.3-.242v-1.051c0-.162-.1-.243-.3-.243-.2 0-.3.081-.3.243v1.051zm.3 2.344c-.2 0-.3-.08-.3-.242v-1.051c0-.162.1-.243.3-.243.2 0 .3.081.3.243v1.051c0 .081-.1.242-.3.242zm-.3 1.86c0 .162.1.243.3.243.2 0 .3-.162.3-.243v-1.051c0-.162-.1-.243-.3-.243-.2 0-.3.081-.3.243v1.051zm.3 2.345c-.2 0-.3-.081-.3-.243v-1.051c0-.161.1-.242.3-.242.2 0 .3.081.3.242v1.051c0 .081-.1.243-.3.243zm0 2.102c-.2 0-.3-.081-.3-.242v-1.052c0-.161.1-.242.3-.242.2 0 .3.081.3.242v1.052c0 .08-.1.242-.3.242z" fill="#FAFAFA"/><path d="M311.33 138.268c-.162 0-.242-.081-.242-.242v-.485c0-.162.08-.243.242-.243.162 0 .243.081.243.243v.485c0 .161-.081.242-.243.242zm-29.928-41.801c-.161 0-.242-.08-.242-.243v-.485c0-.162.081-.242.242-.242.162 0 .243.08.243.242v.485c0 .162-.081.243-.243.243z" fill="#FAFAFA"/><path fill-rule="evenodd" clip-rule="evenodd" d="M281.16 98.327c0 .161.1.242.3.242.2 0 .3-.162.3-.242v-1.052c0-.161-.1-.242-.3-.242-.2 0-.3.08-.3.242v1.052zm.3 2.263c-.2 0-.3-.08-.3-.242v-1.051c0-.162.1-.243.3-.243.2 0 .3.081.3.243v1.051c0 .162-.1.242-.3.242zm-.3 1.86c0 .162.1.243.3.243.2 0 .3-.162.3-.243v-1.051c0-.162-.1-.243-.3-.243-.2 0-.3.081-.3.243v1.051zm.3 2.264c-.2 0-.3-.081-.3-.243v-1.051c0-.161.1-.242.3-.242.2 0 .3.081.3.242v1.051c0 .162-.1.243-.3.243zm-.3 1.86c0 .161.1.242.3.242.2 0 .3-.162.3-.242v-1.051c0-.162-.1-.243-.3-.243-.2 0-.3.081-.3.243v1.051zm.3 2.264c-.2 0-.3-.081-.3-.243v-1.051c0-.162.1-.243.3-.243.2 0 .3.081.3.243v1.051c0 .162-.1.243-.3.243zm-.3 1.778c0 .162.1.243.3.243.2 0 .3-.081.3-.243v-1.051c0-.161-.1-.242-.3-.242-.2 0-.3.081-.3.242v1.051zm.3 2.345c-.2 0-.3-.081-.3-.242v-1.052c0-.161.1-.242.3-.242.2 0 .3.081.3.242v1.052c0 .08-.1.242-.3.242zm-.3 1.779c0 .162.1.242.3.242.2 0 .3-.08.3-.242v-1.051c0-.162-.1-.243-.3-.243-.2 0-.3.081-.3.243v1.051zm.3 2.345c-.2 0-.3-.081-.3-.243v-1.051c0-.162.1-.243.3-.243.2 0 .3.081.3.243v1.051c0 .081-.1.243-.3.243zm0 2.021c-.2 0-.3-.081-.3-.243v-1.051c0-.161.1-.242.3-.242.2 0 .3.081.3.242v1.051c0 .162-.1.243-.3.243z" fill="#FAFAFA"/><path d="M281.402 120.642c-.161 0-.242-.081-.242-.242v-.485c0-.162.081-.243.242-.243.162 0 .243.081.243.243v.485c0 .161-.081.242-.243.242zm59.209 4.932c-.161 0-.242-.081-.242-.242v-.485c0-.162.081-.243.242-.243.162 0 .243.081.243.243v.485c.081.161-.081.242-.243.242z" fill="#FAFAFA"/><path fill-rule="evenodd" clip-rule="evenodd" d="M340.369 127.353c0 .162.1.243.3.243.2 0 .4-.081.3-.243v-1.051c0-.162-.1-.243-.3-.243-.2 0-.3.081-.3.243v1.051zm.3 2.264c-.2 0-.3-.081-.3-.243v-1.051c0-.161.1-.242.3-.242.2 0 .3.081.3.242v1.051c.1.162-.1.243-.3.243zm-.3 1.779c0 .161.1.242.3.242.2 0 .4-.081.3-.242v-1.051c0-.162-.1-.243-.3-.243-.2 0-.3.081-.3.243v1.051zm.3 2.264c-.2 0-.3-.081-.3-.243v-1.051c0-.162.1-.243.3-.243.2 0 .3.081.3.243v1.051c.1.162-.1.243-.3.243zm-.3 1.778c0 .162.1.243.3.243.2 0 .4-.081.3-.243v-1.051c0-.161-.1-.242-.3-.242-.2 0-.3.081-.3.242v1.051zm.3 2.345c-.2 0-.3-.081-.3-.242v-1.051c0-.162.1-.243.3-.243.2 0 .3.081.3.243v1.051c.1.08-.1.242-.3.242zm-.3 1.779c0 .162.1.243.3.243.2 0 .4-.162.3-.243v-1.051c0-.162-.1-.243-.3-.243-.2 0-.3.081-.3.243v1.051zm.3 2.264c-.2 0-.3-.081-.3-.243v-1.051c0-.162.1-.242.3-.242.2 0 .3.08.3.242v1.051c.1.081-.1.243-.3.243zm-.3 1.779c0 .161.1.242.3.242.2 0 .4-.161.3-.242v-1.051c0-.162-.1-.243-.3-.243-.2 0-.3.081-.3.243v1.051zm.3 2.264c-.2 0-.3-.081-.3-.243v-1.051c0-.162.1-.243.3-.243.2 0 .3.081.3.243v1.051c.1.162-.1.243-.3.243zm-.3 1.778c0 .162.1.243.3.243.2 0 .4-.081.3-.243v-1.051c0-.161-.1-.242-.3-.242-.2 0-.3.081-.3.242v1.051zm0 2.022c0 .161.1.242.3.242.2 0 .4-.081.3-.242v-1.051c0-.162-.1-.243-.3-.243-.2 0-.3.081-.3.243v1.051z" fill="#FAFAFA"/><path d="M340.611 151.447c-.161 0-.242-.08-.242-.242v-.485c0-.162.081-.243.242-.243.162 0 .243.081.243.243v.485c.081.162-.081.242-.243.242z" fill="#FAFAFA"/><path d="M300.249 59.598V51.27l-7.118-1.375c-.324-.08-.567 0-.809.162l-3.559 2.021 4.61.97 6.876 6.55z" fill="#EBEBEB"/><path d="M348.943 106.735l.566-.323c.89-.485 1.537-1.698 1.537-2.668V61.295c0-.97-.728-2.183-1.537-2.668l-47.642-27.49c-.89-.485-2.265-.485-3.074 0l-.566.323c-.889.486-1.537 1.698-1.537 2.669v42.448c0 .97.728 2.183 1.537 2.668l47.642 27.49c.809.485 2.184.485 3.074 0z" fill="#EBEBEB"/><path d="M350.964 88.867v-27.49c0-.486-.161-1.052-.485-1.537l-6.794 3.881v41.802l2.103 1.212c.889.485 2.264.485 3.073 0l.566-.323c.89-.485 1.537-1.698 1.537-2.668V88.867z" fill="#E0E0E0"/><path d="M298.227 33.32l47.642 27.49c.89.485 1.537 1.698 1.537 2.669v42.448c0 .97-.728 1.374-1.537.889l-47.642-27.49c-.889-.485-1.537-1.698-1.537-2.668V34.209c0-.97.648-1.374 1.537-.889z" fill="url(#paint2_linear)"/><path d="M296.69 61.7l-8.088-7.843c-.809-.809-.081-2.102.97-1.94l7.118 1.374V61.7z" fill="#F0F0F0"/><path d="M321.118 68.896c.162.162.162.485.162.485 0 6.63 4.772 14.634 10.434 18.03 5.905 3.558 10.596.89 10.434-5.983-.162-6.226-4.206-13.826-9.464-17.464l.324-.162v-.566c5.581 3.962 9.949 11.966 9.949 18.596 0 7.116-5.015 10.026-11.243 6.469-6.228-3.558-11.324-12.29-11.243-19.486.081-.162.485-.08.647.08z" fill="#7BC6EA"/><path d="M319.418 68.33c0-7.762 5.5-10.996 12.214-7.034 2.993 1.697 5.824 4.608 8.007 8.085l-1.86 1.374c-1.699-2.749-3.882-4.932-6.228-6.225-5.177-2.992-9.464-.566-9.464 5.417s4.206 13.34 9.464 16.332c5.177 2.992 9.464.566 9.464-5.417l2.831 1.617c0 7.762-5.501 10.996-12.214 7.034-6.714-3.88-12.214-13.34-12.214-21.183z" fill="#7BC6EA"/><path d="M331.633 67.198c3.963 2.264 7.118 7.762 7.118 12.29 0 4.527-3.155 6.387-7.118 4.123-3.964-2.264-7.118-7.762-7.118-12.29 0-4.527 3.154-6.387 7.118-4.123z" fill="#7BC6EA"/><path d="M303.566 45.933l12.133 7.035c.647.404 1.132 1.212 1.132 1.86 0 .646-.485.889-1.132.484l-12.133-7.034c-.647-.404-1.132-1.213-1.132-1.86-.081-.646.485-.889 1.132-.485zm0 5.983l12.133 7.035c.647.404 1.132 1.213 1.132 1.86 0 .646-.485.889-1.132.484l-12.133-7.034c-.647-.404-1.132-1.213-1.132-1.86-.081-.646.485-.808 1.132-.485zm0 6.064l12.133 7.035c.647.404 1.132 1.213 1.132 1.86 0 .646-.485.889-1.132.485l-12.133-7.035c-.647-.404-1.132-1.213-1.132-1.86-.081-.646.485-.889 1.132-.485zm0 5.984l12.133 7.034c.647.404 1.132 1.213 1.132 1.86 0 .646-.485.889-1.132.485l-12.133-7.035c-.647-.404-1.132-1.212-1.132-1.86-.081-.646.485-.808 1.132-.484zm0 5.983l12.133 7.034c.647.404 1.132 1.213 1.132 1.86s-.485.89-1.132.485l-12.133-7.034c-.647-.405-1.132-1.213-1.132-1.86-.081-.566.485-.808 1.132-.485z" fill="#E0E0E0"/><path d="M61.231 32.188V23.86l7.118-1.374c.324-.081.567 0 .81.162l3.558 2.02-4.61.971-6.876 6.55z" fill="#EBEBEB"/><path d="M12.619 79.326l-.566-.323c-.89-.486-1.537-1.698-1.537-2.669V33.886c0-.97.728-2.183 1.537-2.668l47.641-27.49c.89-.485 2.265-.485 3.074 0l.566.323c.89.485 1.537 1.698 1.537 2.668v42.448c0 .97-.728 2.183-1.537 2.669l-47.642 27.49c-.89.485-2.264.485-3.073 0z" fill="#EBEBEB"/><path d="M10.516 61.376v-27.49c0-.485.161-1.051.485-1.536l6.794 3.88v41.802l-2.103 1.213c-.89.485-2.264.485-3.073 0l-.566-.323c-.89-.486-1.537-1.698-1.537-2.668V61.376z" fill="#E0E0E0"/><path d="M63.334 5.83L15.692 33.32c-.89.485-1.537 1.698-1.537 2.668v42.448c0 .97.728 1.375 1.537.89l47.642-27.49c.89-.486 1.537-1.698 1.537-2.669V6.72c0-.97-.728-1.374-1.537-.89z" fill="#F0F0F0"/><path d="M64.871 34.21l8.089-7.843c.809-.809.08-2.102-.97-1.94L64.87 25.8v8.409z" fill="#F0F0F0"/><path d="M19.494 64.61V50.543c0-2.668 1.456-5.175 3.802-6.55 2.022-1.131 4.53.163 4.772 2.507.162 1.78 2.184 2.83 3.72 1.94 1.78-1.05 2.832-2.91 2.913-4.931l.647-12.37c.08-2.103 1.294-4.044 3.154-5.176 2.265-1.374 5.177.243 5.339 2.83l.404 6.873c.081 1.536 1.78 2.506 3.155 1.698 1.86-1.051 3.074-2.992 3.316-5.094l.324-2.506a7.147 7.147 0 013.478-5.337c2.184-1.213 4.853.324 4.853 2.83v14.15L19.494 64.61z" fill="url(#paint3_linear)"/><path d="M23.861 44.559c-.161 0-.242-.081-.242-.243v-.485c0-.162.08-.242.242-.242.162 0 .243.08.243.242v.485c0 .162-.08.243-.242.243z" fill="#FAFAFA"/><path fill-rule="evenodd" clip-rule="evenodd" d="M23.62 46.419c0 .161.1.242.3.242.2 0 .3-.162.3-.242v-1.052c0-.161-.1-.242-.3-.242-.2 0-.3.08-.3.242v1.052zm.3 2.263c-.2 0-.3-.08-.3-.242v-1.051c0-.162.1-.243.3-.243.2 0 .3.081.3.243v1.05c0 .082-.1.243-.3.243zm-.3 1.78c0 .16.1.242.3.242.2 0 .3-.162.3-.243V49.41c0-.162-.1-.242-.3-.242-.2 0-.3.08-.3.242v1.051zm.3 2.263c-.2 0-.3-.08-.3-.242V51.43c0-.161.1-.242.3-.242.2 0 .3.08.3.242v1.052c0 .161-.1.242-.3.242zm-.3 1.779c0 .162.1.242.3.242.2 0 .3-.08.3-.242v-1.051c0-.162-.1-.243-.3-.243-.2 0-.3.081-.3.243v1.05zm.3 2.264c-.2 0-.3-.081-.3-.243v-1.05c0-.163.1-.244.3-.244.2 0 .3.081.3.243v1.051c0 .162-.1.243-.3.243zm-.3 1.779c0 .161.1.242.3.242.2 0 .3-.08.3-.242v-1.052c0-.161-.1-.242-.3-.242-.2 0-.3.08-.3.242v1.052zm0 2.02c0 .163.1.243.3.243.2 0 .3-.08.3-.161v-1.051c0-.162-.1-.243-.3-.243-.2 0-.3.08-.3.243v.97z" fill="#FAFAFA"/><path d="M23.861 62.347c-.161 0-.242-.081-.242-.243v-.485c0-.162.08-.243.242-.243.162 0 .243.081.243.243v.485c0 .162-.08.243-.242.243z" fill="#FAFAFA"/><path d="M23.862 42.942c-.405.242-.728.808-.728 1.293 0 .486.323.647.728.405.404-.243.728-.809.728-1.294 0-.404-.324-.647-.728-.404z" fill="#37474F"/><path d="M39.473 26.286c-.162 0-.243-.081-.243-.243v-.485c0-.162.081-.242.243-.242.162 0 .242.08.242.242v.485c0 .162-.08.243-.242.243z" fill="#FAFAFA"/><path fill-rule="evenodd" clip-rule="evenodd" d="M39.23 28.226c0 .162.1.243.3.243.2 0 .3-.162.3-.243v-1.05c0-.162-.1-.243-.3-.243-.2 0-.3.08-.3.242v1.051zm.3 2.345c-.2 0-.3-.08-.3-.242v-1.052c0-.161.1-.242.3-.242.2 0 .3.08.3.242v1.052c0 .08-.1.242-.3.242zm-.3 1.86c0 .162.1.242.3.242.2 0 .3-.08.3-.242V31.38c0-.162-.1-.243-.3-.243-.2 0-.3.081-.3.243v1.05zm.3 2.345c-.2 0-.3-.081-.3-.243v-1.051c0-.162.1-.243.3-.243.2 0 .3.081.3.243v1.051c0 .162-.1.242-.3.242zm-.3 1.94c0 .162.1.243.3.243.2 0 .3-.162.3-.243v-1.051c0-.162-.1-.243-.3-.243-.2 0-.3.081-.3.243v1.051zm.3 2.345c-.2 0-.3-.081-.3-.243v-1.05c0-.163.1-.243.3-.243.2 0 .3.08.3.242v1.051c0 .081-.1.243-.3.243zm-.3 1.86c0 .161.1.242.3.242.2 0 .3-.08.3-.243v-1.05c0-.162-.1-.243-.3-.243-.2 0-.3.08-.3.242v1.051zm.3 2.344c-.2 0-.3-.08-.3-.242V41.97c0-.161.1-.242.3-.242.2 0 .3.08.3.242v1.052c0 .161-.1.242-.3.242zm-.3 1.94c0 .162.1.243.3.243.2 0 .3-.162.3-.242v-1.051c0-.162-.1-.243-.3-.243-.2 0-.3.08-.3.243v1.05zm.3 2.345c-.2 0-.3-.08-.3-.242v-1.051c0-.162.1-.243.3-.243.2 0 .3.081.3.243v1.05c0 .082-.1.243-.3.243zm-.3 1.86c0 .162.1.243.3.243.2 0 .3-.081.3-.243v-1.051c0-.162-.1-.243-.3-.243-.2 0-.3.081-.3.243v1.051zm0 2.102c0 .162.1.243.3.243.2 0 .3-.081.3-.243v-1.05c0-.163-.1-.243-.3-.243-.2 0-.3.08-.3.242v1.051z" fill="#FAFAFA"/><path d="M39.473 53.372c-.162 0-.243-.081-.243-.243v-.485c0-.161.081-.242.243-.242.162 0 .242.08.242.242v.485c0 .081-.08.243-.242.243z" fill="#FAFAFA"/><path d="M39.473 24.669c-.404.242-.728.808-.728 1.293 0 .486.324.647.728.405.404-.243.728-.809.728-1.294s-.324-.647-.728-.404z" fill="#37474F"/><path d="M55.084 25.154c-.162 0-.242-.08-.242-.243v-.485c0-.161.08-.242.242-.242.162 0 .243.08.243.242v.485c0 .081-.081.243-.243.243z" fill="#FAFAFA"/><path fill-rule="evenodd" clip-rule="evenodd" d="M54.842 26.852c0 .162.1.242.3.242.2 0 .3-.161.3-.242v-.97c0-.162-.1-.243-.3-.243-.2 0-.3.08-.3.243v.97zm.3 2.183c-.2 0-.3-.081-.3-.243v-.97c0-.162.1-.242.3-.242.2 0 .3.08.3.242v.97c0 .162-.1.243-.3.243zm-.3 1.779c0 .161.1.242.3.242.2 0 .3-.162.3-.242v-.97c0-.162-.1-.243-.3-.243-.2 0-.3.08-.3.242v.97zm.3 2.183c-.2 0-.3-.081-.3-.243v-.97c0-.162.1-.243.3-.243.2 0 .3.081.3.243v.97c0 .162-.1.243-.3.243zm-.3 1.698c0 .161.1.242.3.242.2 0 .3-.08.3-.242v-.97c0-.162-.1-.243-.3-.243-.2 0-.3.08-.3.242v.97zm.3 2.264c-.2 0-.3-.081-.3-.243v-.97c0-.162.1-.243.3-.243.2 0 .3.081.3.243v.97c0 .08-.1.243-.3.243zm-.3 1.697c0 .162.1.243.3.243.2 0 .3-.08.3-.242v-.97c0-.162-.1-.243-.3-.243-.2 0-.3.08-.3.242v.97zm.3 2.184c-.2 0-.3-.081-.3-.243v-.97c0-.162.1-.243.3-.243.2 0 .3.081.3.243v.97c0 .162-.1.242-.3.242zm0 2.02c-.2 0-.3-.08-.3-.242v-.97c0-.162.1-.242.3-.242.2 0 .3.08.3.242v.97c0 .081-.1.243-.3.243z" fill="#FAFAFA"/><path d="M55.084 44.316c-.162 0-.242-.08-.242-.242v-.485c0-.162.08-.243.242-.243.162 0 .243.08.243.243v.485c0 .161-.081.242-.243.242z" fill="#FAFAFA"/><path d="M55.084 23.456c-.404.243-.728.809-.728 1.294s.324.646.728.404c.405-.243.728-.809.728-1.294.081-.404-.323-.647-.728-.404z" fill="#37474F"/><path d="M19.494 70.594c-.162 0-.243-.081-.324-.162a.426.426 0 01.162-.566L59.21 46.823a.427.427 0 01.566.161.426.426 0 01-.162.566L19.737 70.594c-.081-.081-.162 0-.243 0z" fill="#455A64"/><path d="M147.918 186.4l-47.73 27.417c-.891.484-1.54 1.693-1.54 2.661v.645c0 .968.73 2.177 1.54 2.661l47.73 27.418c.892.484 2.269.484 3.08 0l47.73-27.418c.892-.484 1.54-1.693 1.54-2.661v-.645c0-.968-.729-2.177-1.54-2.661l-47.73-27.417c-.811-.484-2.188-.484-3.08 0z" fill="#27DEBF"/><path d="M147.918 186.4l-47.73 27.417c-.891.484-1.54 1.693-1.54 2.661v.645c0 .968.73 2.177 1.54 2.661l47.73 27.418c.892.484 2.269.484 3.08 0l47.73-27.418c.892-.484 1.54-1.693 1.54-2.661v-.645c0-.968-.729-2.177-1.54-2.661l-47.73-27.417c-.811-.484-2.188-.484-3.08 0z" fill="url(#paint4_linear)"/><path d="M102.295 212.607l-2.107 1.21c-.891.484-1.54 1.693-1.54 2.661v.645c0 .968.73 2.177 1.54 2.661l47.73 27.418c.406.242.973.403 1.54.403v-7.822l-47.163-27.176z" fill="#27DEBF"/><path d="M102.295 212.607l-2.107 1.21c-.891.484-1.54 1.693-1.54 2.661v.645c0 .968.73 2.177 1.54 2.661l47.73 27.418c.406.242.973.403 1.54.403v-7.822l-47.163-27.176z" fill="url(#paint5_linear)"/><path d="M147.918 186.4l-47.73 27.417c-.891.484-.891 1.29 0 1.774l47.73 27.417c.892.484 2.269.484 3.08 0l47.73-27.417c.892-.484.892-1.29 0-1.774l-47.73-27.417c-.811-.484-2.188-.484-3.08 0z" fill="#27DEBF"/><path d="M147.918 186.4l-47.73 27.417c-.891.484-.891 1.29 0 1.774l47.73 27.417c.892.484 2.269.484 3.08 0l47.73-27.417c.892-.484.892-1.29 0-1.774l-47.73-27.417c-.811-.484-2.188-.484-3.08 0z" fill="url(#paint6_linear)"/><path fill-rule="evenodd" clip-rule="evenodd" d="M147.27 214.946l-22.366 2.016c-2.188-7.822 7.132-15.16 20.746-16.37 8.184-.726 15.64.645 21.555 4.032l-15.721 9.032c-1.134.564-2.998 1.129-4.214 1.29z" fill="#7BC6EA"/><path fill-rule="evenodd" clip-rule="evenodd" d="M150.998 216.397l9.805 11.129c-12.236 3.628-27.228.806-33.549-6.29-1.215-1.371-1.945-2.661-2.431-4.274l22.366-2.016c1.297-.161 2.918.484 3.809 1.451z" fill="#7BC6EA"/><path d="M125.958 217.688c.405 1.048 1.053 2.016 1.945 2.983 5.834 6.613 19.692 9.354 31.442 6.371l-8.995-10.08c-.648-.726-2.026-1.29-2.998-1.21l-21.394 1.936z" fill="#7BC6EA"/><path fill-rule="evenodd" clip-rule="evenodd" d="M151.403 213.575l15.721-9.032c3.889 2.258 6.158 4.758 6.969 7.903l-22.366 2.016c-1.216.161-1.378-.242-.324-.887z" fill="#37474F"/><path fill-rule="evenodd" clip-rule="evenodd" d="M149.944 214.623c.162.645.891.726 1.377.726.163 0 .325 0 .568-.081l22.366-2.016c.243 0 .405-.161.567-.322.081-.161.162-.403.081-.645-.891-3.387-3.241-6.048-7.374-8.387a.741.741 0 00-.811 0l-15.721 9.032c-.033.025-.073.053-.117.084-.393.276-1.154.813-.936 1.609zm3.16-1.048l14.02-8.064c3.079 1.855 4.943 3.871 5.915 6.29l-19.935 1.774z" fill="#FAFAFA"/><path d="M162.424 161.401l-47.73 27.418c-.891.484-1.54 1.693-1.54 2.661v.645c0 .968.73 2.177 1.54 2.661l47.73 27.417c.892.484 2.269.484 3.08 0l47.73-27.417c.891-.484 1.54-1.693 1.54-2.661v-.645c0-.968-.73-2.177-1.54-2.661l-47.73-27.418c-.811-.483-2.188-.483-3.08 0z" fill="#27DEBF"/><path d="M162.424 161.401l-47.73 27.418c-.891.484-1.54 1.693-1.54 2.661v.645c0 .968.73 2.177 1.54 2.661l47.73 27.417c.892.484 2.269.484 3.08 0l47.73-27.417c.891-.484 1.54-1.693 1.54-2.661v-.645c0-.968-.73-2.177-1.54-2.661l-47.73-27.418c-.811-.483-2.188-.483-3.08 0z" fill="url(#paint7_linear)"/><path d="M116.801 187.609l-2.107 1.21c-.891.484-1.54 1.693-1.54 2.661v.645c0 .968.73 2.177 1.54 2.661l47.73 27.417c.406.242.973.404 1.54.404v-7.822l-47.163-27.176z" fill="#27DEBF"/><path d="M116.801 187.609l-2.107 1.21c-.891.484-1.54 1.693-1.54 2.661v.645c0 .968.73 2.177 1.54 2.661l47.73 27.417c.406.242.973.404 1.54.404v-7.822l-47.163-27.176z" fill="url(#paint8_linear)"/><path d="M162.424 161.401l-47.73 27.418c-.891.484-.891 1.29 0 1.774l47.73 27.417c.892.484 2.269.484 3.08 0l47.73-27.417c.891-.484.891-1.29 0-1.774l-47.73-27.418c-.811-.483-2.188-.483-3.08 0z" fill="#27DEBF"/><path d="M162.424 161.401l-47.73 27.418c-.891.484-.891 1.29 0 1.774l47.73 27.417c.892.484 2.269.484 3.08 0l47.73-27.417c.891-.484.891-1.29 0-1.774l-47.73-27.418c-.811-.483-2.188-.483-3.08 0z" fill="url(#paint9_linear)"/><path d="M164.045 210.511l10.859-6.29 3.242-9.354c.162-.565-.162-.968-.73-.807l-19.61 3.79c-.568.081-.973-.242-.73-.806l2.918-8.306c.162-.564-.162-.968-.73-.887l-15.964 1.855c-.648.08-.891-.323-.567-.807l2.512-4.354c.324-.565.081-.887-.567-.726l-9.806 1.855-7.293 4.193 36.466 20.644z" fill="#7BC6EA"/><path d="M177.01 136.403l-47.73 27.418c-.891.483-1.54 1.693-1.54 2.661v.645c0 .967.73 2.177 1.54 2.661l47.73 27.417c.892.484 2.269.484 3.08 0l47.73-27.417c.891-.484 1.54-1.694 1.54-2.661v-.645c0-.968-.73-2.178-1.54-2.661l-47.73-27.418c-.892-.484-2.269-.484-3.08 0z" fill="#27DEBF"/><path d="M177.01 136.403l-47.73 27.418c-.891.483-1.54 1.693-1.54 2.661v.645c0 .967.73 2.177 1.54 2.661l47.73 27.417c.892.484 2.269.484 3.08 0l47.73-27.417c.891-.484 1.54-1.694 1.54-2.661v-.645c0-.968-.73-2.178-1.54-2.661l-47.73-27.418c-.892-.484-2.269-.484-3.08 0z" fill="url(#paint10_linear)"/><path d="M131.306 162.611l-2.107 1.21c-.892.483-1.54 1.693-1.54 2.661v.645c0 .967.73 2.177 1.54 2.661l47.73 27.417c.405.242.973.403 1.54.403v-7.822l-47.163-27.175z" fill="#27DEBF"/><path d="M131.306 162.611l-2.107 1.21c-.892.483-1.54 1.693-1.54 2.661v.645c0 .967.73 2.177 1.54 2.661l47.73 27.417c.405.242.973.403 1.54.403v-7.822l-47.163-27.175z" fill="url(#paint11_linear)"/><path d="M177.01 136.403l-47.73 27.418c-.892.483-.892 1.29 0 1.774l47.73 27.417c.892.484 2.269.484 3.08 0l47.73-27.417c.891-.484.891-1.291 0-1.774l-47.73-27.418c-.892-.484-2.269-.484-3.08 0z" fill="#27DEBF"/><path d="M177.01 136.403l-47.73 27.418c-.892.483-.892 1.29 0 1.774l47.73 27.417c.892.484 2.269.484 3.08 0l47.73-27.417c.891-.484.891-1.291 0-1.774l-47.73-27.418c-.892-.484-2.269-.484-3.08 0z" fill="url(#paint12_linear)"/><path d="M145.731 161.643l23.905-13.708c.406-.242 1.135-.242 1.54 0l3.89 2.258c.405.241.405.645 0 .887l-23.906 13.708c-.405.242-1.134.242-1.54 0l-3.889-2.258c-.406-.242-.406-.645 0-.887zm10.939 6.21l16.613-9.516c.405-.242 1.134-.242 1.54 0l3.889 2.258c.405.242.405.645 0 .887l-16.693 9.515c-.405.242-1.135.242-1.54 0l-3.89-2.257c-.405-.242-.405-.646.081-.887zm10.859 6.289l27.472-15.805c.405-.242 1.134-.242 1.539 0l3.89 2.258c.405.242.405.645 0 .887l-27.471 15.805c-.405.242-1.135.242-1.54 0l-3.89-2.258c-.405-.241-.405-.645 0-.887zm10.859 6.29l12.966-7.419c.405-.241 1.134-.241 1.539 0l3.89 2.258c.405.242.405.645 0 .887l-12.966 7.419c-.405.242-1.134.242-1.539 0l-3.89-2.258c-.405-.242-.405-.645 0-.887z" fill="#7BC6EA"/><path d="M264.395 52.839a8.747 8.747 0 008.747-8.746 8.747 8.747 0 00-8.747-8.745c-4.831 0-8.748 3.916-8.748 8.745 0 4.83 3.917 8.745 8.748 8.745z" fill="#263238"/><path fill="#EDBAA0" d="M279.217 192.68h6.155v10.607h-6.155zm-15.308-.567l-6.155.243-.324-11.256 6.479-.162v11.175z"/><path d="M284.967 101.908c0 5.911.728 48.504.728 48.504.162 1.7 1.701 4.858 1.377 11.336-.486 8.826-1.458 36.195-1.458 36.195s-2.996 1.781-6.884.162c0 0-5.426-36.276-6.56-45.021-.972-7.693-2.592-28.503-2.592-28.503l-3.321 25.021s1.134 4.534.729 9.798c-.324 4.048-2.672 29.231-2.672 29.231s-2.916 1.943-7.128.567c0 0-3.158-35.871-3.158-39.596-.081-4.292 2.024-47.613 2.024-47.613h28.915v-.081z" fill="#465573"/><path d="M256.944 66.037c-3.644 2.996-10.205 9.07-10.205 9.07l10.205 5.586 6.48-17.409c0-.08-2.511-.567-6.48 2.753z" fill="#27DEBF"/><path d="M256.944 66.037c-3.644 2.996-10.205 9.07-10.205 9.07l10.205 5.586 6.48-17.409c0-.08-2.511-.567-6.48 2.753z" fill="#465573"/><path d="M282.861 67.495s2.349 2.348 2.349 7.935v12.146l.162 22.916c-8.91 4.696-20.086 4.939-29.562-1.944 0 0 .486-29.393.486-34.252 0-4.777 2.672-11.093 10.042-11.498l9.558 2.186 6.965 2.51z" fill="#465573"/><path d="M279.541 50.328s-1.458 6.721-2.025 7.774c-.567 1.133-1.782 1.376-1.782 1.376l.081-4.696 3.726-4.454z" fill="#263238"/><path d="M277.759 40.773s1.539-.242 2.754.972c1.134 1.215.486 4.94-.972 8.583l-2.673.324.891-9.879z" fill="#263238"/><path d="M276.058 50.652c.567.324 1.296-.729 1.944-1.376.648-.73 2.835-1.62 3.888.647 1.134 2.349-.972 5.345-2.673 5.911-2.916.891-3.402-.971-3.402-.971l-.243 10.607-10.205 6.721s-.648-3.644.648-6.964v-3.239s-2.672.405-3.968.243c-2.187-.324-3.483-2.024-4.212-4.372-1.053-3.725-1.458-6.802-.567-14.17.972-8.098 10.367-8.179 15.47-4.94 5.264 3.077 3.32 11.903 3.32 11.903z" fill="#EDBAA0"/><path d="M276.058 51.543c.243 0 1.296-1.7 1.944-2.348.891-.81-.243-8.502-.243-8.502s.891-1.863-.891-3.887c-1.296-1.377-3.401-1.539-7.046-2.106-1.863-.324-4.778-.81-6.722-1.214-2.268-.405-4.131-.89-5.751.486-1.215 1.052-1.782 2.996-1.134 4.534.162.324.405.648.648.972.486.486.972.89 1.62 1.133 0 0 .972.891 4.455 1.296 3.401.405 8.828-.08 9.557-.162.972-.162 1.215.81 1.782 3.482.486 2.43.89 6.316 1.781 6.316z" fill="#263238"/><path d="M266.096 61.907s4.859-.971 6.479-1.862c1.134-.567 2.025-1.62 2.349-2.267 0 0-.324 1.457-1.296 2.753-1.215 1.538-7.532 2.753-7.532 2.753v-1.377z" fill="#F28F8F"/><path d="M279.217 200.21v-.891c-.567.243-1.944 5.507-4.455 7.774-1.944 1.781-4.616 3.806-5.264 5.83-.729 2.024 3.725 3.239 5.507 2.915 2.106-.405 5.751-1.862 6.723-3.239.89-1.376 1.376-3.401 2.105-4.453.729-1.053 2.511-2.106 2.916-3.32.243-.648-.081-2.025-.324-3.239-.324-1.134-.567-2.268-.972-2.187v.648c-.486.486-1.701.972-3.077 1.053-.972 0-3.159-.162-3.159-.891zm-21.544-9.798c-.324 0-.567.486-1.296 1.215-.891.891-2.268 1.943-3.645 2.591-2.349 1.134-6.803 2.915-8.828 3.887-1.296.567-1.215 2.105.081 2.996s4.455 1.538 8.342.648c2.106-.486 4.779-2.349 6.48-2.268 1.7.081 4.94.081 6.155-.809 1.296-.891.729-2.753.405-4.292-.405-1.781-.891-4.453-1.458-4.372v.566c-.729 1.134-4.617 1.62-6.236.729v-.891zm11.905-65.831s-4.94-1.377-8.585-4.939c0 0 1.701 3.077 6.641 5.992l-1.052 21.862 2.996-22.915z" fill="#263238"/><path d="M262.046 142.557l.567-.324c.891-.486 1.539-1.7 1.539-2.672V84.499c0-.972-.729-2.186-1.539-2.672l-47.704-27.531c-.891-.486-2.268-.486-3.078 0l-.567.324c-.89.486-1.538 1.7-1.538 2.672v55.062c0 .972.729 2.186 1.538 2.672l47.705 27.531c.89.486 2.267.486 3.077 0z" fill="#27DEBF"/><path d="M262.046 142.557l.567-.324c.891-.486 1.539-1.7 1.539-2.672V84.499c0-.972-.729-2.186-1.539-2.672l-47.704-27.531c-.891-.486-2.268-.486-3.078 0l-.567.324c-.89.486-1.538 1.7-1.538 2.672v55.062c0 .972.729 2.186 1.538 2.672l47.705 27.531c.89.486 2.267.486 3.077 0z" fill="url(#paint13_linear)"/><path d="M264.152 112.03V84.5c0-.487-.162-1.053-.486-1.54l-6.804 3.887v54.415l2.106 1.214c.891.486 2.268.486 3.078 0l.567-.324c.891-.486 1.539-1.7 1.539-2.672v-27.45z" fill="#27DEBF"/><path d="M264.152 112.03V84.5c0-.487-.162-1.053-.486-1.54l-6.804 3.887v54.415l2.106 1.214c.891.486 2.268.486 3.078 0l.567-.324c.891-.486 1.539-1.7 1.539-2.672v-27.45z" fill="url(#paint14_linear)"/><path d="M211.264 56.401l47.705 27.531c.89.486 1.538 1.7 1.538 2.672v55.062c0 .972-.729 1.377-1.538.891l-47.705-27.531c-.89-.486-1.538-1.7-1.538-2.672V57.292c0-.972.729-1.377 1.538-.89z" fill="#27DEBF"/><path d="M211.264 56.401l47.705 27.531c.89.486 1.538 1.7 1.538 2.672v55.062c0 .972-.729 1.377-1.538.891l-47.705-27.531c-.89-.486-1.538-1.7-1.538-2.672V57.292c0-.972.729-1.377 1.538-.89z" fill="url(#paint15_linear)"/><path opacity=".5" d="M215.232 106.686c1.458.891 3.726 1.052 5.508-3.158 1.701-4.21 3.24-7.53 5.345-6.154 1.458.972 1.296 2.348 2.592 3.077 2.025 1.214 3.645-3.968 4.374-8.745 1.052-6.802 2.024-8.583 3.887-7.53 2.754 1.538 2.511 6.072 2.511 10.202 0 3.725 0 5.668 2.025 6.478 1.296.567 2.591-2.672 3.158-5.182.567-2.51 1.701-3.644 2.916-2.997 1.215.648 2.511 2.349 2.511 8.908.081 5.83.162 14.17.243 16.032.243 4.373 2.754 6.559 4.859 7.774v6.559l-39.929-22.997v-2.267z" fill="#FAFAFA"/><path d="M254.918 125.715c-3.158-1.782-4.859-4.535-5.021-8.098-.081-1.943-.162-10.85-.243-16.032-.081-6.397-1.296-7.936-2.349-8.584-.243-.162-.567-.162-.81-.08-.648.242-1.215 1.295-1.539 2.752-.405 2.106-1.377 4.697-2.673 5.345-.323.162-.728.243-1.052.081-2.268-.891-2.268-2.996-2.268-6.883v-.89c0-3.726 0-7.612-2.268-8.908-.567-.324-.81-.243-.972-.162-1.134.567-1.782 4.21-2.268 7.369-.324 1.862-1.376 8.016-3.563 9.069-.486.243-.972.243-1.458-.081-.729-.405-1.053-1.053-1.377-1.62-.324-.566-.567-1.052-1.215-1.457-.405-.243-.729-.324-1.053-.243-1.377.405-2.753 3.725-3.725 6.154-.81 2.024-1.944 3.32-3.159 3.725-.891.324-1.944.162-2.916-.405l.405-.729c.567.324 1.377.648 2.187.324 1.053-.324 1.944-1.458 2.673-3.32 1.458-3.482 2.672-6.154 4.211-6.64.567-.162 1.134-.08 1.701.324a4.055 4.055 0 011.458 1.781c.243.486.486.972 1.053 1.296.243.162.486.162.729.081 1.134-.567 2.43-3.968 3.077-8.502.81-5.182 1.539-7.45 2.754-8.017.486-.242 1.053-.161 1.782.162 2.754 1.539 2.754 5.669 2.754 9.636v.891c0 3.725 0 5.344 1.782 6.073.081 0 .162.081.405 0 .728-.405 1.7-2.51 2.267-4.858.405-1.782 1.053-2.996 1.944-3.401.486-.243 1.053-.162 1.539.08 1.296.73 2.673 2.43 2.754 9.232.081 5.182.162 14.089.243 15.951.162 3.32 1.7 5.75 4.616 7.45l-.405 1.134z" fill="#455A64"/><path d="M218.311 65.551c.728.405 1.295 1.458 1.295 2.268 0 .81-.567 1.214-1.295.728-.729-.404-1.296-1.457-1.296-2.267 0-.81.567-1.133 1.296-.729zm2.348 2.591c0 .567.405 1.296.972 1.62l8.909 5.182c.567.324.972.081.972-.486 0-.566-.405-1.295-.972-1.62l-8.909-5.181c-.567-.324-.972-.162-.972.486zm-2.348 3.644c.728.405 1.295 1.458 1.295 2.267 0 .81-.567 1.215-1.295.73-.729-.406-1.296-1.458-1.296-2.268 0-.81.567-1.134 1.296-.729zm2.348 2.591c0 .567.405 1.296.972 1.62l8.909 5.182c.567.324.972.081.972-.486s-.405-1.295-.972-1.62l-8.909-5.181c-.567-.324-.972-.081-.972.485z" fill="#7BC6EA"/><path d="M292.823 103.69c3.159-2.186 2.106-4.21 1.053-7.936-6.884-25.506-8.018-26.964-11.015-28.26l-2.43 10.041 6.48 20.892c-4.86 3.4-9.8 5.749-14.417 6.801-.81.162-2.511.081-3.239-.324-1.944-1.133-3.078-1.133-5.103-1.619v3.32s-2.349.405-5.426-.162c-4.212-.81-5.994.081-3.483 4.858 1.62 2.996 4.697 3.968 12.473 2.672 2.267-.404 5.669-1.295 8.423-2.186 7.127-2.51 13.201-5.749 16.684-8.097z" fill="#EDBAA0"/><path d="M282.861 67.495s-2.997 1.862-3.645 6.558c-.648 4.697 4.536 16.924 4.536 16.924s5.426.162 8.423-3.482c0 0-3.807-12.55-4.536-15.223-.81-2.591-3.644-4.372-4.778-4.777z" fill="#27DEBF"/><path d="M282.861 67.495s-2.997 1.862-3.645 6.558c-.648 4.697 4.536 16.924 4.536 16.924s5.426.162 8.423-3.482c0 0-3.807-12.55-4.536-15.223-.81-2.591-3.644-4.372-4.778-4.777z" fill="#465573"/><path d="M209.725 72.758v3.725s2.025 3.077 4.212 4.21c2.187 1.134 2.106 5.669-.567 6.316-2.673.648-6.398-2.672-6.722-4.534-.243-1.863.405-9.96 3.077-9.717z" fill="#FFA8A7"/><path d="M98.814 32.11l19.883-.485c.728-.566 4.688-5.338 4.688-5.338s10.912-1.375 10.912-.97c.081.404-10.669 11.89-11.801 13.103-.566.647-1.132 1.132-2.506 1.213-2.829.162-18.348 1.132-18.348 1.132l-2.828-8.654z" fill="#EDBAA0"/><path d="M117.971 90.023l-.566-.323c-.889-.486-1.536-1.699-1.536-2.67v-55c0-.97.728-2.184 1.536-2.67l47.607-27.5c.89-.485 2.264-.485 3.072 0l.566.324c.889.485 1.535 1.698 1.535 2.669v55c0 .971-.727 2.185-1.535 2.67l-47.608 27.5c-.808.486-2.182.486-3.071 0z" fill="#27DEBF"/><path d="M117.971 90.023l-.566-.323c-.889-.486-1.536-1.699-1.536-2.67v-55c0-.97.728-2.184 1.536-2.67l47.607-27.5c.89-.485 2.264-.485 3.072 0l.566.324c.889.485 1.535 1.698 1.535 2.669v55c0 .971-.727 2.185-1.535 2.67l-47.608 27.5c-.808.486-2.182.486-3.071 0z" fill="url(#paint16_linear)"/><path d="M115.869 59.53v-27.5c0-.485.162-1.052.485-1.537l6.79 3.883v54.353l-2.102 1.213c-.889.486-2.263.486-3.071 0l-.566-.323c-.889-.485-1.536-1.699-1.536-2.67V59.53z" fill="#27DEBF"/><path d="M115.869 59.53v-27.5c0-.485.162-1.052.485-1.537l6.79 3.883v54.353l-2.102 1.213c-.889.486-2.263.486-3.071 0l-.566-.323c-.889-.485-1.536-1.699-1.536-2.67V59.53z" fill="url(#paint17_linear)"/><path d="M168.649 3.963l-47.607 27.5c-.89.486-1.536 1.7-1.536 2.67v55c0 .971.727 1.376 1.536.89l47.607-27.5c.889-.485 1.536-1.699 1.536-2.67v-55c0-.97-.647-1.375-1.536-.89z" fill="#27DEBF"/><path d="M168.649 3.963l-47.607 27.5c-.89.486-1.536 1.7-1.536 2.67v55c0 .971.727 1.376 1.536.89l47.607-27.5c.889-.485 1.536-1.699 1.536-2.67v-55c0-.97-.647-1.375-1.536-.89z" fill="url(#paint18_linear)"/><path d="M136.4 56.052c0-6.228 3.799-13.507 8.487-16.176V33.08c-4.203 2.427-7.921 6.956-10.589 12.78-4.688 10.515-3.799 21.353 2.021 24.346l3.233-7.199c-1.94-.97-3.152-3.397-3.152-6.956z" fill="#7BC6EA"/><path d="M144.887 33.081v6.795c4.688-2.67 8.487.161 8.487 6.39 0 6.227-3.799 13.507-8.487 16.176-2.021 1.133-3.88 1.294-5.335.566l-3.233 7.199c2.587 1.294 5.254.97 8.568-.89 7.517-4.367 13.579-15.934 13.579-25.963 0-10.03-6.143-14.64-13.579-10.273z" fill="#7BC6EA"/><path d="M144.887 69.236c7.517-4.367 13.579-15.934 13.579-25.963l-5.092 2.992c0 6.228-3.799 13.427-8.487 16.096-2.021 1.133-3.88 1.294-5.335.566l-3.233 7.199c2.587 1.294 5.254 1.051 8.568-.89zm-21.743-34.213c-.728.404-1.293 1.455-1.293 2.264 0 .81.565 1.214 1.293.728.727-.404 1.293-1.456 1.293-2.264 0-.81-.566-1.133-1.293-.728zm13.174-5.986c0 .566-.404 1.294-.97 1.618l-8.891 5.176c-.566.324-.97.081-.97-.485s.404-1.294.97-1.618l8.891-5.176c.566-.324.97-.081.97.485z" fill="#7BC6EA"/><path d="M138.42 26.206c-.727.405-1.293 1.456-1.293 2.265 0 .809.566 1.213 1.293.728.728-.405 1.293-1.456 1.293-2.265 0-.809-.565-1.132-1.293-.728z" fill="#455A64"/><path d="M151.595 20.22c0 .567-.405 1.295-.97 1.619l-8.891 5.176c-.566.324-.97.081-.97-.485s.404-1.294.97-1.618l8.891-5.176c.485-.324.97-.081.97.485z" fill="#7BC6EA"/><path d="M153.616 17.31c-.728.404-1.294 1.455-1.294 2.264 0 .809.566 1.213 1.294.728.727-.405 1.293-1.456 1.293-2.265 0-.809-.566-1.132-1.293-.728z" fill="#37474F"/><path d="M166.79 11.324c0 .566-.404 1.294-.97 1.617l-8.891 5.177c-.566.323-.97.08-.97-.485 0-.567.404-1.294.97-1.618l8.891-5.177c.566-.242.97-.08.97.486z" fill="#7BC6EA"/><path d="M106.331 30.493H92.186A14.114 14.114 0 0178.04 16.34v-2.184A14.114 14.114 0 0192.186 0c7.84 0 14.145 6.309 14.145 14.155v16.338z" fill="#263238"/><path d="M134.782 16.824c-1.616 1.294-3.475 2.022-3.475 2.669 0 .97 1.535 1.051 2.02.809l2.344-1.294s.728.161 2.991 1.617c1.293.89 2.021 4.287 3.718 4.125 1.778-.161 3.314-.97 3.556-2.183.324-1.537-.484-4.934-2.263-6.148-4.203-2.83-7.193-.97-8.891.405z" fill="#EDBAA0"/><path d="M94.369 157.48c0 .566 0 1.052.485 1.941.565 1.133 2.101 2.993 3.233 4.206 1.697 1.861 4.284 4.045 6.143 5.662 1.05.89 1.05 2.265-.405 2.75-1.454.486-4.768.647-8.082-1.132-1.86-.971-4.446-5.581-5.982-6.228-1.778-.809-2.748-1.213-3.313-2.022-.89-1.213-1.132-2.103-.324-3.559.808-1.537 2.102-3.963 2.587-3.64l-.162.485c.404 1.295 3.799 2.75 5.577 2.346l.243-.809z" fill="#263238"/><path d="M95.986 151.414c-.809 2.75-1.455 4.934-1.536 6.066.08 1.052.08 1.052.485 1.941.566 1.133 2.101 2.993 3.233 4.206.808.89 1.859 1.861 2.991 2.831.08.162.161.324.161.486 0 .97-2.344 1.213-3.718.808-1.697-.485-3.071-1.779-4.203-3.235-.808-1.051-2.586-3.073-3.718-4.61-.485-.647-.89-1.214-.97-1.537-.404-.971-.323-1.699-.162-2.184l.081-.243c.647-1.86.97-3.882 1.132-5.823m-10.104 9.463c.323 1.78.404 3.559.404 5.339v3.963h5.9v-6.794s.082 0 .082-.081c0 0 .08-1.294.242-3.397" fill="#EDBAA0"/><path d="M95.986 151.414c3.233-10.515 10.507-29.361 11.477-32.677 1.051-3.559-.242-34.295-1.051-44.243l-30.714-1.618c-2.344 10.03-.081 23.537.727 31.949.808 8.169 1.778 17.794 1.778 17.794s-2.425 8.331-1.778 15.045c.404 4.206 2.425 16.581 3.314 22 2.263.647 4.446.324 6.709-.89.404-4.772 1.05-13.426 1.778-19.088 1.05-8.493 1.374-14.721 2.263-19.655 1.132-6.228 1.455-30.493 1.455-30.493l3.556 27.5s-1.859 3.155-3.152 8.17c-1.05 3.882-2.101 18.603-2.505 24.993 1.374 1.051 3.475 1.456 6.142 1.213z" fill="#465573"/><path d="M91.782 89.538s5.577-1.941 8.81-4.934c0 0-2.182 3.72-6.547 5.743l-.08 16.096-2.183-16.905" fill="#263238"/><path d="M87.337 32.353s-7.113.648-8.083 1.052c5.092 5.58-2.667 7.846-2.667 7.846l5.9 19.654c-3.314 4.287-6.223 7.603-6.95 12.699 3.556 6.309 23.6 7.199 30.956 2.507-.646-8.816-2.101-15.044-1.616-17.713 3.475-10.758 2.424-13.022 2.101-15.53-.646-4.853-5.415-8.978-8.163-10.757h-2.506l-8.972.242z" fill="#465573"/><path d="M85.962 166.054v-.809c.162 1.294 1.86 5.257 4.203 7.36 1.86 1.699 4.365 3.64 5.011 5.581.647 1.942-2.99 2.75-5.415 2.508-2.829-.243-5.011-1.941-6.062-3.155-1.536-1.779-1.536-2.911-2.182-3.882-.728-.971-2.344-2.022-2.749-3.155-.242-.647 0-1.941.324-3.073.242-1.052.566-2.184.889-2.103v.647c.404.485 1.616.971 2.91.971 1.05-.081 3.152-.243 3.071-.89z" fill="#263238"/><path d="M80.144 165.811c.404.486 1.616.971 2.91.971.888 0 2.99-.162 2.91-.809v-.809c.16 1.294 1.858 5.258 4.202 7.361.485.404.89.808 1.455 1.294.97 1.132.728 2.103-1.616 2.264-2.344.162-4.365-1.213-6.143-3.397-1.698-2.103-3.718-6.875-3.718-6.875zm21.58-158.936c1.455.89 3.314 4.61 3.153 12.537-.162 6.713-2.344 8.331-3.395 8.816-1.051.486-3.152.162-5.254-.161v4.044s2.83 3.235 2.668 5.095c-.162 1.86-4.042 2.265-6.71.486-2.667-1.78-4.849-5.339-4.849-5.339l.08-9.22s-1.212 1.132-3.232-.647c-1.698-1.456-2.263-3.964-.97-5.258s3.718-.97 4.688.89c0 0 1.131-3.154 5.82-4.691 4.203-1.294 6.547-2.912 8.001-6.552z" fill="#EDBAA0"/><path d="M96.228 28.067c-2.183-.243-6.547-1.537-7.275-3.317 0 0 .243 1.133 1.536 2.265 1.293 1.133 5.739 2.427 5.739 2.427v-1.375z" fill="#F28F8F"/><path d="M83.86 36.56c1.617 2.345 11.316 22 11.316 22s11.155-.81 16.893-1.456c1.779-.162 1.374-2.103 2.102-4.044.727-1.942 1.697-1.456 1.697-1.456v2.426c0 1.052 2.183 2.831 3.638 2.831 3.798-.08 7.597-3.801 7.759-.728.081 2.022-.808 5.015-2.506 5.824-4.93 2.265-7.517 1.537-10.75 1.78-2.505.161-16.974 2.345-20.368 2.507-1.779.08-3.153-.243-4.688-2.508C87.417 61.552 78.04 43.84 78.04 43.84c-3.556-5.096-1.536-9.383 1.132-10.353 1.616-.566 3.152.728 4.688 3.073z" fill="#EDBAA0"/><defs><linearGradient id="paint0_linear" x1="39.978" y1="83.841" x2="61.587" y2="119.444" gradientUnits="userSpaceOnUse"><stop stop-color="#E6E6E6"/><stop offset="1" stop-color="#fff" stop-opacity=".01"/></linearGradient><linearGradient id="paint1_linear" x1="298.912" y1="94.835" x2="283" y2="121.082" gradientUnits="userSpaceOnUse"><stop stop-color="#E6E6E6"/><stop offset="1" stop-color="#fff" stop-opacity=".01"/></linearGradient><linearGradient id="paint2_linear" x1="296.659" y1="106.982" x2="347.37" y2="106.982" gradientUnits="userSpaceOnUse"><stop stop-color="#D6DCED"/><stop offset="1" stop-color="#B1D8F4"/></linearGradient><linearGradient id="paint3_linear" x1="19.515" y1="64.71" x2="59.432" y2="64.71" gradientUnits="userSpaceOnUse"><stop stop-color="#D6DCED"/><stop offset="1" stop-color="#B1D8F4"/></linearGradient><linearGradient id="paint4_linear" x1="98.685" y1="247.558" x2="200.295" y2="247.558" gradientUnits="userSpaceOnUse"><stop stop-color="#D6DCED"/><stop offset="1" stop-color="#F0F0F9"/></linearGradient><linearGradient id="paint5_linear" x1="98.685" y1="247.586" x2="149.491" y2="247.586" gradientUnits="userSpaceOnUse"><stop stop-color="#D6DCED"/><stop offset="1" stop-color="#F0F0F9"/></linearGradient><linearGradient id="paint6_linear" x1="99.592" y1="243.357" x2="199.389" y2="243.357" gradientUnits="userSpaceOnUse"><stop stop-color="#D6DCED"/><stop offset="1" stop-color="#B1D8F4"/></linearGradient><linearGradient id="paint7_linear" x1="113.201" y1="222.54" x2="214.811" y2="222.54" gradientUnits="userSpaceOnUse"><stop stop-color="#D6DCED"/><stop offset="1" stop-color="#F0F0F9"/></linearGradient><linearGradient id="paint8_linear" x1="113.201" y1="222.567" x2="164.006" y2="222.567" gradientUnits="userSpaceOnUse"><stop stop-color="#D6DCED"/><stop offset="1" stop-color="#F0F0F9"/></linearGradient><linearGradient id="paint9_linear" x1="114.108" y1="218.338" x2="213.905" y2="218.338" gradientUnits="userSpaceOnUse"><stop stop-color="#D6DCED"/><stop offset="1" stop-color="#B1D8F4"/></linearGradient><linearGradient id="paint10_linear" x1="127.716" y1="197.521" x2="229.326" y2="197.521" gradientUnits="userSpaceOnUse"><stop stop-color="#D6DCED"/><stop offset="1" stop-color="#F0F0F9"/></linearGradient><linearGradient id="paint11_linear" x1="127.716" y1="197.548" x2="178.521" y2="197.548" gradientUnits="userSpaceOnUse"><stop stop-color="#D6DCED"/><stop offset="1" stop-color="#F0F0F9"/></linearGradient><linearGradient id="paint12_linear" x1="128.622" y1="193.319" x2="228.42" y2="193.319" gradientUnits="userSpaceOnUse"><stop stop-color="#D6DCED"/><stop offset="1" stop-color="#B1D8F4"/></linearGradient><linearGradient id="paint13_linear" x1="209.756" y1="142.929" x2="264.161" y2="142.929" gradientUnits="userSpaceOnUse"><stop stop-color="#D6DCED"/><stop offset="1" stop-color="#F0F0F9"/></linearGradient><linearGradient id="paint14_linear" x1="256.906" y1="142.772" x2="264.16" y2="142.772" gradientUnits="userSpaceOnUse"><stop stop-color="#D6DCED"/><stop offset="1" stop-color="#F0F0F9"/></linearGradient><linearGradient id="paint15_linear" x1="209.756" y1="142.779" x2="260.534" y2="142.779" gradientUnits="userSpaceOnUse"><stop stop-color="#D6DCED"/><stop offset="1" stop-color="#B1D8F4"/></linearGradient><linearGradient id="paint16_linear" x1="115.903" y1="90.396" x2="170.198" y2="90.396" gradientUnits="userSpaceOnUse"><stop stop-color="#D6DCED"/><stop offset="1" stop-color="#F0F0F9"/></linearGradient><linearGradient id="paint17_linear" x1="115.903" y1="90.24" x2="123.143" y2="90.24" gradientUnits="userSpaceOnUse"><stop stop-color="#D6DCED"/><stop offset="1" stop-color="#F0F0F9"/></linearGradient><linearGradient id="paint18_linear" x1="119.523" y1="90.246" x2="170.197" y2="90.246" gradientUnits="userSpaceOnUse"><stop stop-color="#D6DCED"/><stop offset="1" stop-color="#B1D8F4"/></linearGradient></defs></svg>