<svg width="33" height="100" fill="none" xmlns="http://www.w3.org/2000/svg"><path fill-rule="evenodd" clip-rule="evenodd" d="M15.717 65.747l4.678.087s-.362 3.284-.15 4.45c.134.732-.086 1.385-.92 2.5-.559.745-2.222 8.702-2.309 14.832-.043 3.03.194 5.585 1.361 6.63 0 0 .926 1.414-.295 1.327-.757-.054-2.502-1.536-3.204-3.303 0 0-.051-1.77-.26-3.388-.67-5.177-.729-13.52.76-16.236 1.489-2.715.34-6.899.34-6.899" fill="#F2B286"/><path fill-rule="evenodd" clip-rule="evenodd" d="M14.682 74.799c.545.277 1.12.5 1.726.578.719.094 1.44.05 2.154-.068.307-1.359.588-2.293.762-2.526.835-1.114 1.055-1.767.921-2.5-.212-1.165.15-4.45.15-4.45l-4.678-.086s1.15 4.184-.34 6.899c-.288.526-.517 1.267-.695 2.153" fill="#E0B286"/><path fill-rule="evenodd" clip-rule="evenodd" d="M20.245 70.284c.1.545-.003 1.05-.404 1.731-.57.237-1.145.42-1.684.426-.91.01-1.61-.34-2.451-.534.967-2.673.011-6.16.011-6.16l4.678.087s-.362 3.284-.15 4.45" fill="#E4BF9A"/><path fill-rule="evenodd" clip-rule="evenodd" d="M22.276 99.288a.203.203 0 00.11-.298c-.348-.58-1.26-1.767-1.912-2.433-.84-.86-1.945-2.224-1.945-2.224.121.419.138.746-.09.822-1.47.49-3.523-3.075-3.523-3.075s-.857 1.807.781 3.96c.496.652.714 2.386.714 2.386l.566-.015-.047-1.826s1.464 2.088 1.942 2.306c.155.07 1.9.621 3.045.48a2.12 2.12 0 00.359-.083" fill="#3A4245"/><path fill-rule="evenodd" clip-rule="evenodd" d="M11.315 65.675l5.499-.35s-.018 3.888.142 4.51c.14.543.39 1.945-.54 3.203-.327.442-.582.938-.7 1.48-.3 1.372-.817 4.136-1.036 7.717-.32 5.195-.38 10.251.701 11.77 0 0 .765 2.037-.163 1.755-.929-.28-2.537-1.715-2.734-4.286 0 0-.255-4.026-1.4-8.335-.99-3.718-.861-7.792.548-10.04.845-1.348-.212-6.967-.317-7.424" fill="#FFC39A"/><path fill-rule="evenodd" clip-rule="evenodd" d="M11.632 73.1c-.406.647-.701 1.451-.897 2.352 1.454.669 3.078.713 4.695.509.104-.578.203-1.065.286-1.443a3.908 3.908 0 01.7-1.48c.93-1.257.68-2.66.54-3.204-.16-.62-.142-4.509-.142-4.509l-5.499.35c.105.458 1.162 6.076.317 7.424" fill="#F1C39A"/><path fill-rule="evenodd" clip-rule="evenodd" d="M14.764 72.298c-.969-.152-1.923-.393-2.815-.789.072-2.168-.554-5.487-.634-5.834l5.499-.35s-.018 3.888.142 4.51c.108.42.28 1.357-.078 2.341-.683.165-1.382.237-2.114.122" fill="#E4BF9A"/><path fill-rule="evenodd" clip-rule="evenodd" d="M19.414 99.668s-3.854-5.621-3.98-5.731c0 0 .611 1.504.089 1.567-.523.064-2.317-1.101-3.001-3.834 0 0-1.235 1.417-1.279 2.17-.043.752.978 2.028 1.04 2.348.063.32.039 1.912.039 1.912l.835.11.004-1.893s1.734 1.807 2.93 2.882a2.98 2.98 0 002 .77s1.569.173 1.323-.3" fill="#4A5154"/><path fill-rule="evenodd" clip-rule="evenodd" d="M21.853 48.141c-1.055-2.056-1.475-4.4-1.643-5.878-1.479.561-2.99.71-4.598.683-1.497-.026-2.907-.165-4.232-.827-.22 1.733-.655 4.028-1.49 5.47-1.486 2.566-2.39 5.231-.769 11.79 1.32 5.34.345 13.505.192 13.964 0 0 4.44 2.8 11.415.62 0 0 2.246-18.048 1.996-21.88-.103-1.58-.376-2.976-.87-3.942" fill="#A9D4E6"/><path fill-rule="evenodd" clip-rule="evenodd" d="M12.343 22.23l-2.35 1.097s5.68 8.614 7.054 8.55c1.375-.065 2.91-8.55 2.91-8.55s-2.217-.703-2.91-1.335c-.693-.633 0 0 0 0s-.568 3.077-4.704.238" fill="#E8E8DB"/><path fill-rule="evenodd" clip-rule="evenodd" d="M17.82 22.56s-.809 7.19-1.374 7.868c-.565.68.689 12.448 1.316 13.61.626 1.161 1.444 4.292 4.546 4.098 0 0-1.755-3-1.285-7.807.194-1.981 1.942-5.51 2.212-8.452.384-4.197-.75-7.691-.959-7.969 0 0-4.043-1.039-4.456-1.347" fill="#D1E2EF"/><path fill-rule="evenodd" clip-rule="evenodd" d="M12.186 22.138s-4.408 1.77-6.2 2.555c0 0 2.99 3.293 2.532 7.767 0 0 1.186 3.456 1.608 7.808.253 2.61-1.017 6-2.046 7.882 0 0 8.88 1.32 10.701-2.509 0 0-1.803-13.162-1.734-13.764.07-.603-4.401-7.477-4.86-9.74" fill="#D1E2EF"/><path fill-rule="evenodd" clip-rule="evenodd" d="M18.053 42.462c.133 1.305.122 2.623.229 3.928a3.28 3.28 0 00.5-.748s-.503-3.663-.967-7.212c-.2.215-.322.425-.418.614.158 1.139.539 2.279.656 3.418" fill="#575454"/><path fill-rule="evenodd" clip-rule="evenodd" d="M9.554 14.498s-3.677-.177-3.468 2.73c.2 2.792 1.81 3.398.433 4.28a.62.62 0 01-.498.088c-.115-.032-.217-.102-.217-.248 0-.3.009-.247.272-.376 0 0-.973-.57-.972.65.001 1.093 2.59 1.458 3.99.62 1.4-.84 3.39-2.42 1.762-5.073-.748-1.22-.947-1.316-1.302-2.67" fill="#3A3A3A"/><path fill-rule="evenodd" clip-rule="evenodd" d="M29.327 37.05s-.82 2.956-2.32 3.645c-1.838.842-1.782-.836-1.303-1.312l1.54-2.265 2.083-.069" fill="#F6AE77"/><path fill-rule="evenodd" clip-rule="evenodd" d="M28.774 38.469c-.24.15-.649.525-1.005.525-.61 0-1.064-.265-1.358-.65l-.707 1.039c-.48.476-.535 2.154 1.303 1.311.707-.324 1.376-1.44 1.767-2.225" fill="#F0AE77"/><path fill-rule="evenodd" clip-rule="evenodd" d="M28.773 38.544s-1.629 2.323-2.423-.172c0 0-.971 1.086-1.347.892-.376-.193.103-8.836-2.726-15.356 0 0-.871 1.516.162 6.772.563 2.863-1.508 6.255-1.41 7.59.132 1.803.422 3.565 1.074 4.963a1.754 1.754 0 002.466.79c1.056-.61 2.514-2.08 4.204-5.48" fill="#D1E2EF"/><path fill-rule="evenodd" clip-rule="evenodd" d="M16.148 18.627a2.624 2.624 0 00-.428-.25l-.125-.045c-.372-.128-.761-.247-1.11-.432-.66-.353-1.165-.895-1.708-1.4-.123-.065-.51-.098-.59-.17 0 0 1.378 3.9-.252 6.223 0 0 4.168 3.581 5.328-.258 0 0-1.023-1.132-1.013-3.607-.034-.02-.069-.038-.102-.06" fill="#FFC39A"/><path fill-rule="evenodd" clip-rule="evenodd" d="M32.532 25.23l-7.002 1.66-4.943 13.55.368.23 5.063-1.073 6.965-14.191" fill="#78C3D6"/><path fill-rule="evenodd" clip-rule="evenodd" d="M32.983 25.406l-7.085 1.715-4.943 13.549 5.432-.842 6.596-14.422z" fill="#A9D4E6"/><path fill-rule="evenodd" clip-rule="evenodd" d="M29.542 34.426c-.086-.008-1.332 1.718-1.332 1.718s-.7.666-1.143 1.286c.38-.072.773-.126 1.152-.004.389.125.71.324.932.686" fill="#FFB989"/><path fill-rule="evenodd" clip-rule="evenodd" d="M28.783 36.527a1.199 1.199 0 00-.566-.164c-.326-.008-.81-.032-.915-.097-.154-.094-1.745.468-1.831-.328a.251.251 0 01.14-.248c.244-.121.847-.339 2.09-.372 1.738-.046 1.532.055 1.65.094" fill="#FFC39A"/><path fill-rule="evenodd" clip-rule="evenodd" d="M29.284 35.704c-.118-.04.118-.292-1.62-.245-.405.01-1.017-.008-1.02-.053a8.629 8.629 0 011.056-.088c1.739-.046 1.533.055 1.652.094" fill="#ECAE8B"/><path fill-rule="evenodd" clip-rule="evenodd" d="M26.113 35.623s.301.172.127.556c-.019.04-.603.147-.671-.24-.034-.193.544-.316.544-.316" fill="#FFD7C0"/><path fill-rule="evenodd" clip-rule="evenodd" d="M29.857 36.85c.04.271.134 1.268-1.709.332 0 0-.765-.172-.952-.179-.179-.005-1.926.339-1.857-.396a.198.198 0 01.117-.163 4.657 4.657 0 012.22-.324c1.367.125 2.14.46 2.18.73" fill="#FFC39A"/><path fill-rule="evenodd" clip-rule="evenodd" d="M29.82 36.979c-.042-.27-.814-.605-2.183-.73-.406-.037-1.062-.06-1.052-.103a4.786 4.786 0 011.09-.026c1.368.125 2.14.46 2.182.73" fill="#ECAE8B"/><path fill-rule="evenodd" clip-rule="evenodd" d="M29.857 36.85c.04.261.127 1.196-1.518.425.203-.295.328-.64.38-.998" fill="#FFDFCC"/><path fill-rule="evenodd" clip-rule="evenodd" d="M25.87 36.397a.127.127 0 01.123.028c.07.067.164.211.065.458-.016.038-.568.142-.606-.234-.012-.116.285-.214.418-.252" fill="#FFD7C0"/><path fill-rule="evenodd" clip-rule="evenodd" d="M29.341 37.772c-.03.195-.006 1.02-1.569.244a.793.793 0 00-.245-.076 39.639 39.639 0 00-.854-.108c-.104-.008-.96.124-1.176-.332a.201.201 0 01.11-.274c.207-.073.723-.242 1.697-.211 0 0 .877.107 1.092.203.216.096.976.354.945.554" fill="#FFC39A"/><path fill-rule="evenodd" clip-rule="evenodd" d="M29.341 37.772c-.027.183-.008.92-1.296.37.183-.276.3-.593.354-.923.218.097.973.353.942.553" fill="#FFDFCC"/><path fill-rule="evenodd" clip-rule="evenodd" d="M29.294 37.923c.03-.2-.729-.457-.945-.553-.215-.097-1.092-.204-1.092-.204-.364-.012-.887-.064-.88-.113.247-.031.55-.05.927-.038 0 0 .877.107 1.092.203.216.096.976.354.945.553" fill="#ECAE8B"/><path fill-rule="evenodd" clip-rule="evenodd" d="M26.102 37.227s.173.236.014.445c-.023.031-.604-.03-.504-.337.02-.065.49-.108.49-.108" fill="#FFD7C0"/><path fill-rule="evenodd" clip-rule="evenodd" d="M28.926 35.37a40.99 40.99 0 01-1.098-.17c-.24-.047-2.047.6-2.003-.235a.303.303 0 01.195-.275 7.612 7.612 0 013.34-.344" fill="#FFC39A"/><path fill-rule="evenodd" clip-rule="evenodd" d="M26.457 34.617s.404.116.216.612c-.018.047-.725.174-.771-.266-.022-.21.555-.346.555-.346" fill="#FFD7C0"/><path fill-rule="evenodd" clip-rule="evenodd" d="M12.468 21.455c.63-.66 1.6-1.038 2.609-1.075.459-.018.925.01 1.37.096a7.547 7.547 0 01-.197-1.788c-.034-.02-.069-.038-.102-.06a2.6 2.6 0 00-.428-.251l-.125-.045c-.372-.128-.761-.246-1.11-.433-.66-.352-1.165-.894-1.708-1.4-.123-.064-.51-.097-.59-.17 0 0 1.004 2.848.28 5.126" fill="#F1BF97"/><path fill-rule="evenodd" clip-rule="evenodd" d="M12.625 7.81s-1.505 1.025-.784 5.832c0 0-.282-.563-1.472-.24-.56.15-.723 1.054-.408 2.1.323 1.069.916 2.114 1.946 2.13a.896.896 0 00.692-.286.67.67 0 00.167-.342s2.003 2.43 4.668 3.034c.883.2 1.428-.175 1.946-.938.681-1.005 1.535-2.477 1.4-3.386-.219-1.484-.697-2.775-.352-5.033.344-2.258-1.567-3.323-3.009-3.452-1.441-.13-4.199.032-4.794.58" fill="#FFC39A"/><path fill-rule="evenodd" clip-rule="evenodd" d="M19.737 10.73c.223.071.438.17.649.28.013-.11.024-.216.042-.33.344-2.257-1.567-3.322-3.009-3.451-1.441-.13-4.199.032-4.794.58 0 0-.69.474-.911 2.276 3.694 1.908 7.209.383 8.023.644m-2.458 8.334c-.984-.256-4.511-2.258-4.511-2.258.397.45 2.232 2.404 4.585 2.938.884.2 1.428-.175 1.946-.938.065-.096.133-.201.2-.305-.015.008-.756.945-2.22.563" fill="#FFD6BD"/><path fill-rule="evenodd" clip-rule="evenodd" d="M11.74 14.636c-.193-.288-.427-.699-.764-.764-.375-.073-.645-.062-.759.232-.15.388-.132.996.183 1.809.741 1.91 1.749 1.149 2.138.863-.071-.065-.257-1.337-.797-2.14" fill="#F8D6BD"/><path fill-rule="evenodd" clip-rule="evenodd" d="M10.386 14.616s.612-.69.874-.241c.261.448 1.047 1.846.67 2.104-.38.26-.872.277-.722-.828.15-1.105-.317-1.269-.822-1.035" fill="#EC996B"/><path fill-rule="evenodd" clip-rule="evenodd" d="M16.762 5.336c-2.323-.225-3.57 0-4.277.591-3.977.289-5.07 5.362-3.432 9.367.482 1.18 1.154 1.89 1.875 2.301a2 2 0 01.168-.228c-.549-.38-.908-1.116-1.135-1.866-.315-1.045-.151-1.948.408-2.1.373-.1.666-.044.892.08.24.125.576.48.866.822l.023-.026a1.35 1.35 0 00.375-.992c-.076-1.742.267-2.832.648-3.497.39.084 3.143.463 3.71.409 2.455-.237 1.283-1.196 3.578-.233 0 0 2.338-4.043-3.699-4.628" fill="#3A3A3A"/><path fill-rule="evenodd" clip-rule="evenodd" d="M16.762 5.336c-2.323-.225-3.57 0-4.277.591-2.39.174-3.735 2.077-4.074 4.437a6.8 6.8 0 001.103.24c.867.109 2.088.276 2.93.03.136-.04.267-.063.394-.073.1-.303.214-.563.335-.773.39.084 3.143.463 3.71.409 2.455-.237 1.283-1.196 3.578-.233 0 0 2.338-4.043-3.699-4.628" fill="#4D4F5C"/><mask id="a" maskUnits="userSpaceOnUse" x="7" y="0" width="16" height="10"><path fill-rule="evenodd" clip-rule="evenodd" d="M7.02.238h15.681v9.257H7.021V.238z" fill="#fff"/></mask><g mask="url(#a)"><path fill-rule="evenodd" clip-rule="evenodd" d="M20.675 6.596s2.314.075 1.997 1.703c-.36 1.852-5.967.486-8.693.067-2.725-.419-6.475 2.804-6.959-.09 0 0 .038-.731 1.066-.971 0 0-1.05-6.476 5.284-7.029 5.796-.505 6.484 4.081 7.305 6.32" fill="#D1E2EF"/></g><path fill-rule="evenodd" clip-rule="evenodd" d="M7.929 7.349c.601.466 1.482.577 2.41.303 2.022-.598 4.128-.119 6.168.145.977.126 2.043.35 3.03.25.848-.086 1.31-.425 1.98-.908.123-.089.218-.189.293-.295.532.225 1.018.65.862 1.455-.36 1.852-5.967.486-8.693.067-2.725-.419-6.475 2.804-6.959-.09 0 0 .035-.653.909-.927" fill="#FEC30C"/><path fill-rule="evenodd" clip-rule="evenodd" d="M7.929 7.349c.601.466 1.482.577 2.41.303 2.022-.598 4.128-.119 6.168.145.977.126 2.043.35 3.03.25.848-.086 1.31-.425 1.98-.908.123-.089.218-.189.293-.295.532.225 1.018.65.862 1.455-.36 1.852-5.967.486-8.693.067-2.725-.419-6.475 2.804-6.959-.09 0 0 .035-.653.909-.927m9.417 14.789s-.024 7.745-.9 8.29c-.875.545.601 3.288.601 3.288s1.116-4.003 2.112-6.324c.073-.172.07-.364-.065-.492-.338-.324-.387-.592-.358-.745.028-.144.599-.474.995-.854a.405.405 0 00.07-.468l-.738-1.903s-.946-.228-1.717-.792" fill="#A9D4E6"/><path fill-rule="evenodd" clip-rule="evenodd" d="M12.38 21.71s-.992.687-1.69 1.152c0 0-.588 2.788-.564 3.11.023.323 1.874-.18 1.904.314.02.324-.323.883-.56 1.226a.401.401 0 00.072.536c1.056.87 5.043 3.097 5.505 5.667 0 0-.035-2.548-.192-2.903-.156-.355-3.781-6.556-4.476-9.101" fill="#A9D4E6"/><path fill-rule="evenodd" clip-rule="evenodd" d="M21.782 37.256c-1.71.592-4.783-.795-4.465-3.837.014-.136.02-.27.055-.397l-.008.001s-6.736 11.001-11.248 17.79c.351 1.253 1.267 3.136 3.238 3.055 2.198-3.15 10.363-14.715 12.434-16.603l-.006-.009" fill="#F8ECD1"/><path fill-rule="evenodd" clip-rule="evenodd" d="M18.986 37.683c-1.01 1.3-7.861 10.737-10.995 15.194.152.108.32.198.503.264 2.928-4.026 10.205-13.916 11.364-15.172a3.907 3.907 0 01-.872-.286" fill="#FCF6E8"/><path fill-rule="evenodd" clip-rule="evenodd" d="M17.019 34.232s-6.06 9.883-10.373 16.44c.187.594.436 1.198.804 1.675 2.135-3.672 5.976-10.203 7.207-11.744.871-1.09 1.85-2.29 3.822-3.269-1.53-1.23-1.457-3.103-1.46-3.102" fill="#F8ECD1"/><path fill-rule="evenodd" clip-rule="evenodd" d="M8.056 47.768c.11.035.204.065.261.08.512.14 1.07.415 1.601.456.967.075 1.674.343 2.387.69a344.095 344.095 0 014.425-5.778 2.33 2.33 0 01-.888-.557c-.085-.082-.39-.208-.488-.199-.723.044-1.083.858-1.762 1.082-1.538.508-2.58 1.465-3.913 1.161-.64.963-1.287 1.93-1.924 2.875a6.3 6.3 0 01.3.19" fill="#F6D8BA"/><path fill-rule="evenodd" clip-rule="evenodd" d="M9.83 47.207s2.614.987 2.93 1.122c.545.234.614.072 3.174-.387.1-.017.173-.09.174-.174.003-.158-.023-.405-.198-.536 0 0 1.005-.264.72-.609-.132-.159-.32-.344-.32-.344s.475-.14.504-.411c.02-.181-.299-.442-.593-.58 0 0 .411-.264.388-.48-.012-.114-.133-.279-.51-.6l-.33.21s-.194.42-1.133.847c-.425.192-.758.053-.588-.228.222-.366.487-.204 1.164-.677.599-.418.85-1.12.469-1.324-.625-.334-1.26.535-1.609.746-.749.452-2.13.698-2.314.849-.303.247-.86.83-1.602.706l-.327 1.87z" fill="#FFC39A"/><path fill-rule="evenodd" clip-rule="evenodd" d="M14.029 45.255c-.796.438-2.027.209-2.44-.48-.322.275-.813.666-1.433.562l-.327 1.87s2.615.987 2.93 1.122c.39.167.542.13 1.53-.07.003-.015.002-.028.006-.042.216-.844.674-1.659.607-2.547a3.932 3.932 0 00-.076-.497c-.06.03-.123.061-.19.092-.29.13-.533.106-.607-.01" fill="#FFDFCC"/><path fill-rule="evenodd" clip-rule="evenodd" d="M15.769 44.417s-.194.422-1.133.848c-.425.192-.758.053-.588-.228.222-.366.487-.204 1.164-.677.599-.418.85-1.12.469-1.324a.627.627 0 00-.442-.058c.377.165.406.43.308.665-.113.273-.472.564-.817.692-.547.201-1.13.565-1.22.895-.09.58.579.796.579.796-.261.464.144.918.144.918s-.61.123-.402.75c0 0-.218.09-.272.285-.042.151.09.357.09.357-.652.205-2.994-1.146-3.795-1.27l-.025.14s2.615.988 2.93 1.123c.546.234 1.39.147 3.175-.387.096-.028.173-.09.174-.174.003-.158-.023-.405-.197-.536 0 0 1.004-.264.718-.609-.132-.159-.318-.344-.318-.344s.474-.14.503-.411c.02-.181-.299-.442-.593-.58 0 0 .41-.264.389-.48-.013-.114.066-.276-.586-.65l-.255.26z" fill="#FFC39A"/><path fill-rule="evenodd" clip-rule="evenodd" d="M15.77 44.417s-.084.173-.385.407c.113.212.148.466.075.755.16.24.223.538.12.89-.02.07-.047.136-.077.199.02.147.01.307-.04.48a1.3 1.3 0 01-.348.574.973.973 0 01-.025.431l-.008.028c.258-.066.54-.145.852-.239.096-.028.173-.09.174-.174.003-.158-.023-.405-.197-.536 0 0 1.004-.264.718-.609-.132-.159-.318-.344-.318-.344s.474-.14.503-.411c.02-.181-.299-.442-.593-.58 0 0 .41-.264.389-.48-.013-.114.066-.276-.586-.65l-.255.26zm-.531-1.439c.377.165.406.43.308.665-.103.25-.555.753-.48.812a3.08 3.08 0 00.145-.095c.599-.418.85-1.12.469-1.324a.627.627 0 00-.442-.058" fill="#FFDFCC"/><path fill-rule="evenodd" clip-rule="evenodd" d="M16.369 45.368a1.701 1.701 0 00-.14-.076c-.164.021-1.389.466-1.772.6.055.037 1.418-.315 1.912-.524m.053 1.022c-.047-.027-.064-.089-.111-.11-.164.02-1.418.501-1.8.636.054.036 1.417-.315 1.91-.525m-.416.941s-.041-.075-.086-.097c-.157.021-.986.366-1.351.494.052.035.965-.197 1.437-.397" fill="#EAA47C"/><path fill-rule="evenodd" clip-rule="evenodd" d="M14.69 43.737c-.277-.292.393-.694.43-.694 0 0 .374.044.364.447a.75.75 0 01-.333.267c-.208.102-.38.065-.46-.02" fill="#FFD7C0"/><mask id="b" maskUnits="userSpaceOnUse" x="0" y="25" width="12" height="23"><path fill-rule="evenodd" clip-rule="evenodd" d="M0 25.2h11.377v22.636H0V25.2z" fill="#fff"/></mask><g mask="url(#b)"><path fill-rule="evenodd" clip-rule="evenodd" d="M5.403 25.2S-.372 38.412.02 40.857c.391 2.445 9.18 6.683 10.223 6.978 0 0 1.02-1.627 1.134-3.287 0 0-5.79-4.154-5.816-5.166-.025-1.012 1.827-6.006 2.612-6.175 0 0 .957-1.931-.136-4.84-.835-2.223-2.633-3.169-2.633-3.169" fill="#D1E2EF"/></g></svg>