<svg width="282" height="261" fill="none" xmlns="http://www.w3.org/2000/svg"><path fill-rule="evenodd" clip-rule="evenodd" d="M234 260h-40c0-2.058.833-3.92 2.177-5.267a7.383 7.383 0 015.253-2.184h.069s8.489-1.11 8.489-8.063V203h8.023v41.486c0 6.953 8.49 8.063 8.49 8.063h.069c4.104 0 7.43 3.336 7.43 7.451" fill="#22B2DA"/><path fill-rule="evenodd" clip-rule="evenodd" d="M218 203v1.635L210 207v-4h8z" fill="#22B2DA"/><path fill-rule="evenodd" clip-rule="evenodd" d="M253 203h-77c1.272-6.962 7.399-12.02 14.542-12l23.958.063 23.958-.063c7.143-.02 13.27 5.038 14.542 12" fill="#7AC6EA"/><path fill-rule="evenodd" clip-rule="evenodd" d="M197.956 113.458c-2.014 7.417-12.167 26.742-16.109 29.512-5.132 3.605-21.22 10.372-29.589 13.823-1.509.623 4.091 7.207 4.091 7.207s21.642-5.485 30.459-11.094c2.494-1.586 7.898-6.975 14.739-17.776 2.074-3.276 6.877-9.784 7.41-14.432.613-5.35-5.435-9.031-11.001-7.24" fill="#22B2DA"/><path fill-rule="evenodd" clip-rule="evenodd" d="M173.715 242l.285 8.054s-2.045 1.475-6.273.742L166 242.134l7.715-.134z" fill="#F1BEA3"/><path fill-rule="evenodd" clip-rule="evenodd" d="M169.159 249.82s-1.414-1.882-2.56-1.818c-1.146.063-10.079 6.696-13.114 7.212-3.034.516-2.883 4.146-1.692 4.559 1.358.47 23.792.065 23.792.065s.853-7.677.113-9.753c-.739-2.076-4.18.257-6.539-.265" fill="#22B2DA"/><path fill-rule="evenodd" clip-rule="evenodd" d="M163.49 253.982a.399.399 0 00.307-.029.377.377 0 00.154-.52c-.034-.062-.869-1.521-2.011-2.103-1.52-.775-2.726.052-2.777.088a.375.375 0 00-.089.533.398.398 0 00.548.087c.033-.022.872-.58 1.955-.03.931.474 1.68 1.781 1.687 1.795a.389.389 0 00.226.179" fill="#FBFBFC"/><path fill-rule="evenodd" clip-rule="evenodd" d="M165.49 252.982c.098.03.209.023.307-.029a.378.378 0 00.154-.52c-.034-.062-.868-1.521-2.011-2.102-1.522-.776-2.727.051-2.777.087a.376.376 0 00-.089.534c.127.171.372.21.547.086.034-.023.874-.579 1.956-.03.935.476 1.68 1.781 1.687 1.794a.39.39 0 00.226.18m-3 2a.399.399 0 00.307-.029.377.377 0 00.154-.52c-.034-.062-.869-1.521-2.011-2.102-1.521-.776-2.726.051-2.777.087a.376.376 0 00-.089.534.4.4 0 00.548.086c.033-.022.873-.58 1.955-.03.935.476 1.68 1.781 1.687 1.794.051.09.133.152.226.18" fill="#FBFBFC"/><path fill-rule="evenodd" clip-rule="evenodd" d="M195.012 173.08s-31.054-5.127-40.381.718c-7.071 4.43 11.145 69.863 11.145 69.863 3.244 1.012 7.752-.397 9.513-2.159 0 0 2.865-7.722.234-30.062-.35-2.969 0-9.743-3.161-21.737L196 179.262l-.988-6.182z" fill="#1F2B49"/><path fill-rule="evenodd" clip-rule="evenodd" d="M222.414 104.472s8.669 2.81 13.303 6.849c4.635 4.04.759 16.093.872 22.938.113 6.844-1.024 46.582-10.902 51.575-7.461 3.77-38.864-1.954-36.567-12.113 1.528-6.757 4.423-19.175 6.434-35.977 1.327-11.082.767-19.269 2.01-23.869 1.244-4.601 15.758-9.875 15.758-9.875l9.092.472z" fill="#7AC6EA"/><path fill-rule="evenodd" clip-rule="evenodd" d="M202.198 85.674c1.233 6.798 7.885 11.335 14.859 10.133 6.974-1.201 10.953-7.61 9.72-14.408-1.232-6.797-7.21-11.41-14.184-10.209-6.974 1.202-11.628 7.687-10.395 14.484" fill="#434F7A"/><path fill-rule="evenodd" clip-rule="evenodd" d="M203.416 81s-5.589-2.143-4.192-4.874c.893-1.745 2.925-.722 3.824-3.349.897-2.627 4.623-3.062 7.797-2.98 2.893.072 3.87-1.255 8.141-.628 4.272.627 6.185 3.917 4.272 6.268-1.914 2.35-19.842 5.563-19.842 5.563" fill="#434F7A"/><path fill-rule="evenodd" clip-rule="evenodd" d="M204.962 87.984s-2.586-2.314-3.735.156c-1.148 2.469 2.257 8.614 5.773 6.38l-2.038-6.536z" fill="#EF9B80"/><path fill-rule="evenodd" clip-rule="evenodd" d="M205.743 92.995a.313.313 0 01-.334-.164c-.917-1.814-3.134-2.238-3.157-2.243a.297.297 0 01-.246-.347.31.31 0 01.362-.236c.104.019 2.547.48 3.601 2.57a.291.291 0 01-.145.395.344.344 0 01-.081.025" fill="#EC8167"/><path fill-rule="evenodd" clip-rule="evenodd" d="M204.244 92.994c-.038.013-.078.005-.116-.024-.107-.082-.156-.308-.112-.504.007-.032.187-.807.659-1.4.095-.119.225-.073.289.103.065.176.04.416-.055.535-.366.46-.508 1.054-.509 1.06-.028.125-.089.209-.156.23" fill="#EC8167"/><path fill-rule="evenodd" clip-rule="evenodd" d="M221.913 98l1.087 6.723s-2.049 3.452-4.49 4.165c-2.439.714-4.465-2.212-4.465-2.212L213 100.21l8.913-2.21z" fill="#F1BEA3"/><path fill-rule="evenodd" clip-rule="evenodd" d="M221.487 98l.513 2.738c-1.423 2.147-4.481 3.134-9.256 3.262l-.744-3.972L221.487 98z" fill="#EF9B80"/><path fill-rule="evenodd" clip-rule="evenodd" d="M225.997 88.76a20.515 20.515 0 01-.097 1.835c-.058.556-.131 1.16-.232 1.79-.819 5.092-3.367 11.939-12.399 10.393-4.483-.765-7.266-5.154-8.983-9.815a39.618 39.618 0 01-1.057-3.358 52.369 52.369 0 01-1.147-5.466 6.967 6.967 0 012.415-6.417c5.071-4.225 11.227-4.084 15.409-3.265 2.901.57 5.111 2.95 5.486 5.9.325 2.561.642 5.778.605 8.403" fill="#F1BEA3"/><path fill-rule="evenodd" clip-rule="evenodd" d="M204.888 90.776c-.457-1.239-.977-2.85-.958-3.728.037-1.552 1.114-2.653.45-4.025-.666-1.377.578-3.201 1.651-3.658 1.069-.46 3.776-.364 6.129-2.05 2.245-1.611 6.653-1.53 7.627-.068 1.176 1.77.065 2.154 2.721 3.82 1.059.666.352 3.006.443 4.432.043.655.088.97.234 1.657l.071.348 2.744-.489c-.077-2.22-.324-4.64-.58-6.656a6.886 6.886 0 00-5.494-5.901c-4.186-.82-10.348-.963-15.427 3.267a6.953 6.953 0 00-2.415 6.416c.294 1.88.776 4.34 1.546 6.859l1.258-.224z" fill="#434F7A"/><path fill-rule="evenodd" clip-rule="evenodd" d="M225.189 88.173a13.42 13.42 0 01-.189-2.22c0-1.02.112-1.967.935-2.558.661-.475 1.42-.635 2.104.172 1.683 1.989 1.285 9.314-2.231 8.345l-.619-3.739z" fill="#F1BEA3"/><path fill-rule="evenodd" clip-rule="evenodd" d="M226.401 89.977c.115-.055.19-.197.178-.354-.188-2.318 1.314-4.009 1.329-4.026a.4.4 0 00.02-.483c-.104-.141-.282-.153-.396-.026-.071.078-1.728 1.934-1.513 4.602.015.19.153.327.308.308a.232.232 0 00.074-.021" fill="#EF9B80"/><path fill-rule="evenodd" clip-rule="evenodd" d="M227.79 87.979a.325.325 0 00.147-.106.292.292 0 00-.074-.427c-.024-.017-.612-.404-1.517-.446-.182-.008-.337.123-.346.292-.009.168.132.311.314.32.7.032 1.158.327 1.162.33a.352.352 0 00.314.037" fill="#EF9B80"/><path fill-rule="evenodd" clip-rule="evenodd" d="M191.715 242l.285 8.054s-2.045 1.475-6.273.742L184 242.134l7.715-.134z" fill="#F1BEA3"/><path fill-rule="evenodd" clip-rule="evenodd" d="M186.159 249.82s-1.414-1.882-2.56-1.818c-1.146.063-10.08 6.696-13.114 7.212-3.034.516-2.883 4.146-1.692 4.559 1.358.47 23.793.065 23.793.065s.852-7.677.112-9.753c-.739-2.076-4.18.257-6.539-.265" fill="#22B2DA"/><path fill-rule="evenodd" clip-rule="evenodd" d="M181.49 253.982a.399.399 0 00.307-.029.377.377 0 00.154-.52c-.034-.062-.869-1.521-2.011-2.103-1.52-.775-2.726.052-2.777.088a.375.375 0 00-.089.533.398.398 0 00.548.087c.033-.022.872-.58 1.955-.03.931.474 1.68 1.781 1.687 1.795a.389.389 0 00.226.179" fill="#FBFBFC"/><path fill-rule="evenodd" clip-rule="evenodd" d="M182.49 252.982c.099.03.209.023.307-.029a.378.378 0 00.154-.52c-.035-.062-.868-1.521-2.011-2.102-1.521-.776-2.726.051-2.777.087a.376.376 0 00-.089.534.4.4 0 00.548.086c.033-.023.873-.579 1.955-.03.935.476 1.68 1.781 1.687 1.794a.39.39 0 00.226.18m-3 2a.399.399 0 00.307-.029.378.378 0 00.154-.52c-.034-.062-.868-1.521-2.011-2.102-1.521-.776-2.726.051-2.777.087a.377.377 0 00-.089.534c.126.171.372.21.548.086.033-.022.873-.58 1.955-.03.935.476 1.68 1.781 1.687 1.794.051.09.133.152.226.18" fill="#FBFBFC"/><path fill-rule="evenodd" clip-rule="evenodd" d="M232.517 173.335s-53.581-2.984-62.777-.03c-7.912 2.542 13.718 70.354 13.718 70.354 3.227 1.018 7.712-.401 9.464-2.175 0 0 1.645-4.048-.973-26.544-.349-2.99-.716-12.311-3.861-24.389l35.544.182c7.613 0 10.022-6.503 9.222-14.171l-.337-3.227z" fill="#434F7A"/><path fill-rule="evenodd" clip-rule="evenodd" d="M180.937 157s-8.168 1.353-11.575 4.139c-3.408 2.785-7.976 5.183-7.294 6.624.682 1.441 5.49-1.617 5.49-1.617s1.145 2.597 5.084 3.725c3.939 1.128 12.358-5.504 12.358-5.504L180.937 157z" fill="#F1BEA3"/><path fill-rule="evenodd" clip-rule="evenodd" d="M233.943 109c-4.549 6.924-21.962 30.863-25.891 33.645-5.114 3.62-19.421 11.145-27.762 14.61-1.505.625 3.342 7.745 3.342 7.745s20.577-6.744 29.365-12.376c2.486-1.594 12.825-11.994 19.417-21.218 2.258-3.16 5.932-7.549 6.464-12.217.611-5.372-1.07-8.247-4.935-10.189" fill="#22B2DA"/><path fill-rule="evenodd" clip-rule="evenodd" d="M192.331 174h-41.662c-.922 0-1.669-.765-1.669-1.707v-2.585c0-.943.747-1.708 1.669-1.708h41.662c.922 0 1.669.765 1.669 1.708v2.584c0 .943-.747 1.708-1.669 1.708" fill="#1F2B49"/><path fill-rule="evenodd" clip-rule="evenodd" d="M141.213 174l-9.109-34.195c-.512-1.92.932-3.805 2.915-3.805h20.045c1.353 0 2.54.901 2.905 2.206L168 174h-26.787z" fill="#434F7A"/><path fill-rule="evenodd" clip-rule="evenodd" d="M157.879 137.226L167.732 173H170l-9.853-35.774c-.364-1.316-1.538-2.226-2.878-2.226H155c1.34 0 2.514.91 2.879 2.226" fill="#1F2B49"/><path fill-rule="evenodd" clip-rule="evenodd" d="M152.896 156c.498 2.209-.843 4-2.994 4-2.152 0-4.3-1.791-4.798-4-.498-2.209.843-4 2.994-4 2.152 0 4.3 1.791 4.798 4" fill="#7AC6EA"/><path fill-rule="evenodd" clip-rule="evenodd" d="M98.261 261H80.738c-2.382 0-4.495-1.512-5.231-3.744l-7.432-22.526c-.304-.922.349-1.88 1.33-1.954 13.53-1.034 26.927-1.034 40.192-.003.98.076 1.632 1.033 1.328 1.954l-7.433 22.529c-.736 2.232-2.848 3.744-5.23 3.744" fill="#22B2DA"/><path fill-rule="evenodd" clip-rule="evenodd" d="M91 234.729v-28.795c0-.515-.447-.934-1-.934-.552 0-1 .419-1 .934v28.795c.66.365 1.327.358 2 0" fill="#7AC6EA"/><path fill-rule="evenodd" clip-rule="evenodd" d="M90 213.01S91.759 200 108 200c0 0-2.784 18.404-18 13.01" fill="#7AC6EA"/><path fill-rule="evenodd" clip-rule="evenodd" d="M91 217.01S89.241 204 73 204c0 0 2.784 18.404 18 13.01" fill="#7AC6EA"/><path fill-rule="evenodd" clip-rule="evenodd" d="M91 227.769s-4.138-12.444-20-9.242c0 0 6.144 17.544 20 9.242" fill="#7AC6EA"/><path fill-rule="evenodd" clip-rule="evenodd" d="M90 227.305s12.027 4.438 20-9.12c0 0-17.16-6.031-20 9.12" fill="#7AC6EA"/><path fill-rule="evenodd" clip-rule="evenodd" d="M63.5 124a.5.5 0 01-.5-.5v-1a.5.5 0 011 0v1a.5.5 0 01-.5.5m0-6.342a.497.497 0 01-.5-.494v-1.671c0-.272.224-.493.5-.493s.5.221.5.493v1.671a.497.497 0 01-.5.494m0 3.342a.497.497 0 01-.5-.493v-1.671c0-.273.224-.494.5-.494s.5.221.5.494v1.671a.497.497 0 01-.5.493m0-7a.5.5 0 01-.5-.5v-1a.5.5 0 011 0v1a.5.5 0 01-.5.5m50.133 43h-2.106a.514.514 0 01-.527-.5c0-.276.236-.5.527-.5h2.106c.29 0 .526.224.526.5 0 .277-.236.5-.526.5m4.212 0h-2.106a.513.513 0 01-.526-.5c0-.276.235-.5.526-.5h2.106c.29 0 .526.224.526.5 0 .277-.236.5-.526.5m4.211 0h-2.105a.514.514 0 01-.527-.5c0-.276.236-.5.527-.5h2.105c.292 0 .527.224.527.5 0 .277-.235.5-.527.5m4.212 0h-2.105a.513.513 0 01-.527-.5c0-.276.235-.5.527-.5h2.105c.291 0 .527.224.527.5 0 .277-.236.5-.527.5m4.213 0h-2.107a.513.513 0 01-.526-.5c0-.276.236-.5.526-.5h2.107c.29 0 .526.224.526.5 0 .277-.236.5-.526.5m4.211 0h-2.106a.513.513 0 01-.526-.5c0-.276.236-.5.526-.5h2.106c.291 0 .527.224.527.5 0 .277-.236.5-.527.5m2.781 0h-.675a.514.514 0 01-.527-.5c0-.276.236-.5.527-.5h.675c.292 0 .527.224.527.5 0 .277-.235.5-.527.5M90.701 44h-2.16c-.299 0-.541-.224-.541-.5s.242-.5.54-.5h2.161c.299 0 .54.224.54.5s-.242.5-.54.5m4.322 0h-2.16c-.3 0-.54-.224-.54-.5s.24-.5.54-.5h2.16c.298 0 .54.224.54.5s-.242.5-.54.5m2.438 0h-.277c-.299 0-.54-.224-.54-.5s.241-.5.54-.5h.276c.299 0 .54.224.54.5s-.241.5-.54.5m52.267-24h-2.182c-.301 0-.545-.224-.545-.5s.244-.5.545-.5h2.182c.301 0 .546.224.546.5s-.245.5-.546.5m4.364 0h-2.182c-.301 0-.545-.224-.545-.5s.244-.5.545-.5h2.182c.301 0 .545.224.545.5s-.244.5-.545.5m4.363 0h-2.181c-.302 0-.546-.224-.546-.5s.244-.5.546-.5h2.181c.302 0 .546.224.546.5s-.244.5-.546.5M261.5 19h-2a.5.5 0 000 1h2a.5.5 0 000-1m-1 151h-2a.5.5 0 100 1h2a.5.5 0 000-1m4 0h-2.001a.5.5 0 000 1h2.001a.5.5 0 000-1m1-151h-2.001a.5.5 0 000 1h2.001a.5.5 0 000-1m-12.209 0H253v1h.291c.391 0 .709-.224.709-.5s-.318-.5-.709-.5m3.209 151h-2.001a.5.5 0 000 1h2.001a.5.5 0 000-1m1-151h-2.001a.5.5 0 000 1h2.001a.5.5 0 000-1m13 149a.5.5 0 00-.5.5v2a.5.5 0 101 0v-2a.5.5 0 00-.5-.5m0-13a.5.5 0 00-.5.5v2a.5.5 0 101 0v-2a.5.5 0 00-.5-.5m-19 15h-2.001a.5.5 0 000 1h2.001a.5.5 0 100-1m19-23a.5.5 0 00-.5.5v2.001a.5.5 0 001 0V147.5a.5.5 0 00-.5-.5m0 4a.5.5 0 00-.5.5v2a.5.5 0 101 0v-2a.5.5 0 00-.5-.5m0 8a.5.5 0 00-.5.5v2a.5.5 0 101 0v-2a.5.5 0 00-.5-.5m0 5a.5.5 0 00-.5.5v2.001a.5.5 0 001 0V164.5a.5.5 0 00-.5-.5m0-21a.5.5 0 00-.5.5v2a.5.5 0 101 0v-2a.5.5 0 00-.5-.5m-61 27h-2.001a.5.5 0 000 1h2.001a.5.5 0 100-1m5 0h-2a.5.5 0 100 1h2a.5.5 0 000-1m-9 0h-2.001a.5.5 0 000 1h2.001a.5.5 0 000-1m42 0h-2.001a.5.5 0 000 1h2.001a.5.5 0 000-1m-46 0h-2.001a.5.5 0 000 1h2.001a.5.5 0 000-1m17 0h-2.001a.5.5 0 000 1h2.001a.5.5 0 000-1m-21 0h-2a.5.5 0 100 1h2a.5.5 0 000-1m70-150h2.001a.5.5 0 000-1H267.5a.5.5 0 000 1m-28 150h-2.001a.5.5 0 000 1h2.001a.5.5 0 000-1m4 0h-2a.5.5 0 100 1h2a.5.5 0 000-1m-21 0h-2.001a.5.5 0 000 1h2.001a.5.5 0 100-1m13 0h-2.001a.5.5 0 000 1h2.001a.5.5 0 000-1m-5 0h-2.001a.5.5 0 000 1h2.001a.5.5 0 000-1m-4 0h-2a.5.5 0 100 1h2a.5.5 0 000-1m42 0h-2.001a.5.5 0 000 1h2.001a.5.5 0 000-1m2-124a.5.5 0 00-.5.5v2a.5.5 0 001 0v-2a.5.5 0 00-.5-.5m0 8a.5.5 0 00-.5.5v2a.5.5 0 101 0v-2a.5.5 0 00-.5-.5m0-4a.5.5 0 00-.5.5v2a.5.5 0 101 0v-2a.5.5 0 00-.5-.5m0 9a.5.5 0 00-.5.5v2a.5.5 0 101 0v-2a.5.5 0 00-.5-.5m0 12a.5.5 0 00-.5.5v2a.5.5 0 101 0v-2a.5.5 0 00-.5-.5m0-4a.5.5 0 00-.5.5v2a.5.5 0 101 0v-2a.5.5 0 00-.5-.5m0-4a.5.5 0 00-.5.5v2a.5.5 0 001 0v-2a.5.5 0 00-.5-.5m0-42a.5.5 0 00-.5.5v2a.5.5 0 101 0v-2a.5.5 0 00-.5-.5m0 4a.5.5 0 00-.5.5v2a.5.5 0 101 0v-2a.5.5 0 00-.5-.5m0 50a.5.5 0 00-.5.5v2a.5.5 0 001 0v-2a.5.5 0 00-.5-.5m0-46a.5.5 0 00-.5.5v2a.5.5 0 001 0v-2a.5.5 0 00-.5-.5m0 5a.5.5 0 00-.5.5v2a.5.5 0 101 0v-2a.5.5 0 00-.5-.5m0 4a.5.5 0 00-.5.5v2a.5.5 0 101 0v-2a.5.5 0 00-.5-.5m0 4a.5.5 0 00-.5.5v2a.5.5 0 101 0v-2a.5.5 0 00-.5-.5m0 84a.5.5 0 00-.5.5v2a.5.5 0 101 0v-2a.5.5 0 00-.5-.5m0-9a.5.5 0 00-.5.5v2a.5.5 0 101 0v-2a.5.5 0 00-.5-.5m0-4a.5.5 0 00-.5.5v2a.5.5 0 101 0v-2a.5.5 0 00-.5-.5m0 9a.5.5 0 00-.5.5v2.001a.5.5 0 001 0V122.5a.5.5 0 00-.5-.5m0 12a.5.5 0 00-.5.5v2.001a.5.5 0 001 0V134.5a.5.5 0 00-.5-.5m0-25a.5.5 0 00-.5.5v2.001a.5.5 0 001 0V109.5a.5.5 0 00-.5-.5m0-29a.5.5 0 00-.5.5v2a.5.5 0 101 0v-2a.5.5 0 00-.5-.5m0 50a.5.5 0 00-.5.5v2a.5.5 0 101 0v-2a.5.5 0 00-.5-.5m0 8a.5.5 0 00-.5.5v2a.5.5 0 101 0v-2a.5.5 0 00-.5-.5m0-50a.5.5 0 00-.5.5v2a.5.5 0 101 0v-2a.5.5 0 00-.5-.5m0-4a.5.5 0 00-.5.5v2a.5.5 0 101 0v-2a.5.5 0 00-.5-.5m0 8a.5.5 0 00-.5.5v2a.5.5 0 001 0v-2a.5.5 0 00-.5-.5m0 13a.5.5 0 00-.5.5v2a.5.5 0 101 0v-2a.5.5 0 00-.5-.5m0-4a.5.5 0 00-.5.5v2a.5.5 0 101 0v-2a.5.5 0 00-.5-.5m0-5a.5.5 0 00-.5.5v2a.5.5 0 101 0v-2a.5.5 0 00-.5-.5M15.474 44.044H13.39a.522.522 0 010-1.044h2.084a.522.522 0 010 1.044m4.167 0h-2.083a.522.522 0 010-1.044h2.083a.522.522 0 010 1.044m4.168 0h-2.084a.522.522 0 010-1.044h2.084a.522.522 0 010 1.044m4.167 0h-2.083a.522.522 0 010-1.044h2.083a.522.522 0 010 1.044m4.168 0H30.06a.522.522 0 010-1.044h2.084a.521.521 0 010 1.044m4.168 0h-2.084a.522.522 0 010-1.044h2.084a.522.522 0 010 1.044m4.167 0h-2.084a.522.522 0 010-1.044h2.084a.522.522 0 010 1.044m-29.958 1.302a.522.522 0 01-.521-.522v-1.302c0-.288.234-.522.521-.522h.785a.522.522 0 010 1.044h-.264v.78a.522.522 0 01-.521.522m0 4.177A.522.522 0 0110 49v-2.088a.522.522 0 111.042 0V49a.521.521 0 01-.521.522m0 4.177a.522.522 0 01-.521-.522V51.09a.522.522 0 111.042 0v2.088a.521.521 0 01-.521.522m0 4.177a.522.522 0 01-.521-.522v-2.089a.522.522 0 111.042 0v2.09a.522.522 0 01-.521.521m0 4.177a.522.522 0 01-.521-.522v-2.089a.522.522 0 111.042 0v2.09a.522.522 0 01-.521.521m0 4.177A.522.522 0 0110 65.71v-2.09a.522.522 0 111.042 0v2.09a.522.522 0 01-.521.521m0 4.177a.522.522 0 01-.521-.522v-2.089a.521.521 0 111.042 0v2.089a.522.522 0 01-.521.522m0 4.177a.522.522 0 01-.521-.522v-2.088a.522.522 0 111.042 0v2.088a.522.522 0 01-.521.522m0 4.177A.522.522 0 0110 78.24v-2.088a.522.522 0 111.042 0v2.088a.521.521 0 01-.521.522m0 4.177a.522.522 0 01-.521-.522v-2.088a.522.522 0 111.042 0v2.088a.521.521 0 01-.521.522m0 4.177a.521.521 0 01-.521-.522v-2.088a.522.522 0 111.042 0v2.088a.52.52 0 01-.521.522m0 4.177a.522.522 0 01-.521-.522v-2.089a.522.522 0 111.042 0v2.09a.522.522 0 01-.521.521m0 4.177a.522.522 0 01-.521-.522V92.86a.522.522 0 111.042 0v2.09a.522.522 0 01-.521.521m0 4.177a.522.522 0 01-.521-.522v-2.088a.522.522 0 111.042 0v2.088a.522.522 0 01-.521.522m0 4.177a.521.521 0 01-.521-.522v-2.088a.521.521 0 111.042 0v2.088a.52.52 0 01-.521.522m0 4.177a.521.521 0 01-.521-.522v-2.088a.521.521 0 111.042 0v2.088a.52.52 0 01-.521.522m0 4.177a.521.521 0 01-.521-.522v-2.088a.522.522 0 111.042 0v2.088a.52.52 0 01-.521.522m0 4.178a.522.522 0 01-.521-.523v-2.088a.522.522 0 111.042 0v2.088a.522.522 0 01-.521.523m0 4.177a.522.522 0 01-.521-.523v-2.088a.522.522 0 111.042 0v2.088a.522.522 0 01-.521.523m0 4.177a.523.523 0 01-.521-.523v-2.089a.522.522 0 111.042 0v2.089a.522.522 0 01-.521.523m0 4.176a.522.522 0 01-.521-.522v-2.088a.521.521 0 111.042 0v2.088a.521.521 0 01-.521.522m0 4.177a.521.521 0 01-.521-.522v-2.088a.521.521 0 111.042 0v2.088a.52.52 0 01-.521.522m0 4.177a.521.521 0 01-.521-.522v-2.088a.521.521 0 111.042 0v2.088a.52.52 0 01-.521.522m0 4.177a.521.521 0 01-.521-.521v-2.089a.522.522 0 111.042 0v2.089a.52.52 0 01-.521.521m0 4.178a.522.522 0 01-.521-.522v-2.089a.522.522 0 111.042 0v2.089a.521.521 0 01-.521.522m0 4.177a.522.522 0 01-.521-.522v-2.089a.522.522 0 111.042 0v2.089a.521.521 0 01-.521.522m0 4.177a.522.522 0 01-.521-.523v-2.088a.522.522 0 111.042 0v2.088a.522.522 0 01-.521.523m2.121 2.05h-2.084a.522.522 0 010-1.044h2.084a.521.521 0 010 1.044m4.168 0h-2.084a.521.521 0 010-1.044h2.084a.521.521 0 010 1.044" fill="#434F7A"/><path fill-rule="evenodd" clip-rule="evenodd" d="M279.218 144h-18.436c-1.53 0-2.782-1.243-2.782-2.761v-13.478c0-1.518 1.252-2.761 2.782-2.761h18.436c1.53 0 2.782 1.243 2.782 2.761v13.478c0 1.518-1.252 2.761-2.782 2.761" fill="#BDCAE8"/><path fill-rule="evenodd" clip-rule="evenodd" d="M269.239 137.423v3.012c-.395-.248-1.63-1.139-2.352-3.012h2.352zm-2.91 0a7.243 7.243 0 001.13 2.072c.246.313.515.599.801.853a6.034 6.034 0 01-3.972-2.925h2.041zm-2.792-3.323a5.89 5.89 0 01.621-2.278h2.103a8.038 8.038 0 00-.42 2.278h-2.304zm5.702.523v2.277h-2.531a8.565 8.565 0 01-.347-2.277h2.878zm-4.783-3.323a5.988 5.988 0 013.718-2.628 8.646 8.646 0 00-1.716 2.628h-2.002zm4.783.522v2.278h-2.874c.03-.775.182-1.541.45-2.278h2.424zm-2.212-.522c.202-.449.446-.881.728-1.287a7.752 7.752 0 011.318-1.475c.055-.004.111-.007.166-.009v2.771h-2.212zm-.863 5.6h-2.138a5.936 5.936 0 01-.501-2.277h2.314c.017.799.126 1.565.325 2.277zm9.312-2.277a5.937 5.937 0 01-.502 2.277h-2.077a9.242 9.242 0 00.326-2.277h2.253zm-2.257-.523a8.002 8.002 0 00-.419-2.278h2.043c.359.714.568 1.48.621 2.278h-2.245zm-3.457 0v-2.278h2.483c.27.734.421 1.5.452 2.278h-2.935zm2.841-2.8a8.53 8.53 0 00-.875-1.598 8.887 8.887 0 00-.823-1.013 6.008 6.008 0 013.641 2.611h-1.943zm-2.841 0v-2.771c.077.003.155.008.232.014a8.107 8.107 0 012.038 2.757h-2.27zm2.413 6.123a6.69 6.69 0 01-.97 1.732c-.623.796-1.246 1.2-1.443 1.316v-3.048h2.413zm-.572 2.072a7.267 7.267 0 001.13-2.072h1.979a5.959 5.959 0 01-3.891 2.908c.278-.25.541-.53.782-.836zm-1.841-2.595v-2.277h2.938a8.602 8.602 0 01-.347 2.277h-2.591zm-.262-8.9a6.508 6.508 0 00-6.5 6.5c0 3.584 2.917 6.5 6.5 6.5 3.584 0 6.5-2.916 6.5-6.5s-2.916-6.5-6.5-6.5z" fill="#FBFBFC"/><mask id="a" maskUnits="userSpaceOnUse" x="257" y="74" width="25" height="20"><path fill-rule="evenodd" clip-rule="evenodd" d="M257.279 74.414h24.653v19.098h-24.653V74.414z" fill="#fff"/></mask><g mask="url(#a)"><path fill-rule="evenodd" clip-rule="evenodd" d="M279.075 93.512h-18.939c-1.571 0-2.857-1.249-2.857-2.775V77.19c0-1.527 1.286-2.776 2.857-2.776h18.939c1.571 0 2.857 1.25 2.857 2.775v13.548c0 1.526-1.286 2.775-2.857 2.775" fill="#BDCAE8"/></g><path fill-rule="evenodd" clip-rule="evenodd" d="M268.704 81.906v5.189l4.434-2.594-4.434-2.595zm-.363 6.185a.364.364 0 01-.363-.363v-6.455a.364.364 0 01.547-.313l5.515 3.227a.365.365 0 010 .627l-5.515 3.227a.368.368 0 01-.184.05zm2.159-9.365a5.781 5.781 0 00-5.774 5.775 5.78 5.78 0 005.774 5.773 5.78 5.78 0 005.774-5.773 5.78 5.78 0 00-5.774-5.775zm0 12.274a6.507 6.507 0 01-6.5-6.5c0-3.584 2.916-6.5 6.5-6.5s6.5 2.916 6.5 6.5-2.916 6.5-6.5 6.5z" fill="#FBFBFC"/><path fill-rule="evenodd" clip-rule="evenodd" d="M18.225 91H2.775C1.248 91 0 89.732 0 88.183V76.817C0 75.268 1.248 74 2.775 74h15.45C19.75 74 21 75.268 21 76.817v11.366C21 89.732 19.75 91 18.225 91" fill="#BDCAE8"/><path fill-rule="evenodd" clip-rule="evenodd" d="M13.224 86H4.776A.763.763 0 014 85.251V78.75c0-.414.347-.749.776-.749h8.448c.428 0 .776.335.776.75v6.501a.763.763 0 01-.776.749M18 80.443v4.115c0 .325-.349.538-.65.398l-2.091-.97a.441.441 0 01-.259-.399v-2.175c0-.17.1-.325.259-.398l2.09-.97c.302-.14.651.074.651.399" fill="#FBFBFC"/><path fill-rule="evenodd" clip-rule="evenodd" d="M97 12.638v81.724A4.639 4.639 0 00101.641 99h40.719a4.63 4.63 0 003.293-1.37A4.624 4.624 0 00147 94.362V12.638A4.639 4.639 0 00142.36 8h-40.719A4.635 4.635 0 0097 12.638" fill="#7AC6EA"/><path fill-rule="evenodd" clip-rule="evenodd" d="M145 12.056v82.886c0 .288-.057.56-.161.808a2.026 2.026 0 01-1.866 1.25h-40.944c-1.12 0-2.029-.917-2.029-2.058V12.056a2.062 2.062 0 011.23-1.891 1.987 1.987 0 01.799-.165h40.944c1.118 0 2.027.921 2.027 2.056" fill="#FBFBFC"/><path fill-rule="evenodd" clip-rule="evenodd" d="M145 80.802v13.162A2.03 2.03 0 01142.971 96h-40.942A2.03 2.03 0 01100 93.964V80.802c0-6.505 2.757-8.75 2.757-8.75 3.93-2.771 8.322-4.316 8.322-4.316.024-.012 1.738-.594 3.574-1.219A498.343 498.343 0 00119.086 65l8.264.586c.479.282 2.001.813 3.82 1.466 1.955.705 4.249 1.552 5.949 2.385.496.245.786.388 1.073.545 2.739 1.516 3.894 2.771 4.732 4 .399.594 1.773 3.55 2.076 6.82" fill="#7AC6EA"/><path fill-rule="evenodd" clip-rule="evenodd" d="M131 67.052L129.399 96h-13.978L114 66.517c2.184-.722 4.532-1.498 4.563-1.517l8.505.587c.493.28 2.06.812 3.932 1.465" fill="#FBFBFC"/><path fill-rule="evenodd" clip-rule="evenodd" d="M128.138 30.22c-3.348.936-8.905-1.163-12.593.45-3.688 1.613-2.92 5.032-2.92 5.032s-2.643 1.445-3.505 5.787c-.698 3.513 1.854 7.605 2.454 9.511h10.148l11.399-10.248S135 38.772 135 35.053c0-3.621-3.514-5.77-6.862-4.834" fill="#434F7A"/><path fill-rule="evenodd" clip-rule="evenodd" d="M132.812 48.294s2.11-2.586 3.679-.447c1.57 2.138-.649 8.455-4.491 6.913l.812-6.466z" fill="#EF9B80"/><path fill-rule="evenodd" clip-rule="evenodd" d="M133.266 53c.116 0 .223-.097.256-.246.488-2.201 2.288-3.094 2.307-3.102.137-.066.206-.26.153-.434-.051-.174-.205-.262-.341-.196-.085.04-2.069 1.015-2.631 3.55-.04.18.043.365.184.415a.21.21 0 00.072.013" fill="#EC8167"/><path fill-rule="evenodd" clip-rule="evenodd" d="M134.624 51c.07 0 .141-.01.204-.034.174-.064.225-.197.112-.297-.018-.017-.469-.41-1.411-.65-.188-.049-.411 0-.496.108-.085.109 0 .235.19.284.728.186 1.082.487 1.085.49a.494.494 0 00.316.099" fill="#EC8167"/><path fill-rule="evenodd" clip-rule="evenodd" d="M118 60v6.47s1.835 3.293 4.317 3.518c2.48.227 4.683-2.837 4.683-2.837v-6.696L118 60z" fill="#F1BEA3"/><path fill-rule="evenodd" clip-rule="evenodd" d="M118 60v2.923c1.665 1.979 4.623 2.473 9 1.781v-4.24L118 60z" fill="#EF9B80"/><path fill-rule="evenodd" clip-rule="evenodd" d="M133.971 46.408a45.725 45.725 0 01-.174 2.775 37.435 37.435 0 01-.435 3.208l-.002.015-.014.081-.043.222c-.03.15-.06.302-.094.459-.048.236-.102.481-.16.73-.986 4.154-2.927 7.985-6.65 9.307-8.84 3.142-12.358-3.726-13.876-8.47a20.514 20.514 0 01-.677-2.624c0-.003-.002-.003-.002-.005a.124.124 0 01-.004-.023v-.007c-.255-1.325-.44-2.824-.575-4.316a85.062 85.062 0 01-.257-3.745 6.583 6.583 0 01.375-2.537l.088-.234a7.608 7.608 0 01.433-.886c.084-.142.173-.281.265-.414v-.003a6.754 6.754 0 012.182-2.004c.293-.167.604-.313.926-.438 3.871-1.483 9.75-2.654 15.321.492a6.667 6.667 0 012.925 3.343c.032.084.065.167.093.254a6.3 6.3 0 01.269 1.017c.063.345.099.697.106 1.053a53.91 53.91 0 01-.02 2.75" fill="#F1BEA3"/><path fill-rule="evenodd" clip-rule="evenodd" d="M111.264 47.88c.274.201.326.648.847.878l.051.242h1.703c-.03-.227-.057-.45-.081-.663-.151-1.38-.975-4.098.192-4.418 1.165-.319-.019-2.804 1.602-4.076 1.622-1.277 5.25-1.629 7.641-.145 2.391 1.478 5.087-.113 6.188.145 1.105.254 2.602 1.784 2.197 3.215-.407 1.426.81 2.296 1.105 3.776.102.512.056 1.324-.048 2.166h1.16c.014-.154.028-.308.039-.46a52.796 52.796 0 00.131-4.802 6.496 6.496 0 00-.108-1.066 5.086 5.086 0 00-.109-.503 5.817 5.817 0 00-.16-.524 4.576 4.576 0 00-.093-.257 6.707 6.707 0 00-2.925-3.377c-5.57-3.178-11.448-1.994-15.319-.496a6.759 6.759 0 00-1.355.71 6.802 6.802 0 00-1.753 1.756v.003a6.648 6.648 0 00-.698 1.313l-.089.237a6.709 6.709 0 00-.374 2.563c.055 1.168.136 2.47.256 3.782" fill="#434F7A"/><path fill-rule="evenodd" clip-rule="evenodd" d="M113.306 49.235a2.58 2.58 0 00-1.369-1.966c-.724-.38-1.643-.492-2.428.578-1.57 2.138.649 8.455 4.491 6.913l-.694-5.525z" fill="#F1BEA3"/><path fill-rule="evenodd" clip-rule="evenodd" d="M112.734 53c-.116 0-.224-.097-.256-.246-.488-2.201-2.288-3.094-2.307-3.102-.137-.066-.206-.26-.153-.434.051-.174.205-.262.341-.196.085.04 2.069 1.015 2.631 3.55.04.18-.043.365-.184.415a.21.21 0 01-.072.013" fill="#EF9B80"/><path fill-rule="evenodd" clip-rule="evenodd" d="M110.375 51a.59.59 0 01-.202-.034c-.175-.064-.226-.197-.113-.297.019-.017.469-.41 1.411-.65.188-.049.411 0 .496.108.085.109 0 .235-.189.284-.729.186-1.083.487-1.086.49a.495.495 0 01-.317.099" fill="#EF9B80"/><path fill-rule="evenodd" clip-rule="evenodd" d="M253 1.828v60.344c0 1.01-.816 1.828-1.823 1.828h-91.354A1.825 1.825 0 01158 62.172V1.828c0-1.01.816-1.828 1.823-1.828h91.354C252.184 0 253 .818 253 1.828" fill="#7AC6EA"/><path fill-rule="evenodd" clip-rule="evenodd" d="M250 4.83v54.342A1.84 1.84 0 01248.147 61h-86.298a1.8 1.8 0 01-.642-.116A1.82 1.82 0 01160 59.172V4.829A1.84 1.84 0 01161.849 3h86.298c.248 0 .485.049.699.137.678.27 1.154.927 1.154 1.692" fill="#FBFBFC"/><path fill-rule="evenodd" clip-rule="evenodd" d="M250 4.016V7h-90V4.016c0-1.113.829-2.016 1.851-2.016h86.298c1.022 0 1.851.903 1.851 2.016" fill="#DFE1ED"/><path fill-rule="evenodd" clip-rule="evenodd" d="M173 4.5c0 .276.272.5.607.5h60.786c.335 0 .607-.224.607-.5s-.272-.5-.607-.5h-60.786c-.335 0-.607.224-.607.5" fill="#FBFBFC"/><path fill-rule="evenodd" clip-rule="evenodd" d="M166 4.5v.364c0 .104-.125.17-.226.118l-.349-.183-.35-.181a.13.13 0 010-.236l.35-.182.349-.182c.101-.052.226.013.226.118V4.5zm2 0v.364c0 .104.125.17.226.118l.349-.183.35-.181a.13.13 0 000-.236l-.35-.182-.349-.182c-.101-.052-.226.013-.226.118V4.5z" fill="#434F7A"/><path fill-rule="evenodd" clip-rule="evenodd" d="M243 5a1 1 0 11-2 0 1 1 0 012 0" fill="#7A75B5"/><path fill-rule="evenodd" clip-rule="evenodd" d="M240 5a1 1 0 11-2 0 1 1 0 012 0" fill="#F5B201"/><path fill-rule="evenodd" clip-rule="evenodd" d="M247 5a1 1 0 11-2 0 1 1 0 012 0" fill="#EA666F"/><path fill-rule="evenodd" clip-rule="evenodd" d="M232 60.991h-44.664L182 61c.361-1.61 1.125-3.244 1.819-4.504.182-.33.358-.633.52-.904a22.603 22.603 0 01.878-1.352c.857-1.247 2.818-2.715 5.127-4.193.283-.18.569-.361.86-.543.984-.61 9.011-3.32 10.032-3.915l8.483-.589c.053.03 8.164 2.749 8.216 2.778.349.197.703.397 1.05.598 3.006 1.72 5.97 3.536 7.676 5.097.25.227.473.447.662.663.151.174.288.34.395.505l.003.002c.066.026 1.535 1.728 4.279 6.348" fill="#7AC6EA"/><path fill-rule="evenodd" clip-rule="evenodd" d="M194.275 21.393s-4.712-1.653-4.242-5.338c.4-3.137 3.861-1.103 3.557-3.554-.305-2.451-.98-4.68 1.998-5.293 2.606-.536 2.65 1.365 6.071-1.393 4.042-3.258 7.147 4.286 10.755 4.513 5.321.334 5.992 3.538 6.516 6.1.523 2.563-2.05 5.572-2.05 5.572l-22.605-.607z" fill="#434F7A"/><path fill-rule="evenodd" clip-rule="evenodd" d="M195.188 27.294s-2.11-2.586-3.679-.447.649 8.455 4.491 6.913l-.812-6.465z" fill="#EF9B80"/><path fill-rule="evenodd" clip-rule="evenodd" d="M194.734 32c-.116 0-.223-.097-.256-.246-.488-2.201-2.288-3.094-2.306-3.102-.138-.066-.207-.26-.155-.435.052-.174.206-.26.343-.195.084.04 2.068 1.016 2.63 3.55.04.18-.043.365-.184.415a.21.21 0 01-.072.013" fill="#EC8167"/><path fill-rule="evenodd" clip-rule="evenodd" d="M192.375 31a.58.58 0 01-.202-.034c-.175-.065-.226-.197-.113-.297.019-.017.469-.41 1.411-.65.188-.049.412 0 .496.109.085.107 0 .234-.19.283-.728.186-1.082.488-1.085.49a.493.493 0 01-.317.099" fill="#EC8167"/><path fill-rule="evenodd" clip-rule="evenodd" d="M214.812 27.294s2.11-2.586 3.679-.447-.649 8.455-4.491 6.913l.812-6.465z" fill="#EF9B80"/><path fill-rule="evenodd" clip-rule="evenodd" d="M215.266 32c.116 0 .223-.097.256-.246.488-2.201 2.288-3.094 2.306-3.102.138-.066.207-.26.155-.435-.052-.174-.206-.26-.343-.195-.084.04-2.068 1.016-2.63 3.55-.04.18.043.365.184.415a.214.214 0 00.072.013" fill="#EC8167"/><path fill-rule="evenodd" clip-rule="evenodd" d="M217.625 31a.58.58 0 00.202-.034c.175-.065.226-.197.113-.297-.019-.017-.469-.41-1.411-.65-.188-.049-.412 0-.496.109-.085.107 0 .234.19.283.728.186 1.082.488 1.085.49a.493.493 0 00.317.099" fill="#EC8167"/><path fill-rule="evenodd" clip-rule="evenodd" d="M210 39v6.47s-1.835 3.294-4.317 3.518c-2.48.227-4.683-2.836-4.683-2.836v-6.697l9-.455z" fill="#F1BEA3"/><path fill-rule="evenodd" clip-rule="evenodd" d="M210 39v2.923c-1.666 1.979-4.623 2.473-9 1.781v-4.24l9-.464z" fill="#EF9B80"/><path fill-rule="evenodd" clip-rule="evenodd" d="M216.992 23.016c-.117 2.48-.353 5.582-.83 8.06v.006c0 .008-.002.015-.004.024 0 .002-.003.002-.003.005a21.165 21.165 0 01-.676 2.623c-1.519 4.746-5.037 11.613-13.877 8.471-3.723-1.322-5.662-5.153-6.65-9.307a22.779 22.779 0 01-.16-.73c-.034-.157-.065-.31-.093-.46l-.043-.221a1.084 1.084 0 01-.015-.08l-.003-.015c-.583-3.195-.672-6.425-.629-8.734a6.66 6.66 0 013.394-5.668c5.569-3.147 11.449-1.972 15.32-.49a6.633 6.633 0 014.269 6.516" fill="#F1BEA3"/><path fill-rule="evenodd" clip-rule="evenodd" d="M216.992 22.313c-.119 2.572-.355 5.788-.83 8.36l-1.361-.1s.33-2.17.482-3.586c.152-1.415.41-4.06-.758-4.39-1.165-.327-.481-3.344-2.103-4.652-1.622-1.31-5.25-1.67-7.641-.148-2.392 1.518-5.087-.116-6.189.148-1.105.261-2.602 1.833-2.197 3.302.408 1.465-.809 2.358-1.105 3.877-.295 1.519.649 5.606.649 5.606l-1.3.27c-.584-3.314-.672-6.663-.63-9.055.046-2.444 1.336-4.676 3.393-5.88 5.572-3.264 11.451-2.047 15.321-.51 2.687 1.067 4.406 3.793 4.269 6.758" fill="#434F7A"/><path fill-rule="evenodd" clip-rule="evenodd" d="M112 123.828v60.344c0 1.01-.816 1.828-1.823 1.828H18.823A1.825 1.825 0 0117 184.172v-60.344c0-1.01.816-1.828 1.823-1.828h91.354c1.007 0 1.823.818 1.823 1.828" fill="#7AC6EA"/><path fill-rule="evenodd" clip-rule="evenodd" d="M110 126.828v54.343a1.84 1.84 0 01-1.852 1.829h-86.3c-.225 0-.44-.039-.641-.116A1.822 1.822 0 0120 181.171v-54.343c0-1.011.828-1.828 1.849-1.828h86.299c.247 0 .485.048.7.136a1.827 1.827 0 011.152 1.692" fill="#FBFBFC"/><path fill-rule="evenodd" clip-rule="evenodd" d="M110 127.016V130H20v-2.984c0-1.113.829-2.016 1.85-2.016h86.299c1.022 0 1.851.903 1.851 2.016" fill="#DFE1ED"/><path fill-rule="evenodd" clip-rule="evenodd" d="M32 127.5c0 .276.272.5.607.5h60.785c.336 0 .608-.224.608-.5s-.272-.5-.608-.5H32.607c-.335 0-.607.224-.607.5" fill="#FBFBFC"/><path fill-rule="evenodd" clip-rule="evenodd" d="M25 127.5v.364c0 .105-.125.17-.226.118l-.35-.182-.35-.182a.13.13 0 010-.236l.35-.181.35-.183c.1-.052.226.014.226.118v.364zm2 0v.364c0 .105.125.17.226.118l.35-.182.35-.182a.13.13 0 000-.236l-.35-.181-.35-.183c-.1-.052-.226.014-.226.118v.364z" fill="#434F7A"/><path fill-rule="evenodd" clip-rule="evenodd" d="M103 127a1 1 0 11-2 0 1 1 0 012 0" fill="#7A75B5"/><path fill-rule="evenodd" clip-rule="evenodd" d="M99 127a1 1 0 11-2 0 1 1 0 012 0" fill="#F5B201"/><path fill-rule="evenodd" clip-rule="evenodd" d="M106 127a1 1 0 11-2 0 1 1 0 012 0" fill="#EA666F"/><path fill-rule="evenodd" clip-rule="evenodd" d="M87 183c-.612-2.426-1-3.948-1-3.948-1.886-.409-3.654 1.65-5 3.948h6z" fill="#F1BEA3"/><path fill-rule="evenodd" clip-rule="evenodd" d="M85.915 183c.159-2.373.114-3.935-.291-4.436-.559-.693-1.473-1.432-2.592-2.186-1.71-1.152-3.904-2.34-6.068-3.459-2.945-1.522-5.83-2.918-7.362-3.919-1.64.701-2.945 1.084-4.35 1.076-.039 0-.08 0-.118-.003-.041.003-.083.003-.12.003-1.406.008-2.711-.375-4.35-1.076-1.651 1.079-4.947 2.658-8.193 4.359a83.89 83.89 0 00-3.956 2.194 35.54 35.54 0 00-1.472.93c-1.171.781-2.121 1.544-2.69 2.25-.397.491-.427 1.991-.249 4.267h41.81z" fill="#7AC6EA"/><path fill-rule="evenodd" clip-rule="evenodd" d="M77 173.067c-2.036 4.635-6.82 10.924-13.328 9.801-6.303-1.087-9.514-5.903-11.672-9.345 3.314-1.767 6.678-3.404 8.363-4.523 1.672.726 3.004 1.124 4.438 1.117.039 0 .082 0 .124-.004.038.004.082.004.12.004 1.435.007 2.766-.391 4.441-1.117 1.564 1.038 4.51 2.486 7.514 4.067" fill="#F1BEA3"/><path fill-rule="evenodd" clip-rule="evenodd" d="M65.582 170.496v.008c-.053 0-.111 0-.164-.004.052 0 .11-.004.164-.004M72 132.5a6.47 6.47 0 01-1.168 3.721A6.497 6.497 0 0165.5 139a6.491 6.491 0 01-6.338-5.06A6.5 6.5 0 1172 132.5" fill="#434F7A"/><path fill-rule="evenodd" clip-rule="evenodd" d="M72 133.394a6.285 6.285 0 01-1.04 2.284l-.334.322H60.282A6.3 6.3 0 0159 133.423c1.117-.546 3.397-1.423 6.496-1.423 3.045 0 5.34.848 6.504 1.394" fill="#7AC6EA"/><path fill-rule="evenodd" clip-rule="evenodd" d="M55.188 151.295s-2.11-2.587-3.68-.448c-1.569 2.139.65 8.455 4.492 6.913l-.812-6.465z" fill="#EF9B80"/><path fill-rule="evenodd" clip-rule="evenodd" d="M54.734 156c-.117 0-.223-.098-.256-.246-.488-2.201-2.289-3.093-2.307-3.102-.137-.066-.206-.26-.154-.435.052-.173.206-.261.343-.195.084.041 2.068 1.016 2.63 3.55.04.179-.043.365-.184.415a.204.204 0 01-.072.013" fill="#EC8167"/><path fill-rule="evenodd" clip-rule="evenodd" d="M74.812 151.295s2.11-2.587 3.68-.448c1.569 2.139-.65 8.455-4.492 6.913l.812-6.465z" fill="#EF9B80"/><path fill-rule="evenodd" clip-rule="evenodd" d="M75.266 156c.116 0 .223-.098.256-.246.488-2.201 2.289-3.093 2.307-3.102.137-.066.206-.26.154-.435-.052-.173-.206-.261-.343-.195-.084.041-2.068 1.016-2.63 3.55-.04.179.042.365.184.415a.206.206 0 00.072.013" fill="#EC8167"/><path fill-rule="evenodd" clip-rule="evenodd" d="M76.624 154c.07 0 .14-.011.204-.034.174-.065.225-.197.112-.297-.018-.017-.47-.409-1.41-.65-.19-.049-.413 0-.497.108-.085.109 0 .235.19.284.728.186 1.082.488 1.085.49a.49.49 0 00.316.099" fill="#EC8167"/><path fill-rule="evenodd" clip-rule="evenodd" d="M69 163v6.469s-1.835 3.295-4.317 3.519c-2.48.227-4.683-2.837-4.683-2.837v-6.696l9-.455z" fill="#F1BEA3"/><path fill-rule="evenodd" clip-rule="evenodd" d="M69 163v2.827c-1.665 1.913-4.623 2.591-9 1.922v-4.301l9-.448z" fill="#EF9B80"/><path fill-rule="evenodd" clip-rule="evenodd" d="M75.992 146.014c-.118 2.48-.356 5.581-.83 8.061-.119.618-.253 1.2-.402 1.722-1.348 4.702-4.72 12.766-14.158 9.407-4.17-1.483-6.102-6.109-6.963-10.813-.584-3.196-.672-6.424-.63-8.732a6.657 6.657 0 013.393-5.668c5.571-3.147 11.45-1.974 15.321-.491a6.639 6.639 0 014.27 6.514" fill="#F1BEA3"/><path fill-rule="evenodd" clip-rule="evenodd" d="M77.881 145.838c-.097.271-.367.444-.729.547.026.654-.043 1.444-.11 2.199-.374 4.293-1.477 5.048-1.727 3.987-.164-.706-.155-4.749-.076-6.069a14.656 14.656 0 01-1.604-.197l-1.015-4.169-.355 4.118c-1.523.519-5.078-.313-5.078-.313l-1.19-4.109-.74 3.952c-2.282 1.094-5.139.365-5.139.365l-.655-4.263-1.516 4.263s-1.41.495-2.723.687c-.005 1.332-.088 4.95-.77 4.741-.722-.222-1.108-3.099-1.015-4.816-.252-.117-.41-.311-.419-.612-.031-.998-.134-4.091.754-6.181 1.21-2.844 2.695-4.562 4.913-5.562 5.209-2.347 12.607-1.346 14.736.041 5.723 3.729 4.458 11.391 4.458 11.391" fill="#434F7A"/><path fill-rule="evenodd" clip-rule="evenodd" d="M48 184a119.558 119.558 0 00-1.118-7c-1.11.838-2.009 1.658-2.548 2.417-.376.527-.404 2.138-.235 4.583H48zm37.916-1c.157-2.508.112-4.16-.288-4.689-.552-.733-1.455-1.514-2.56-2.311-.326 1.624-.734 4.081-1.068 7h3.916z" fill="#F1BEA3"/><path fill-rule="evenodd" clip-rule="evenodd" d="M45 183l-1.397-4L42 183h3z" fill="#F1BEA3"/><path fill-rule="evenodd" clip-rule="evenodd" d="M90 26.637v81.725A4.639 4.639 0 0185.36 113H44.64a4.632 4.632 0 01-3.293-1.369A4.625 4.625 0 0140 108.362V26.638A4.638 4.638 0 0144.64 22h40.72A4.635 4.635 0 0190 26.637" fill="#7AC6EA"/><path fill-rule="evenodd" clip-rule="evenodd" d="M87 26.058v82.884c0 1.141-.91 2.058-2.03 2.058H44.01a2.028 2.028 0 01-1.85-1.25 2.086 2.086 0 01-.16-.808V26.058c0-1.135.908-2.058 2.027-2.058h40.944c.133 0 .263.014.389.036a2.057 2.057 0 011.61 1.684c.02.111.03.224.03.338" fill="#FBFBFC"/><path fill-rule="evenodd" clip-rule="evenodd" d="M54 71.83c-1.735-4.922-2.548-8.605-2.556-8.642-.03-.132-.15-.213-.272-.181-.12.031-.195.164-.166.297.008.036.827 3.745 2.572 8.696m8.689 15.793c.157-.195.313-.39.465-.586z" fill="#DE7328"/><path fill-rule="evenodd" clip-rule="evenodd" d="M79.385 79L88 91.04V107l-5.172-6.072-2.912-3.419s-3.93-15.3-.533-18.509h.002z" fill="#7AC6EA"/><path fill-rule="evenodd" clip-rule="evenodd" d="M84 112H56.01l-2.595-8.97L48 84.309l.002-.002 8.23-3.264h.002l.71-.282.71-.285.085-.03 2.215-.881a21.818 21.818 0 011.361-.489 21.936 21.936 0 013.565-.836 22.296 22.296 0 015.077-.166l.11.006.638.052.002.002.77.061h.002l.001.003.082.007.996.081.386.03 6.625.546h.002c.093 1.437.49 6.302.617 7.737 1.195 2.837 2.995 5.526 3.125 10.562.03 1.222-.116 2.3-.431 3.801a77.1 77.1 0 01-.34 1.52 1.109 1.109 0 01-.027.13l-.05.221a.237.237 0 01-.012.053l-.001.004c.014.092.032.186.047.281.02.119.038.239.06.358.002.005 0 .011.002.014.183 1.253.287 2.066.357 2.624L84 112z" fill="#7AC6EA"/><path fill-rule="evenodd" clip-rule="evenodd" d="M72.478 78.315c.682 2.8.948 6.914-.808 8.715-2.859 2.931-11.327-1.278-15.67-6.012v-.002l.7-.278.7-.28v-.002l.084-.03 2.184-.873a21.725 21.725 0 019.865-1.48l.107.008 1.39.114.001.003.003-.001.082.008.982.08.38.03z" fill="#F1BEA3"/><path fill-rule="evenodd" clip-rule="evenodd" d="M55.174 70.183c-3.279-.51-5.542-3.561-5.124-6.871l.011-.092a1281.29 1281.29 0 011.093-8.487C52.686 44.068 63.608 43.12 63.608 43.12c13.17-1.403 16.597 9.813 16.382 15.897-.015.414-.046.834-.09 1.254l-.001.035c-.022.762-.23 1.861-.524 3.161-1.237 5.484-6.41 9.145-11.959 8.448a421.017 421.017 0 01-12.243-1.733" fill="#434F7A"/><path fill-rule="evenodd" clip-rule="evenodd" d="M71 45.068s-5.963-11.265-16.26-3.097c-10.3 8.167-.623 32.253-11.74 34.291 0 0 4.955 4.137 11.624-.354 6.669-4.492-2.875-29.09 16.376-30.84" fill="#434F7A"/><path fill-rule="evenodd" clip-rule="evenodd" d="M75.968 61.088s2.122-2.227 3.588-.308c1.466 1.92-.865 7.428-4.556 5.98l.968-5.672z" fill="#EF9B80"/><path fill-rule="evenodd" clip-rule="evenodd" d="M76.254 65a.26.26 0 00.255-.181c.52-1.676 2.299-2.31 2.317-2.316a.257.257 0 00.16-.329.26.26 0 00-.331-.16c-.084.028-2.043.721-2.643 2.65a.259.259 0 00.242.336" fill="#EC8167"/><path fill-rule="evenodd" clip-rule="evenodd" d="M78.61 64a.634.634 0 00.207-.03c.18-.06.237-.19.127-.29-.017-.016-.456-.408-1.398-.659-.189-.05-.418-.007-.508.098-.092.105-.01.23.179.281.729.194 1.073.495 1.077.498.07.064.19.1.316.102" fill="#EC8167"/><path fill-rule="evenodd" clip-rule="evenodd" d="M62.185 72L62 79.064s3.054 2.624 5.483 2.916c2.425.293 3.345-2.703 3.345-2.703L71 72.702 62.185 72z" fill="#F1BEA3"/><path fill-rule="evenodd" clip-rule="evenodd" d="M62.075 73L62 75.73c1.603 1.894 4.521 2.63 8.886 2.105L71 73.68 62.075 73z" fill="#EF9B80"/><path fill-rule="evenodd" clip-rule="evenodd" d="M77.522 63.374a37.067 37.067 0 01-.363 2.082c-.954 4.62-4.049 9.554-7.804 10.294-8.108 1.596-11.28-4.784-12.44-9.46-.128-.518.156-1.102.06-1.715-.227-1.453-.77-3.111-.858-4.735A94.693 94.693 0 0156 56.604c-.052-2.824 1.664-5.373 4.263-6.315 3.744-1.363 9.402-2.368 14.644.883 1.936 1.201 3.112 3.358 3.092 5.683-.016 1.777-.125 4.096-.478 6.52" fill="#F1BEA3"/><path fill-rule="evenodd" clip-rule="evenodd" d="M74.3 55.481c3.085 1.515 1.991 5.209 2.995 7.104.065.124.136.147.212.087.366-2.471.477-4.838.493-6.65a6.716 6.716 0 00-3.238-5.8c-5.483-3.32-11.397-2.3-15.31-.914a6.682 6.682 0 00-4.45 6.438 92.48 92.48 0 00.123 3.3c.51.324 1.773.5 1.803 1.337.08 2.214.146 3.73.61 3.61.782-.202 1.338-2.866.498-4.62 0 0 .745-1.145 3.687-2.19 3.773-1.34 7.425-3.376 7.425-3.376s1.441-.816 2.01-1.734c0 0 .793 2.255 3.143 3.408" fill="#434F7A"/><path fill-rule="evenodd" clip-rule="evenodd" d="M56.934 60.47s-2.12-2.662-3.465-.82c-1.347 1.84.326 7.432 3.531 6.165l-.066-5.346z" fill="#F1BEA3"/><path fill-rule="evenodd" clip-rule="evenodd" d="M56.72 64a.269.269 0 01-.257-.188c-.45-1.628-2.276-2.328-2.294-2.336-.139-.052-.205-.196-.149-.322.058-.127.217-.187.356-.136.085.032 2.096.8 2.616 2.674.036.133-.052.267-.199.3a.303.303 0 01-.074.008" fill="#EF9B80"/><path fill-rule="evenodd" clip-rule="evenodd" d="M55.18 63a.163.163 0 01-.1-.038c-.084-.069-.105-.205-.048-.305.01-.016.242-.41.712-.64.094-.047.203.007.242.119.04.111-.006.24-.1.286-.364.178-.546.48-.547.483a.18.18 0 01-.159.095" fill="#EF9B80"/><path fill-rule="evenodd" clip-rule="evenodd" d="M53.666 102.254c.009 2.813.27 5.943.334 8.746h-9.984c-.072-4.017.127-8.473.147-12.575.025-5.247.227-11.615 3.922-14.424l.002-.001c1 .622 3.425 3.663 4.06 5.382 1.535 4.155 1.644 8.744 1.544 11.323a35.66 35.66 0 00-.025 1.549" fill="#7AC6EA"/></svg>