<svg width="44" height="100" fill="none" xmlns="http://www.w3.org/2000/svg"><path fill-rule="evenodd" clip-rule="evenodd" d="M13.268 18.974c-.94-.936-1.609-2.012-2.644-2.74.025 1.713-.092 6.34-1.342 7.403 0 0 4.657 4.442 8.407 0 0 0-.672-1.31-1.154-3.441-1.198-.115-2.456-.415-3.267-1.222" fill="#FFBD90"/><path fill-rule="evenodd" clip-rule="evenodd" d="M14.241 21.813c-1.69.224-3.211.922-4.276 2.286-.015.02-.026.04-.04.06a7.171 7.171 0 01-.643-.522c1.25-1.063 1.367-5.69 1.342-7.404 1.035.729 1.704 1.805 2.644 2.74.81.809 2.069 1.108 3.267 1.223.108.475.344 1.325.46 1.677-.875-.197-1.939-.168-2.754-.06" fill="#F1BF97"/><path fill-rule="evenodd" clip-rule="evenodd" d="M18.856 7.975c.198.194.362.416.492.662.37.699 1.066 2.37.997 4.95-.094 3.497 1.875 6.457.531 7.087-1.344.63-7.156-.283-8.219-1.165-1.062-.882-1.024-2.227-1.434-2.215-.41.01-1.503 1.9-2.69-1.123-1.188-3.025 1.187-4.096 2.25-2.143 0 0-1.407-4.347 2.093-6.742 2.853-1.951 5.207-.073 5.98.689" fill="#FFC39A"/><path fill-rule="evenodd" clip-rule="evenodd" d="M10.205 14.68c-.208-.305-.46-.74-.82-.81-.403-.077-.693-.064-.815.247-.162.41-.142 1.055.196 1.916.796 2.026 1.877 1.219 2.296.916-.077-.069-.277-1.418-.857-2.268" fill="#F8D6BD"/><path fill-rule="evenodd" clip-rule="evenodd" d="M12.827 18.012c.87.58 1.855 1.075 2.867 1.362 5.295 1.5 5.241-.438 5.264-.459.085.709.013 1.218-.408 1.408-1.26.57-6.707-.256-7.703-1.053-.686-.55-.882-1.632-1.064-2.25.302.364.622.71 1.044.992" fill="#FFD6BD"/><mask id="a" maskUnits="userSpaceOnUse" x="0" y="90" width="10" height="10"><path fill-rule="evenodd" clip-rule="evenodd" d="M.103 90.987h9.792v8.06H.103v-8.06z" fill="#fff"/></mask><g mask="url(#a)"><path fill-rule="evenodd" clip-rule="evenodd" d="M7.78 94.621h1.894c.433-1.208.12-2.997-.017-3.633-.692.268-2.007.503-2.793.507a1.58 1.58 0 01-.175-.01l-.248.074s-1.468 1.543-3.218 3.087C1.473 96.19-.121 98.553.129 98.994c.25.44 5.437-1.954 5.906-2.332.469-.378 1.709-2.965 1.709-2.965l.036.924z" fill="#2A3236"/></g><path fill-rule="evenodd" clip-rule="evenodd" d="M19.168 92.42c-2.375-1.386-2.25-2.058-2.25-2.058l-3.43.835s-.575 1.178-.479 3.424h2.102l.098-1.065s2.292 1.846 3.01 2.098c.72.252 5.553 1.25 6.095.746.541-.504-2.771-2.594-5.146-3.98" fill="#2A3236"/><path fill-rule="evenodd" clip-rule="evenodd" d="M10.168 44.744s-3 4.2-3 6.637c0 2.436 1.25 15.206.25 18.986-1 3.78-.828 2.131-1.417 7.393-.583 5.209-1.068 13.862-1.068 13.862s2.568 1.932 5.068 0c0 0 .47-9.712 2.17-17.5.09-.414.229-.814.396-1.202a7.09 7.09 0 00.486-1.714c.087-.566 1.005-16.538 1.464-17.168.396-.544.659 16.644.332 18.13-.961 4.37-1.427 18.12-1.786 19.296 0 0 3.47 1.207 5.094-.348 0 0 .149-4.726.578-9.555.133-1.503.679-6.43.904-7.413.079-.346.48-1.173.641-2.441.087-.686 2.034-17.7-.966-26.144 0 0-7.23 1.008-9.146-.819" fill="#A9D4E6"/><path fill-rule="evenodd" clip-rule="evenodd" d="M22.484 25.611s-3.653 8.632-2.568 11.236c1.085 2.605 7.252 6.89 7.668 6.805.417-.084 2.75-3.864 2.75-3.864s-6.95-14.177-7.85-14.177" fill="#D1E2EF"/><path fill-rule="evenodd" clip-rule="evenodd" d="M8.751 14.66s.656-.731.938-.256c.28.475 1.125 1.956.718 2.23-.406.275-.934.294-.773-.877.16-1.171-.34-1.345-.883-1.098" fill="#EC996B"/><path fill-rule="evenodd" clip-rule="evenodd" d="M16.714 22.755s1.71 1.35 5.77 2.856c0 0-2.037 10.627-2.635 14.849-.598 4.221-.535 5.103-.535 5.103s-1.156 4.401-4.438 4.222c-.95-.052-5.146-.441-6.778-1.535l1.419-2.781S8.189 38.254 7.189 36.3c-1-1.953.138-6.64-4.674-9.35 0 0 .868-.602 2.111-1.197 1.925-.922 4.63-2.16 5.479-3.692 0 0 5.198 3.97 6.61.693" fill="#D1E2EF"/><path fill-rule="evenodd" clip-rule="evenodd" d="M14.669 23.595l-1.184 1.302 1.391 1.197-.959 2.142 2.386 4.442 1.386-4.82-2.102-1.984.383-2-1.301-.279z" fill="#32333A"/><path fill-rule="evenodd" clip-rule="evenodd" d="M14.777 48.525s1.182-.786 1.44-2.156c.136-.714-.098-1.869-.63-2.553 0 0-2.734 1.751-.81 4.709" fill="#2D7FA7"/><path fill-rule="evenodd" clip-rule="evenodd" d="M10.155 21.873l-1.55 1.747 4.146 3.608 2.027-3.591-4.623-1.764z" fill="#F8F8F6"/><path fill-rule="evenodd" clip-rule="evenodd" d="M11.3 22.56c.362.018.717.08 1.07.158l-2.215-.845-1.191 1.343c.713-.42 1.544-.697 2.337-.656" fill="#E7E7E0"/><path fill-rule="evenodd" clip-rule="evenodd" d="M16.995 21.873l-2.218 1.764 2.441 2.236.611-2.614-.834-1.386z" fill="#F8F8F6"/><path fill-rule="evenodd" clip-rule="evenodd" d="M43.251 35.926s-.25 2.895-3.187 2.706c0 0 1.343.63 2.593.379 1.25-.253 1.657-1.255.594-3.085" fill="#CFC7B9"/><path fill-rule="evenodd" clip-rule="evenodd" d="M27.001 30.547l2.208-3.445s6 3.746 7.417 6.557c1.417 2.81 4.586 5.375 6.918 4.912 0 0-.564.72-1.21.713-1.602-.019-14.041-5.965-15.333-8.737" fill="#EFEBDC"/><path fill-rule="evenodd" clip-rule="evenodd" d="M14.46 49.155s4.5 1.008 8.958.84c4.458-.168 6.041 1.89 6.041 1.89l14.085-13.314s-3.46 1.3-7.334-3.404c-3.876-4.705-8.959-6.468-11.5-6.259 0 0-5.876 19.785-10.25 20.247" fill="#F7F5EB"/><path fill-rule="evenodd" clip-rule="evenodd" d="M22.899 46.716c.31-.06.558-.109.678-.299.485-.661-.383-1.03-1.367-1.564-.313-.17-.934-.454-1.325-.444-.74.018-1.468.096-2.194.002-.828 1.553-1.68 2.87-2.515 3.72.273.103.542.23.799.39.593.365 1.76.793 2.684 1.008 1.136.223 1.246-.335 1.34-.348 1.898.61 1.453-.855 1.453-.855.141.054.465.056.712-.078a.684.684 0 00.17-1.097 12.45 12.45 0 00-.435-.435" fill="#D2C7BC"/><path fill-rule="evenodd" clip-rule="evenodd" d="M14.251 44.746s3-1.181 4.24-.98c1.24.203 2.03-.311 2.53-.023.5.29 2.543 1.927 2.438 2.074-.104.147-.34 1.023-2.773-.735-.603-.435-1.977.082-1.977.082s.73-.124 1.417.191c.688.316 3.02 2.206 3.02 2.353 0 .147-.417 1.045-2.89-.87 0 0-.807-.537-1.74-.56 0 0 1.689.686 1.772.749.083.063 1.734 1.269 1.838 1.458.104.189-.59 1.044-2.854-.694 0 0-.865-.421-1.365-.484 0 0 1.14.445 1.352.579.21.134 1.307.863 1.308.918.005.282-.488.728-1.957-.09-1.468-.82-1.598-.712-2.62-.723-1.02-.01-1.136-.248-1.739.137 0 0-1.531-1.486 0-3.382" fill="#FFC39A"/><path fill-rule="evenodd" clip-rule="evenodd" d="M22.126 48.485c-.085-.156-1.209-.993-1.655-1.323-.056.42-.283.807-.686.995 1.854 1.233 2.437.502 2.341.328m-2.818-.567c-.026.356-.172.696-.44.925 1.264.625 1.703.225 1.699-.039-.001-.052-.965-.696-1.259-.886m1.879-1.865c-.017.423-.2.83-.557 1.063 2.14 1.543 2.517.73 2.517.592 0-.1-1.059-.989-1.96-1.655m.485-1.851c-.003.46-.2.91-.602 1.147 2.072 1.393 2.291.607 2.39.468.076-.108-1.01-1.025-1.788-1.615" fill="#FFDFCC"/><path fill-rule="evenodd" clip-rule="evenodd" d="M22.421 47.15s-.415.175-.32.57c.014.057.71.433.874-.048.032-.094-.554-.521-.554-.521m-.985.854s-.377.18-.31.553c.01.055.722.443.847-.048.023-.093-.537-.505-.537-.505m-1.489.375s-.342.164-.281.502c.01.05.724.338.79-.075.014-.087-.51-.427-.51-.427m2.758-3.211s-.447.042-.361.645c.009.065.742.46.988-.055.048-.102-.627-.59-.627-.59" fill="#FFD7C0"/><path fill-rule="evenodd" clip-rule="evenodd" d="M18.117 44.782c-.674.122-1.346.048-1.975-.41-.883.25-1.66.556-1.66.556-1.336 1.654 0 2.95 0 2.95.526-.335.627-.127 1.517-.118.656.006.892-.042 1.483.218a1.28 1.28 0 01.197-.8v-.013a.2.2 0 01-.007-.003l.007.002a1.17 1.17 0 01.383-.833c-.082-.353-.03-.74.167-1.029a1.399 1.399 0 01-.112-.52" fill="#FFDFCC"/><mask id="b" maskUnits="userSpaceOnUse" x="0" y="26" width="16" height="23"><path fill-rule="evenodd" clip-rule="evenodd" d="M0 26.951h15.587v21.574H0V26.95z" fill="#fff"/></mask><g mask="url(#b)"><path fill-rule="evenodd" clip-rule="evenodd" d="M2.515 26.951S-.061 41.594 0 44.744c.063 3.15 4.303.378 14.776 3.78 0 0-1.291-2.062.81-4.708 0 0-7.836-1.34-10.46-1.802l2.4-5.717s.05-8.8-5.012-9.346" fill="#D1E2EF"/></g><path fill-rule="evenodd" clip-rule="evenodd" d="M33.46 36.175l-.417.888 4.625 3.69.413-.583-4.622-3.995zm-6.233-3.491l.337.782-.188-1.418s-.874.56-1.06.624l.77-.139-2.051 3.44-.253-.774v1.197l1.297-.47-.85.038c.581-.604 1.568-1.796 1.998-3.28m-.911-.012l-.034.006c.005.003.018 0 .034-.006m5.131 3.288l.336.782-.187-1.418s-.874.56-1.06.624l.77-.139-2.052 3.44-.252-.774v1.197l1.297-.47-.85.038c.58-.604 1.567-1.796 1.998-3.28m-.912-.012l-.033.006c.005.003.018 0 .033-.006m-7.551 4.26l.923-1.481 3.282 2.552-.907 1.008-3.298-2.08zm.861-2.08l-1.344 2.26 3.781 2.549 1.563-1.753-4-3.055z" fill="#737373"/><path fill-rule="evenodd" clip-rule="evenodd" d="M24.782 36.522l4.37 3.095.102-.369-4.22-2.852-.252.126zm2.594-4.474l-.29.486 4.353 3.169.157-.379-4.22-3.276zm-2.203 1.828l1.64 1.228.188-.346-1.688-1.23-.14.348zm2.391 1.609l1.64 1.229.188-.347-1.688-1.229-.14.347zm2.39 1.609l1.64 1.229.188-.347-1.687-1.228-.14.346zm2.341 1.808l1.64 1.229.188-.347-1.687-1.228-.14.346zm2.441 1.701l1.64 1.229.188-.347-1.688-1.228-.14.346zm-3.868-.346l-.333.497 3.588 2.9.284-.296s-2.796-2.485-3.539-3.101" fill="#737373"/><path fill-rule="evenodd" clip-rule="evenodd" d="M31.596 41.447l-2.762 2.92-2.062-1.261-2.98 3.024 1.647 1.534-.792 1.092.526.33.914-1.444-1.586-1.596 2.25-2.324 2.25 1.316 2.958-3.423-.363-.168zm-.491 3.297l1.007-1.022 1.097 1.078-.914 1.078-1.19-1.134zm.938-1.533l-1.508 1.428 1.76 1.73 1.393-1.625-1.645-1.533z" fill="#737373"/><path fill-rule="evenodd" clip-rule="evenodd" d="M26.316 44.954l1.06 1.03.188-.21-1.042-.984-.206.164zm1.638 1.211l-.187.22.938.882.124-.236-.875-.866zm1.34 1.265l-.184.315.903.866.11-.204-.829-.977zm1.16 1.347l-.12.173.839.84.203-.226-.922-.787z" fill="#737373"/><path fill-rule="evenodd" clip-rule="evenodd" d="M13.689 5.774S9.24 5.32 7.815 8.224c-1.053 2.143.495 5.73.495 5.73s.684-1.126 1.504-.841c.82.285 1.625 3.761 1.625 3.761l1.104-.48s-1.714-4.153 1.083-6.178c3.303-2.391 3.64-1.737 4.203-1.926.563-.189.91.68 1.823 1.009 0 0-.4-4.375-5.963-3.525" fill="#4D4F5C"/><path fill-rule="evenodd" clip-rule="evenodd" d="M13.689 5.774S9.24 5.32 7.815 8.224c-.397.807-.422 1.817-.302 2.764 1.067-.05 2.139-.125 3.163-.516 1.564-.596 1.962-.249 2.951-.256 3.302-2.391 3.64-1.737 4.202-1.926.563-.19.91.68 1.823 1.009 0 0-.4-4.375-5.963-3.525" fill="#4D4F5C"/><mask id="c" maskUnits="userSpaceOnUse" x="5" y="0" width="18" height="11"><path fill-rule="evenodd" clip-rule="evenodd" d="M5.758.21h17.056v9.86H5.758V.21z" fill="#fff"/></mask><g mask="url(#c)"><path fill-rule="evenodd" clip-rule="evenodd" d="M20.61 6.982s2.516.08 2.171 1.814c-.392 1.972-6.49.517-9.454.071-2.964-.446-7.043 2.987-7.57-.095 0 0 .042-.78 1.16-1.035 0 0-1.141-6.897 5.747-7.486 6.305-.538 7.053 4.347 7.945 6.73" fill="#D1E2EF"/></g><path fill-rule="evenodd" clip-rule="evenodd" d="M6.746 7.784c.654.497 1.612.615 2.621.323 2.2-.636 4.49-.127 6.709.154 1.063.135 2.222.373 3.297.266.921-.091 1.423-.452 2.152-.966.134-.095.238-.202.319-.314.579.239 1.108.692.938 1.55-.393 1.971-6.49.516-9.455.07-2.964-.446-7.043 2.987-7.57-.095 0 0 .04-.696.989-.988" fill="#FEC30C"/><path fill-rule="evenodd" clip-rule="evenodd" d="M6.746 7.784c.654.497 1.612.615 2.621.323 2.2-.636 4.49-.127 6.709.154 1.063.135 2.222.373 3.297.266.921-.091 1.423-.452 2.152-.966.134-.095.238-.202.319-.314.579.239 1.108.692.938 1.55-.393 1.971-6.49.516-9.455.07-2.964-.446-7.043 2.987-7.57-.095 0 0 .04-.696.989-.988" fill="#A9D4E6"/><mask id="d" maskUnits="userSpaceOnUse" x="19" y="12" width="1" height="1"><path fill-rule="evenodd" clip-rule="evenodd" d="M19.063 12.77c.638.512.83.004.83.004s.05-.296.02-.65" fill="#fff"/></mask><g mask="url(#d)"><path fill-rule="evenodd" clip-rule="evenodd" d="M19.063 12.77s-.185-1.534.739-1.305c0 0 .087.372.111.659.03.354-.02.65-.02.65s-.192.508-.83-.004" fill="#FFFEFF"/></g><path fill-rule="evenodd" clip-rule="evenodd" d="M20.625 13.038a.1.1 0 01-.098.103.1.1 0 01-.098-.103.1.1 0 01.098-.104.1.1 0 01.098.104" fill="#fff"/><path fill-rule="evenodd" clip-rule="evenodd" d="M19.13 11.25s.638 1.06 1.353 2.064c.647.91 1.587 1.902 1.488 2.111-.209.44-2.935 1.224-2.675-.473.26-1.696-.508-1.344-.166-3.701" fill="#FFC39A"/><path fill-rule="evenodd" clip-rule="evenodd" d="M21.583 15.461h-.009a1.067 1.067 0 00-.644.205c-.201.148-.443.264-.443.264.774-.03 1.22-.374 1.351-.492-.08.014-.164.023-.255.023" fill="#F5AF87"/></svg>