<svg width="34" height="97" fill="none" xmlns="http://www.w3.org/2000/svg"><path fill-rule="evenodd" clip-rule="evenodd" d="M28.189 48s-2.262-2.262-.545-5c0 0 4.917.296.545 5" fill="#D6BD92"/><mask id="a" maskUnits="userSpaceOnUse" x="3" y="89" width="11" height="8"><path fill-rule="evenodd" clip-rule="evenodd" d="M3.238 89.182h10.655V97H3.239v-7.818z" fill="#fff"/></mask><g mask="url(#a)"><path fill-rule="evenodd" clip-rule="evenodd" d="M11.839 89.629c-.951.06-1.848-.042-2.565-.447-.479.878-1.095 1.864-1.68 2.39-1.21 1.082-5.187 4.752-4.2 5.414.302.203 6.109-1.865 6.427-2.226.318-.361 2.29-2.906 2.29-2.906v1.1h1.782v-3.429l-.256-.142c-.615.136-1.245.21-1.798.246" fill="#2A3236"/></g><mask id="b" maskUnits="userSpaceOnUse" x="20" y="89" width="11" height="8"><path fill-rule="evenodd" clip-rule="evenodd" d="M20.261 89.182h10.656V97H20.26v-7.818z" fill="#fff"/></mask><g mask="url(#b)"><path fill-rule="evenodd" clip-rule="evenodd" d="M22.316 89.629c.951.06 1.848-.042 2.564-.447.48.878 1.095 1.864 1.681 2.39 1.21 1.082 5.187 4.752 4.2 5.414-.302.203-6.109-1.865-6.427-2.226-.318-.361-2.29-2.906-2.29-2.906v1.1H20.26v-3.429l.257-.142c.614.136 1.245.21 1.798.246" fill="#2A3236"/></g><path fill-rule="evenodd" clip-rule="evenodd" d="M16.515 19.981L12.269 19S5 21.339 5 21.41c0 0 3.924 4.847 3.023 9.402L10.403 45l11.814-.205 2.017-14.426s-.257-6.2 2.766-9.299c0 0-1.497-.537-2.22-.759-.721-.222-4.052-1.17-4.052-1.17s-3.919.908-4.213.84" fill="#EEDEC4"/><path fill-rule="evenodd" clip-rule="evenodd" d="M11 22.98l-1-.011.083.062c.306-.012.612-.03.917-.05" fill="#F0E2CC"/><path fill-rule="evenodd" clip-rule="evenodd" d="M23.978 41.485c-.262-.954-.566-1.721-.566-1.721-2.344-3.923-.302-13.443-.302-13.443-.25.047-.505.088-.763.126.058-.458.154-.998.272-1.573l.17.038a.341.341 0 00.4-.212l.462-1.342c.062-.18-.055-.372-.252-.411l-.325-.065c.45-1.822.926-3.449.926-3.449L22.077 19c-.009.815-.275 2.188-.597 3.561l-.322-.065c-.185-.037-.367.077-.402.252l-.274 1.337a.32.32 0 00.255.372l.254.056c-.256.97-.486 1.77-.592 2.135-2.442.16-4.98.024-6.864-.146a93.586 93.586 0 01-.58-2.093l.254-.056a.32.32 0 00.255-.372l-.273-1.337a.338.338 0 00-.403-.252l-.322.065c-.297-1.27-.545-2.534-.588-3.362-.504.186-1.202.274-1.878.512.17.599.56 1.908.872 3.17l-.325.066c-.197.04-.314.23-.251.41l.462 1.342c.054.158.228.25.399.213l.17-.038c.114.554.208 1.076.266 1.523-.63-.079-1.001-.137-1.001-.137s1.397 9.096-.521 13.33L11.035 45l12.461-.208.482-3.307z" fill="#F0E2CC"/><path fill-rule="evenodd" clip-rule="evenodd" d="M26 30c-2.008 1.524-4.109 2.968-6.44 4.012-2.382 1.065-5.874 2.037-7.922-.22-.898-.989-1.667-2.096-2.504-3.138A6.98 6.98 0 019 31.809L11.492 46l12.371-.205 2.113-14.429S25.953 30.831 26 30" fill="#F0E2CC"/><path fill-rule="evenodd" clip-rule="evenodd" d="M23.797 67.948c.104-1.412.17-10.777.254-13.705.084-2.928-.424-9.732-.593-11.254-.17-1.521-.84-3.333-.84-3.333-2.196-3.937-.283-13.49-.283-13.49C17.44 27.154 10.609 26 10.609 26s1.435 10.004-.76 13.94c0 0-.671 1.812-.84 3.334-.17 1.521-.679 8.325-.594 11.254.085 2.928.19 11.52.254 13.705C8.721 69.98 6.424 87.84 6 88.71c0 0 2.754 2.548 8.22.482 0 0 .23-11.474-.067-18.18-.146-3.3.094-5.579.775-8.81l1.341-8.698 1.276 8.425c.676 3.222.916 5.49.769 8.78-.3 6.706-.535 18.483-.535 18.483C23.246 91.258 26 88.71 26 88.71c-.424-.869-2.44-17.585-2.203-20.762" fill="#D1E2EF"/><path fill-rule="evenodd" clip-rule="evenodd" d="M23.797 68.125c.104-1.4.17-10.69.254-13.595.084-2.905-.424-9.654-.593-11.163-.09-.797-.318-1.67-.515-2.321-.175-.583-.325-.986-.325-.986a5.376 5.376 0 01-.188-.374l-.046-.101a6.575 6.575 0 01-.153-.38c-.016-.044-.03-.09-.045-.133a8.037 8.037 0 01-.09-.277l-.056-.194a9.654 9.654 0 01-.179-.766 11.174 11.174 0 01-.052-.275h-.001c-.354-2.04-.272-4.497-.08-6.56-.389.657-.84 1.262-1.397 1.763-1.503 1.351-3.565 2.992-5.602 3.182-1.563.146-2.73-.925-3.67-1.925-.028 1.25-.127 2.506-.334 3.638l-.055.288-.023.103a8.45 8.45 0 01-.063.285l-.026.103a7.094 7.094 0 01-.069.27c-.01.04-.023.078-.034.118-.023.081-.046.163-.071.242l-.044.129c-.024.072-.047.145-.073.216-.018.05-.038.097-.057.146-.023.06-.046.123-.07.182-.026.062-.054.12-.081.18-.02.044-.038.088-.059.13-.048.1-.099.198-.152.292l-.018.05c-.105.29-.668 1.889-.822 3.257-.17 1.51-.678 8.258-.593 11.163.085 2.905.19 11.428.254 13.595C8.721 70.141 6.424 87.86 6 88.721c0 0 2.754 2.527 8.22.477 0 0 .23-11.381-.067-18.033-.146-3.274.094-5.534.775-8.74l1.341-8.628 1.276 8.358c.676 3.195.916 5.445.769 8.709-.3 6.652-.535 18.334-.535 18.334C23.246 91.248 26 88.72 26 88.72c-.424-.862-2.44-17.444-2.203-20.596" fill="#A9D4E6"/><path fill-rule="evenodd" clip-rule="evenodd" d="M19.402 15.025c-1.483.84-3.249.483-4.86-.025-.113 1.34-.607 3.996-1.542 4.68 0 0 .919 1.369 4.29 1.319C20.661 20.949 21 19.8 21 19.8s-1.553-1.451-1.598-4.776" fill="#FFB989"/><path fill-rule="evenodd" clip-rule="evenodd" d="M13 7.931s-1.802-1.547-2.585-.653c-.783.895-.43 4.005.823 4.042C12.49 11.358 13 12 13 12V7.931z" fill="#FFC39A"/><path fill-rule="evenodd" clip-rule="evenodd" d="M11.339 8.962c-.16-.346-.355-.838-.634-.917-.31-.087-.535-.074-.63.279-.124.465-.109 1.195.153 2.17.614 2.292 1.45 1.378 1.772 1.035-.06-.077-.214-1.604-.661-2.567" fill="#F8D6BD"/><path fill-rule="evenodd" clip-rule="evenodd" d="M10 8.49s.744-.86 1.063-.301c.318.56 1.274 2.306.814 2.629-.46.323-1.06.346-.877-1.035.182-1.38-.386-1.584-1-1.293" fill="#EC996B"/><path fill-rule="evenodd" clip-rule="evenodd" d="M20 7.931s1.802-1.547 2.585-.653c.783.895.43 4.005-.823 4.042C20.51 11.358 20 12 20 12V7.931z" fill="#FFC39A"/><path fill-rule="evenodd" clip-rule="evenodd" d="M20.661 8.962c.16-.346.355-.838.634-.917.31-.087.535-.074.63.279.124.465.108 1.195-.153 2.17-.614 2.292-1.45 1.378-1.772 1.035.06-.077.214-1.604.661-2.567" fill="#F8D6BD"/><path fill-rule="evenodd" clip-rule="evenodd" d="M22 8.49s-.744-.86-1.063-.301c-.318.56-1.274 2.306-.814 2.629.46.323 1.06.346.877-1.035-.182-1.38.386-1.584 1-1.293" fill="#EC996B"/><path fill-rule="evenodd" clip-rule="evenodd" d="M17.838 3.128c-.47.024-.94-.012-1.406-.07-1.55-.192-5.048-.146-5.392 4.106-.445 5.478 2.941 11.138 6.123 10.824 0 0 6.123-.089 5.827-10.735 0 0-.182-4.382-5.151-4.125" fill="#FFC39A"/><path fill-rule="evenodd" clip-rule="evenodd" d="M10 19.656s1.649 5.826 1.835 8.344H14s-1.905-6.616-1.93-9l-2.07.656zm13-.055s-1.64 5.87-1.827 8.399H19s1.898-6.605 1.923-9l2.077.601z" fill="#78C3D6"/><path fill-rule="evenodd" clip-rule="evenodd" d="M22.373 9.224s.123 4.346-1.59 5.844c0 0-.407-1.91-1.055-1.947-.431-.024-1.224.175-2.23.183-1.005-.008-1.798-.207-2.229-.183-.648.036-1.054 1.947-1.054 1.947-1.714-1.498-1.557-5.09-1.557-5.09s-.706-.88-.655-.52c.05.361.08.193.278 3.87.196 3.634 3.01 6.604 5.218 6.672 2.207-.068 5.021-3.038 5.217-6.672.198-3.677.23-3.826.281-4.187.051-.36-.624.083-.624.083" fill="#4D4F5C"/><path fill-rule="evenodd" clip-rule="evenodd" d="M17 16.879c-2.52 0-5-3.879-5-3.879.7 2.811 3.08 4.945 5 5 1.92-.055 4.3-2.189 5-5 0 0-2.726 3.879-5 3.879" fill="#4D4F5C"/><path fill-rule="evenodd" clip-rule="evenodd" d="M16.995 8h.01-.01m.029.001l-.023-.002-.025.002a.333.333 0 01.048 0" fill="#F5AF87"/><path fill-rule="evenodd" clip-rule="evenodd" d="M18.439.097c1.58.237 4.932.837 6.178 2.109.371.38.694 4.071-.152 6.385 0 0-.664-.223-1.15.516-.007.01-.013.018-.018.028l-.108.203c-.14.258-.535.163-.537-.13-.003-.97-.09-2.338-.494-3.128-.66-1.29-2.43-2.414-4.515-.773a.288.288 0 01-.297.04c-.584-.267-2.622-1.138-3.457-.724-.937.465-1.327 3.012-1.359 5.098a.283.283 0 01-.284.279h-.005a.283.283 0 01-.271-.196c-.12-.375-.453-1.163-1.16-1.233a.28.28 0 01-.243-.2c-.268-.923-1.287-4.83.313-6.142 1.365-1.119 2.46-.91 2.923-.737a.285.285 0 00.349-.124c.302-.526 1.326-1.714 4.287-1.27" fill="#4D4F5C"/><path fill-rule="evenodd" clip-rule="evenodd" d="M23 19.266L20.678 18l-3.283 2.027-3.991-1.829L12 19.26 15.414 24l1.981-3.186L19.192 24 23 19.266z" fill="#F4E9D8"/><path fill-rule="evenodd" clip-rule="evenodd" d="M22 19.766L20.116 18 17 20.672 13.884 18 12 19.766 15.212 24 17 20.788 18.788 24 22 19.766z" fill="#F8F0E5"/><path fill-rule="evenodd" clip-rule="evenodd" d="M3.56 44.827L2.023 52.32c-.11.532.181 1.063.67 1.227l13.184 4.404c.562.188 1.152-.184 1.267-.797l1.837-9.798c.11-.59-.267-1.158-.827-1.246L4.67 44.011c-.515-.08-1 .277-1.11.816" fill="#D8D8D7"/><path fill-rule="evenodd" clip-rule="evenodd" d="M3.56 44.827L2.023 52.32c-.11.532.182 1.064.67 1.227l13.184 4.404c.562.188 1.152-.184 1.267-.797l1.837-9.798c.11-.59-.267-1.158-.827-1.246L4.67 44.011c-.515-.08-1 .277-1.11.816" fill="#E4E4E3"/><path fill-rule="evenodd" clip-rule="evenodd" d="M11.716 51.576c-1.03-.863-1.616-2.056-2.285-3.184-.74-1.246-1.484-2.548-1.815-3.964l-2.812-.417a1.04 1.04 0 00-1.166.817L2.024 52.32c-.114.532.19 1.064.704 1.227l13.846 4.404c.59.188 1.21-.184 1.33-.797L19 51.588c-2.199 1.047-5.346 1.61-7.284-.012" fill="#E4E4E3"/><path fill-rule="evenodd" clip-rule="evenodd" d="M15 55.963c-.052-.675-.168-.922-1.279-1.52-.946-.348-2.785-2.551-3.059-2.8a24.066 24.066 0 01-2.107-2.13c-.56-.65-.986-1.529-1.622-2.105-1.67-1.516-1.947 1.611-1.931 2.597.015.917-.04 1.863.06 2.776.06.559.286 1.067.475 1.59L14.343 57c.084-.282.682-.7.656-1.037" fill="#E4E4E3"/><path fill-rule="evenodd" clip-rule="evenodd" d="M12 48.5a.5.5 0 11-1 0 .5.5 0 011 0" fill="#fff"/><path fill-rule="evenodd" clip-rule="evenodd" d="M6.005 54S10.4 53.531 11 51.89c0 0-5.19-3.038-4.995 2.11" fill="#D6BD92"/><path fill-rule="evenodd" clip-rule="evenodd" d="M7.781 51.251s-.635 3.345-.733 3.753c-.17.708.067.733 1.366 3.53a.25.25 0 00.281.141c.214-.05.54-.163.67-.408 0 0 .624 1.07 1.012.625.18-.206.38-.483.38-.483s.314.5.688.442c.25-.039.516-.492.624-.878 0 0 .465.385.75.286.151-.052.34-.247.674-.79l-.37-.31s-.62-.081-1.445-1.021c-.372-.424-.273-.855.151-.753.552.132.405.492 1.223 1.114.722.55 1.736.602 1.909.095.284-.832-1.056-1.272-1.434-1.603-.808-.712-1.508-2.22-1.76-2.382-.414-.266-1.348-.713-1.378-1.609l-2.608.251z" fill="#FFC39A"/><path fill-rule="evenodd" clip-rule="evenodd" d="M11.667 55.598c-.826-.798-.845-2.349-.002-3.082-.47-.289-1.147-.74-1.174-1.516l-2.686.26s-.654 3.467-.755 3.89c-.126.525-.034.693.516 1.804.021-.002.04-.008.06-.008 1.231-.036 2.49.227 3.705-.162.214-.068.44-.16.669-.262a5.367 5.367 0 01-.18-.196c-.261-.3-.294-.6-.153-.728" fill="#FFDFCC"/><path fill-rule="evenodd" clip-rule="evenodd" d="M13.12 57.105s-.62-.085-1.445-1.052c-.373-.437-.273-.881.151-.776.553.137.406.506 1.224 1.147.723.566 1.738.62 1.911.099a.687.687 0 00-.039-.546c-.123.505-.472.631-.816.597-.398-.04-.886-.365-1.15-.73-.419-.58-1.065-1.146-1.534-1.14-.118.476-.483 1.166-.92.963-.15.513-.656.722-1.2.489-.15.26-.873.273-1.106-.092 0 0-.72.227-.887-.743-.069-.395.707-3.327.663-4.321l-.198.02s-.635 3.444-.733 3.865c-.17.728.172 1.7 1.367 3.634.064.104.167.174.281.147.214-.051.541-.168.672-.42 0 0 .623 1.1 1.012.642.18-.211.38-.497.38-.497s.314.515.69.455c.249-.04.515-.507.624-.904 0 0 .465.397.75.295.152-.053.39-.017.723-.92l-.42-.212z" fill="#FFC39A"/><path fill-rule="evenodd" clip-rule="evenodd" d="M12.557 57.285s-.269-.036-.687-.285c-.271.187-.623.304-1.055.316-.297.248-.704.408-1.233.408a2.45 2.45 0 01-.307-.02 2.188 2.188 0 01-.695.106 2.14 2.14 0 01-.917-.194 1.867 1.867 0 01-.62.108H7c.167.257.36.535.58.84.068.095.177.158.297.134.226-.047.572-.153.71-.38 0 0 .658.995 1.068.581.19-.191.402-.45.402-.45s.331.466.728.412c.263-.036.544-.459.66-.818 0 0 .49.359.791.267.16-.049.413-.016.764-.832l-.443-.193zM14.926 56c-.116.557-.446.696-.77.658-.345-.04-1.1-.44-1.156-.319.048.05.1.1.158.154.683.625 1.642.685 1.806.109a.873.873 0 00-.038-.602" fill="#FFDFCC"/><path fill-rule="evenodd" clip-rule="evenodd" d="M11.95 58c.018-.062.036-.124.05-.185-.057-.179-.778-1.424-1-1.815-.026.074.626 1.508.95 2m-2.04 0c.018-.062.077-.102.09-.163-.054-.18-.788-1.446-1-1.837-.025.074.6 1.508.91 2m-1.015 0s.089-.095.105-.172c-.068-.229-.736-1.33-.999-1.828-.032.094.51 1.374.894 2" fill="#EAA47C"/><path fill-rule="evenodd" clip-rule="evenodd" d="M14.056 55.145c.287-.43.935.226.943.27 0 0 .036.458-.455.585-.209-.07-.304-.184-.402-.303-.174-.21-.17-.427-.086-.552" fill="#FFD7C0"/><mask id="c" maskUnits="userSpaceOnUse" x="0" y="22" width="12" height="32"><path fill-rule="evenodd" clip-rule="evenodd" d="M0 22.03h11.842v31.873H0V22.03z" fill="#fff"/></mask><g mask="url(#c)"><path fill-rule="evenodd" clip-rule="evenodd" d="M5.308 22.03S-.519 38.756.038 40.63c.556 1.875 5.866 12.315 6.342 13.272 0 0 1.734-2.211 5.462-2.168 0 0-6.39-10.562-6.534-11.02-.142-.459 3.415-8.535 3.495-9.893.08-1.358 1.196-6.457-3.495-8.792" fill="#EEDEC4"/></g><path fill-rule="evenodd" clip-rule="evenodd" d="M8.395 25c-.1 1.947-.167 5.192-1.485 8-2.2 4.681-1.787 6.905-1.91 7.958.046.014.094.027.14.042.133-1.025 3.601-8.84 3.682-10.198.054-.915.561-3.46-.427-5.802M6.692 51.223c-1.13-1.152-1.878-2.32-2.57-3.725-.838-1.703-1.714-3.28-3.101-4.488A.636.636 0 001 43c1.752 3.936 4.829 10.25 5.186 11 0 0 .591-.777 1.814-1.42-.448-.448-.875-.915-1.308-1.357" fill="#F0E2CC"/><path fill-rule="evenodd" clip-rule="evenodd" d="M27.122 21s-4.153 2.781-2.88 9.391c0 0 3.884 6.37 4.285 7.242.402.871-.535 4.002-.535 4.002s3.046 1.086.625 4.365c0 0 6.203-3.854 5.291-7.751-.736-3.147-6.407-16.823-6.786-17.249" fill="#EEDEC4"/><path fill-rule="evenodd" clip-rule="evenodd" d="M30.306 42.218c-.795.142-1.623-.137-2.085-.709-.12.509-.221.863-.221.863s3.052 1.151.626 4.628c0 0 5.047-3.32 5.374-7-.738 1.322-2.138 1.94-3.694 2.218M28.89 39a1.83 1.83 0 00.098-.807 6.55 6.55 0 00-.793-2.38c-.881-1.584-1.957-3.132-2.533-4.842-.598-1.77-.927-3.901-.858-5.971-.686 1.536-1.103 3.658-.544 6.44 0 0 4.157 6.548 4.587 7.443a.84.84 0 01.043.117" fill="#F0E2CC"/><path fill-rule="evenodd" clip-rule="evenodd" d="M23.07 34.45c-.242.076-1.467.422-1.714.491.107-.584.336-.941.336-.941-2.13.71-4.183 1.524-4.61 5.212-.06.44-.09.928-.08 1.475v.005c0 .093-.002.184 0 .28.055 3.557 3.01 4.7 5.523 5.028a8.37 8.37 0 01-.546-1.17c2.088.31 4.04.101 4.04.101 4.574.354 5.87-4.131 4.41-7.48-.6-1.377-2.396-2.344-3.851-2.666-1.619-.358-3.23-.424-3.509-.336" fill="#A9D4E6"/><path fill-rule="evenodd" clip-rule="evenodd" d="M28.746 42.745s-.48.68-.958.572c-.48-.107-.189-.376-1.027-1.02-.839-.644-.696-1.861-.844-2.147-.149-.287-1.124-.305-.884 1.27 0 0 .136.77.547 1.253.41.483.371.835-.063.847-.53.014-.351-.089-1.85.34-1.056.304-1.604.103-1.663.084-.505-.162-1.54-1.772-2.241-1.217-.762.602 1.728 2.487 2.002 2.487.274 0 2.361-.268 2.361-.268s-1.584.295-2.314.295-1.991-1.925-2.63-1.578c-.736.4.952 2.339 1.796 2.53.844.19 2.808-.189 3.14-.273 0 0-2.357.405-2.973.337-.76-.085-1.673-1.292-1.776-1.28-.068.008-.483.534 0 1.192.226.306.71.662 1.406.97a.86.86 0 00.334.072c.488.006 1.613.063 2.871-.353 0 0-1.347.436-2.818.374-.448-.019-1.204-.454-1.222-.467-.072-.053-.224.71.631 1.043.396.155 1.042.267 2.05.131 1.51-.202 1.745-.649 2.053-.744.308-.096 1.779-.721 2.036-.742.256-.022 2.823-.34 3.2-1.61.376-1.27-.497-1.848-1.164-2.099" fill="#FFC39A"/><path fill-rule="evenodd" clip-rule="evenodd" d="M27.943 43s-.403.65-.807.547a.372.372 0 01-.224-.134c.102.932-.018 1.709-.376 2.524-.066.15-1.453.921-1.536 1.063.17-.024.778-.455 1.364-.507 1.062-.094 2.373-.775 2.56-1.49.317-1.212-.419-1.764-.98-2.003" fill="#FFDFCC"/><path fill-rule="evenodd" clip-rule="evenodd" d="M24 44.618c-.674.085-1.753.237-2.304.227-.652-.012-1.655-.812-1.696-.845.47.563.916.842 1.468.967.735.166 2.532-.349 2.532-.349m-1 2.009c-.666.09-1.802.215-2.347.204-.645-.012-1.613-.795-1.653-.831.465.596.905.831 1.452.963.727.176 2.548-.336 2.548-.336" fill="#EAA47C"/><path fill-rule="evenodd" clip-rule="evenodd" d="M23 46.833a8.393 8.393 0 01-1.776.227c-.755.024-1.195-.24-1.224-.27.422.321.752.379 1.16.414.69.06 1.84-.371 1.84-.371" fill="#EAA47C"/><path fill-rule="evenodd" clip-rule="evenodd" d="M20.865 44.95A1.57 1.57 0 0121 43.828c-.56-.412-1.302-1.079-1.85-.733-.637.402.909 1.49 1.69 1.904l.025-.05" fill="#FFDFCC"/><path fill-rule="evenodd" clip-rule="evenodd" d="M20.91 46.786c-.026-.38.001-.767.09-1.119-.612-.527-1.405-1.946-1.847-1.619-.621.46.805 2.691 1.518 2.91.062.02.134.032.21.042.008-.072.017-.143.03-.214" fill="#FFDFCC"/><path fill-rule="evenodd" clip-rule="evenodd" d="M20.94 46.148l-.071-.004c-.708-.076-1.558-1.154-1.654-1.144-.063.007-.45.478 0 1.066.21.274.66.592 1.31.868a.823.823 0 00.311.064L21 47a2.087 2.087 0 01-.06-.852m-.118 1.352c-.02-.039-.042-.077-.059-.116-.055 0-.107.002-.162 0-.56-.015-1.506-.371-1.528-.382-.09-.043-.28.581.79.854.272.07.65.124 1.137.144a1.409 1.409 0 01-.178-.5" fill="#FFDFCC"/><path fill-rule="evenodd" clip-rule="evenodd" d="M19.9 44.298a.235.235 0 01.082.284c-.068.164-.212.385-.502.418-.067.008-.812-.676-.303-.979.154-.092.522.136.723.277m.1 1.264s-.167.466-.654.437c-.072-.005-.688-.785-.082-.997.115-.04.736.56.736.56m-.94 1.441c-.307.619.672 1.05.73.992a.712.712 0 00.207-.585c-.325-.076-.918-.448-.938-.407m.935-3.507s.102.414-.54.504c-.07.01-.795-.665-.256-.966.338-.188.796.462.796.462m5.611-3.463c-.818-.234-.6.842-.512.876.565.226.907-.04.907-.04s0-.006-.003-.015c-.15-.224-.154-.753-.392-.82" fill="#FFD7C0"/><path fill-rule="evenodd" clip-rule="evenodd" d="M33.9 38.463a11.736 11.736 0 00-.117-.463h-3.357a4.521 4.521 0 01-.364 2.116c-.45 1.05-1.693 2.459-2.062 2.645.506.232 1.842 1.058.37 4.239 0 0 6.51-4.195 5.53-8.537" fill="#EEDEC4"/></svg>