<svg width="37" height="97" fill="none" xmlns="http://www.w3.org/2000/svg"><path fill-rule="evenodd" clip-rule="evenodd" d="M7.61 39.697s-1.103-2.12-3-1.217c-1.898.903-2.097 2.462-.347 3.61 1.751 1.149 4.472-.828 3.347-2.393" fill="#6F4325"/><path fill-rule="evenodd" clip-rule="evenodd" d="M16.04 94.24h2.609v-4.36h-3.856c-1.108 3.118-5.251 3.282-5.99 3.447-.738.163 0 1.764 0 1.764l5.292-.329 1.887-1.969.058 1.446zm9.378-4.441v4.256s1.373-.038 1.579.318c.157.271 1.559 2.43 2.646 2.584.832.118 2.673.082 2.181-1.292s-3.53-5.702-3.53-5.702l-2.877-.164z" fill="#2A3236"/><path fill-rule="evenodd" clip-rule="evenodd" d="M14.465 46.363s-2.194 4.014-2.289 9.018c-.118 6.265 1.027 15.025 1.335 16.101.095.334.297 2.318.256 5.025-.019 1.27-.472 13.343-.718 14.204 0 0 2.923 1.108 6.461 0 0 0 .028-12.735.01-13.444-.085-3.285-.868-5.968-.902-6.913-.04-1.148-.204-16.231.154-16.716 0 0 3.648 17.714 3.938 18.743.189.673.596 4.034.677 5.624.213 4.167.718 13.199.718 13.199s5.21.574 6.727-.575c0 0-1.344-7.7-1.919-11.191-.319-1.934-1.711-10.01-1.711-10.655 0-.328-.246-7.657-.841-13.73-.423-4.314-1.65-7.75-2.851-8.69 0 0-7.753.355-9.045 0" fill="#A9D4E6"/><path fill-rule="evenodd" clip-rule="evenodd" d="M21.902 16.246c-1.726.98-3.831 2.775-5.82 2.658-.082 1.028-.252 2.624-.555 3.23-.461.922-1.477 1.537-1.477 1.537s2.03 3.323 4.923 2.246c2.892-1.077 3.907-2.584 4.092-2.769.17-.169-1.396-4.016-1.163-6.902" fill="#FFB481"/><path fill-rule="evenodd" clip-rule="evenodd" d="M13.788 23.876l2.181-1.107 2.668-.128 4.248-.368 2.204 2.219-7.003 12.799s-5.057-7.425-4.298-13.415" fill="#E6D7B6"/><path fill-rule="evenodd" clip-rule="evenodd" d="M16.721 23.425l.957 1.559-1.709 5.866 1.71 3.651 1.582-3.446-.981-5.989 1.427-2.072-1.304-1.307-1.682 1.738z" fill="#32333A"/><path fill-rule="evenodd" clip-rule="evenodd" d="M22.193 19.561l-3.79 2.126 1.65 3.046 3.025-2.46-.885-2.712zm-5.541 5.056l1.75-2.93-2.662-.35-1.39 2.125 2.303 1.155z" fill="#F8F8F6"/><path fill-rule="evenodd" clip-rule="evenodd" d="M19.605 6.415c-1.866-.258-4.098.72-4.935 2.407-.335.676-.65 1.447-.79 2.174-.37 1.907-.515 2.916-.818 4.184-.286 1.196.63 5.107 1.737 5.292 1.108.184 5.9-.646 6.268-1.354.37-.708.635-2.971.635-2.971s1.886.479 2.624-1.367c.739-1.846-.307-2.83-2.123-1.446 0 0 2.031-4.154.247-5.723-.774-.68-1.815-1.054-2.845-1.196" fill="#FFC39A"/><path fill-rule="evenodd" clip-rule="evenodd" d="M22.193 15.947c-.09-.483-.2-.568-.25-.9.15-.503.317-.992.498-1.39.375-.828.753-.834 1.24-.776 1.148.138.574 3.435-1.488 3.066m2.847-9.75c-1.938-2.432-11.052-.478-10.474 2.84 0 0 1.086.636 2.357.605.87-.021 3.783-.99 4.918-.2.477.332.426 1.133.386 1.634-.075.913-.31 1.814-.566 2.69-.308 1.057-.665 2.1-1.13 3.099-.282-.366-.7-.871-1.363-1.167-.71-.316-1.41.06-3.112.2-.488.04-1.147-.03-1.814-.28-.418-.156-1.22.114-1.233.122-.216 1.338.617 5.752 1.695 5.932 1.108.184 5.9-1.37 6.269-2.078.207-.396.564-1.502.84-2.393.647.119 2.724.39 3.19-.908.554-1.544 1.976-7.666.037-10.097" fill="#76432C"/><path fill-rule="evenodd" clip-rule="evenodd" d="M14.767 20.133c-.43-.081-1.306-1.358-1.306-1.358.318 1.287.806 2.459 1.34 2.548 1.064.177 5.663-1.314 6.017-1.994.183-.35.487-1.275.74-2.087-1.094 1.83-4.644 3.297-6.79 2.891" fill="#754F39"/><path fill-rule="evenodd" clip-rule="evenodd" d="M8.43 40.834l-2.62-1.902-2.667 1.374s1.282 1.6 3.302 2.235c2.02.636 2.54-1.276 1.986-1.707" fill="#F6AE77"/><path fill-rule="evenodd" clip-rule="evenodd" d="M10.65 25.21l-.349.696a14.91 14.91 0 00-1.347 3.976 9.39 9.39 0 00-.15 1.169l.123 8.762-2.462-1.035s1.786 1.24.153 2.538c-1.573 1.25-3.37.661-3.554-1.246 0 0-.219 1.754.725 2.307 1.625.955 9.037 3.85 9.55 3.85.511 0 .993-.769.347-3.538-.646-2.769.407-6.711-3.037-17.48" fill="#D1E2EF"/><path fill-rule="evenodd" clip-rule="evenodd" d="M12.626 33.803c.11.356.223.71.344 1.059-.26-1.809-.69-3.992-1.433-6.679-.066.507-.083 1.007.016 1.48.29 1.386.657 2.787 1.073 4.14" fill="#9B6E4D"/><path fill-rule="evenodd" clip-rule="evenodd" d="M.02 34.205s12.1 7.598 14.838 10.623l-.885-6.447s-7.333-5.614-9.327-8.17l-.01.005c.452 1.726-1.179 4.636-4.218 4.069" fill="#F8ECD1"/><path fill-rule="evenodd" clip-rule="evenodd" d="M3.116 33.765c1.17.544 2.262 1.3 3.282 2.062.723.54 1.388 1.156 2.116 1.689.704.515 1.473.93 2.15 1.486.716.588 1.26 1.299 1.782 2.064.166.243.575.95.796 1.03.547.198 1.025.52 1.369.936l-.638-4.65s-7.333-5.615-9.327-8.17l-.01.004c.29 1.106-.277 2.697-1.52 3.549" fill="#F8ECD1"/><path fill-rule="evenodd" clip-rule="evenodd" d="M13.973 38.381s-7.333-5.614-9.327-8.17l-.01.005c.056.211.08.44.073.678.911 1.723 1.254 3.28.792 4.284.305.213.604.43.897.649.723.539 1.388 1.156 2.116 1.689.704.515 1.473.93 2.15 1.486.716.587 1.26 1.3 1.782 2.064.166.243.575.95.796 1.03.547.198 1.025.52 1.369.935l-.639-4.65z" fill="#F8ECD1"/><path fill-rule="evenodd" clip-rule="evenodd" d="M1.214 34.65s9.98 6.263 13.676 9.626c-.021-.218-.04-.434-.073-.637-.147-.904-.182-1.15-.358-2.048-.003-.01-4.102-1.799-6.384-3.53a3.187 3.187 0 01-.321-.12c-1.728-.769-3.786-2.36-4.47-3.661-1.144.606-2.07.367-2.07.37" fill="#F5E4BD"/><path fill-rule="evenodd" clip-rule="evenodd" d="M1.194 26.933s10.133 10.26 12.147 13.877l.514-6.596s-5.926-7.22-7.318-10.204l-.01.002c.07 1.814-2.133 4.336-4.964 3.09" fill="#F8ECD1"/><path fill-rule="evenodd" clip-rule="evenodd" d="M13.755 35.988c-1.495-1.995-6.11-8.19-7.103-9.92a3.84 3.84 0 01-.52.745c1.12 1.623 5.745 7.69 7.608 9.992a3.084 3.084 0 01.015-.817" fill="#FCF6E8"/><path fill-rule="evenodd" clip-rule="evenodd" d="M2.26 27.642s8.356 8.46 11.23 12.628c.026-.222.054-.44.065-.649.05-.93.069-1.183.088-2.113 0-.012-4.422-3.322-5.98-5.643-.785-1.168-1.644-2.476-2.009-4.673-1.616 1.094-3.394.447-3.395.45m6.845 10.275s.26-.2.223-.493c-.056-.43-.33-.458-.33-.458s.148-.296.06-.557c-.165-.491-.682-.434-.682-.434.292-.285.053-1.049-.507-1.116-1.218-.144-3.067-.13-3.799.404-.155.114-.372.095-.557.144 1.54.984 3.448 2.227 5.313 3.496.463-.033.584-.76.279-.986" fill="#F8ECD1"/><path fill-rule="evenodd" clip-rule="evenodd" d="M15.636 43.559c-.021-.221-.04-.44-.075-.645-.152-.915-.188-1.165-.37-2.073l-.05-.023-.453-3.224-.566-.43.008-.33-.044-.033.062-.764.082.098a2.943 2.943 0 01.015-.814l-.035-.046.14-1.72s-1.98-2.312-3.958-4.855c-.248 1.094.154 2.334-.228 3.362-1.299 3.494-.25 6.365-.348 7.52 1.963 1.402 4.948 3.627 5.787 4.535l-.094-.67.127.112" fill="#EEE3D7"/><path fill-rule="evenodd" clip-rule="evenodd" d="M15.471 22.62l-4.322 1.974s.821 6.022.821 7.083c0 1.025-.438 4.195 1.335 10.96.132.504.143 1.034.031 1.544-.437 1.985-1.57 7.124-1.817 8.156 0 0 6.83 1.531 7.383-.612.554-2.144-.587-16.21-.724-19.925 0 0-2.03-5.267-2.707-9.18" fill="#D1E2EF"/><path fill-rule="evenodd" clip-rule="evenodd" d="M15.471 22.62s-1.105.298-1.51.715-.965 3.31-.965 3.31l1.855.674-1.025 1.592s4.04 7.252 4.45 8.28v-5.543s-2.668-8.337-2.805-9.027" fill="#A9D4E6"/><path fill-rule="evenodd" clip-rule="evenodd" d="M28.01 51.419s-7.161 2.45-8.473.49c-1.311-1.96-1.066-9.085-1.199-12.76-.133-3.674.086-7.604.086-7.604s4.786-7.472 4.94-9.83l5.168 1.684s-1.794 3.42-.85 9.708c0 0-2.257 8.778-2.093 10.656.164 1.878 2.42 7.656 2.42 7.656" fill="#D1E2EF"/><path fill-rule="evenodd" clip-rule="evenodd" d="M2.248 36.74c.061-.632 1.292-1.51 1.395-1.53.102-.021 1.825 1.837 1.825 1.837s2.4 1.776 2.03 2.388c-.369.613-1.665 1.467-2.973 1.102-1.052-.292-2.307-3.492-2.277-3.797" fill="#FFB989"/><path fill-rule="evenodd" clip-rule="evenodd" d="M2.248 36.74c-.03.305 1.225 3.505 2.277 3.797.582.163 1.16.083 1.657-.109-.903-.811-1.11-2.248-.586-3.284-.08-.062-.128-.097-.128-.097s-1.723-1.858-1.825-1.838c-.103.02-1.334.899-1.395 1.531" fill="#FFDFCC"/><path fill-rule="evenodd" clip-rule="evenodd" d="M23.364 21.715s1.91.453 2.34.763c0 0-1.016 3.218-1.17 3.494-.155.275-2.462.949-2.462.949l1.283 1.868s-4.413 6.915-5.079 8.403l.062-5.64c.319-1.048 4.865-9.63 5.026-9.837" fill="#A9D4E6"/><path fill-rule="evenodd" clip-rule="evenodd" d="M25.612 49.398s-3.32-2.389-2.348-5.39c0 0 4.606.694 2.348 5.39" fill="#6F4325"/><path fill-rule="evenodd" clip-rule="evenodd" d="M11.854 41.169s3.439 8.693 3.597 10.518c0 0 4.286.782 8.827-1.652 0 0-3.035-7.714-3.035-10.105 0 0-5.174 1.5-9.388 1.239" fill="#D6D6D6"/><path fill-rule="evenodd" clip-rule="evenodd" d="M11.742 41.423s3.438 8.693 3.596 10.518c0 0 4.286.783 8.827-1.651 0 0-3.035-7.715-3.035-10.105 0 0-5.174 1.5-9.388 1.238" fill="#32333A"/><path fill-rule="evenodd" clip-rule="evenodd" d="M21.957 43.998c-.847-.054-1.658.153-2.507.187-.118.005-1.937 1.307-2.245 1.621-.625.935.669 1.172.669 1.172-.028.112-.242.285-.409.59-.345.77.911.928.898.917-.013-.011-.275.92 1.226.694 0 0 .181.489.588.51.866.113 3.398-.818 3.433-.86a81.365 81.365 0 01-1.653-4.83" fill="#545454"/><path fill-rule="evenodd" clip-rule="evenodd" d="M22.674 47.59c-.556.022-1.104-.05-1.657-.107.847.086-.402.022-.476.017-.24-.011-.576.47-.815.443-1.356-.128-1.88.089-3.111-.516-.99-.485-2.663-2.243-3.463-3.142.953 2.516 2.32 6.274 2.415 7.368 0 0 3.97.725 8.177-1.53 0 0-.427-1.087-.948-2.544-.04.004-.082.01-.122.011" fill="#484848"/><path fill-rule="evenodd" clip-rule="evenodd" d="M14.692 41.561a33.917 33.917 0 00-.544-1.406.287.287 0 01.235-.399c.789-.08 2.51-.273 3.438-.512a.286.286 0 01.353.223c.073.373.205.998.352 1.4a.287.287 0 01-.212.38l-.007.002a.29.29 0 01-.338-.207l-.232-.859a.289.289 0 00-.322-.21c-.477.072-1.507.223-2.098.278a.287.287 0 00-.253.353l.189.79a.288.288 0 01-.225.349l-.007.001a.29.29 0 01-.329-.183" fill="#32333A"/><path fill-rule="evenodd" clip-rule="evenodd" d="M20.065 38.251c0 .333-.213.602-.474.602-.262 0-.474-.27-.474-.602 0-.333.212-.602.474-.602.261 0 .474.27.474.602" fill="#956643"/><path fill-rule="evenodd" clip-rule="evenodd" d="M23.268 13.199c.147-.214.325-.517.58-.566.284-.054.49-.045.576.172.114.287.1.737-.14 1.338-.561 1.414-1.326.85-1.622.639.054-.048.196-.99.606-1.583" fill="#F8D6BD"/><path fill-rule="evenodd" clip-rule="evenodd" d="M24.296 13.184s-.464-.51-.663-.179c-.2.332-.796 1.366-.508 1.557.287.192.66.205.547-.612-.114-.818.24-.939.624-.766" fill="#EC996B"/><path fill-rule="evenodd" clip-rule="evenodd" d="M25.929 45.183s-2.764-1.074-3.905-.89c-1.141.184-1.906-.093-2.331.224-.598.446-2.34 1.507-2.245 1.64.096.134.314 1.175 2.554-.423.555-.396 1.82-.17 1.82-.17s-.67-.113-1.304.173c-.633.287-2.782 2.005-2.782 2.139 0 .134.385.95 2.662-.79 0 0 .743-.49 1.602-.51 0 0-1.554.624-1.631.68-.077.058-1.597 1.155-1.693 1.327-.096.172.544.949 2.629-.63 0 0 .796-.384 1.256-.442 0 0-1.05.405-1.244.527-.195.122-1.204.785-1.205.835-.005.256.45.662 1.802-.083s1.472-.647 2.413-.656c.94-.01 1.046-.226 1.602.124 0 0 1.41-1.351 0-3.075" fill="#FFC39A"/><path fill-rule="evenodd" clip-rule="evenodd" d="M18.676 48.583c.079-.142 1.113-.903 1.524-1.203.052.382.26.733.632.905-1.707 1.12-2.244.456-2.156.298m2.595-.516a1.2 1.2 0 00.406.841c-1.164.569-1.57.205-1.565-.035.001-.047.889-.633 1.16-.806m-1.731-1.696c.015.385.185.755.513.967-1.971 1.403-2.318.664-2.318.538 0-.09.975-.899 1.805-1.505m-.446-1.437c.002.418.184.827.554 1.042-1.908 1.267-2.11.307-2.2.181-.072-.098.93-.687 1.646-1.223" fill="#FFDFCC"/><path fill-rule="evenodd" clip-rule="evenodd" d="M18.404 47.37s.383.158.295.518c-.013.05-.654.393-.805-.045-.029-.085.51-.474.51-.474m.908.777s.347.164.285.503c-.01.05-.665.403-.78-.043-.021-.085.495-.46.495-.46m1.371.341s.315.15.259.456c-.009.046-.667.308-.728-.068-.012-.078.47-.388.47-.388m-2.499-2.817s.507.032.405.65c-.01.059-.756.355-.983-.114-.044-.092.578-.536.578-.536" fill="#FFD7C0"/><path fill-rule="evenodd" clip-rule="evenodd" d="M25.716 45.349s-2.097-.727-2.271-.66c.851.637 1.377 2.253 1.09 3.227.624-.033.744-.16 1.181.116 0 0 1.23-1.18 0-2.683" fill="#FFDFCC"/><path fill-rule="evenodd" clip-rule="evenodd" d="M23.264 44.008s2.995 1.592 2.348 5.39c0 0 11.597-6.707 11.166-9.034-.43-2.327-5.076-15.005-8.245-16.964 0 0-3.139 1.102-1.139 9.492 0 0 3.477 6.247 3.785 6.951.12.277-7.915 4.165-7.915 4.165" fill="#D1E2EF"/><path fill-rule="evenodd" clip-rule="evenodd" d="M4.823 37.567a1.49 1.49 0 01.664-.264c.392-.052.974-.141 1.094-.23.174-.13 2.168.323 2.172-.618a.295.295 0 00-.2-.273c-.31-.11-1.067-.287-2.572-.166-2.108.168-1.846.26-1.985.321-.138.061-1.343.974-1.233 1.168.105.186.18 1.389 2.06.062" fill="#FFC39A"/><path fill-rule="evenodd" clip-rule="evenodd" d="M7.268 35.983a10.83 10.83 0 00-1.287.033c-2.108.168-1.846.26-1.985.321-.119.053-1.026.735-1.207 1.048.022.052.1.276.12.329.186-.315 1.086-.992 1.205-1.044.138-.062-.18-.326 1.928-.495.49-.04.896-.045 1.238-.034-.005-.053-.01-.105-.012-.158" fill="#ECAE8B"/><path fill-rule="evenodd" clip-rule="evenodd" d="M4.246 36.218c-.21.051-.18.089-.25.12-.138.06-1.344.973-1.233 1.167.105.185.18 1.389 2.06.062.022-.016.047-.03.07-.044a2.722 2.722 0 01-.647-1.305" fill="#FFDFCC"/><path fill-rule="evenodd" clip-rule="evenodd" d="M7.937 36.169s-.342.24-.083.665c.027.045.746.095.78-.367.017-.228-.697-.298-.697-.298" fill="#FFD7C0"/><path fill-rule="evenodd" clip-rule="evenodd" d="M5.672 38.251s.904-.3 1.13-.33c.214-.03 2.37.148 2.194-.702a.233.233 0 00-.162-.176c-.339-.102-1.385-.356-2.723-.093-1.638.321-2.53.811-2.545 1.133-.016.321-.004 1.498 2.106.168" fill="#FFC39A"/><path fill-rule="evenodd" clip-rule="evenodd" d="M7.432 36.84a6 6 0 00-1.32.11c-1.639.321-2.531.811-2.546 1.133-.002.04-.002.094 0 .154.021.028.04.058.06.088l.001-.097c.016-.321.908-.811 2.546-1.133a5.986 5.986 0 011.315-.109 2.763 2.763 0 01-.056-.146" fill="#ECAE8B"/><path fill-rule="evenodd" clip-rule="evenodd" d="M4.87 37.267c-.842.277-1.293.588-1.304.816-.015.31-.004 1.413 1.887.301a2.695 2.695 0 01-.583-1.117" fill="#FFDFCC"/><path fill-rule="evenodd" clip-rule="evenodd" d="M8.328 37.041a.158.158 0 00-.146.05c-.076.087-.171.267-.02.542.023.043.704.094.703-.35 0-.138-.372-.214-.537-.242" fill="#FFD7C0"/><path fill-rule="evenodd" clip-rule="evenodd" d="M6.231 39.178a.971.971 0 01.287-.121c.293-.07.913-.217 1.02-.236.124-.022 1.175.023 1.379-.538a.234.234 0 00-.168-.306c-.26-.06-.904-.19-2.077-.03 0 0-1.046.238-1.295.379-.25.14-1.134.538-1.073.767.06.224.135 1.193 1.927.085" fill="#FFC39A"/><path fill-rule="evenodd" clip-rule="evenodd" d="M5.374 38.327c-.252.141-1.131.537-1.07.766.056.21.126 1.075 1.614.267a2.693 2.693 0 01-.544-1.033" fill="#FFDFCC"/><path fill-rule="evenodd" clip-rule="evenodd" d="M7.797 37.873a7.401 7.401 0 00-1.125.075s-1.046.237-1.295.377c-.25.14-1.135.538-1.073.768l.017.07c.022.041.044.081.064.123l-.005-.022c-.062-.23.823-.628 1.073-.768.249-.14 1.295-.378 1.295-.378a7.49 7.49 0 011.095-.075 2.674 2.674 0 01-.046-.17" fill="#ECAE8B"/><path fill-rule="evenodd" clip-rule="evenodd" d="M8.15 38.041s-.178.298.04.522c.032.033.726-.112.567-.459-.033-.072-.606-.063-.606-.063" fill="#FFD7C0"/><path fill-rule="evenodd" clip-rule="evenodd" d="M2.248 36.74c.118.455.367.916.72.61.259-.224.594-.462.96-.77.156-.131.38-.297.578-.347a52.876 52.876 0 001.306-.34c.284-.084 2.548.44 2.391-.53a.357.357 0 00-.27-.296 9.546 9.546 0 00-4.08.025.96.96 0 00-.387.19c-.395.318-1.311 1.101-1.218 1.458" fill="#FFC39A"/><path fill-rule="evenodd" clip-rule="evenodd" d="M2.398 36.752c.156-.395.858-.994 1.191-1.263a.961.961 0 01.387-.189 9.517 9.517 0 012.867-.198 3.087 3.087 0 01-.007-.198 9.52 9.52 0 00-2.983.188.96.96 0 00-.387.19c-.349.28-1.102.923-1.21 1.316" fill="#ECAE8B"/><path fill-rule="evenodd" clip-rule="evenodd" d="M2.248 36.74c.118.455.367.916.72.61.259-.224.712-.57 1.015-.826.072-.06.18-.132.273-.181a2.852 2.852 0 01-.506-1.214.968.968 0 00-.284.153c-.395.318-1.311 1.101-1.218 1.458" fill="#FFDFCC"/><path fill-rule="evenodd" clip-rule="evenodd" d="M7.395 35.037s-.473.187-.184.743c.027.053.899.11.9-.41 0-.248-.716-.333-.716-.333" fill="#FFD7C0"/><path fill-rule="evenodd" clip-rule="evenodd" d="M22.456.177c-6.068-.945-7.125 3.674-8.152 5.892 0 0-2.443-.095-2.226 1.587.245 1.911 6.249.937 9.15.713 2.9-.224 6.616 3.336 7.336.426 0 0 .013-.748-1.053-1.069 0 0 1.576-6.516-5.055-7.549" fill="#D1E2EF"/><path fill-rule="evenodd" clip-rule="evenodd" d="M17.362 11.005s-.628.958-1.332 1.867c-.638.823-1.563 1.721-1.465 1.91.205.398 2.494.832 2.242-.454-.3-1.528.891-1.19.555-3.323" fill="#FFC39A"/></svg>