<svg version="1.0" xmlns="http://www.w3.org/2000/svg" width="1749.333" height="1749.333" viewBox="0 0 1312 1312"><path d="M362.1 284.7c1.2 2.1 4.1 7.1 6.5 11 2.4 4 4.4 7.5 4.4 7.9 0 .3.8 1.8 1.9 3.2 1 1.5 2.8 4.3 3.9 6.2 6.7 11.9 24.7 42.6 25.2 43 .3.3 1.1 1.6 1.7 3 .7 1.4 2.4 4.3 3.7 6.5 1.4 2.2 3.1 5.1 3.9 6.5 2.2 4 5 8.8 10.7 18.5 3 4.9 5.9 9.9 6.5 11 1.6 3 12.3 21.1 16.7 28.2 2.1 3.4 3.8 6.7 3.8 7.3 0 .5.5 1 1 1 .6 0 1 .6 1 1.3 0 .7 1.1 2.8 2.3 4.7 1.3 1.9 3.5 5.6 4.9 8.1 4.4 7.9 5.3 9.4 5.8 9.9.8.8 3 4.4 3.9 6.5.5 1.2 3.4 6.3 6.5 11.3 3.1 5.1 5.6 9.7 5.6 10.2 0 .6.4 1 .9 1s1.1.8 1.4 1.7c.6 1.8 4.8 9.4 5.7 10.3.3.3 1.6 2.5 2.9 5 1.3 2.5 2.9 5.2 3.5 6 1.1 1.6 2.1 3.1 6.4 10.9 1.3 2.5 3.2 5.7 4.2 7.1 1.8 2.6 11.1 18.6 14.5 24.8 1.1 2.1 2.3 3.8 2.8 4 .4.2.7.7.7 1.1 0 .7 13 23.3 21.1 36.6 1 1.6 2.7 4.7 3.8 6.7 1.1 2.1 3.1 5.4 4.4 7.5 1.3 2.1 2.6 4.2 2.7 4.8.2.5 2.3 4 4.7 7.7 2.4 3.6 4.3 6.9 4.3 7.2 0 .5 9.5 16.8 12 20.6.6.8 1.6 2.6 2.2 4 .7 1.4 1.5 2.7 1.8 3 .5.5 1.6 2.4 5.7 9.9 1.4 2.5 3.2 5.3 3.9 6.2.8.8 1.4 1.9 1.4 2.2 0 .4 1.8 3.6 4 7.2s4 7 4 7.5c0 .6.5 1 1 1 .6 0 1 .4 1 .9 0 1.2 21.3 37.5 22.2 37.9.4.2.8.9.8 1.5 0 .7 1.8 4 4 7.5 2.2 3.4 4 6.5 4 6.7 0 .2 2.9 5.2 6.4 11.1 6.4 10.6 6.5 10.7 7.7 8.1.7-1.5 1.6-2.7 2.1-2.7.4 0 .8-.4.8-1 0-.5 2.3-4.7 5-9.4 2.8-4.7 5-8.9 5-9.5 0-.6.4-1.1.8-1.1.5 0 1.7-1.8 2.8-4 1-2.2 2.2-4 2.7-4 .4 0 .7-.9.7-1.9 0-1.1.4-2.1.8-2.3.5-.2 2-2.3 3.4-4.8s6.8-11.7 12-20.5 9.7-16.7 10.1-17.5c.4-.8 1.7-3.1 3-5.1 2-3.4 17.9-30.1 22-37.2 1.1-1.8 2.9-5 4-7.2 1.2-2.2 2.5-4.2 2.8-4.5.3-.3 1.7-2.5 3-5 4.1-7.2 6.6-11.6 9.1-15.7 1.3-2.1 3.2-5.5 4.3-7.6 1.1-2 2.3-3.7 2.8-3.7.4 0 .6-.4.3-.9s.1-1.4.9-2.1c.8-.7 1.5-1.9 1.5-2.6 0-.8.5-1.4 1-1.4.6 0 1-.4 1-.9 0-.7 2.9-6.1 6.5-11.9.6-.9 2.1-3.5 3.3-5.7 1.2-2.2 3.2-5.7 4.4-7.7 3-5 30.7-52.1 33.3-56.7 1.2-2 3.6-6.2 5.5-9.4s4.9-8.3 6.5-11.3c1.7-3 3.6-5.9 4.3-6.6.7-.7 1.2-1.6 1.2-2 0-.5 1.1-2.7 2.6-4.9 1.4-2.2 3.3-5.5 4.4-7.3 1-1.8 7.3-12.7 14.1-24.2 6.7-11.5 12.8-21.9 13.3-23.1.6-1.3 1.4-2.3 1.9-2.3.4 0 .7-.4.7-1 0-.5 2.7-5.5 6-11.1 3.3-5.5 6-10.5 6-11s.5-.9 1-.9c.6 0 1-.4 1-.9 0-.8 5.8-11 16.1-28.1 1.1-1.9 4.5-7.8 7.6-13 16.3-28.1 22.3-38.2 25.1-42.5.6-1.1 1.6-2.9 2.1-4s3.2-5.7 6-10.2c2.8-4.6 5.1-8.5 5.1-8.8 0-.3 1.1-2.3 2.5-4.3s2.5-4 2.5-4.4c0-.5-128.9-.8-286.5-.8H360l2.1 3.7zm-76.4 258.5c-.2.7-.5 1.7-.5 2.2 0 .5-.4 1.2-.9 1.5-1.1.7-14.4 23.1-16.4 27.3-.7 1.6-1.6 2.8-2.1 2.8-.4 0-.8.5-.8 1 0 .9-8.2 15.4-13 23-.5.8-2.2 3.7-3.8 6.5-3.3 5.8-12.6 21.6-15.3 26-1 1.6-2.4 4.1-3.2 5.5-.7 1.4-5.8 10.1-11.3 19.5-5.5 9.3-10.7 18.1-11.5 19.5-.8 1.4-1.6 2.7-1.9 3-.3.3-1.4 2.3-2.5 4.5s-2.2 4.2-2.5 4.5c-.5.4-11.3 18.8-14.5 24.5-.6 1.1-2.6 4.6-4.5 7.8-4.2 7.1-3.9 6.5-12.4 21.2-3.9 6.6-7.4 12.1-7.8 12.3-.4.2-.8.9-.8 1.6 0 .8-.9 2.5-2 3.9s-2 3.2-2 4c0 .9-.4 1.7-.9 1.9-.7.2-14.6 23.4-20.1 33.6-.8 1.5-1.8 2.8-2.2 3-.5.2-.8.8-.8 1.3 0 .9-10.1 18.3-15.6 27.1-1.3 2.1-2.4 4-2.4 4.3 0 .3-1.7 3.4-3.8 6.8-8.3 13.4-18.2 30.6-18.2 31.6 0 .5-.6 1.4-1.3 1.8-.7.4-1.8 1.9-2.5 3.3-1.6 3.4-4.8 9-16.2 28-.5.8-3.9 6.7-7.6 13-3.7 6.3-7.4 12.6-8.2 14-.9 1.4-1.4 2.6-1.1 2.6.2.1-.3 1-1.2 2-.9 1.1-3.1 4.6-4.9 7.9-1.8 3.3-3.6 6.2-3.9 6.5-.7.5-2.2 3.1-5.6 9.7-1.3 2.3-3.2 5.5-4.4 7.1-1.1 1.7-2.1 3.2-2.1 3.5 0 .5-18 31.2-20.6 35.3-.9 1.3-1.3 2.4-1 2.4.4 0-.2.9-1.2 2s-2.9 4.1-4.2 6.7c-1.3 2.7-2.6 5-2.9 5.3-.3.3-1.2 1.5-1.9 2.7L0 1031h286.6c228.9 0 286.5-.3 286.1-1.3-.2-.6-4.2-7.5-8.7-15.2-4.5-7.7-9.1-15.6-10.2-17.5-6.9-11.9-16.3-27.9-17.9-30.2-1.1-1.5-1.9-3.4-1.9-4.3 0-.8-.4-1.5-.9-1.5s-1.8-1.7-2.8-3.8c-3.8-7.3-5.8-10.7-6.5-11-.5-.2-.8-.8-.8-1.4 0-.5-1.3-2.8-2.8-5.1-1.5-2.3-3.3-5.3-4-6.7-1.6-3.4-5.9-10.7-8.7-15-1.3-1.9-3.3-5.4-4.6-7.7-1.3-2.3-5.8-9.9-9.9-17-4.1-7-8.2-14-9-15.4-2.6-4.5-23-39.3-24.3-41.4-.7-1.1-2.7-4.3-4.4-7.2-1.8-3-3.3-5.5-3.3-5.7 0-.6-7.3-12.9-8-13.6-.3-.3-1.3-2.1-2.3-4-1-1.9-3.3-6-5.1-9-7.1-11.9-16.6-28.3-16.6-28.8 0-.3-.6-1.3-1.4-2.1-.8-.9-2.4-3.4-3.6-5.6-3.3-6-13-22.6-14.9-25.5-.8-1.4-1.4-2.8-1.3-3.3.1-.4-.2-.7-.8-.7-.5 0-1-.7-1-1.5s-.4-1.5-.8-1.5-1.3-1.2-1.9-2.8c-1.2-2.8-5.4-10.3-6.3-11.2-.7-.7-2.9-4.3-3.7-6-.4-.8-1.6-3.1-2.8-5-1.2-1.9-2.3-4-2.5-4.5-.1-.6-1.4-2.8-2.9-5-4.2-6.4-5.1-7.9-5.8-9.5-.3-.8-2.1-3.9-4-6.8-1.8-2.9-3.3-5.7-3.3-6.2 0-.6-.3-1-.7-1-.5 0-1.3-1-1.9-2.3-1.6-3.4-5.8-11.1-6.4-11.7-.3-.3-1.7-2.6-3-5.3-1.4-2.6-2.8-4.7-3.2-4.7-.5 0-.8-.4-.8-.9s-2.7-5.5-6-11.1-6-10.6-6-11.1-.4-.9-1-.9c-.5 0-1-.4-1-.9 0-1.3-13.1-23.4-14.5-24.3-.5-.4-.7-.8-.2-.8.4 0 .1-1-.7-2.3-.7-1.2-2.7-4.2-4.2-6.7-1.6-2.5-2.9-4.7-2.9-5 0-.3-3.1-5.7-6.8-12-3.8-6.3-7.2-12.2-7.7-13-4.2-7.1-9.2-15-9.4-15-.2 0-.6.6-.9 1.2zm737 2.5c-1.3 2.1-2.7 4.5-3.1 5.3-.4.8-1.2 2.4-1.9 3.5s-2.5 4.3-4.1 7c-1.6 2.8-3.2 5.2-3.6 5.5-.3.3-1.4 2.1-2.3 4-1 1.9-2.3 4.4-3 5.5-5.3 8.6-7.7 12.6-7.7 12.9 0 .2-3.1 5.6-7 12-3.8 6.5-7 11.9-7 12.1 0 .2-2.2 4-4.9 8.4s-5.2 8.9-5.6 10c-.3 1.2-1 2.1-1.5 2.1-.4 0-1 .8-1.3 1.7-.4 1-1.8 3.6-3.2 5.8-1.3 2.2-2.8 4.6-3.2 5.4-.3.8-4.9 8.6-10.1 17.5-21.6 36.7-46.6 79.4-49 83.6-1.3 2.5-2.8 4.9-3.2 5.5-.4.5-1.7 2.6-2.8 4.5-1.1 1.9-5 8.7-8.7 15-3.7 6.3-7.6 13-8.7 14.9-1 1.8-4.7 8.1-8.2 14-5.3 8.9-29.8 50.8-40.2 68.6-1.6 2.7-3.3 5.7-3.9 6.6-.5.9-3.7 6.4-7 12-3.3 5.7-6.3 10.5-6.7 10.7-.4.2-.8.8-.8 1.3 0 .7-2 4.3-11.5 20.1-.5.9-2.2 3.9-3.7 6.6-1.5 2.7-3.8 6.6-5.2 8.7-1.4 2.1-2.6 4.4-2.6 5.1 0 .8-.4 1.4-.8 1.4-.5 0-1.6 1.5-2.5 3.2-2.1 4.1-4.8 8.8-11.5 20.1-2.8 4.8-5.2 9.2-5.2 9.6 0 .5-.4 1.1-.8 1.3-.4.1-1.9 2.3-3.3 4.8s-8.3 14.3-15.3 26.3-12.6 22-12.4 22.3c.3.2 129.2.3 286.5.2l285.9-.3-12.3-21c-6.8-11.6-12.8-21.9-13.4-23-.5-1.1-1.5-2.9-2.2-4-3.9-6.5-9.3-15.6-11.5-19.5-1.3-2.5-3.1-5.2-3.8-6.1-.8-.8-1.4-1.9-1.4-2.4 0-.7-1.7-3.6-7.9-13.5-.8-1.4-1.6-2.7-1.6-3 0-.3-.8-1.6-1.7-3-1.4-2.1-11.5-19.4-15.9-27-.8-1.4-1.8-2.8-2.2-3.1-.5-.3-.8-.8-.6-1 .1-.2-3.4-6.6-7.9-14.2s-8.2-14.2-8.2-14.7-.4-1-.8-1.2c-.7-.3-14.6-23.7-18.1-30.6-.8-1.5-1.8-2.9-2.3-3-.4-.2-.8-.8-.8-1.3s-2.7-5.4-6-10.9-6-10.5-6-11c0-.6-.4-1-.9-1s-1.1-.8-1.4-1.8c-.4-.9-2-4-3.7-6.7-1.7-2.8-3.3-5.8-3.7-6.8-.3-.9-.9-1.7-1.4-1.7-.5 0-.9-.5-.9-1 0-.6-1.8-4-4-7.6-2.2-3.6-4-7-4-7.5s-.4-.9-1-.9c-.5 0-1-.4-1-1 0-.5-2.8-5.6-6.1-11.2-6.6-11.1-9.6-16.1-11.3-19.3-.6-1.1-4.2-7.2-7.9-13.5-3.8-6.3-7.2-12.2-7.7-13-.5-.8-2.6-4.4-4.7-8-2.1-3.6-4.5-7.7-5.3-9.1-2-3.5-12.8-22-14-23.9-5.1-8.3-9-15.2-9-16 0-.6-.3-1-.7-1-.5 0-1.9-2.3-3.2-5-1.4-2.8-2.9-5-3.3-5-.4 0-.8-.6-.8-1.3 0-.6-2.7-5.6-6-11-3.3-5.5-6-10-6-10.2 0-.2-2.9-5.1-6.4-10.9-3.5-5.7-6.2-10.7-6-10.9.2-.2-.5-1.2-1.6-2.2-1.1-1-2-2.2-2-2.6 0-.5-2.6-5.3-5.8-10.6-3.2-5.4-7.3-12.5-9.2-15.8-1.9-3.3-3.7-6.2-4.2-6.3-.4-.2-.8-.8-.8-1.3 0-.6-2.2-4.7-5-9.3-2.7-4.6-5-8.8-5-9.5 0-.6-.4-1.1-1-1.1-.5 0-1-.4-1-1 0-.5-1.3-3-2.9-5.6l-3-4.6-2.4 3.9z"/></svg>