<svg width="361" height="405" fill="none" xmlns="http://www.w3.org/2000/svg"><path d="M208 223v-2.602c27.331 0 51.473-16.287 61.609-41.398l2.391 1.018C261.523 206.033 236.356 223 208 223zm0 19v-2.542c20.024 0 38.804-6.411 54.416-18.458l1.584 1.989C248.048 235.479 228.59 242 208 242z" fill="#78C3D6"/><path fill-rule="evenodd" clip-rule="evenodd" d="M97.663 259.052L143.835 292l18.446-17.549a128.787 128.787 0 0015.504 4.755l1.358.34 11.995-63.178-1.131-.34c-7.243-1.925-14.033-5.208-20.144-9.624-29.423-21.059-36.326-62.046-15.39-91.597 21.048-29.438 62.014-36.344 91.551-15.398 20.709 14.719 31.12 40.42 26.48 65.442l-.226 1.246 62.581 15.738.226-1.359c1.019-4.982 1.811-10.077 2.263-15.172L361 156.247l-9.393-55.932-25.349-.793c-4.753-10.53-10.864-20.38-18.22-29.211l10.299-23.21-46.172-32.948-18.446 17.323c-10.751-4.076-21.954-6.68-33.497-7.7L211.169 0l-55.904 9.397-.792 25.362c-10.525 4.755-20.37 10.87-29.197 18.229l-23.199-10.303-32.931 46.194 17.314 18.456c-4.074 10.756-6.677 21.965-7.695 33.513L55 149.906l9.393 55.932 25.349.792c4.753 10.53 10.864 20.38 18.22 29.212l-10.299 23.21zm45.946 29.665l-42.777-30.457 10.185-22.645-.566-.679c-7.582-8.945-13.806-19.021-18.672-29.891l-.34-.792-24.896-.793-9.28-51.969 23.2-8.944.112-.793c1.019-11.775 3.735-23.437 7.922-34.419l.34-.793-16.975-18.115 30.441-42.799 22.747 10.19.679-.566c9.053-7.586 19.125-13.813 29.988-18.681l.793-.34.792-24.909 51.716-8.718 8.941 23.21.792.114c11.769 1.019 23.425 3.736 34.402 7.925l.792.34 18.107-16.983 42.776 30.456-10.185 22.758.566.68c7.582 9.057 13.807 19.134 18.673 30.003l.339.793 24.897.793 8.713 51.742-23.199 8.945-.113.792a154.102 154.102 0 01-2.037 14.266l-57.375-14.153c4.301-25.588-6.563-51.742-27.725-66.8-30.668-21.74-73.332-14.606-95.173 16.077-21.727 30.683-14.598 73.368 16.07 95.22 6.111 4.302 12.788 7.586 19.804 9.737l-10.977 58.196a136.477 136.477 0 01-14.599-4.642l-.792-.34-18.106 16.984z" fill="#78C3D6"/><path fill-rule="evenodd" clip-rule="evenodd" d="M351.062 101.704l4.525 26.945L360 155.594l-23.421 8.944a125.669 125.669 0 01-2.376 15.737l-59.853-14.718c4.526-24.794-5.205-51.06-27.042-66.683-5.657-4.076-11.88-7.133-18.216-9.17l11.315-60.91c4.752 1.131 9.391 2.603 14.03 4.415L272.766 16l44.466 31.7-10.183 22.983c7.806 9.284 14.143 19.473 18.895 30.228l25.118.793zm-178.316-4.868c-7.128 4.528-13.577 10.416-18.781 17.775-21.385 30.115-14.37 72.004 15.953 93.629 6.336 4.528 13.351 7.811 20.479 9.849l-11.541 60.684c-5.431-1.359-10.748-2.944-16.066-4.982L144.46 291l-22.289-15.85-22.29-15.85 10.184-22.983c-7.807-9.284-14.03-19.473-18.895-30.228l-25.118-.793-4.526-26.945L57 151.406l23.42-8.944c.906-11.775 3.621-23.436 7.92-34.758l-17.197-18.34 15.84-22.304 15.84-22.303 22.969 10.19c5.204-4.303 10.748-8.266 16.406-11.662l30.548 53.55z" fill="url(#paint0_linear)"/><path fill="#706865" d="M195 261h3v126h-3zm-62 0h3v126h-3z"/><path d="M181.097 366h-33.194C131.984 366 119 352.966 119 336.984v-99.968C119 221.034 131.984 208 147.903 208h33.194C197.016 208 210 221.034 210 237.016v100.082C210 353.079 197.129 366 181.097 366z" fill="#BDAFAA"/><path d="M179.446 360h-28.892C134.753 360 122 347.216 122 331.377v-91.754C122 223.784 134.753 211 150.554 211h28.892C195.247 211 208 223.784 208 239.623v91.754C208 347.216 195.247 360 179.446 360z" fill="#fff"/><path fill="#706865" d="M152 207h27v6h-27z"/><path fill-rule="evenodd" clip-rule="evenodd" d="M162.337 276.138l1.808 4.735 12.312-2.029.113-5.073c1.582-.789 3.163-1.804 4.632-2.931l4.631 2.029 7.23-10.145-3.389-3.608c.565-1.803 1.017-3.607 1.243-5.411l4.744-1.803-2.033-12.287-5.083-.113c-.791-1.578-1.808-3.157-2.938-4.622l2.034-4.622-10.167-7.214-3.615 3.381c-1.807-.563-3.614-1.014-5.422-1.24l-1.807-4.734-12.313 2.029-.113 5.073c-1.582.789-3.163 1.803-4.632 2.931l-4.631-2.029-7.23 10.145 3.389 3.607c-.565 1.804-1.017 3.608-1.243 5.411l-4.744 1.804 2.033 12.287 5.084.113c.79 1.578 1.807 3.156 2.937 4.622l-2.034 4.621 10.167 7.215 3.615-3.382c1.807.564 3.615 1.015 5.422 1.24zm-5.196-3.833l-.791-.338-3.276 3.044-6.665-4.735 1.808-4.171-.565-.676c-1.356-1.578-2.485-3.494-3.389-5.411l-.339-.789-4.518-.113L138.05 251l4.18-1.578.113-.789c.226-2.142.677-4.171 1.468-6.2l.339-.789-3.05-3.269 4.745-6.651 4.179 1.803.678-.563c1.581-1.353 3.502-2.48 5.422-3.382l.791-.338.113-4.509 8.133-1.353 1.582 4.171.79.112c2.147.226 4.18.677 6.213 1.466l.791.338 3.276-3.044 6.665 4.735-1.808 4.171.565.676c1.356 1.578 2.485 3.495 3.389 5.411l.339.789 4.519.113 1.355 8.116-4.18 1.579-.112.789c-.226 2.141-.678 4.171-1.469 6.2l-.339.789 3.05 3.269-4.744 6.651-4.18-1.804-.678.564c-1.581 1.352-3.502 2.48-5.422 3.382l-.791.338-.113 4.509-8.133 1.353-1.581-4.171-.791-.113c-2.147-.226-4.18-.676-6.213-1.466z" fill="#CFCFCF"/><path fill-rule="evenodd" clip-rule="evenodd" d="M165.387 239.276c2.372 0 4.632.789 6.552 2.142l1.581-2.142a13.958 13.958 0 00-8.133-2.592c-2.033 0-4.067.451-5.874 1.24l1.13 2.367c1.468-.676 3.163-1.015 4.744-1.015zm-8.133 22.771c-3.728-2.592-5.874-6.876-5.874-11.385 0-.451 0-.902.113-1.353l2.598.226v1.014c0 3.72 1.807 7.102 4.744 9.244l-1.581 2.254zm13.894 1.353l-1.129-2.367c1.807-.789 3.388-2.142 4.518-3.72 1.13-1.691 1.92-3.608 2.033-5.524l2.599.226a14.02 14.02 0 01-2.486 6.763c-1.355 2.029-3.276 3.607-5.535 4.622zm10.444 43.018l1.01 2.582 7.408-1.235.112-2.806a11.154 11.154 0 001.909-1.235l2.469 1.123 4.378-6.174-1.909-2.02c.225-.786.337-1.459.449-2.245l2.582-1.01-1.235-7.408-2.806-.112a11.154 11.154 0 00-1.235-1.909l1.123-2.469-6.174-4.378-2.02 1.909c-.786-.225-1.459-.337-2.245-.449l-1.01-2.582-7.408 1.235-.112 2.806c-.674.337-1.347.786-1.909 1.235l-2.469-1.123-4.378 6.174 1.909 2.02c-.225.786-.337 1.459-.449 2.245l-2.582 1.01 1.235 7.408 2.806.112c.337.674.786 1.347 1.235 1.909l-1.123 2.469 6.174 4.378 2.02-1.909c.786.225 1.459.337 2.245.449zm-2.021-3.03l-.785-.337-1.684 1.571-2.694-1.908.898-2.02-.561-.674a10.9 10.9 0 01-1.684-2.693l-.337-.786-2.244-.112-.562-3.256 2.133-.785.112-.786c.113-1.122.337-2.133.674-3.143l.336-.786-1.571-1.683 1.908-2.694 2.021.898.673-.561a10.925 10.925 0 012.694-1.684l.786-.337.112-2.245 3.255-.561.786 2.133.785.112c1.123.112 2.133.337 3.143.673l.786.337 1.684-1.571 2.694 1.908-.898 2.02.561.674a10.955 10.955 0 011.684 2.694l.336.785 2.245.113.561 3.255-2.132.785-.113.786a14.175 14.175 0 01-.673 3.143l-.337.786 1.572 1.683-1.908 2.694-2.021-.898-.673.562a10.952 10.952 0 01-2.694 1.683l-.786.337-.112 2.245-3.255.561-.786-2.133-.786-.112a14.257 14.257 0 01-3.143-.673zm4.041-2.919c-1.683 0-3.255-.449-4.602-1.459-3.592-2.581-4.377-7.52-1.908-11 2.582-3.592 7.52-4.377 11-1.908 3.592 2.582 4.378 7.52 1.908 11-1.234 1.684-3.03 2.806-5.163 3.255-.337.112-.786.112-1.235.112zm-4.377-10.887c1.122-1.46 2.694-2.245 4.377-2.245 1.123 0 2.133.224 3.031 1.01 2.357 1.684 2.918 5.051 1.235 7.408-.898 1.123-2.021 1.908-3.48 2.133a5.428 5.428 0 01-3.929-.898c-2.357-1.684-2.918-5.051-1.234-7.408z" fill="#CFCFCF"/><path d="M116.822 317.144s.682 1.017.682 1.807c.114.678.569 1.694.91 2.146.227.564 1.023 3.049 1.023 3.613 0 .226-.568 1.92-.455 2.485.114.564.341 1.581-.113 1.693-.455.113-1.024-.79-1.024-.79s0 .452-.341.678c-.796.338-1.25 0-1.25 0s-.342.564-.683.564c-.796.113-1.25-.113-1.25-.113s-.341.339-.91.339c-.682 0-1.023-.678-1.023-.678s-.91.226-1.137-.225c-.228-.452-.228-.904-.341-1.243-.114-.338 0-3.839 1.137-6.21 1.137-2.485-.341-4.856-.341-4.856l5.116.79z" fill="#ECA886"/><path d="M117.959 327.872s.114-3.049-.682-3.726c-.796-.678-.91.451-.91.451s.114-1.129-.796-1.242c-.909-.113-.909 1.129-.909 1.129s-.114-.79-1.023-.677c-.91.226-.683 1.242-.683 1.242s-.909-1.016-1.478 0c-1.023 1.694 0 3.727 0 3.727s.228.451 1.137.225c0 0 .569 1.13 1.933.339 0 0 1.364.791 1.819-.452-.113 0 1.478.678 1.592-1.016z" fill="#DB9C7C"/><path d="M127.282 273.103s-5.23 17.504-7.049 23.941c-.568 2.032-1.933 21.342-2.16 22.02-.228.79-6.936 1.807-6.936 1.807s.796-24.166.91-25.408c.113-1.356 7.39-28.232 9.55-29.248 1.592-.678 2.388-.113 4.435 1.355 2.728 2.146 1.25 5.533 1.25 5.533z" fill="#313657"/><path d="M178.932 248.938l12.082-7.853.142.216-12.082 7.853-.142-.216z" fill="#49A5CB"/><path d="M192.659 245.324s-.114.677-.341.903c0 0-.341.452-.682.791-.114.113-.114.226-.228.226-.113.338-.454.903-1.023 1.58-.568.565-2.842 2.372-2.842 2.372l-1.933-1.581-2.047-.903s1.137-4.856 1.592-5.421c0-.113.114-.113.114-.113.455-.451 1.023-.677 1.25-.903.114-.113 1.137-.791 1.478-.678.455.113.796.452.91.791 0 0 1.023.339 1.364.903 0 0 .91.226 1.137 1.129.342 0 1.251.339 1.251.904z" fill="#EDAA88"/><path d="M122.962 392.352s-.455 3.275-.569 3.84c-.113.452-5.343-.339-5.343-.339l-.455-3.952c.113 0 5.798-.113 6.367.451z" fill="#414773"/><path d="M122.507 395.74s1.705 2.033 3.297 2.823c1.592.904 4.207 1.242 5.117 2.146.682.677 2.501 3.501-4.207 3.388-6.708 0-10.006.451-10.688-.678-.682-1.129 1.023-7.905 1.023-7.905s1.592.565 5.458.226z" fill="#282C47"/><path d="M160.937 392.352s-.455 3.275-.568 3.84c-.114.452-5.344-.339-5.344-.339l-.455-3.952s5.685-.113 6.367.451z" fill="#414773"/><path d="M160.369 395.74s1.705 2.033 3.297 2.823c1.592.904 7.618 1.581 8.527 2.485.683.677 1.82 3.274-7.617 3.049-6.709-.226-10.006.451-10.688-.678-.682-1.129 1.023-7.905 1.023-7.905s1.592.565 5.458.226zm-32.973-88.533s-5.003 7.792-4.548 14.906c.341 7.114-1.819 14.793-2.501 22.246-.796 8.244-4.207 27.78-4.321 32.184-.113 4.404.569 18.52.569 18.52l6.822.113s5.685-34.104 7.163-37.605c1.478-3.5 8.868-28.344 9.096-31.167.113-2.823-12.28-19.197-12.28-19.197z" fill="#282C47"/><path d="M153.547 308.223s3.752 19.423 4.207 23.714c.454 4.292.795 21.005 1.023 23.715.227 2.71 2.274 35.345 2.956 39.524h-8.755s-6.708-23.828-6.708-35.12c0-11.293-5.116-24.505-8.527-31.958-3.298-7.453-10.915-7.566-13.076-21.456.228.113 26.151-2.823 28.88 1.581z" fill="#282C47"/><path d="M135.696 241.259s6.708-2.485 9.778 2.597c3.07 5.081 2.729 15.132-.568 16.374-3.411 1.242-8.414.565-10.12-2.597-1.705-3.162-3.297-7.679-3.183-10.728 0-3.049 2.274-4.743 4.093-5.646z" fill="#ECA886"/><path d="M144.11 260.456s-.228 1.807.227 2.71-8.641.903-8.641.903-.682-4.742-2.16-8.808c-1.365-4.178 10.574 5.195 10.574 5.195z" fill="#ECA886"/><path d="M133.536 255.148s.682 1.017 3.183.678c2.615-.452 5.685-3.84 6.709-4.178 1.023-.339 1.137-1.017 1.137-1.017l.682 1.017 1.137.113s-1.024-3.049.568-4.292c1.592-1.242-1.592-9.824-9.892-7.001 0 0-6.367 1.694-6.026 5.308.114 3.613 1.024 7.678 2.502 9.372z" fill="#D78A51"/><path d="M144.792 263.053s0-1.694-.796-1.807c-.796-.113-8.527-.903-9.437-.564v1.919c.114 0 1.819 1.13 10.233.452z" fill="#E1D2CA"/><path d="M144.337 249.389c-.114-.565-1.705-2.258-2.274-.452-.568 1.807.91 4.292 1.706 4.066.909-.226 1.023-2.146.568-3.614z" fill="#ECA886"/><path d="M157.64 265.537c-5.23-.677-12.734-2.597-12.734-2.597l-10.233-.452s-9.324 2.033-13.076 3.727c-.341.113-.341 8.356-1.364 10.389l3.07 6.437s1.819 12.76 2.16 18.407c.114 2.597-3.638 24.279-3.638 24.279s4.093 1.242 11.028 1.919c6.936.791 24.446-.226 24.559-1.129.114-.79-3.411-30.49-3.524-31.958-.228-2.371.796-14.906.796-14.906 1.591-1.242 15.69-7.792 19.556-11.18 1.023-.903 5.344-5.081 6.594-6.549 4.435-5.195 7.959-9.599 8.414-10.502.455-.565-4.889-3.388-5.344-3.614-.455-.113-6.14 7.566-8.527 9.938-1.024 1.129-5.23 4.178-5.23 4.178s-9.21 3.839-12.507 3.613z" fill="#313657"/><path d="M133.763 241.823s-8.527.678-.227 13.325l.227-13.325z" fill="#D78A51"/><path d="M191.408 241.71l.682-1.016-1.364.113.682.903z" fill="#DFE1E3"/><path d="M1.128 129.887l-1.015-.34 8.344-24.707 18.832-5.213 6.54-26.974 14.435-6.686L51.308 45l1.015.227L49.28 66.76l-14.547 6.573-6.54 27.2-18.832 5.214-8.232 24.14z" fill="#78C3D6"/><path d="M29.557 102.256a2.843 2.843 0 00.353-3.99 2.81 2.81 0 00-3.971-.356 2.843 2.843 0 00-.353 3.991 2.81 2.81 0 003.971.355z" fill="#fff"/><path fill-rule="evenodd" clip-rule="evenodd" d="M25.147 102.233c1.24 1.474 3.27 1.7 4.736.454 1.466-1.247 1.691-3.4.451-4.76-1.24-1.474-3.27-1.7-4.736-.454-1.466 1.247-1.692 3.287-.451 4.76zm.79-.68c-.79-1.02-.678-2.493.337-3.286 1.015-.794 2.481-.68 3.27.34.79 1.02.677 2.493-.338 3.286-1.015.794-2.48.68-3.27-.34z" fill="#78C3D6"/><path d="M36.138 75.4a2.843 2.843 0 00.353-3.99 2.81 2.81 0 00-3.971-.355 2.843 2.843 0 00-.353 3.991 2.81 2.81 0 003.971.354z" fill="#fff"/><path fill-rule="evenodd" clip-rule="evenodd" d="M31.687 75.26c1.24 1.473 3.27 1.7 4.736.453 1.466-1.133 1.692-3.286.451-4.76-1.24-1.473-3.27-1.7-4.736-.453-1.466 1.247-1.691 3.287-.45 4.76zm.79-.567c-.79-1.02-.677-2.493.338-3.286 1.015-.794 2.48-.68 3.27.34s.677 2.493-.338 3.286c-1.015.794-2.481.68-3.27-.34z" fill="#78C3D6"/><path d="M50.379 68.469a2.843 2.843 0 00.352-3.991 2.81 2.81 0 00-3.971-.355 2.843 2.843 0 00-.353 3.992 2.81 2.81 0 003.972.354z" fill="#fff"/><path fill-rule="evenodd" clip-rule="evenodd" d="M46.008 68.46c1.241 1.473 3.27 1.7 4.737.453 1.466-1.133 1.578-3.286.45-4.76-1.24-1.473-3.27-1.7-4.735-.453-1.466 1.247-1.692 3.287-.452 4.76zm.79-.567c-.79-1.02-.677-2.493.338-3.286.902-.794 2.368-.68 3.27.34.79 1.02.677 2.493-.338 3.286-1.015.794-2.48.68-3.27-.34z" fill="#78C3D6"/><path d="M10.824 107.695a2.843 2.843 0 00.352-3.991 2.81 2.81 0 00-3.97-.355 2.844 2.844 0 00-.354 3.992 2.81 2.81 0 003.972.354z" fill="#fff"/><path fill-rule="evenodd" clip-rule="evenodd" d="M6.428 107.673c1.24 1.474 3.27 1.7 4.736.454 1.466-1.134 1.579-3.287.451-4.76-1.24-1.474-3.27-1.7-4.736-.454-1.466 1.247-1.692 3.287-.451 4.76zm.79-.566c-.79-1.02-.678-2.494.337-3.287 1.015-.907 2.368-.68 3.27.34.79 1.02.677 2.493-.338 3.287-1.015.793-2.48.68-3.27-.34z" fill="#78C3D6"/><defs><linearGradient id="paint0_linear" x1="507.329" y1="218.527" x2="302.801" y2="-101.379" gradientUnits="userSpaceOnUse"><stop stop-color="#D0D4E3"/><stop offset="1" stop-color="#A9D4E6"/></linearGradient></defs></svg>