<svg width="384" height="258" fill="none" xmlns="http://www.w3.org/2000/svg"><path d="M274.665 70.433V86.87l-30.211 17.2V87.74l30.211-17.308z" fill="url(#paint0_linear)"/><path d="M138.771 87.742v16.438l-30.432-17.31V70.543l30.432 17.2z" fill="url(#paint1_linear)"/><path d="M217.231 110.494v-16.33c0-2.285 1.549-4.572 4.648-6.422 6.197-3.593 16.267-3.593 22.575 0v16.329c-6.197-3.593-16.378-3.593-22.575 0-3.099 1.851-4.648 4.137-4.648 6.423z" fill="url(#paint2_linear)"/><path d="M165.994 94.273v16.33c0-2.395-1.549-4.681-4.758-6.423-6.197-3.593-16.378-3.593-22.575 0V87.85c6.197-3.592 16.267-3.592 22.575 0 3.209 1.742 4.758 4.029 4.758 6.423z" fill="url(#paint3_linear)"/><path d="M191.779 117.896v16.329l-30.433-17.2v-16.438l30.433 17.309z" fill="url(#paint4_linear)"/><path d="M221.99 100.587v16.329l-30.211 17.309v-16.329l30.211-17.309z" fill="url(#paint5_linear)"/><path d="M274.665 70.433l-30.211 17.309c-6.197-3.593-16.378-3.593-22.575 0-6.197 3.592-6.197 9.253.111 12.845l-30.211 17.309-30.433-17.309c6.198-3.592 6.198-9.253-.11-12.845-6.197-3.593-16.378-3.593-22.575 0l-30.433-17.31 82.887-47.354 83.55 47.355z" fill="url(#paint6_linear)"/><path d="M140.874 108.643v16.329c0 2.286-1.549 4.572-4.648 6.423v-16.329c3.099-1.851 4.648-4.137 4.648-6.423z" fill="url(#paint7_linear)"/><path d="M166.658 132.266l-.11 16.329-30.101 17.309v-16.438l30.211-17.2z" fill="url(#paint8_linear)"/><path d="M109.224 172.218v-16.329c0-2.286 1.55-4.573 4.648-6.423 6.197-3.593 16.268-3.593 22.575 0v16.329c-6.197-3.592-16.378-3.592-22.575 0-3.098 1.851-4.648 4.137-4.648 6.423z" fill="url(#paint9_linear)"/><path d="M113.983 162.311v16.438l-30.211 17.2V179.62l30.211-17.309z" fill="url(#paint10_linear)"/><path d="M83.772 179.62v16.329L.332 148.595v-16.329l83.44 47.354z" fill="url(#paint11_linear)"/><path d="M136.226 102.111c6.197 3.593 6.308 9.254.111 12.846l30.432 17.309-30.211 17.309c-6.197-3.593-16.378-3.593-22.575 0-6.197 3.592-6.197 9.253.11 12.845l-30.321 17.2-83.44-47.354 82.887-47.355 30.432 17.309c6.197-3.592 16.267-3.592 22.575-.109z" fill="url(#paint12_linear)"/><path d="M242.573 124.863v-16.329c0 2.286 1.549 4.681 4.648 6.423v16.329c-3.099-1.742-4.648-4.028-4.648-6.423z" fill="url(#paint13_linear)"/><path d="M247.553 149.466l-.111 16.438-30.432-17.309.11-16.329 30.433 17.2z" fill="url(#paint14_linear)"/><path d="M274.776 155.997v16.33c0-2.287-1.549-4.681-4.648-6.423-6.197-3.593-16.378-3.593-22.575 0v-16.329c6.197-3.593 16.267-3.593 22.575 0 3.099 1.741 4.648 4.028 4.648 6.422z" fill="url(#paint15_linear)"/><path d="M300.56 179.62l-.11 16.329-30.433-17.2.111-16.438 30.432 17.309z" fill="url(#paint16_linear)"/><path d="M383.447 132.266l-.111 16.329-82.886 47.354.11-16.329 82.887-47.354z" fill="url(#paint17_linear)"/><path d="M383.447 132.266L300.56 179.62l-30.432-17.309c6.197-3.592 6.197-9.253-.111-12.845-6.197-3.593-16.378-3.593-22.575 0l-30.432-17.309 30.211-17.309c-6.197-3.592-6.308-9.253-.111-12.845 6.197-3.593 16.267-3.593 22.575 0l30.211-17.31 83.551 47.573z" fill="url(#paint18_linear)"/><path d="M249.655 170.367v16.329c0 2.286-1.549 4.572-4.647 6.423V176.79c3.098-1.851 4.647-4.137 4.647-6.423z" fill="url(#paint19_linear)"/><path d="M134.566 186.587v-16.329c0 2.286 1.549 4.681 4.758 6.423v16.329c-3.209-1.742-4.758-4.028-4.758-6.423z" fill="url(#paint20_linear)"/><path d="M192.553 241.344l-.11 16.438-83.44-47.463.111-16.329 83.439 47.354z" fill="url(#paint21_linear)"/><path d="M275.329 193.99v16.329l-82.886 47.463.11-16.438 82.776-47.354z" fill="url(#paint22_linear)"/><path d="M244.897 163.835c6.197 3.593 6.308 9.254.11 12.846l30.433 17.309-82.887 47.354-83.439-47.354 30.21-17.309c-6.197-3.592-6.307-9.253-.11-12.846 6.197-3.592 16.267-3.592 22.575 0L192 146.527l30.432 17.308c6.087-3.483 16.268-3.483 22.465 0z" fill="url(#paint23_linear)"/><path d="M192.664 190.506v1.742c0 1.306-.885 2.722-2.656 3.701-3.652 2.069-9.517 2.069-13.169 0-1.881-1.088-2.766-2.395-2.766-3.81v-1.742c0 1.416.885 2.722 2.766 3.811 3.652 2.068 9.517 2.068 13.169 0 1.771-.98 2.656-2.395 2.656-3.702z" fill="#A5B7C6"/><path d="M189.898 186.696c3.651 2.069 3.651 5.443 0 7.512-3.652 2.068-9.517 2.068-13.169 0-3.652-2.069-3.652-5.443 0-7.512 3.652-2.068 9.627-2.068 13.169 0zm15.382-51.6c-.554-.326-1.328-.218-2.103.218l-46.257 26.344c-1.66.98-2.988 3.266-2.988 5.117l.111 34.073c0 .98.332 1.633.885 1.851l2.988 1.742c-.553-.327-.885-.98-.885-1.851l-.111-34.074c0-1.85 1.328-4.136 2.988-5.116l46.257-26.344c.885-.436 1.549-.545 2.103-.218l-2.988-1.742z" fill="#B6C7D3"/><path d="M206.165 137.056c1.66-.98 2.988-.218 2.988 1.741l.11 34.074c0 1.851-1.328 4.137-2.987 5.116l-46.258 26.345c-1.659.979-2.987.217-2.987-1.742l-.111-34.074c0-1.85 1.328-4.136 2.988-5.116l46.257-26.344z" fill="#A5B7C6"/><path d="M207.05 145.547v-6.532l-1.328.653-2.766 1.633-37.294 21.119-6.64 3.81v31.897l29.547-16.765 4.538-2.613 13.943-7.946v-25.256z" fill="#78C3D6"/><path d="M165.662 162.42l-6.64 3.81v2.069l48.028-27.215v-2.069l-41.388 23.405z" fill="#53B3C9"/><path d="M225.974 199.977l-14.829-8.382 19.698-11.213 14.829 8.383-19.698 11.212z" fill="#78C3D6"/><path d="M173.077 210.21v1.198l14.496 8.273v-1.197l-14.496-8.274z" fill="#CCD9E2"/><path d="M187.573 218.484v1.197l31.982-18.18v-1.197l-31.982 18.18z" fill="#A5B7C6"/><path d="M173.077 210.21l14.496 8.274 31.982-18.18-14.386-8.274-32.092 18.18z" fill="#B6C7D3"/><path d="M203.177 194.099v.653l1.992 1.088v-.653l-1.992-1.088z" fill="#CCD9E2"/><path d="M205.169 195.187v.653l1.992-1.088v-.653l-1.992 1.088z" fill="#A5B7C6"/><path d="M203.177 194.099l1.992 1.088 1.992-1.088-1.992-1.198-1.992 1.198z" fill="#B6C7D3"/><path d="M200.632 195.514v.653l1.992 1.089v-.545l-1.992-1.197z" fill="#CCD9E2"/><path d="M202.624 196.711v.545l1.992-1.089v-.653l-1.992 1.197z" fill="#A5B7C6"/><path d="M200.632 195.514l1.992 1.197 1.992-1.197-1.992-1.089-1.992 1.089z" fill="#B6C7D3"/><path d="M198.086 196.929v.653l1.992 1.089v-.544l-1.992-1.198z" fill="#CCD9E2"/><path d="M200.078 198.127v.544l1.992-1.089v-.653l-1.992 1.198z" fill="#A5B7C6"/><path d="M198.086 196.929l1.992 1.198 1.992-1.198-1.992-1.089-1.992 1.089z" fill="#B6C7D3"/><path d="M195.541 198.344v.653l1.992 1.198v-.653l-1.992-1.198z" fill="#CCD9E2"/><path d="M197.533 199.542v.653l1.992-1.198v-.544l-1.992 1.089z" fill="#A5B7C6"/><path d="M195.541 198.344l1.992 1.198 1.992-1.089-1.992-1.197-1.992 1.088z" fill="#B6C7D3"/><path d="M192.996 199.868v.545l1.992 1.197v-.653l-1.992-1.089z" fill="#CCD9E2"/><path d="M194.988 200.957v.653l1.992-1.088v-.654l-1.992 1.089z" fill="#A5B7C6"/><path d="M192.996 199.868l1.992 1.089 1.992-1.089-1.992-1.197-1.992 1.197z" fill="#B6C7D3"/><path d="M190.562 201.284v.653l1.991 1.088v-.653l-1.991-1.088z" fill="#CCD9E2"/><path d="M192.553 202.372v.653l1.882-1.088v-.653l-1.882 1.088z" fill="#A5B7C6"/><path d="M190.562 201.284l1.991 1.088 1.882-1.088-1.992-1.198-1.881 1.198z" fill="#B6C7D3"/><path d="M188.016 202.699v.653l1.992 1.089v-.545l-1.992-1.197z" fill="#CCD9E2"/><path d="M190.008 203.896v.545l1.992-1.089v-.653l-1.992 1.197z" fill="#A5B7C6"/><path d="M188.016 202.699l1.992 1.197 1.992-1.197-1.992-1.089-1.992 1.089z" fill="#B6C7D3"/><path d="M185.471 204.114v.653l1.992 1.089v-.545l-1.992-1.197z" fill="#CCD9E2"/><path d="M187.463 205.311v.545l1.992-1.089v-.653l-1.992 1.197z" fill="#A5B7C6"/><path d="M185.471 204.114l1.992 1.197 1.992-1.197-1.992-1.089-1.992 1.089z" fill="#B6C7D3"/><path d="M182.926 205.529v.653l1.992 1.198v-.653l-1.992-1.198z" fill="#CCD9E2"/><path d="M184.918 206.727v.653l1.992-1.198v-.544l-1.992 1.089z" fill="#A5B7C6"/><path d="M182.926 205.529l1.992 1.198 1.992-1.089-1.992-1.198-1.992 1.089z" fill="#B6C7D3"/><path d="M180.38 207.053v.544l1.992 1.198v-.653l-1.992-1.089z" fill="#CCD9E2"/><path d="M182.372 208.142v.653l1.992-1.089v-.653l-1.992 1.089z" fill="#A5B7C6"/><path d="M180.38 207.053l1.992 1.089 1.992-1.089-1.992-1.197-1.992 1.197z" fill="#B6C7D3"/><path d="M175.29 209.884v.653l1.992 1.088v-.544l-1.992-1.197z" fill="#CCD9E2"/><path d="M177.282 211.081v.544l4.537-2.503v-.654l-4.537 2.613z" fill="#A5B7C6"/><path d="M175.29 209.884l1.992 1.197 4.537-2.613-1.992-1.088-4.537 2.504z" fill="#B6C7D3"/><path d="M203.177 196.929v.653l1.992 1.198v-.653l-1.992-1.198z" fill="#CCD9E2"/><path d="M205.169 198.127v.653l4.537-2.613v-.653l-4.537 2.613z" fill="#A5B7C6"/><path d="M203.177 196.929l1.992 1.198 4.537-2.613-1.992-1.089-4.537 2.504z" fill="#B6C7D3"/><path d="M200.632 198.453v.544l1.992 1.198v-.653l-1.992-1.089z" fill="#CCD9E2"/><path d="M202.624 199.542v.653l1.992-1.089v-.653l-1.992 1.089z" fill="#A5B7C6"/><path d="M200.632 198.453l1.992 1.089 1.992-1.089-1.992-1.197-1.992 1.197z" fill="#B6C7D3"/><path d="M198.086 199.868v.654l1.992 1.088v-.653l-1.992-1.089z" fill="#CCD9E2"/><path d="M200.078 200.957v.653l1.992-1.088v-.654l-1.992 1.089z" fill="#A5B7C6"/><path d="M198.086 199.868l1.992 1.089 1.992-1.089-1.992-1.197-1.992 1.197z" fill="#B6C7D3"/><path d="M195.541 201.284v.653l2.103 1.088v-.544l-2.103-1.197z" fill="#CCD9E2"/><path d="M197.644 202.481v.544l1.881-1.088v-.653l-1.881 1.197z" fill="#A5B7C6"/><path d="M195.541 201.284l2.103 1.197 1.881-1.197-1.992-1.089-1.992 1.089z" fill="#B6C7D3"/><path d="M193.107 202.699v.653l1.992 1.089v-.545l-1.992-1.197z" fill="#CCD9E2"/><path d="M195.099 203.896v.545l1.992-1.089v-.653l-1.992 1.197z" fill="#A5B7C6"/><path d="M193.107 202.699l1.992 1.197 1.992-1.197-2.103-1.089-1.881 1.089z" fill="#B6C7D3"/><path d="M190.562 204.114v.653l1.991 1.198v-.654l-1.991-1.197z" fill="#CCD9E2"/><path d="M192.553 205.311v.654l1.992-1.198v-.544l-1.992 1.088z" fill="#A5B7C6"/><path d="M190.562 204.114l1.991 1.197 1.992-1.088-1.992-1.198-1.991 1.089z" fill="#B6C7D3"/><path d="M188.016 205.638v.544l1.992 1.198v-.653l-1.992-1.089z" fill="#CCD9E2"/><path d="M190.008 206.727v.653l1.992-1.089v-.653l-1.992 1.089z" fill="#A5B7C6"/><path d="M188.016 205.638l1.992 1.089 1.992-1.089-1.992-1.198-1.992 1.198z" fill="#B6C7D3"/><path d="M185.471 207.053v.653l1.992 1.089v-.653l-1.992-1.089z" fill="#CCD9E2"/><path d="M187.463 208.142v.653l1.992-1.089v-.653l-1.992 1.089z" fill="#A5B7C6"/><path d="M185.471 207.053l1.992 1.089 1.992-1.089-1.992-1.088-1.992 1.088z" fill="#B6C7D3"/><path d="M182.926 208.468v.654l1.992 1.088v-.544l-1.992-1.198z" fill="#CCD9E2"/><path d="M184.918 209.666v.544l1.992-1.088v-.654l-1.992 1.198z" fill="#A5B7C6"/><path d="M182.926 208.468l1.992 1.198 1.992-1.198-1.992-1.088-1.992 1.088z" fill="#B6C7D3"/><path d="M180.38 209.884v.653l1.992 1.197v-.653l-1.992-1.197z" fill="#CCD9E2"/><path d="M182.372 211.081v.653l1.992-1.197v-.653l-1.992 1.197z" fill="#A5B7C6"/><path d="M180.38 209.884l1.992 1.197 1.992-1.197-1.992-1.089-1.992 1.089z" fill="#B6C7D3"/><path d="M177.835 211.299v.653l1.992 1.197v-.653l-1.992-1.197z" fill="#CCD9E2"/><path d="M179.827 212.496v.653l1.992-1.197v-.544l-1.992 1.088z" fill="#A5B7C6"/><path d="M177.835 211.299l1.992 1.197 1.992-1.088-1.992-1.198-1.992 1.089z" fill="#B6C7D3"/><path d="M205.722 198.453v.653l1.992 1.089v-.653l-1.992-1.089z" fill="#CCD9E2"/><path d="M207.714 199.542v.653l4.537-2.504v-.653l-4.537 2.504z" fill="#A5B7C6"/><path d="M205.722 198.453l1.992 1.089 4.537-2.504-1.992-1.198-4.537 2.613z" fill="#B6C7D3"/><path d="M203.177 199.868v.654l1.992 1.088v-.544l-1.992-1.198z" fill="#CCD9E2"/><path d="M205.169 201.066v.544l1.992-1.088v-.654l-1.992 1.198z" fill="#A5B7C6"/><path d="M203.177 199.868l1.992 1.198 1.992-1.198-1.992-1.088-1.992 1.088z" fill="#B6C7D3"/><path d="M200.632 201.284v.653l2.102 1.088v-.544l-2.102-1.197z" fill="#CCD9E2"/><path d="M202.734 202.481v.544l1.882-1.088v-.653l-1.882 1.197z" fill="#A5B7C6"/><path d="M200.632 201.284l2.102 1.197 1.882-1.197-1.992-1.089-1.992 1.089z" fill="#B6C7D3"/><path d="M198.197 202.699v.653l1.992 1.197v-.653l-1.992-1.197z" fill="#CCD9E2"/><path d="M200.189 203.896v.653l1.881-1.197v-.544l-1.881 1.088z" fill="#A5B7C6"/><path d="M198.197 202.699l1.992 1.197 1.881-1.088-1.991-1.198-1.882 1.089z" fill="#B6C7D3"/><path d="M195.652 204.223v.544l1.992 1.198v-.654l-1.992-1.088z" fill="#CCD9E2"/><path d="M197.644 205.311v.654l1.992-1.089v-.653l-1.992 1.088z" fill="#A5B7C6"/><path d="M195.652 204.223l1.992 1.088 1.992-1.088-1.992-1.198-1.992 1.198z" fill="#B6C7D3"/><path d="M193.107 205.638v.653l1.992 1.089v-.653l-1.992-1.089z" fill="#CCD9E2"/><path d="M195.099 206.727v.653l1.992-1.089v-.653l-1.992 1.089z" fill="#A5B7C6"/><path d="M193.107 205.638l1.992 1.089 1.992-1.089-1.992-1.198-1.992 1.198z" fill="#B6C7D3"/><path d="M190.562 207.053v.653l1.991 1.089v-.544l-1.991-1.198z" fill="#CCD9E2"/><path d="M192.553 208.251v.544l1.992-1.089v-.653l-1.992 1.198z" fill="#A5B7C6"/><path d="M190.562 207.053l1.991 1.198 1.992-1.198-1.992-1.088-1.991 1.088z" fill="#B6C7D3"/><path d="M188.016 208.468v.654l1.992 1.088v-.544l-1.992-1.198z" fill="#CCD9E2"/><path d="M190.008 209.666v.544l1.992-1.088v-.654l-1.992 1.198z" fill="#A5B7C6"/><path d="M188.016 208.468l1.992 1.198 1.992-1.198-1.992-1.088-1.992 1.088z" fill="#B6C7D3"/><path d="M185.471 209.884v.653l1.992 1.197v-.653l-1.992-1.197z" fill="#CCD9E2"/><path d="M187.463 211.081v.653l1.992-1.197v-.545l-1.992 1.089z" fill="#A5B7C6"/><path d="M185.471 209.884l1.992 1.197 1.992-1.089-1.992-1.197-1.992 1.089z" fill="#B6C7D3"/><path d="M180.38 212.823v.653l2.103 1.089v-.654l-2.103-1.088z" fill="#CCD9E2"/><path d="M182.483 213.911v.654l4.427-2.504v-.653l-4.427 2.503z" fill="#A5B7C6"/><path d="M180.38 212.823l2.103 1.088 4.426-2.503-1.991-1.198-4.538 2.613z" fill="#B6C7D3"/><path d="M205.722 201.284v.653l1.992 1.197v-.653l-1.992-1.197z" fill="#CCD9E2"/><path d="M207.714 202.481v.653l7.083-4.028v-.653l-7.083 4.028z" fill="#A5B7C6"/><path d="M205.722 201.284l1.992 1.197 7.083-4.028-1.992-1.088-7.083 3.919z" fill="#B6C7D3"/><path d="M203.288 202.808v.544l1.992 1.197v-.653l-1.992-1.088z" fill="#CCD9E2"/><path d="M205.28 203.896v.653l1.881-1.088v-.653l-1.881 1.088z" fill="#A5B7C6"/><path d="M203.288 202.808l1.992 1.088 1.881-1.088-1.992-1.198-1.881 1.198z" fill="#B6C7D3"/><path d="M200.742 204.223v.653l1.992 1.089v-.654l-1.992-1.088z" fill="#CCD9E2"/><path d="M202.734 205.311v.654l1.992-1.089v-.653l-1.992 1.088z" fill="#A5B7C6"/><path d="M200.742 204.223l1.992 1.088 1.992-1.088-2.102-1.089-1.882 1.089z" fill="#B6C7D3"/><path d="M198.197 205.638v.653l1.992 1.089v-.545l-1.992-1.197z" fill="#CCD9E2"/><path d="M200.189 206.835v.545l1.992-1.089v-.653l-1.992 1.197z" fill="#A5B7C6"/><path d="M198.197 205.638l1.992 1.197 1.992-1.197-1.992-1.089-1.992 1.089z" fill="#B6C7D3"/><path d="M195.652 207.053v.653l1.992 1.198v-.653l-1.992-1.198z" fill="#CCD9E2"/><path d="M197.644 208.251v.653l1.992-1.198v-.653l-1.992 1.198z" fill="#A5B7C6"/><path d="M195.652 207.053l1.992 1.198 1.992-1.198-1.992-1.088-1.992 1.088z" fill="#B6C7D3"/><path d="M193.107 208.468v.654l1.992 1.197v-.653l-1.992-1.198z" fill="#CCD9E2"/><path d="M195.099 209.666v.653l1.992-1.197v-.545l-1.992 1.089z" fill="#A5B7C6"/><path d="M193.107 208.468l1.992 1.198 1.992-1.089-1.992-1.197-1.992 1.088z" fill="#B6C7D3"/><path d="M190.562 209.992v.545l1.991 1.197v-.653l-1.991-1.089z" fill="#CCD9E2"/><path d="M192.553 211.081v.653l1.992-1.088v-.654l-1.992 1.089z" fill="#A5B7C6"/><path d="M190.562 209.992l1.991 1.089 1.992-1.089-1.992-1.197-1.991 1.197z" fill="#B6C7D3"/><path d="M188.016 211.408v.653l1.992 1.088v-.653l-1.992-1.088z" fill="#CCD9E2"/><path d="M190.008 212.496v.653l1.992-1.088v-.653l-1.992 1.088z" fill="#A5B7C6"/><path d="M188.016 211.408l1.992 1.088 1.992-1.088-1.992-1.089-1.992 1.089z" fill="#B6C7D3"/><path d="M183.036 214.238v.653l1.992 1.198v-.654l-1.992-1.197z" fill="#CCD9E2"/><path d="M185.028 215.435v.654l4.427-2.613v-.653l-4.427 2.612z" fill="#A5B7C6"/><path d="M183.036 214.238l1.992 1.197 4.427-2.612-1.992-1.089-4.427 2.504z" fill="#B6C7D3"/><path d="M213.358 199.868v.654l1.992 1.197v-.653l-1.992-1.198z" fill="#CCD9E2"/><path d="M215.35 201.066v.653l1.992-1.197v-.545l-1.992 1.089z" fill="#A5B7C6"/><path d="M213.358 199.868l1.992 1.198 1.992-1.089-1.992-1.197-1.992 1.088z" fill="#B6C7D3"/><path d="M210.813 201.392v.545l1.992 1.197v-.653l-1.992-1.089z" fill="#CCD9E2"/><path d="M212.805 202.481v.653l1.992-1.088v-.654l-1.992 1.089z" fill="#A5B7C6"/><path d="M210.813 201.392l1.992 1.089 1.992-1.089-1.992-1.197-1.992 1.197z" fill="#B6C7D3"/><path d="M208.268 202.808v.653l2.102 1.088v-.653l-2.102-1.088z" fill="#CCD9E2"/><path d="M210.37 203.896v.653l1.881-1.088v-.653l-1.881 1.088z" fill="#A5B7C6"/><path d="M208.268 202.808l2.102 1.088 1.881-1.088-1.991-1.089-1.992 1.089z" fill="#B6C7D3"/><path d="M195.652 209.992v.654l1.992 1.088v-.653l-1.992-1.089z" fill="#CCD9E2"/><path d="M197.644 211.081v.653l12.173-6.858v-.653l-12.173 6.858z" fill="#A5B7C6"/><path d="M195.652 209.992l1.992 1.089 12.173-6.858-2.103-1.089-12.062 6.858z" fill="#B6C7D3"/><path d="M193.107 211.408v.653l1.992 1.088v-.544l-1.992-1.197z" fill="#CCD9E2"/><path d="M195.099 212.605v.544l1.992-1.088v-.653l-1.992 1.197z" fill="#A5B7C6"/><path d="M193.107 211.408l1.992 1.197 1.992-1.197-1.992-1.089-1.992 1.089z" fill="#B6C7D3"/><path d="M190.562 212.823v.653l1.991 1.197v-.653l-1.991-1.197z" fill="#CCD9E2"/><path d="M192.553 214.02v.653l1.992-1.197v-.653l-1.992 1.197z" fill="#A5B7C6"/><path d="M190.562 212.823l1.991 1.197 1.992-1.197-1.992-1.089-1.991 1.089z" fill="#B6C7D3"/><path d="M185.582 215.762v.544l1.991 1.198v-.653l-1.991-1.089z" fill="#CCD9E2"/><path d="M187.573 216.851v.653l4.427-2.613v-.544l-4.427 2.504z" fill="#A5B7C6"/><path d="M185.582 215.762l1.991 1.089 4.427-2.504-1.992-1.198-4.426 2.613z" fill="#B6C7D3"/><path d="M193.217 159.481l.111 9.906 8.742-4.898v-9.907l-8.853 4.899z" fill="#78C3D6"/><path d="M184.918 167.972v.436l6.308-3.593v-.435l-6.308 3.592zm0-1.197v.326l6.308-3.592v-.327l-6.308 3.593zm0-1.307v.436l6.308-3.593v-.435l-6.308 3.592zm0-1.197v.435l6.308-3.592v-.436l-6.308 3.593zm0 6.205v.435l6.308-3.701v-.326l-6.308 3.592zm0-1.198v.327l6.308-3.592v-.436l-6.308 3.701zm1.66 1.525v.435l4.647-2.722v-.435l-4.647 2.722z" fill="#B6C7D3"/><path d="M235.823 191.486c0 .109 0 .109-.111.218l-4.095 2.286-.664-.436c1.107-.653 3.431-1.85 4.87-2.612v.544z" fill="#A5B7C6"/><path d="M235.712 190.942c-1.328.762-3.652 1.959-4.869 2.612l-8.411-5.225c.775-.435 1.439-.762 2.214-1.197 1.328-.762 2.877-1.742 4.426-1.96 1.217-.109 2.435.327 3.431.871s2.988 1.742 3.209 4.899z" fill="#EEE"/><path d="M231.396 193.99c.221.109.443 0 .443-.218-.111-3.483-2.435-4.572-3.32-5.116-.996-.545-3.873-1.742-6.087-.109a.328.328 0 000 .435c3.21 1.742 7.525 4.246 8.964 5.008z" fill="#CCD9E2"/><path d="M82.112 105.922l36.408 20.683-45.925 26.127-36.408-20.684 45.925-26.126z" fill="#EAEAEA"/><path d="M101.921 131.395c-.111 0-.111 0-.222-.109l-27.444-15.567c-.221-.109-.221-.327-.11-.544.11-.218.331-.218.553-.109l27.444 15.567c.221.109.221.326.111.544 0 .109-.111.218-.332.218zm3.319-1.851c-.11 0-.11 0-.221-.109l-27.444-15.567c-.222-.109-.222-.326-.111-.544.11-.218.332-.218.553-.109l27.445 15.567c.221.109.221.327.11.545-.11.108-.221.217-.332.217zm3.21-1.85c-.111 0-.111 0-.222-.109l-27.444-15.567c-.221-.109-.221-.327-.11-.545.11-.217.331-.217.553-.108l27.444 15.567c.221.109.221.326.111.544-.111.109-.222.218-.332.218z" fill="#78C3D6"/><path d="M328.115 144.023v5.007c0 .654-.442 1.307-1.328 1.851v-5.008c.886-.544 1.328-1.197 1.328-1.85z" fill="#57B7CE"/><path d="M276.657 149.03v-5.007c0 .653.443 1.306 1.328 1.85v5.008c-.885-.544-1.328-1.197-1.328-1.851z" fill="#99D3E0"/><path d="M326.787 145.873v5.008l-21.026 11.975v-5.008l21.026-11.975z" fill="#57B7CE"/><path d="M299.232 157.848v5.008l-21.136-11.975v-5.008l21.136 11.975zm6.529 0v5.008c-.885.544-2.102.762-3.209.762-1.106 0-2.324-.218-3.209-.762v-5.008c.885.544 2.103.762 3.209.762 1.107 0 2.324-.218 3.209-.762z" fill="#99D3E0"/><path d="M326.787 142.172c1.771.98 1.771 2.722 0 3.701l-21.026 11.975c-1.77.98-4.647.98-6.529 0l-21.136-11.975c-1.771-.979-1.771-2.721 0-3.701l21.026-11.975c1.77-.979 4.648-.979 6.529 0l21.136 11.975z" fill="#78C3D6"/><path d="M305.761 157.848v5.008c-.885.544-2.102.762-3.209.762v-5.008c1.107 0 2.324-.218 3.209-.762z" fill="#78C3D6"/><path d="M358.88 132.266v3.266c0 .435-.332.871-.886 1.197v-3.266c.554-.326.886-.762.886-1.197z" fill="#57B7CE"/><path d="M325.017 135.532v-3.266c0 .435.332.871.885 1.197v3.266c-.553-.326-.885-.762-.885-1.197z" fill="#99D3E0"/><path d="M357.994 133.463v3.266l-13.833 7.947v-3.375l13.833-7.838z" fill="#57B7CE"/><path d="M339.846 141.301v3.375l-13.944-7.947v-3.266l13.944 7.838zm4.315 0v3.266c-.553.327-1.327.544-2.102.544-.775 0-1.549-.108-2.103-.544v-3.266c.554.327 1.328.545 2.103.545.664 0 1.439-.218 2.102-.545z" fill="#99D3E0"/><path d="M357.994 130.959c1.217.654 1.217 1.742 0 2.395l-13.833 7.947c-1.217.653-3.098.653-4.316 0l-13.943-7.947c-1.217-.653-1.217-1.741 0-2.395l13.833-7.946c1.217-.654 3.098-.654 4.316 0l13.943 7.946z" fill="#78C3D6"/><path d="M344.161 141.301v3.266c-.553.327-1.328.544-2.102.544v-3.265c.664 0 1.438-.218 2.102-.545z" fill="#78C3D6"/><path d="M178.056 55.846v1.741c0 1.307-.885 2.722-2.655 3.702-3.652 2.068-9.517 2.068-13.169 0-1.882-1.089-2.767-2.395-2.767-3.81v-1.742c0 1.415.885 2.721 2.767 3.81 3.652 2.068 9.517 2.068 13.169 0 1.77-.98 2.655-2.286 2.655-3.701z" fill="#A5B7C6"/><path d="M175.29 52.144c3.652 2.069 3.652 5.443 0 7.512-3.652 2.068-9.517 2.068-13.169 0-3.652-2.069-3.652-5.443 0-7.512 3.652-2.068 9.628-2.068 13.169 0zm15.382-51.6c-.553-.326-1.328-.217-2.103.218l-46.257 26.235c-1.66.98-2.988 3.266-2.988 5.117l.111 34.073c0 .98.332 1.633.885 1.851l2.988 1.742c-.553-.327-.885-.98-.885-1.85l-.111-34.074c0-1.85 1.328-4.137 2.988-5.117l46.257-26.235c.886-.436 1.55-.544 2.103-.218L190.672.544z" fill="#B6C7D3"/><path d="M191.557 2.504c1.66-.98 2.988-.218 2.988 1.742l.111 34.073c0 1.85-1.328 4.137-2.988 5.116L145.411 69.78c-1.66.98-2.988.218-2.988-1.742l-.111-34.073c0-1.851 1.328-4.137 2.988-5.117l46.257-26.344z" fill="#A5B7C6"/><path d="M192.443 10.886V4.354l-1.328.762-2.767 1.525-37.293 21.227-6.64 3.81v31.788l29.547-16.656 4.537-2.613 14.054-7.946-.11-25.365z" fill="#78C3D6"/><path d="M151.055 27.868l-6.64 3.702v2.068l48.028-27.215V4.354l-41.388 23.514z" fill="#53B3C9"/><path d="M211.366 65.317l-14.829-8.383 19.698-11.212 14.829 8.382-19.698 11.213z" fill="#78C3D6"/><path d="M158.469 75.55v1.306l14.497 8.273v-1.306l-14.497-8.274z" fill="#CCD9E2"/><path d="M172.966 83.823v1.306l31.982-18.18v-1.306l-31.982 18.18z" fill="#A5B7C6"/><path d="M158.469 75.55l14.497 8.273 31.982-18.18-14.387-8.273-32.092 18.18z" fill="#B6C7D3"/><path d="M188.57 59.438v.653l1.992 1.089v-.545l-1.992-1.197z" fill="#CCD9E2"/><path d="M190.562 60.635v.545l1.991-1.089v-.653l-1.991 1.197z" fill="#A5B7C6"/><path d="M188.57 59.438l1.992 1.197 1.991-1.197-1.991-1.089-1.992 1.089z" fill="#B6C7D3"/><path d="M186.024 60.853v.653l1.992 1.198v-.653l-1.992-1.198z" fill="#CCD9E2"/><path d="M188.016 62.05v.654l1.992-1.198v-.544l-1.992 1.089z" fill="#A5B7C6"/><path d="M186.024 60.853l1.992 1.198 1.992-1.089-1.992-1.197-1.992 1.088z" fill="#B6C7D3"/><path d="M183.479 62.377v.544l1.992 1.198v-.653l-1.992-1.089z" fill="#CCD9E2"/><path d="M185.471 63.466v.653l1.992-1.089v-.653l-1.992 1.089z" fill="#A5B7C6"/><path d="M183.479 62.377l1.992 1.089 1.992-1.089-1.992-1.197-1.992 1.197z" fill="#B6C7D3"/><path d="M180.934 63.792v.654l1.992 1.088v-.653l-1.992-1.089z" fill="#CCD9E2"/><path d="M182.926 64.881v.653l1.992-1.088v-.654l-1.992 1.089z" fill="#A5B7C6"/><path d="M180.934 63.792l1.992 1.089 1.992-1.089-1.992-1.088-1.992 1.088z" fill="#B6C7D3"/><path d="M178.388 65.208v.653l2.103 1.088-.111-.544-1.992-1.197z" fill="#CCD9E2"/><path d="M180.38 66.405l.111.544 1.881-1.088v-.653l-1.992 1.197z" fill="#A5B7C6"/><path d="M178.388 65.208l1.992 1.197 1.992-1.197-1.992-1.089-1.992 1.089z" fill="#B6C7D3"/><path d="M175.954 66.623v.653l1.992 1.197v-.653l-1.992-1.197z" fill="#CCD9E2"/><path d="M177.946 67.82v.653l1.992-1.197-.111-.653-1.881 1.197z" fill="#A5B7C6"/><path d="M175.954 66.623l1.992 1.197 1.881-1.197-1.992-1.089-1.881 1.089z" fill="#B6C7D3"/><path d="M173.409 68.038v.653l1.992 1.198v-.654l-1.992-1.197z" fill="#CCD9E2"/><path d="M175.401 69.235v.654l1.992-1.198v-.544l-1.992 1.088z" fill="#A5B7C6"/><path d="M173.409 68.038l1.992 1.197 1.992-1.088-1.992-1.198-1.992 1.089z" fill="#B6C7D3"/><path d="M170.864 69.562v.544l1.991 1.198v-.653l-1.991-1.089z" fill="#CCD9E2"/><path d="M172.855 70.65v.654l1.992-1.089v-.653l-1.992 1.089z" fill="#A5B7C6"/><path d="M170.864 69.562l1.991 1.089 1.992-1.089-1.992-1.197-1.991 1.197z" fill="#B6C7D3"/><path d="M168.318 70.977v.653l1.992 1.089v-.653l-1.992-1.089z" fill="#CCD9E2"/><path d="M170.31 72.066v.653l1.992-1.089v-.653l-1.992 1.089z" fill="#A5B7C6"/><path d="M168.318 70.977l1.992 1.089 1.992-1.089-1.992-1.088-1.992 1.088z" fill="#B6C7D3"/><path d="M165.773 72.392v.654l1.992 1.088v-.544l-1.992-1.198z" fill="#CCD9E2"/><path d="M167.765 73.59v.544l1.992-1.088v-.654l-1.992 1.198z" fill="#A5B7C6"/><path d="M165.773 72.392l1.992 1.198 1.992-1.198-1.992-1.088-1.992 1.088z" fill="#B6C7D3"/><path d="M160.682 75.223v.653l1.992 1.197v-.653l-1.992-1.197z" fill="#CCD9E2"/><path d="M162.674 76.42v.653l4.537-2.612v-.653l-4.537 2.612z" fill="#A5B7C6"/><path d="M160.682 75.223l1.992 1.197 4.537-2.612-1.991-1.089-4.538 2.504z" fill="#B6C7D3"/><path d="M188.57 62.377v.653l1.992 1.089v-.653l-1.992-1.089z" fill="#CCD9E2"/><path d="M190.562 63.466v.653l4.537-2.504v-.653l-4.537 2.504z" fill="#A5B7C6"/><path d="M188.57 62.377l1.992 1.089 4.537-2.504-1.992-1.197-4.537 2.612z" fill="#B6C7D3"/><path d="M186.024 63.792v.654l1.992 1.088v-.544l-1.992-1.198z" fill="#CCD9E2"/><path d="M188.016 64.99v.544l1.992-1.088v-.654l-1.992 1.198z" fill="#A5B7C6"/><path d="M186.024 63.792l1.992 1.198 1.992-1.198-1.992-1.088-1.992 1.088z" fill="#B6C7D3"/><path d="M183.479 65.208v.653l1.992 1.197v-.653l-1.992-1.197z" fill="#CCD9E2"/><path d="M185.471 66.405v.653l1.992-1.197v-.653l-1.992 1.197z" fill="#A5B7C6"/><path d="M183.479 65.208l1.992 1.197 1.992-1.197-1.992-1.089-1.992 1.089z" fill="#B6C7D3"/><path d="M180.934 66.623v.653l2.102 1.197v-.653l-2.102-1.197z" fill="#CCD9E2"/><path d="M183.036 67.82v.653l1.882-1.197v-.544l-1.882 1.088z" fill="#A5B7C6"/><path d="M180.934 66.623l2.102 1.197 1.882-1.088-1.992-1.198-1.992 1.089z" fill="#B6C7D3"/><path d="M178.499 68.147v.544l1.992 1.198v-.654l-1.992-1.088z" fill="#CCD9E2"/><path d="M180.491 69.235v.654l1.992-1.089v-.653l-1.992 1.088z" fill="#A5B7C6"/><path d="M178.499 68.147l1.992 1.088 1.992-1.088-2.102-1.198-1.882 1.198z" fill="#B6C7D3"/><path d="M175.954 69.562v.653l1.992 1.089v-.653l-1.992-1.089z" fill="#CCD9E2"/><path d="M177.946 70.65v.654l1.992-1.089v-.653l-1.992 1.089z" fill="#A5B7C6"/><path d="M175.954 69.562l1.992 1.089 1.992-1.089-1.992-1.089-1.992 1.089z" fill="#B6C7D3"/><path d="M173.409 70.977v.653l1.992 1.089v-.544l-1.992-1.198z" fill="#CCD9E2"/><path d="M175.401 72.175v.544l1.992-1.089v-.653l-1.992 1.198z" fill="#A5B7C6"/><path d="M173.409 70.977l1.992 1.198 1.992-1.198-1.992-1.088-1.992 1.088z" fill="#B6C7D3"/><path d="M170.864 72.392v.654l1.991 1.197v-.653l-1.991-1.198z" fill="#CCD9E2"/><path d="M172.855 73.59v.653l1.992-1.197v-.654l-1.992 1.198z" fill="#A5B7C6"/><path d="M170.864 72.392l1.991 1.198 1.992-1.198-1.992-1.088-1.991 1.088z" fill="#B6C7D3"/><path d="M168.318 73.808v.653l1.992 1.197v-.653l-1.992-1.197z" fill="#CCD9E2"/><path d="M170.31 75.005v.653l1.992-1.197v-.544l-1.992 1.088z" fill="#A5B7C6"/><path d="M168.318 73.808l1.992 1.197 1.992-1.088-1.992-1.198-1.992 1.089z" fill="#B6C7D3"/><path d="M165.773 75.332v.544l1.992 1.197v-.653l-1.992-1.088z" fill="#CCD9E2"/><path d="M167.765 76.42v.653l1.992-1.088v-.653l-1.992 1.088z" fill="#A5B7C6"/><path d="M165.773 75.332l1.992 1.088 1.992-1.088-1.992-1.198-1.992 1.198z" fill="#B6C7D3"/><path d="M163.228 76.747v.653l1.992 1.089v-.654l-1.992-1.088z" fill="#CCD9E2"/><path d="M165.22 77.835v.654l1.992-1.089v-.653l-1.992 1.088z" fill="#A5B7C6"/><path d="M163.228 76.747l1.992 1.088 1.992-1.088-1.992-1.089-1.992 1.089z" fill="#B6C7D3"/><path d="M191.115 63.792v.654l1.992 1.197v-.653l-1.992-1.198z" fill="#CCD9E2"/><path d="M193.107 64.99v.653l4.537-2.613v-.653l-4.537 2.613z" fill="#A5B7C6"/><path d="M191.115 63.792l1.992 1.198 4.537-2.613-1.992-1.088-4.537 2.503z" fill="#B6C7D3"/><path d="M188.57 65.208v.653l1.992 1.197v-.653l-1.992-1.197z" fill="#CCD9E2"/><path d="M190.562 66.405v.653l1.991-1.197v-.544l-1.991 1.088z" fill="#A5B7C6"/><path d="M188.57 65.208l1.992 1.197 1.991-1.088-1.991-1.198-1.992 1.089z" fill="#B6C7D3"/><path d="M186.024 66.732v.544l2.103 1.197v-.653l-2.103-1.088z" fill="#CCD9E2"/><path d="M188.127 67.82v.653l1.881-1.088v-.653l-1.881 1.088z" fill="#A5B7C6"/><path d="M186.024 66.732l2.103 1.088 1.881-1.088-1.992-1.198-1.992 1.198z" fill="#B6C7D3"/><path d="M183.59 68.147v.653l1.992 1.089v-.654l-1.992-1.088z" fill="#CCD9E2"/><path d="M185.582 69.235v.654l1.881-1.089v-.653l-1.881 1.088z" fill="#A5B7C6"/><path d="M183.59 68.147l1.992 1.088 1.881-1.088-1.992-1.089-1.881 1.089z" fill="#B6C7D3"/><path d="M181.044 69.562v.653l1.992 1.089v-.544l-1.992-1.198z" fill="#CCD9E2"/><path d="M183.036 70.76v.544l1.992-1.089v-.653l-1.992 1.198z" fill="#A5B7C6"/><path d="M181.044 69.562l1.992 1.198 1.992-1.198-1.992-1.089-1.992 1.089z" fill="#B6C7D3"/><path d="M178.499 70.977v.653l1.992 1.198v-.653l-1.992-1.198z" fill="#CCD9E2"/><path d="M180.491 72.175v.653l1.992-1.198v-.653l-1.992 1.198z" fill="#A5B7C6"/><path d="M178.499 70.977l1.992 1.198 1.992-1.198-1.992-1.088-1.992 1.088z" fill="#B6C7D3"/><path d="M175.954 72.392v.654l1.992 1.197v-.653l-1.992-1.198z" fill="#CCD9E2"/><path d="M177.946 73.59v.653l1.992-1.197V72.5l-1.992 1.089z" fill="#A5B7C6"/><path d="M175.954 72.392l1.992 1.198 1.992-1.089-1.992-1.197-1.992 1.088z" fill="#B6C7D3"/><path d="M173.409 73.916v.545l1.992 1.197v-.653l-1.992-1.088z" fill="#CCD9E2"/><path d="M175.401 75.005v.653l1.992-1.088v-.653l-1.992 1.088z" fill="#A5B7C6"/><path d="M173.409 73.916l1.992 1.09 1.992-1.09-1.992-1.197-1.992 1.198z" fill="#B6C7D3"/><path d="M170.864 75.332v.653l1.991 1.088v-.653l-1.991-1.088z" fill="#CCD9E2"/><path d="M172.855 76.42v.653l1.992-1.088v-.653l-1.992 1.088z" fill="#A5B7C6"/><path d="M170.864 75.332l1.991 1.088 1.992-1.088-1.992-1.089-1.991 1.089z" fill="#B6C7D3"/><path d="M165.773 78.162v.653l2.103 1.198v-.654l-2.103-1.197z" fill="#CCD9E2"/><path d="M167.875 79.36v.653l4.427-2.613v-.653l-4.427 2.612z" fill="#A5B7C6"/><path d="M165.773 78.162l2.103 1.197 4.426-2.612-1.992-1.089-4.537 2.504z" fill="#B6C7D3"/><path d="M191.115 66.732v.653l2.102 1.088-.11-.653-1.992-1.088z" fill="#CCD9E2"/><path d="M193.107 67.82l.11.653 6.972-4.027V63.9l-7.082 3.92z" fill="#A5B7C6"/><path d="M191.115 66.732l1.992 1.088 7.082-3.919-1.992-1.197-7.082 4.028z" fill="#B6C7D3"/><path d="M188.68 68.147v.653l1.992 1.089v-.545l-1.992-1.197z" fill="#CCD9E2"/><path d="M190.672 69.344v.545l1.992-1.089-.111-.653-1.881 1.197z" fill="#A5B7C6"/><path d="M188.68 68.147l1.992 1.197 1.881-1.197-1.992-1.089-1.881 1.089z" fill="#B6C7D3"/><path d="M186.135 69.562v.653l1.992 1.198v-.653l-1.992-1.198z" fill="#CCD9E2"/><path d="M188.127 70.76v.653l1.992-1.198v-.653l-1.992 1.198z" fill="#A5B7C6"/><path d="M186.135 69.562l1.992 1.198 1.992-1.198-2.103-1.089-1.881 1.089z" fill="#B6C7D3"/><path d="M183.59 70.977v.653l1.992 1.198v-.653l-1.992-1.198z" fill="#CCD9E2"/><path d="M185.582 72.175v.653l1.991-1.198v-.544l-1.991 1.089z" fill="#A5B7C6"/><path d="M183.59 70.977l1.992 1.198 1.991-1.089-1.991-1.197-1.992 1.088z" fill="#B6C7D3"/><path d="M181.044 72.501v.545l1.992 1.197v-.653l-1.992-1.089z" fill="#CCD9E2"/><path d="M183.036 73.59v.653l1.992-1.089v-.653l-1.992 1.089z" fill="#A5B7C6"/><path d="M181.044 72.501l1.992 1.089 1.992-1.089-1.992-1.197-1.992 1.197z" fill="#B6C7D3"/><path d="M178.499 73.916v.654l1.992 1.088v-.653l-1.992-1.088z" fill="#CCD9E2"/><path d="M180.491 75.005v.653l1.992-1.088v-.653l-1.992 1.088z" fill="#A5B7C6"/><path d="M178.499 73.916l1.992 1.09 1.992-1.09-1.992-1.088-1.992 1.088z" fill="#B6C7D3"/><path d="M175.954 75.332v.653l1.992 1.088v-.544l-1.992-1.197z" fill="#CCD9E2"/><path d="M177.946 76.53v.543l1.992-1.088v-.653l-1.992 1.197z" fill="#A5B7C6"/><path d="M175.954 75.332l1.992 1.197 1.992-1.197-1.992-1.089-1.992 1.089z" fill="#B6C7D3"/><path d="M173.409 76.747v.653l1.992 1.197v-.653l-1.992-1.197z" fill="#CCD9E2"/><path d="M175.401 77.944v.653l1.992-1.197v-.544l-1.992 1.088z" fill="#A5B7C6"/><path d="M173.409 76.747l1.992 1.197 1.992-1.088-1.992-1.198-1.992 1.089z" fill="#B6C7D3"/><path d="M168.429 79.686v.544l1.992 1.198v-.653l-1.992-1.089z" fill="#CCD9E2"/><path d="M170.421 80.775v.653l4.426-2.613v-.544l-4.426 2.504z" fill="#A5B7C6"/><path d="M168.429 79.686l1.992 1.089 4.426-2.504-1.992-1.198-4.426 2.613z" fill="#B6C7D3"/><path d="M198.75 65.317v.653l1.992 1.088v-.653l-1.992-1.088z" fill="#CCD9E2"/><path d="M200.742 66.405v.653l1.992-1.088v-.653l-1.992 1.088z" fill="#A5B7C6"/><path d="M198.75 65.317l1.992 1.088 1.992-1.088-1.992-1.09-1.992 1.09z" fill="#B6C7D3"/><path d="M196.205 66.732v.653l1.992 1.088v-.544l-1.992-1.197z" fill="#CCD9E2"/><path d="M198.197 67.93v.543l1.992-1.088v-.653l-1.992 1.197z" fill="#A5B7C6"/><path d="M196.205 66.732l1.992 1.197 1.992-1.197-1.992-1.089-1.992 1.089z" fill="#B6C7D3"/><path d="M193.66 68.147v.653l2.103 1.198v-.654l-2.103-1.197z" fill="#CCD9E2"/><path d="M195.763 69.344v.654l1.881-1.198v-.653l-1.881 1.197z" fill="#A5B7C6"/><path d="M193.66 68.147l2.103 1.197 1.881-1.197-1.992-1.089-1.992 1.089z" fill="#B6C7D3"/><path d="M181.044 75.332v.653l1.992 1.197v-.653l-1.992-1.197z" fill="#CCD9E2"/><path d="M183.036 76.53v.652l12.173-6.967v-.544l-12.173 6.858z" fill="#A5B7C6"/><path d="M181.044 75.332l1.992 1.197 12.173-6.858-2.102-1.198-12.063 6.859z" fill="#B6C7D3"/><path d="M178.499 76.856v.544l1.992 1.197v-.653l-1.992-1.088z" fill="#CCD9E2"/><path d="M180.491 77.944v.653l1.992-1.197v-.544l-1.992 1.088z" fill="#A5B7C6"/><path d="M178.499 76.856l1.992 1.088 1.992-1.088-1.992-1.198-1.992 1.198z" fill="#B6C7D3"/><path d="M175.954 78.27v.545l1.992 1.198v-.654l-1.992-1.088z" fill="#CCD9E2"/><path d="M177.946 79.36v.653l1.992-1.089v-.653l-1.992 1.088z" fill="#A5B7C6"/><path d="M175.954 78.27l1.992 1.09 1.992-1.09-1.992-1.197-1.992 1.198z" fill="#B6C7D3"/><path d="M170.974 81.101v.653l1.992 1.089v-.544l-1.992-1.198z" fill="#CCD9E2"/><path d="M172.966 82.299v.544l4.427-2.504v-.653l-4.427 2.613z" fill="#A5B7C6"/><path d="M170.974 81.101l1.992 1.198 4.427-2.613-1.992-1.089-4.427 2.504z" fill="#B6C7D3"/><path d="M178.61 24.93l.111 9.905 8.742-5.007v-9.906l-8.853 5.007z" fill="#78C3D6"/><path d="M170.31 33.42v.327l6.308-3.593v-.326l-6.308 3.592zm0-1.306v.435l6.308-3.592v-.436l-6.308 3.593zm0-1.198v.436l6.308-3.701v-.327l-6.308 3.592zm0-1.197v.327l6.308-3.593v-.435l-6.308 3.701zm0 6.096v.436l6.308-3.593v-.435l-6.308 3.592zm0-1.197v.435l6.308-3.592v-.436l-6.308 3.593zm1.66 1.524v.435l4.648-2.721v-.327l-4.648 2.613z" fill="#B6C7D3"/><path d="M221.215 56.825c0 .11 0 .11-.111.218l-4.094 2.286-.664-.435c1.107-.654 3.43-1.851 4.869-2.613v.544z" fill="#A5B7C6"/><path d="M221.104 56.281c-1.328.762-3.652 1.96-4.869 2.613l-8.41-5.226c.774-.435 1.438-.762 2.213-1.197 1.328-.762 2.877-1.742 4.426-1.96 1.218-.108 2.435.327 3.431.871.996.545 2.988 1.85 3.209 4.899z" fill="#EEE"/><path d="M216.789 59.33c.221.108.442 0 .442-.219-.11-3.483-2.434-4.572-3.32-5.116-.996-.544-3.873-1.742-6.086-.109a.326.326 0 000 .435c3.209 1.851 7.525 4.246 8.964 5.008z" fill="#CCD9E2"/><defs><linearGradient id="paint0_linear" x1="244.419" y1="104.147" x2="274.673" y2="104.147" gradientUnits="userSpaceOnUse"><stop stop-color="#D0D4E3"/><stop offset="1" stop-color="#ECEAEB"/></linearGradient><linearGradient id="paint1_linear" x1="108.32" y1="104.138" x2="138.772" y2="104.138" gradientUnits="userSpaceOnUse"><stop stop-color="#D0D4E3"/><stop offset="1" stop-color="#ECEAEB"/></linearGradient><linearGradient id="paint2_linear" x1="217.248" y1="110.521" x2="244.466" y2="110.521" gradientUnits="userSpaceOnUse"><stop stop-color="#D0D4E3"/><stop offset="1" stop-color="#ECEAEB"/></linearGradient><linearGradient id="paint3_linear" x1="138.725" y1="110.551" x2="166.024" y2="110.551" gradientUnits="userSpaceOnUse"><stop stop-color="#D0D4E3"/><stop offset="1" stop-color="#ECEAEB"/></linearGradient><linearGradient id="paint4_linear" x1="161.343" y1="134.246" x2="191.787" y2="134.246" gradientUnits="userSpaceOnUse"><stop stop-color="#D0D4E3"/><stop offset="1" stop-color="#ECEAEB"/></linearGradient><linearGradient id="paint5_linear" x1="191.74" y1="134.261" x2="221.995" y2="134.261" gradientUnits="userSpaceOnUse"><stop stop-color="#D0D4E3"/><stop offset="1" stop-color="#ECEAEB"/></linearGradient><linearGradient id="paint6_linear" x1="108.367" y1="117.86" x2="274.673" y2="117.86" gradientUnits="userSpaceOnUse"><stop stop-color="#D0D4E3"/><stop offset="1" stop-color="#A9D4E6"/></linearGradient><linearGradient id="paint7_linear" x1="136.202" y1="131.427" x2="140.882" y2="131.427" gradientUnits="userSpaceOnUse"><stop stop-color="#D0D4E3"/><stop offset="1" stop-color="#A9D4E6"/></linearGradient><linearGradient id="paint8_linear" x1="136.399" y1="165.896" x2="166.646" y2="165.896" gradientUnits="userSpaceOnUse"><stop stop-color="#D0D4E3"/><stop offset="1" stop-color="#ECEAEB"/></linearGradient><linearGradient id="paint9_linear" x1="109.224" y1="172.274" x2="136.446" y2="172.274" gradientUnits="userSpaceOnUse"><stop stop-color="#D0D4E3"/><stop offset="1" stop-color="#ECEAEB"/></linearGradient><linearGradient id="paint10_linear" x1="83.721" y1="196.013" x2="113.975" y2="196.013" gradientUnits="userSpaceOnUse"><stop stop-color="#D0D4E3"/><stop offset="1" stop-color="#ECEAEB"/></linearGradient><linearGradient id="paint11_linear" x1=".3" y1="195.968" x2="83.768" y2="195.968" gradientUnits="userSpaceOnUse"><stop stop-color="#D0D4E3"/><stop offset="1" stop-color="#ECEAEB"/></linearGradient><linearGradient id="paint12_linear" x1=".348" y1="179.557" x2="166.646" y2="179.557" gradientUnits="userSpaceOnUse"><stop stop-color="#D0D4E3"/><stop offset="1" stop-color="#A9D4E6"/></linearGradient><linearGradient id="paint13_linear" x1="242.551" y1="131.551" x2="247.301" y2="131.551" gradientUnits="userSpaceOnUse"><stop stop-color="#D0D4E3"/><stop offset="1" stop-color="#A9D4E6"/></linearGradient><linearGradient id="paint14_linear" x1="217.046" y1="165.828" x2="247.498" y2="165.828" gradientUnits="userSpaceOnUse"><stop stop-color="#D0D4E3"/><stop offset="1" stop-color="#ECEAEB"/></linearGradient><linearGradient id="paint15_linear" x1="247.451" y1="172.354" x2="274.751" y2="172.354" gradientUnits="userSpaceOnUse"><stop stop-color="#D0D4E3"/><stop offset="1" stop-color="#ECEAEB"/></linearGradient><linearGradient id="paint16_linear" x1="270.07" y1="195.943" x2="300.522" y2="195.943" gradientUnits="userSpaceOnUse"><stop stop-color="#D0D4E3"/><stop offset="1" stop-color="#ECEAEB"/></linearGradient><linearGradient id="paint17_linear" x1="300.475" y1="195.934" x2="383.408" y2="195.934" gradientUnits="userSpaceOnUse"><stop stop-color="#D0D4E3"/><stop offset="1" stop-color="#ECEAEB"/></linearGradient><linearGradient id="paint18_linear" x1="217.094" y1="179.67" x2="383.408" y2="179.67" gradientUnits="userSpaceOnUse"><stop stop-color="#D0D4E3"/><stop offset="1" stop-color="#A9D4E6"/></linearGradient><linearGradient id="paint19_linear" x1="244.928" y1="193.18" x2="249.61" y2="193.18" gradientUnits="userSpaceOnUse"><stop stop-color="#D0D4E3"/><stop offset="1" stop-color="#A9D4E6"/></linearGradient><linearGradient id="paint20_linear" x1="134.527" y1="193.041" x2="139.281" y2="193.041" gradientUnits="userSpaceOnUse"><stop stop-color="#D0D4E3"/><stop offset="1" stop-color="#A9D4E6"/></linearGradient><linearGradient id="paint21_linear" x1="109.027" y1="257.736" x2="192.502" y2="257.736" gradientUnits="userSpaceOnUse"><stop stop-color="#D0D4E3"/><stop offset="1" stop-color="#ECEAEB"/></linearGradient><linearGradient id="paint22_linear" x1="192.455" y1="257.782" x2="275.38" y2="257.782" gradientUnits="userSpaceOnUse"><stop stop-color="#D0D4E3"/><stop offset="1" stop-color="#ECEAEB"/></linearGradient><linearGradient id="paint23_linear" x1="109.074" y1="241.399" x2="275.38" y2="241.399" gradientUnits="userSpaceOnUse"><stop stop-color="#D0D4E3"/><stop offset="1" stop-color="#A9D4E6"/></linearGradient></defs></svg>