<svg width="391" height="277" fill="none" xmlns="http://www.w3.org/2000/svg"><path d="M109.453 244.487l54.576 31.622c.888.535 2.219.535 3.106 0l82.264-47.744c.887-.535.887-1.247 0-1.782l-54.576-31.622c-.888-.534-2.219-.534-3.106 0l-82.264 47.745c-.887.445-.887 1.247 0 1.781zm-37.627-43.201c14.2 6.769 37.183 6.769 51.293 0 14.199-6.77 14.199-17.726 0-24.585-14.198-6.77-37.183-6.77-51.293 0-14.198 6.77-14.198 17.815 0 24.585zm195.321 35.274c14.021 6.68 36.65 6.68 50.672 0 14.021-6.681 14.021-17.548 0-24.229-14.022-6.681-36.651-6.681-50.672 0-14.021 6.681-14.021 17.548 0 24.229z" fill="#E0E0E0"/><path d="M.888 160.422c4.087-2.489 4.62-40 18.301-47.644 13.681-7.645 8.884 26.666 22.92 18.578 13.326-7.734 9.24-47.823 22.92-55.645C78.712 67.89 74.003 107 87.95 99.533c12.083-6.489 11.106-22.133 19.012-28.977 7.907-6.934 9.772 8.266 19.722 2.755 9.95-5.511 1.511-35.467 22.743-47.733v57.244L.888 169.222v-8.8z" fill="url(#paint0_linear)"/><path d="M.888 161.133c-.266 0-.444-.089-.533-.355-.177-.356-.088-.711.267-.889 1.244-.711 2.31-6.4 3.465-12.445 2.398-12.711 5.774-30.133 14.924-35.288 2.221-1.245 4.087-1.512 5.775-.889 3.287 1.244 4.886 5.955 6.485 10.577 1.51 4.356 3.02 8.8 5.775 9.778 1.332.534 2.931.178 4.886-.889 6.396-3.644 8.706-15.555 10.927-27.111 2.398-12 4.797-24.444 11.993-28.533 2.043-1.156 3.82-1.422 5.42-.8 3.553 1.422 5.152 7.022 6.928 12.889 1.6 5.422 3.2 11.022 6.22 12.267 1.243.533 2.664.355 4.352-.623 6.752-3.644 9.24-10.133 11.727-16.533 1.865-4.8 3.642-9.333 7.107-12.445 4.353-3.822 7.196-1.422 9.95.8 2.754 2.312 5.33 4.445 9.95 1.867 3.82-2.044 4.797-8.355 5.952-15.555 1.777-11.023 3.909-24.712 16.79-32.178.356-.178.711-.09.889.267.177.355.088.71-.267.888-12.26 7.111-14.392 20.445-16.168 31.2-1.244 7.556-2.221 14.134-6.574 16.534-5.42 2.933-8.707.177-11.461-2.045-2.754-2.222-4.708-3.91-8.173-.8-3.287 2.845-4.975 7.2-6.751 11.911-2.577 6.578-5.153 13.334-12.349 17.156-2.043 1.067-3.909 1.333-5.508.622-3.642-1.511-5.33-7.466-7.018-13.155-1.51-5.334-3.11-10.845-6.13-12.09-1.155-.444-2.576-.266-4.264.712C58.81 79.8 56.5 91.888 54.19 103.622c-2.398 12.356-4.708 24-11.638 28-2.31 1.334-4.264 1.689-6.04 1.067-3.376-1.245-4.975-6.045-6.574-10.578-1.51-4.267-3.021-8.711-5.686-9.778-1.244-.533-2.843-.266-4.62.8C11.016 117.933 7.73 135 5.42 147.444c-1.51 8.089-2.398 12.356-4.086 13.334-.178.355-.267.355-.445.355z" fill="#E0E0E0"/><path d="M65.118 76.511c-.177 0-.266-.089-.266-.266v-.534c0-.178.089-.266.266-.266.178 0 .267.088.267.266v.534c0 .177-.089.266-.267.266z" fill="#FAFAFA"/><path fill-rule="evenodd" clip-rule="evenodd" d="M64.852 78.556c0 .177.1.266.3.266.2 0 .3-.178.3-.266V77.4c0-.178-.1-.267-.3-.267-.2 0-.3.09-.3.267v1.156zm.3 2.489c-.2 0-.3-.09-.3-.267v-1.156c0-.177.1-.266.3-.266.2 0 .3.089.3.266v1.156c0 .178-.1.266-.3.266zm-.3 2.044c0 .178.1.267.3.267.2 0 .3-.178.3-.267v-1.156c0-.177-.1-.266-.3-.266-.2 0-.3.089-.3.266v1.156zm.3 2.489c-.2 0-.3-.09-.3-.267v-1.155c0-.178.1-.267.3-.267.2 0 .3.089.3.267v1.155c0 .178-.1.267-.3.267zm-.3 1.955c0 .178.1.267.3.267.2 0 .3-.089.3-.267v-1.155c0-.178-.1-.267-.3-.267-.2 0-.3.089-.3.267v1.155zm.3 2.578c-.2 0-.3-.089-.3-.267V88.69c0-.178.1-.267.3-.267.2 0 .3.09.3.267v1.156c0 .088-.1.266-.3.266zm-.3 1.956c0 .178.1.266.3.266.2 0 .3-.088.3-.266V90.91c0-.178-.1-.267-.3-.267-.2 0-.3.09-.3.267v1.156zm.3 2.578c-.2 0-.3-.09-.3-.267v-1.156c0-.177.1-.266.3-.266.2 0 .3.088.3.266v1.156a.3.3 0 01-.3.266zm-.3 1.955c0 .178.1.267.3.267.2 0 .3-.09.3-.267v-1.155c0-.178-.1-.267-.3-.267-.2 0-.3.089-.3.267V96.6zm.3 2.489c-.2 0-.3-.089-.3-.267v-1.155c0-.178.1-.267.3-.267.2 0 .3.089.3.267v1.155c0 .178-.1.267-.3.267zm-.3 2.044c0 .178.1.267.3.267.2 0 .3-.178.3-.267v-1.155c0-.178-.1-.267-.3-.267-.2 0-.3.089-.3.267v1.155zm.3 2.489c-.2 0-.3-.089-.3-.266V102.2c0-.178.1-.267.3-.267.2 0 .3.089.3.267v1.156c0 .177-.1.266-.3.266zm-.3 2.045c0 .177.1.266.3.266a.3.3 0 00.3-.266v-1.156c0-.178-.1-.267-.3-.267-.2 0-.3.089-.3.267v1.156zm.3 2.489c-.2 0-.3-.089-.3-.267v-1.156c0-.177.1-.266.3-.266.2 0 .3.089.3.266v1.156c0 .178-.1.267-.3.267zm-.3 2.044c0 .178.1.267.3.267.2 0 .3-.178.3-.267v-1.156c0-.177-.1-.266-.3-.266-.2 0-.3.089-.3.266v1.156zm.3 2.489c-.2 0-.3-.089-.3-.267v-1.155c0-.178.1-.267.3-.267.2 0 .3.089.3.267v1.155c0 .089-.1.267-.3.267zm-.3 1.955c0 .178.1.267.3.267.2 0 .3-.089.3-.267v-1.155c0-.178-.1-.267-.3-.267-.2 0-.3.089-.3.267v1.155zm.3 2.578c-.2 0-.3-.089-.3-.266V115.8c0-.178.1-.267.3-.267.2 0 .3.089.3.267v1.156c0 .088-.1.266-.3.266zm-.3 1.956c0 .178.1.266.3.266.2 0 .3-.088.3-.266v-1.156c0-.178-.1-.266-.3-.266-.2 0-.3.088-.3.266v1.156zm.3 2.578c-.2 0-.3-.089-.3-.267v-1.156c0-.177.1-.266.3-.266.2 0 .3.089.3.266v1.156c0 .089-.1.267-.3.267zm-.3 1.955c0 .178.1.267.3.267.2 0 .3-.089.3-.267v-1.155c0-.178-.1-.267-.3-.267-.2 0-.3.089-.3.267v1.155zm.3 2.489c-.2 0-.3-.089-.3-.267v-1.155c0-.178.1-.267.3-.267.2 0 .3.089.3.267v1.155c0 .178-.1.267-.3.267zm-.3 2.044c0 .178.1.267.3.267.2 0 .3-.178.3-.267v-1.155c0-.178-.1-.267-.3-.267-.2 0-.3.089-.3.267v1.155zm0 2.223c0 .177.1.266.3.266.2 0 .3-.089.3-.266v-1.156c0-.178-.1-.267-.3-.267-.2 0-.3.089-.3.267v1.156z" fill="#FAFAFA"/><path d="M65.118 132.422c-.177 0-.266-.089-.266-.266v-.534c0-.178.089-.266.266-.266.178 0 .267.088.267.266v.534c0 .177-.089.266-.267.266zm44.597-62.489c-.177 0-.266-.089-.266-.266v-.534c0-.177.089-.266.266-.266.178 0 .267.088.267.266v.534c.089.088-.089.266-.267.266z" fill="#FAFAFA"/><path fill-rule="evenodd" clip-rule="evenodd" d="M109.449 71.978c0 .178.1.266.3.266.2 0 .4-.177.3-.266v-1.156c0-.178-.1-.267-.3-.267-.2 0-.3.09-.3.267v1.156zm.3 2.578c-.2 0-.3-.09-.3-.267v-1.156c0-.177.1-.266.3-.266.2 0 .3.088.3.266v1.156c.1.089-.1.266-.3.266zm-.3 2.044c0 .178.1.267.3.267.2 0 .4-.178.3-.267v-1.156c0-.177-.1-.266-.3-.266-.2 0-.3.089-.3.266V76.6zm.3 2.489c-.2 0-.3-.089-.3-.267v-1.155c0-.178.1-.267.3-.267.2 0 .3.089.3.267v1.155c.1.178-.1.267-.3.267zm-.3 2.044c0 .178.1.267.3.267.2 0 .4-.089.3-.267v-1.155c0-.178-.1-.267-.3-.267-.2 0-.3.089-.3.267v1.155zm.3 2.578c-.2 0-.3-.089-.3-.267V82.29c0-.178.1-.267.3-.267.2 0 .3.09.3.267v1.155c.1.178-.1.267-.3.267zm-.3 2.044c0 .178.1.267.3.267.2 0 .4-.089.3-.267V84.6c0-.178-.1-.267-.3-.267-.2 0-.3.09-.3.267v1.156zm.3 2.578c-.2 0-.3-.089-.3-.266V86.91c0-.178.1-.267.3-.267.2 0 .3.09.3.267v1.156c.1.177-.1.266-.3.266zm-.3 2.045c0 .177.1.266.3.266.2 0 .4-.089.3-.266v-1.156c0-.178-.1-.266-.3-.266-.2 0-.3.088-.3.266v1.156zm.3 2.578c-.2 0-.3-.09-.3-.267v-1.156c0-.177.1-.266.3-.266.2 0 .3.089.3.266v1.156c.1.178-.1.267-.3.267zm-.3 2.044c0 .178.1.267.3.267.2 0 .4-.09.3-.267v-1.156c0-.177-.1-.266-.3-.266-.2 0-.3.089-.3.266V95zm.3 2.578c-.2 0-.3-.09-.3-.267v-1.156c0-.177.1-.266.3-.266.2 0 .3.089.3.267v1.155c.1.089-.1.267-.3.267zm-.3 2.044c0 .178.1.267.3.267.2 0 .4-.178.3-.267v-1.155c0-.178-.1-.267-.3-.267-.2 0-.3.089-.3.267v1.155zm.3 2.578c-.2 0-.3-.089-.3-.267v-1.155c0-.178.1-.267.3-.267.2 0 .3.089.3.267v1.155c.1.089-.1.267-.3.267zm0 2.311c-.2 0-.3-.089-.3-.267v-1.155c0-.178.1-.267.3-.267.2 0 .3.089.3.267v1.155c.1.089-.1.267-.3.267z" fill="#FAFAFA"/><path d="M109.715 106.2c-.177 0-.266-.089-.266-.267v-.533c0-.178.089-.267.266-.267.178 0 .267.089.267.267v.533c.089.089-.089.267-.267.267zm-88.305 7.111c-.178 0-.267-.089-.267-.267v-.533c0-.178.09-.267.267-.267.178 0 .267.089.267.267v.533c0 .089-.09.267-.267.267z" fill="#FAFAFA"/><path fill-rule="evenodd" clip-rule="evenodd" d="M21.143 115.356c0 .177.1.266.3.266.2 0 .3-.089.3-.266V114.2c0-.178-.1-.267-.3-.267-.2 0-.3.089-.3.267v1.156zm.3 2.577c-.2 0-.3-.089-.3-.266v-1.156c0-.178.1-.267.3-.267.2 0 .3.089.3.267v1.156c0 .177-.1.266-.3.266zm-.3 2.045c0 .178.1.266.3.266.2 0 .3-.088.3-.266v-1.156c0-.178-.1-.266-.3-.266-.2 0-.3.088-.3.266v1.156zm.3 2.578c-.2 0-.3-.089-.3-.267v-1.156c0-.177.1-.266.3-.266.2 0 .3.089.3.266v1.156c0 .178-.1.267-.3.267zm-.3 2.044c0 .178.1.267.3.267.2 0 .3-.089.3-.267v-1.156c0-.177-.1-.266-.3-.266-.2 0-.3.089-.3.266v1.156zm.3 2.578c-.2 0-.3-.089-.3-.267v-1.155c0-.178.1-.267.3-.267.2 0 .3.089.3.267v1.155c0 .178-.1.267-.3.267zm-.3 2.044c0 .178.1.267.3.267.2 0 .3-.089.3-.267v-1.155c0-.178-.1-.267-.3-.267-.2 0-.3.089-.3.267v1.155zm.3 2.667c-.2 0-.3-.089-.3-.267v-1.155c0-.178.1-.267.3-.267.2 0 .3.089.3.267v1.155c0 .089-.1.267-.3.267zm-.3 2.044c0 .178.1.267.3.267.2 0 .3-.178.3-.267v-1.155c0-.178-.1-.267-.3-.267-.2 0-.3.089-.3.267v1.155zm.3 2.578c-.2 0-.3-.089-.3-.267v-1.155c0-.178.1-.267.3-.267.2 0 .3.089.3.267v1.155c0 .089-.1.267-.3.267zm-.3 2.045c0 .177.1.266.3.266.2 0 .3-.178.3-.266V137.4c0-.178-.1-.267-.3-.267-.2 0-.3.089-.3.267v1.156zm.3 2.577c-.2 0-.3-.089-.3-.266v-1.156c0-.178.1-.267.3-.267.2 0 .3.089.3.267v1.156a.3.3 0 01-.3.266zm-.3 2.045c0 .178.1.266.3.266a.3.3 0 00.3-.266v-1.156c0-.178-.1-.266-.3-.266-.2 0-.3.088-.3.266v1.156zm.3 2.578c-.2 0-.3-.089-.3-.267v-1.156c0-.177.1-.266.3-.266.2 0 .3.089.3.266v1.156c0 .178-.1.267-.3.267zm-.3 2.044c0 .178.1.267.3.267.2 0 .3-.089.3-.267v-1.156c0-.177-.1-.266-.3-.266-.2 0-.3.089-.3.266v1.156zm0 2.311c0 .178.1.267.3.267.2 0 .3-.089.3-.267v-1.155c0-.178-.1-.267-.3-.267-.2 0-.3.089-.3.267v1.155z" fill="#FAFAFA"/><path d="M21.41 152.067c-.178 0-.267-.089-.267-.267v-.533c0-.178.09-.267.267-.267.178 0 .267.089.267.267v.533c0 .178-.09.267-.267.267z" fill="#FAFAFA"/><path d="M389.289 172.244c-3.02-1.866-3.376-29.511-13.503-35.111-10.128-5.6-6.574 19.645-16.879 13.689-9.861-5.689-6.841-35.2-16.88-40.978-10.038-5.777-6.663 23.112-16.879 17.6-8.884-4.8-8.173-16.266-14.036-21.333-5.864-5.067-7.196 6.045-14.57 2.045-7.373-4-1.066-26.134-16.701-35.2v42.133l109.448 63.644v-6.489z" fill="url(#paint1_linear)"/><path d="M389.289 172.956c-.089 0-.266 0-.355-.089-1.244-.8-1.866-3.734-3.109-9.956-1.777-9.155-4.176-21.689-10.394-25.155-1.333-.712-2.399-.889-3.287-.623-1.955.711-3.021 4-4.087 7.111-1.155 3.467-2.399 7.023-4.975 7.912-1.333.533-2.843.266-4.62-.8-5.152-2.934-6.84-11.645-8.617-20.712-1.688-8.622-3.465-17.511-8.262-20.266-1.155-.711-2.132-.889-3.02-.534-2.132.889-3.287 4.889-4.442 8.8-1.333 4.445-2.488 8.623-5.242 9.778-1.243.534-2.665.356-4.175-.444-5.33-2.845-7.374-8.089-9.15-12.8-1.333-3.378-2.577-6.667-4.975-8.711-2.488-2.134-3.82-1.067-5.775.622-2.043 1.689-4.531 3.733-8.617 1.511-3.287-1.778-4.087-6.667-4.975-12.267-1.244-7.91-2.843-17.689-11.816-22.933-.355-.178-.444-.622-.266-.889.178-.355.622-.444.888-.266 9.506 5.51 11.194 15.644 12.438 23.822.799 5.333 1.599 9.866 4.264 11.377 3.287 1.778 5.152.267 7.107-1.422 1.954-1.6 4.175-3.466 7.551-.622 2.576 2.311 3.909 5.6 5.33 9.244 1.777 4.623 3.643 9.423 8.618 12.089 1.243.623 2.221.8 3.02.445 2.221-.889 3.376-4.978 4.531-8.978 1.244-4.356 2.487-8.533 5.153-9.6 1.243-.533 2.576-.267 4.175.622 5.33 3.022 7.107 12.267 8.884 21.156 1.688 8.444 3.376 17.155 7.995 19.822 1.422.8 2.488 1.067 3.465.711 1.954-.711 3.109-4 4.175-7.111 1.155-3.378 2.399-6.933 4.886-7.911 1.244-.445 2.754-.267 4.442.622 6.841 3.822 9.24 16.711 11.105 26.133.8 4 1.599 8.534 2.488 9.067.355.178.444.622.266.889a.768.768 0 01-.622.356z" fill="#E0E0E0"/><path d="M341.939 110.644c-.178 0-.267-.088-.267-.266v-.534c0-.177.089-.266.267-.266.177 0 .266.089.266.266v.534c0 .178-.089.266-.266.266z" fill="#FAFAFA"/><path fill-rule="evenodd" clip-rule="evenodd" d="M341.672 112.689c0 .178.1.267.3.267.2 0 .3-.089.3-.267v-1.156c0-.177-.1-.266-.3-.266-.2 0-.3.089-.3.266v1.156zm.3 2.578c-.2 0-.3-.089-.3-.267v-1.156c0-.177.1-.266.3-.266.2 0 .3.089.3.266V115c0 .178-.1.267-.3.267zm-.3 2.044c0 .178.1.267.3.267.2 0 .3-.089.3-.267v-1.155c0-.178-.1-.267-.3-.267-.2 0-.3.089-.3.267v1.155zm.3 2.578c-.2 0-.3-.089-.3-.267v-1.155c0-.178.1-.267.3-.267.2 0 .3.089.3.267v1.155c0 .178-.1.267-.3.267zm-.3 2.044c0 .178.1.267.3.267.2 0 .3-.089.3-.267v-1.155c0-.178-.1-.267-.3-.267-.2 0-.3.089-.3.267v1.155zm.3 2.578c-.2 0-.3-.089-.3-.267v-1.155c0-.178.1-.267.3-.267.2 0 .3.089.3.267v1.155c0 .178-.1.267-.3.267zm-.3 2.045c0 .177.1.266.3.266.2 0 .3-.089.3-.266V125.4c0-.178-.1-.267-.3-.267-.2 0-.3.089-.3.267v1.156zm.3 2.577c-.2 0-.3-.089-.3-.266v-1.156c0-.178.1-.267.3-.267.2 0 .3.089.3.267v1.156c0 .177-.1.266-.3.266zm-.3 2.045c0 .178.1.266.3.266.2 0 .3-.088.3-.266v-1.156c0-.178-.1-.266-.3-.266-.2 0-.3.088-.3.266v1.156zm.3 2.578c-.2 0-.3-.089-.3-.267v-1.156c0-.177.1-.266.3-.266.2 0 .3.089.3.266v1.156c0 .178-.1.267-.3.267zm-.3 2.044c0 .178.1.267.3.267.2 0 .3-.089.3-.267v-1.156c0-.177-.1-.266-.3-.266-.2 0-.3.089-.3.266v1.156zm.3 2.578c-.2 0-.3-.089-.3-.267v-1.155c0-.178.1-.267.3-.267.2 0 .3.089.3.267v1.155c0 .178-.1.267-.3.267zm-.3 2.133c0 .178.1.267.3.267.2 0 .3-.178.3-.267v-1.155c0-.178-.1-.267-.3-.267-.2 0-.3.089-.3.267v1.155zm.3 2.578c-.2 0-.3-.089-.3-.267v-1.155c0-.178.1-.267.3-.267.2 0 .3.089.3.267v1.155c0 .089-.1.267-.3.267zm-.3 2.044c0 .178.1.267.3.267.2 0 .3-.178.3-.267v-1.155c0-.178-.1-.267-.3-.267-.2 0-.3.089-.3.267v1.155zm.3 2.578c-.2 0-.3-.089-.3-.267v-1.155c0-.178.1-.267.3-.267.2 0 .3.089.3.267v1.155c0 .089-.1.267-.3.267zm0 2.311c-.2 0-.3-.089-.3-.266V148.6c0-.178.1-.267.3-.267.2 0 .3.089.3.267v1.156c0 .088-.1.266-.3.266z" fill="#FAFAFA"/><path d="M341.939 151.711c-.178 0-.267-.089-.267-.267v-.533c0-.178.089-.267.267-.267.177 0 .266.089.266.267v.533c0 .178-.089.267-.266.267zm-32.871-45.955c-.177 0-.266-.089-.266-.267v-.533c0-.178.089-.267.266-.267.178 0 .267.089.267.267v.533c0 .178-.089.267-.267.267z" fill="#FAFAFA"/><path fill-rule="evenodd" clip-rule="evenodd" d="M308.802 107.8c0 .178.1.267.3.267.2 0 .3-.178.3-.267v-1.156c0-.177-.1-.266-.3-.266-.2 0-.3.089-.3.266v1.156zm.3 2.489c-.2 0-.3-.089-.3-.267v-1.155c0-.178.1-.267.3-.267.2 0 .3.089.3.267v1.155c0 .178-.1.267-.3.267zm-.3 2.044c0 .178.1.267.3.267.2 0 .3-.178.3-.267v-1.155c0-.178-.1-.267-.3-.267-.2 0-.3.089-.3.267v1.155zm.3 2.489c-.2 0-.3-.089-.3-.266V113.4c0-.178.1-.267.3-.267.2 0 .3.089.3.267v1.156c0 .177-.1.266-.3.266zm-.3 2.045c0 .177.1.266.3.266a.3.3 0 00.3-.266v-1.156c0-.178-.1-.267-.3-.267-.2 0-.3.089-.3.267v1.156zm.3 2.489c-.2 0-.3-.089-.3-.267v-1.156c0-.177.1-.266.3-.266.2 0 .3.089.3.266v1.156c0 .178-.1.267-.3.267zm-.3 1.955c0 .178.1.267.3.267.2 0 .3-.089.3-.267v-1.155c0-.178-.1-.267-.3-.267-.2 0-.3.089-.3.267v1.155zm.3 2.578c-.2 0-.3-.089-.3-.267v-1.155c0-.178.1-.267.3-.267.2 0 .3.089.3.267v1.155c0 .089-.1.267-.3.267zm-.3 1.955c0 .178.1.267.3.267.2 0 .3-.089.3-.267v-1.155c0-.178-.1-.267-.3-.267-.2 0-.3.089-.3.267v1.155zm.3 2.578c-.2 0-.3-.089-.3-.266V127c0-.178.1-.267.3-.267.2 0 .3.089.3.267v1.156c0 .088-.1.266-.3.266zm0 2.222c-.2 0-.3-.088-.3-.266v-1.156c0-.178.1-.266.3-.266.2 0 .3.088.3.266v1.156c0 .178-.1.266-.3.266z" fill="#FAFAFA"/><path d="M309.068 132.333c-.177 0-.266-.088-.266-.266v-.534c0-.177.089-.266.266-.266.178 0 .267.089.267.266v.534c0 .178-.089.266-.267.266zm65.03 5.423c-.178 0-.267-.089-.267-.267v-.533c0-.178.089-.267.267-.267.178 0 .266.089.266.267v.533c.089.178-.088.267-.266.267z" fill="#FAFAFA"/><path fill-rule="evenodd" clip-rule="evenodd" d="M373.831 139.711c0 .178.1.267.3.267.2 0 .4-.089.3-.267v-1.155c0-.178-.1-.267-.3-.267-.2 0-.3.089-.3.267v1.155zm.3 2.489c-.2 0-.3-.089-.3-.267v-1.155c0-.178.1-.267.3-.267.2 0 .3.089.3.267v1.155c.1.178-.1.267-.3.267zm-.3 1.956c0 .177.1.266.3.266.2 0 .4-.089.3-.266V143c0-.178-.1-.267-.3-.267-.2 0-.3.089-.3.267v1.156zm.3 2.488c-.2 0-.3-.088-.3-.266v-1.156c0-.178.1-.266.3-.266.2 0 .3.088.3.266v1.156c.1.178-.1.266-.3.266zm-.3 1.956c0 .178.1.267.3.267.2 0 .4-.089.3-.267v-1.156c0-.177-.1-.266-.3-.266-.2 0-.3.089-.3.266v1.156zm.3 2.578c-.2 0-.3-.089-.3-.267v-1.155c0-.178.1-.267.3-.267.2 0 .3.089.3.267v1.155c.1.089-.1.267-.3.267zm-.3 1.955c0 .178.1.267.3.267.2 0 .4-.178.3-.267v-1.155c0-.178-.1-.267-.3-.267-.2 0-.3.089-.3.267v1.155zm.3 2.489c-.2 0-.3-.089-.3-.266V154.2c0-.178.1-.267.3-.267.2 0 .3.089.3.267v1.156c.1.088-.1.266-.3.266zm-.3 1.956c0 .178.1.266.3.266.2 0 .4-.177.3-.266v-1.156c0-.178-.1-.266-.3-.266-.2 0-.3.088-.3.266v1.156zm.3 2.489c-.2 0-.3-.089-.3-.267v-1.156c0-.177.1-.266.3-.266.2 0 .3.089.3.266v1.156c.1.178-.1.267-.3.267zm-.3 1.955c0 .178.1.267.3.267.2 0 .4-.089.3-.267v-1.155c0-.178-.1-.267-.3-.267-.2 0-.3.089-.3.267v1.155zm0 2.222c0 .178.1.267.3.267.2 0 .4-.089.3-.267v-1.155c0-.178-.1-.267-.3-.267-.2 0-.3.089-.3.267v1.155z" fill="#FAFAFA"/><path d="M374.098 166.2c-.178 0-.267-.089-.267-.267v-.533c0-.178.089-.267.267-.267.178 0 .266.089.266.267v.533c.089.178-.088.267-.266.267z" fill="#FAFAFA"/><path d="M329.768 65.222v-9.155l-7.818-1.511c-.355-.09-.622 0-.888.177l-3.909 2.223 5.063 1.066 7.552 7.2z" fill="#EBEBEB"/><path d="M383.248 117.044l.622-.355c.977-.533 1.688-1.867 1.688-2.933V67.089c0-1.067-.799-2.4-1.688-2.933l-52.326-30.223c-.977-.533-2.487-.533-3.375 0l-.622.356c-.978.533-1.688 1.867-1.688 2.933V83.89c0 1.067.799 2.4 1.688 2.933l52.325 30.222c.889.534 2.399.534 3.376 0z" fill="#EBEBEB"/><path d="M385.469 97.4V67.178a3.14 3.14 0 00-.533-1.69l-7.462 4.268v45.955l2.31 1.333c.977.534 2.487.534 3.375 0l.622-.355c.978-.533 1.688-1.867 1.688-2.933V97.4z" fill="#E0E0E0"/><path d="M327.547 36.333l52.325 30.223c.978.533 1.688 1.866 1.688 2.933v46.667c0 1.066-.799 1.511-1.688.977l-52.325-30.222c-.978-.533-1.688-1.867-1.688-2.933V37.31c0-1.066.71-1.511 1.688-.978z" fill="url(#paint2_linear)"/><path d="M325.859 67.533l-8.884-8.622c-.888-.889-.089-2.311 1.066-2.133l7.818 1.51v9.245z" fill="#F0F0F0"/><path d="M352.688 75.445c.178.177.178.533.178.533 0 7.289 5.241 16.089 11.46 19.822 6.485 3.911 11.638.978 11.46-6.578-.178-6.844-4.62-15.2-10.394-19.2l.355-.178v-.622c6.13 4.356 10.927 13.156 10.927 20.445 0 7.822-5.508 11.022-12.348 7.11-6.841-3.91-12.438-13.51-12.349-21.421.089-.178.533-.09.711.089z" fill="#7BC6EA"/><path d="M350.822 74.822c0-8.533 6.041-12.089 13.415-7.733 3.287 1.867 6.396 5.067 8.795 8.889l-2.043 1.51c-1.866-3.021-4.265-5.421-6.841-6.844-5.686-3.288-10.394-.622-10.394 5.956s4.62 14.667 10.394 17.956c5.686 3.288 10.394.622 10.394-5.956l3.109 1.778c0 8.533-6.041 12.089-13.414 7.733-7.374-4.267-13.415-14.666-13.415-23.289z" fill="#7BC6EA"/><path d="M364.237 73.578c4.353 2.489 7.818 8.533 7.818 13.51 0 4.979-3.465 7.023-7.818 4.534s-7.818-8.533-7.818-13.51c0-4.979 3.465-7.023 7.818-4.534z" fill="#7BC6EA"/><path d="M333.41 50.2l13.326 7.733c.71.445 1.244 1.334 1.244 2.045 0 .71-.534.978-1.244.533l-13.326-7.733c-.711-.445-1.244-1.334-1.244-2.045-.089-.71.533-.977 1.244-.533zm0 6.578l13.326 7.733c.71.445 1.244 1.334 1.244 2.045 0 .71-.534.977-1.244.533l-13.326-7.733c-.711-.445-1.244-1.334-1.244-2.045-.089-.711.533-.889 1.244-.533zm0 6.666l13.326 7.734c.71.444 1.244 1.333 1.244 2.044 0 .711-.534.978-1.244.534l-13.326-7.734c-.711-.444-1.244-1.333-1.244-2.044-.089-.711.533-.978 1.244-.534zm0 6.578l13.326 7.734c.71.444 1.244 1.333 1.244 2.044 0 .711-.534.978-1.244.533L333.41 72.6c-.711-.444-1.244-1.333-1.244-2.044-.089-.712.533-.89 1.244-.534zm0 6.578l13.326 7.733c.71.445 1.244 1.334 1.244 2.045 0 .71-.534.978-1.244.533l-13.326-7.733c-.711-.445-1.244-1.334-1.244-2.045-.089-.622.533-.889 1.244-.533z" fill="#E0E0E0"/><path d="M67.25 35.089v-9.156l7.818-1.51c.356-.09.622 0 .889.177l3.909 2.222-5.064 1.067-7.551 7.2z" fill="#EBEBEB"/><path d="M13.859 86.911l-.622-.356c-.977-.533-1.688-1.866-1.688-2.933V36.956c0-1.067.8-2.4 1.688-2.934L65.563 3.8c.977-.533 2.487-.533 3.376 0l.621.356c.978.533 1.688 1.866 1.688 2.933v46.667c0 1.066-.8 2.4-1.688 2.933L17.235 86.91c-.978.533-2.488.533-3.376 0z" fill="#EBEBEB"/><path d="M11.549 67.178V36.956c0-.534.178-1.156.533-1.69l7.462 4.267V85.49l-2.31 1.333c-.977.534-2.487.534-3.375 0l-.622-.355c-.977-.534-1.688-1.867-1.688-2.934V67.178z" fill="#E0E0E0"/><path d="M69.56 6.111L17.235 36.333c-.978.534-1.688 1.867-1.688 2.934v46.666c0 1.067.8 1.511 1.688.978L69.56 56.69c.978-.533 1.688-1.867 1.688-2.933V7.089c0-1.067-.8-1.511-1.688-.978zm1.688 31.2l8.884-8.622c.888-.889.089-2.311-1.066-2.134l-7.818 1.512v9.244z" fill="#F0F0F0"/><path d="M21.41 70.733V55.267c0-2.934 1.6-5.69 4.175-7.2 2.221-1.245 4.975.177 5.242 2.755.178 1.956 2.398 3.111 4.086 2.134 1.955-1.156 3.11-3.2 3.199-5.423l.71-13.6c.09-2.31 1.422-4.444 3.465-5.689 2.488-1.51 5.686.267 5.863 3.112l.444 7.555c.09 1.689 1.955 2.756 3.465 1.867 2.044-1.156 3.376-3.29 3.643-5.6l.355-2.756a7.858 7.858 0 013.82-5.866c2.399-1.334 5.33.355 5.33 3.11v15.556L21.41 70.733z" fill="url(#paint3_linear)"/><path d="M26.207 48.689c-.177 0-.266-.089-.266-.267v-.533c0-.178.089-.267.266-.267.178 0 .267.09.267.267v.533c0 .178-.089.267-.267.267z" fill="#FAFAFA"/><path fill-rule="evenodd" clip-rule="evenodd" d="M25.94 50.733c0 .178.1.267.3.267.2 0 .3-.178.3-.267v-1.155c0-.178-.1-.267-.3-.267-.2 0-.3.089-.3.267v1.155zm.3 2.49c-.2 0-.3-.09-.3-.267V51.8c0-.178.1-.267.3-.267.2 0 .3.09.3.267v1.156c0 .088-.1.266-.3.266zm-.3 1.955c0 .178.1.266.3.266a.3.3 0 00.3-.266v-1.156c0-.178-.1-.267-.3-.267-.2 0-.3.09-.3.267v1.156zm.3 2.489c-.2 0-.3-.09-.3-.267v-1.156c0-.177.1-.266.3-.266.2 0 .3.089.3.266V57.4c0 .178-.1.267-.3.267zm-.3 1.955c0 .178.1.267.3.267.2 0 .3-.089.3-.267v-1.155c0-.178-.1-.267-.3-.267-.2 0-.3.089-.3.267v1.155zm.3 2.49c-.2 0-.3-.09-.3-.268V60.69c0-.178.1-.267.3-.267.2 0 .3.09.3.267v1.155c0 .178-.1.267-.3.267zm-.3 1.955c0 .177.1.266.3.266.2 0 .3-.089.3-.266V62.91c0-.178-.1-.267-.3-.267-.2 0-.3.09-.3.267v1.156zm0 2.222c0 .178.1.266.3.266.2 0 .3-.088.3-.177v-1.156c0-.178-.1-.266-.3-.266-.2 0-.3.088-.3.266v1.067z" fill="#FAFAFA"/><path d="M26.207 68.245c-.177 0-.266-.09-.266-.267v-.533c0-.178.089-.267.266-.267.178 0 .267.089.267.267v.533c0 .178-.089.267-.267.267z" fill="#FAFAFA"/><path d="M26.207 46.911c-.444.267-.8.889-.8 1.422 0 .534.356.711.8.445.444-.267.8-.89.8-1.422 0-.445-.356-.712-.8-.445z" fill="#37474F"/><path d="M43.353 28.6c-.178 0-.266-.089-.266-.267V27.8c0-.178.088-.267.266-.267.178 0 .267.09.267.267v.533c0 .178-.09.267-.267.267z" fill="#FAFAFA"/><path fill-rule="evenodd" clip-rule="evenodd" d="M43.087 30.733c0 .178.1.267.3.267.2 0 .3-.178.3-.267v-1.155c0-.178-.1-.267-.3-.267-.2 0-.3.089-.3.267v1.155zm.3 2.578c-.2 0-.3-.089-.3-.267V31.89c0-.178.1-.267.3-.267.2 0 .3.09.3.267v1.155a.3.3 0 01-.3.267zm-.3 2.044c0 .178.1.267.3.267.2 0 .3-.089.3-.267V34.2c0-.178-.1-.267-.3-.267-.2 0-.3.09-.3.267v1.155zm.3 2.578c-.2 0-.3-.089-.3-.266V36.51c0-.178.1-.267.3-.267.2 0 .3.09.3.267v1.156c0 .177-.1.266-.3.266zm-.3 2.134c0 .177.1.266.3.266a.3.3 0 00.3-.266V38.91c0-.178-.1-.267-.3-.267-.2 0-.3.09-.3.267v1.156zm.3 2.577c-.2 0-.3-.088-.3-.266v-1.156c0-.178.1-.267.3-.267.2 0 .3.09.3.267v1.156a.3.3 0 01-.3.266zm-.3 2.045c0 .178.1.267.3.267.2 0 .3-.09.3-.267v-1.156c0-.178-.1-.266-.3-.266-.2 0-.3.088-.3.266v1.156zm.3 2.578c-.2 0-.3-.09-.3-.267v-1.156c0-.177.1-.266.3-.266.2 0 .3.089.3.266V47c0 .178-.1.267-.3.267zm-.3 2.133c0 .178.1.267.3.267.2 0 .3-.178.3-.267v-1.156c0-.177-.1-.266-.3-.266-.2 0-.3.089-.3.266V49.4zm.3 2.578c-.2 0-.3-.09-.3-.267v-1.155c0-.178.1-.267.3-.267.2 0 .3.089.3.267v1.155c0 .089-.1.267-.3.267zm-.3 2.044c0 .178.1.267.3.267.2 0 .3-.089.3-.267v-1.155c0-.178-.1-.267-.3-.267-.2 0-.3.089-.3.267v1.155zm0 2.311c0 .178.1.267.3.267.2 0 .3-.089.3-.267v-1.155c0-.178-.1-.267-.3-.267-.2 0-.3.089-.3.267v1.155z" fill="#FAFAFA"/><path d="M43.353 58.378c-.178 0-.266-.09-.266-.267v-.533c0-.178.088-.267.266-.267.178 0 .267.089.267.267v.533c0 .089-.09.267-.267.267z" fill="#FAFAFA"/><path d="M43.353 26.822c-.444.267-.8.89-.8 1.422 0 .534.356.712.8.445.444-.267.8-.889.8-1.422 0-.534-.356-.711-.8-.445z" fill="#37474F"/><path d="M60.499 27.355c-.178 0-.267-.088-.267-.266v-.534c0-.177.09-.266.267-.266.177 0 .266.089.266.266v.534c0 .089-.089.267-.266.267z" fill="#FAFAFA"/><path fill-rule="evenodd" clip-rule="evenodd" d="M60.232 29.222c0 .178.1.267.3.267.2 0 .3-.178.3-.267v-1.066c0-.178-.1-.267-.3-.267-.2 0-.3.089-.3.267v1.066zm.3 2.4c-.2 0-.3-.089-.3-.266v-1.067c0-.178.1-.267.3-.267.2 0 .3.09.3.267v1.067c0 .177-.1.266-.3.266zm-.3 1.956c0 .178.1.266.3.266a.3.3 0 00.3-.266V32.51c0-.178-.1-.267-.3-.267-.2 0-.3.09-.3.267v1.067zm.3 2.4c-.2 0-.3-.09-.3-.267v-1.067c0-.177.1-.266.3-.266.2 0 .3.089.3.266v1.067c0 .178-.1.267-.3.267zm-.3 1.866c0 .178.1.267.3.267.2 0 .3-.089.3-.267v-1.066c0-.178-.1-.267-.3-.267-.2 0-.3.089-.3.267v1.066zm.3 2.49c-.2 0-.3-.09-.3-.267V39c0-.178.1-.267.3-.267.2 0 .3.09.3.267v1.067a.3.3 0 01-.3.266zm-.3 1.866c0 .178.1.267.3.267.2 0 .3-.09.3-.267v-1.067c0-.177-.1-.266-.3-.266-.2 0-.3.089-.3.266V42.2zm.3 2.4c-.2 0-.3-.089-.3-.267v-1.066c0-.178.1-.267.3-.267.2 0 .3.089.3.267v1.066c0 .178-.1.267-.3.267zm0 2.222c-.2 0-.3-.089-.3-.266v-1.067c0-.178.1-.267.3-.267.2 0 .3.09.3.267v1.067c0 .088-.1.266-.3.266z" fill="#FAFAFA"/><path d="M60.499 48.422c-.178 0-.267-.089-.267-.266v-.534c0-.178.09-.267.267-.267.177 0 .266.09.266.267v.534c0 .177-.089.266-.266.266z" fill="#FAFAFA"/><path d="M60.499 25.489c-.444.267-.8.889-.8 1.422 0 .534.356.711.8.445.444-.267.8-.89.8-1.423.088-.444-.356-.71-.8-.444z" fill="#37474F"/><path d="M21.41 77.311c-.178 0-.267-.089-.355-.178a.469.469 0 01.177-.622L65.03 51.178a.468.468 0 01.621.178.469.469 0 01-.177.622L21.677 77.31c-.09-.089-.178 0-.267 0z" fill="#455A64"/><path d="M162.798 205.306l-52.396 30.086c-.979.531-1.69 1.858-1.69 2.92v.708c0 1.062.8 2.389 1.69 2.92l52.396 30.087c.978.531 2.49.531 3.38 0l52.396-30.087c.978-.531 1.69-1.858 1.69-2.92v-.708c0-1.062-.801-2.389-1.69-2.92l-52.396-30.086c-.89-.531-2.402-.531-3.38 0z" fill="#27DEBF"/><path d="M162.798 205.306l-52.396 30.086c-.979.531-1.69 1.858-1.69 2.92v.708c0 1.062.8 2.389 1.69 2.92l52.396 30.087c.978.531 2.49.531 3.38 0l52.396-30.087c.978-.531 1.69-1.858 1.69-2.92v-.708c0-1.062-.801-2.389-1.69-2.92l-52.396-30.086c-.89-.531-2.402-.531-3.38 0z" fill="url(#paint4_linear)"/><path d="M112.715 234.065l-2.313 1.327c-.979.531-1.69 1.858-1.69 2.92v.708c0 1.062.8 2.389 1.69 2.92l52.396 30.087c.444.265 1.067.442 1.69.442v-8.583l-51.773-29.821z" fill="#27DEBF"/><path d="M112.715 234.065l-2.313 1.327c-.979.531-1.69 1.858-1.69 2.92v.708c0 1.062.8 2.389 1.69 2.92l52.396 30.087c.444.265 1.067.442 1.69.442v-8.583l-51.773-29.821z" fill="url(#paint5_linear)"/><path d="M162.798 205.306l-52.396 30.086c-.979.531-.979 1.416 0 1.947l52.396 30.086c.978.531 2.49.531 3.38 0l52.396-30.086c.978-.531.978-1.416 0-1.947l-52.396-30.086c-.89-.531-2.402-.531-3.38 0z" fill="#27DEBF"/><path d="M162.798 205.306l-52.396 30.086c-.979.531-.979 1.416 0 1.947l52.396 30.086c.978.531 2.49.531 3.38 0l52.396-30.086c.978-.531.978-1.416 0-1.947l-52.396-30.086c-.89-.531-2.402-.531-3.38 0z" fill="url(#paint6_linear)"/><path fill-rule="evenodd" clip-rule="evenodd" d="M162.086 236.631l-24.552 2.212c-2.402-8.583 7.828-16.636 22.773-17.963 8.984-.797 17.168.708 23.662 4.424l-17.257 9.911c-1.246.62-3.292 1.239-4.626 1.416z" fill="#7BC6EA"/><path fill-rule="evenodd" clip-rule="evenodd" d="M166.178 238.224l10.764 12.211c-13.433 3.982-29.89.885-36.829-6.902-1.334-1.504-2.134-2.92-2.668-4.69l24.552-2.212c1.423-.177 3.202.531 4.181 1.593z" fill="#7BC6EA"/><path d="M138.69 239.639c.445 1.151 1.157 2.213 2.135 3.275 6.405 7.256 21.617 10.264 34.515 6.99l-9.874-11.061c-.711-.796-2.224-1.416-3.291-1.327l-23.485 2.123z" fill="#7BC6EA"/><path fill-rule="evenodd" clip-rule="evenodd" d="M166.623 235.127l17.257-9.911c4.27 2.477 6.761 5.221 7.651 8.672l-24.552 2.212c-1.335.177-1.513-.266-.356-.973z" fill="#37474F"/><path fill-rule="evenodd" clip-rule="evenodd" d="M165.021 236.277c.178.708.979.796 1.513.796.178 0 .356 0 .622-.088l24.553-2.212c.266 0 .444-.177.622-.354.089-.177.178-.443.089-.708-.978-3.717-3.558-6.637-8.095-9.203a.81.81 0 00-.889 0l-17.258 9.911c-.036.027-.08.058-.129.092-.431.303-1.267.892-1.028 1.766zm3.47-1.15l15.389-8.849c3.381 2.035 5.427 4.247 6.494 6.902l-21.883 1.947z" fill="#FAFAFA"/><path d="M178.721 177.874l-52.396 30.086c-.978.531-1.69 1.859-1.69 2.921v.707c0 1.062.801 2.39 1.69 2.921l52.396 30.086c.978.531 2.491.531 3.38 0l52.396-30.086c.978-.531 1.69-1.859 1.69-2.921v-.707c0-1.062-.801-2.39-1.69-2.921l-52.396-30.086c-.889-.531-2.402-.531-3.38 0z" fill="#27DEBF"/><path d="M178.721 177.874l-52.396 30.086c-.978.531-1.69 1.859-1.69 2.921v.707c0 1.062.801 2.39 1.69 2.921l52.396 30.086c.978.531 2.491.531 3.38 0l52.396-30.086c.978-.531 1.69-1.859 1.69-2.921v-.707c0-1.062-.801-2.39-1.69-2.921l-52.396-30.086c-.889-.531-2.402-.531-3.38 0z" fill="url(#paint7_linear)"/><path d="M128.638 206.633l-2.313 1.327c-.978.531-1.69 1.859-1.69 2.921v.707c0 1.062.801 2.39 1.69 2.921l52.396 30.086c.445.265 1.067.442 1.69.442v-8.583l-51.773-29.821z" fill="#27DEBF"/><path d="M128.638 206.633l-2.313 1.327c-.978.531-1.69 1.859-1.69 2.921v.707c0 1.062.801 2.39 1.69 2.921l52.396 30.086c.445.265 1.067.442 1.69.442v-8.583l-51.773-29.821z" fill="url(#paint8_linear)"/><path d="M178.721 177.874l-52.396 30.086c-.978.531-.978 1.416 0 1.947l52.396 30.087c.978.53 2.491.53 3.38 0l52.396-30.087c.978-.531.978-1.416 0-1.947l-52.396-30.086c-.889-.531-2.402-.531-3.38 0z" fill="#27DEBF"/><path d="M178.721 177.874l-52.396 30.086c-.978.531-.978 1.416 0 1.947l52.396 30.087c.978.53 2.491.53 3.38 0l52.396-30.087c.978-.531.978-1.416 0-1.947l-52.396-30.086c-.889-.531-2.402-.531-3.38 0z" fill="url(#paint9_linear)"/><path d="M180.5 231.764l11.92-6.902 3.559-10.265c.177-.619-.178-1.062-.801-.885l-21.528 4.159c-.622.089-1.067-.265-.8-.885l3.202-9.114c.178-.619-.178-1.062-.8-.973l-17.525 2.035c-.712.088-.979-.354-.623-.885l2.758-4.779c.356-.619.089-.973-.623-.796l-10.764 2.035-8.006 4.602 40.031 22.653z" fill="#7BC6EA"/><path d="M194.733 150.442l-52.396 30.087c-.978.531-1.69 1.858-1.69 2.92v.708c0 1.062.801 2.389 1.69 2.92l52.396 30.086c.979.531 2.491.531 3.38 0l52.396-30.086c.979-.531 1.69-1.858 1.69-2.92v-.708c0-1.062-.8-2.389-1.69-2.92l-52.396-30.087c-.978-.53-2.49-.53-3.38 0z" fill="#27DEBF"/><path d="M194.733 150.442l-52.396 30.087c-.978.531-1.69 1.858-1.69 2.92v.708c0 1.062.801 2.389 1.69 2.92l52.396 30.086c.979.531 2.491.531 3.38 0l52.396-30.086c.979-.531 1.69-1.858 1.69-2.92v-.708c0-1.062-.8-2.389-1.69-2.92l-52.396-30.087c-.978-.53-2.49-.53-3.38 0z" fill="url(#paint10_linear)"/><path d="M144.561 179.201l-2.313 1.328c-.978.531-1.69 1.858-1.69 2.92v.708c0 1.062.801 2.389 1.69 2.92l52.396 30.086c.445.266 1.068.443 1.69.443v-8.584l-51.773-29.821z" fill="#27DEBF"/><path d="M144.561 179.201l-2.313 1.328c-.978.531-1.69 1.858-1.69 2.92v.708c0 1.062.801 2.389 1.69 2.92l52.396 30.086c.445.266 1.068.443 1.69.443v-8.584l-51.773-29.821z" fill="url(#paint11_linear)"/><path d="M194.733 150.442l-52.396 30.087c-.978.531-.978 1.416 0 1.947l52.396 30.086c.979.531 2.491.531 3.38 0l52.396-30.086c.979-.531.979-1.416 0-1.947l-52.396-30.087c-.978-.53-2.49-.53-3.38 0z" fill="#27DEBF"/><path d="M194.733 150.442l-52.396 30.087c-.978.531-.978 1.416 0 1.947l52.396 30.086c.979.531 2.491.531 3.38 0l52.396-30.086c.979-.531.979-1.416 0-1.947l-52.396-30.087c-.978-.53-2.49-.53-3.38 0z" fill="url(#paint12_linear)"/><path d="M160.396 178.14l26.242-15.044c.445-.265 1.245-.265 1.69 0l4.27 2.478c.445.266.445.708 0 .973l-26.242 15.044c-.445.265-1.246.265-1.69 0l-4.27-2.478c-.445-.266-.445-.708 0-.973zm12.009 6.813l18.236-10.441c.445-.266 1.246-.266 1.69 0l4.27 2.477c.445.266.445.708 0 .974l-18.325 10.441c-.445.266-1.245.266-1.69 0l-4.27-2.477c-.445-.266-.445-.708.089-.974zm11.92 6.902l30.157-17.343c.444-.266 1.245-.266 1.69 0l4.27 2.477c.445.266.445.708 0 .974l-30.157 17.344c-.445.265-1.245.265-1.69 0l-4.27-2.478c-.445-.266-.445-.708 0-.974zm11.92 6.903l14.234-8.141c.444-.266 1.245-.266 1.69 0l4.27 2.477c.444.266.444.708 0 .974l-14.233 8.141c-.445.265-1.246.265-1.691 0l-4.27-2.478c-.444-.266-.444-.708 0-.973z" fill="#7BC6EA"/><path d="M290.235 57.79c5.314 0 9.621-4.3 9.621-9.605 0-5.305-4.307-9.606-9.621-9.606s-9.622 4.3-9.622 9.605c0 5.305 4.308 9.606 9.622 9.606z" fill="#263238"/><path fill="#EDBAA0" d="M306.538 211.386h6.771v11.651h-6.771zm-16.838-.623l-6.771.267-.356-12.362 7.127-.178v12.273z"/><path d="M312.864 111.686c0 6.493.801 53.274.801 53.274.179 1.868 1.871 5.336 1.515 12.451-.535 9.695-1.604 39.756-1.604 39.756s-3.296 1.956-7.572.178c0 0-5.969-39.845-7.217-49.45-1.069-8.449-2.851-31.306-2.851-31.306l-3.652 27.482s1.247 4.98.801 10.761c-.356 4.447-2.94 32.107-2.94 32.107s-3.207 2.134-7.84.623c0 0-3.474-39.4-3.474-43.491-.089-4.714 2.227-52.296 2.227-52.296h31.806v-.089z" fill="#465573"/><path d="M282.038 72.287c-4.009 3.29-11.225 9.96-11.225 9.96l11.225 6.138 7.127-19.122c0-.09-2.761-.623-7.127 3.024z" fill="#27DEBF"/><path d="M282.038 72.287c-4.009 3.29-11.225 9.96-11.225 9.96l11.225 6.138 7.127-19.122c0-.09-2.761-.623-7.127 3.024z" fill="#465573"/><path d="M310.547 73.888s2.584 2.579 2.584 8.715v13.341l.178 25.17c-9.8 5.158-22.094 5.425-32.518-2.135 0 0 .534-32.284.534-37.62 0-5.248 2.94-12.185 11.048-12.63l10.512 2.401 7.662 2.758z" fill="#465573"/><path d="M306.895 55.033s-1.604 7.382-2.228 8.538c-.623 1.245-1.96 1.512-1.96 1.512l.089-5.159 4.099-4.891zm-1.96-10.495s1.692-.267 3.029 1.067c1.247 1.334.534 5.426-1.069 9.428l-2.94.355.98-10.85z" fill="#263238"/><path d="M303.064 55.389c.623.355 1.425-.801 2.138-1.513.713-.8 3.118-1.778 4.276.712 1.247 2.58-1.069 5.87-2.94 6.492-3.207.979-3.742-1.067-3.742-1.067l-.267 11.651-11.225 7.382s-.713-4.002.712-7.649V67.84s-2.94.444-4.365.267c-2.406-.356-3.831-2.224-4.633-4.803-1.158-4.091-1.603-7.47-.623-15.564 1.069-8.894 11.403-8.983 17.016-5.425 5.791 3.38 3.653 13.074 3.653 13.074z" fill="#EDBAA0"/><path d="M303.064 56.367c.267 0 1.425-1.868 2.138-2.58.98-.889-.267-9.338-.267-9.338s.98-2.045-.98-4.269c-1.426-1.512-3.742-1.69-7.751-2.312-2.049-.356-5.257-.89-7.395-1.334-2.494-.445-4.544-.979-6.325.533-1.337 1.157-1.96 3.291-1.248 4.98.179.357.446.712.713 1.068.535.534 1.069.978 1.782 1.245 0 0 1.069.979 4.9 1.423 3.742.445 9.711-.089 10.513-.178 1.069-.178 1.336.89 1.96 3.825.534 2.668.98 6.937 1.96 6.937z" fill="#263238"/><path d="M292.105 67.75s5.346-1.066 7.128-2.045c1.247-.622 2.227-1.779 2.583-2.49 0 0-.356 1.6-1.425 3.024-1.336 1.69-8.286 3.024-8.286 3.024V67.75z" fill="#F28F8F"/><path d="M306.538 219.657v-.978c-.623.267-2.138 6.048-4.9 8.538-2.138 1.956-5.078 4.18-5.791 6.403-.802 2.224 4.098 3.558 6.058 3.202 2.317-.445 6.326-2.045 7.395-3.557.98-1.512 1.515-3.736 2.316-4.892.802-1.156 2.762-2.312 3.208-3.646.267-.712-.089-2.224-.357-3.558-.356-1.245-.623-2.49-1.069-2.401v.711c-.534.534-1.871 1.067-3.385 1.156-1.069 0-3.475-.177-3.475-.978zm-23.698-10.761c-.356 0-.624.533-1.425 1.334-.98.978-2.495 2.134-4.01 2.846-2.583 1.245-7.483 3.201-9.71 4.269-1.426.622-1.337 2.312.089 3.29 1.425.979 4.9 1.69 9.176.712 2.316-.534 5.256-2.579 7.127-2.49 1.871.089 5.435.089 6.771-.89 1.426-.978.802-3.024.446-4.713-.446-1.957-.98-4.892-1.604-4.803v.622c-.802 1.246-5.078 1.779-6.86.801v-.978zm13.096-72.307s-5.434-1.512-9.443-5.425c0 0 1.871 3.379 7.305 6.581l-1.158 24.013 3.296-25.169z" fill="#263238"/><path d="M287.651 156.333l.624-.356c.98-.533 1.692-1.867 1.692-2.935V92.565c0-1.068-.802-2.402-1.692-2.935L235.8 59.39c-.98-.533-2.495-.533-3.385 0l-.624.356c-.98.534-1.693 1.868-1.693 2.935v60.478c0 1.068.802 2.402 1.693 2.935l52.474 30.239c.98.534 2.495.534 3.386 0z" fill="#27DEBF"/><path d="M287.651 156.333l.624-.356c.98-.533 1.692-1.867 1.692-2.935V92.565c0-1.068-.802-2.402-1.692-2.935L235.8 59.39c-.98-.533-2.495-.533-3.385 0l-.624.356c-.98.534-1.693 1.868-1.693 2.935v60.478c0 1.068.802 2.402 1.693 2.935l52.474 30.239c.98.534 2.495.534 3.386 0z" fill="url(#paint13_linear)"/><path d="M289.967 122.804v-30.24c0-.533-.178-1.156-.534-1.69l-7.484 4.27v59.766l2.316 1.334c.98.534 2.495.534 3.386 0l.624-.356c.98-.533 1.692-1.867 1.692-2.934v-30.15z" fill="#27DEBF"/><path d="M289.967 122.804v-30.24c0-.533-.178-1.156-.534-1.69l-7.484 4.27v59.766l2.316 1.334c.98.534 2.495.534 3.386 0l.624-.356c.98-.533 1.692-1.867 1.692-2.934v-30.15z" fill="url(#paint14_linear)"/><path d="M231.791 61.703l52.474 30.239c.98.534 1.693 1.868 1.693 2.935v60.478c0 1.067-.802 1.512-1.693.978l-52.474-30.239c-.98-.533-1.693-1.867-1.693-2.935V62.681c0-1.067.802-1.511 1.693-.978z" fill="#27DEBF"/><path d="M231.791 61.703l52.474 30.239c.98.534 1.693 1.868 1.693 2.935v60.478c0 1.067-.802 1.512-1.693.978l-52.474-30.239c-.98-.533-1.693-1.867-1.693-2.935V62.681c0-1.067.802-1.511 1.693-.978z" fill="url(#paint15_linear)"/><path opacity=".5" d="M236.156 116.934c1.604.978 4.099 1.156 6.059-3.469 1.87-4.625 3.563-8.271 5.88-6.759 1.603 1.067 1.425 2.579 2.85 3.379 2.228 1.334 4.01-4.358 4.811-9.605 1.159-7.47 2.228-9.427 4.277-8.271 3.029 1.69 2.762 6.67 2.762 11.206 0 4.091 0 6.226 2.227 7.115 1.425.623 2.851-2.935 3.474-5.692.624-2.757 1.871-4.002 3.208-3.291 1.336.712 2.761 2.58 2.761 9.784.09 6.403.179 15.564.268 17.609.267 4.803 3.029 7.204 5.345 8.538v7.204l-43.922-25.258v-2.49z" fill="#FAFAFA"/><path d="M279.811 137.834c-3.475-1.957-5.346-4.98-5.524-8.894-.089-2.134-.178-11.917-.267-17.609-.089-7.027-1.425-8.716-2.584-9.428-.267-.178-.623-.178-.891-.089-.712.267-1.336 1.423-1.692 3.024-.446 2.312-1.515 5.158-2.94 5.87-.357.178-.802.267-1.158.089-2.495-.978-2.495-3.291-2.495-7.56v-.978c0-4.091 0-8.36-2.495-9.783-.623-.356-.89-.267-1.069-.178-1.247.622-1.96 4.625-2.494 8.093-.357 2.046-1.515 8.805-3.92 9.961-.535.267-1.069.267-1.604-.089-.802-.444-1.158-1.156-1.514-1.778-.357-.623-.624-1.157-1.337-1.601-.445-.267-.802-.356-1.158-.267-1.514.445-3.029 4.091-4.098 6.759-.891 2.224-2.138 3.647-3.475 4.091-.98.356-2.138.178-3.207-.444l.446-.801c.623.356 1.514.712 2.405.356 1.158-.356 2.138-1.601 2.94-3.647 1.604-3.824 2.94-6.759 4.633-7.292.623-.178 1.247-.089 1.871.355a4.451 4.451 0 011.603 1.957c.268.534.535 1.067 1.158 1.423.268.178.535.178.802.089 1.248-.623 2.673-4.358 3.386-9.339.891-5.692 1.692-8.182 3.029-8.804.534-.267 1.158-.178 1.96.177 3.029 1.69 3.029 6.226 3.029 10.584v.978c0 4.091 0 5.87 1.96 6.671.089 0 .178.089.445 0 .802-.445 1.871-2.757 2.495-5.337.445-1.956 1.158-3.29 2.138-3.735.535-.267 1.158-.178 1.693.089 1.425.8 2.94 2.668 3.029 10.139.089 5.692.178 15.475.267 17.521.178 3.646 1.871 6.314 5.078 8.182l-.445 1.245z" fill="#455A64"/><path d="M239.542 71.753c.802.445 1.425 1.601 1.425 2.49 0 .89-.623 1.334-1.425.8-.802-.444-1.426-1.6-1.426-2.49 0-.889.624-1.245 1.426-.8zm2.583 2.847c0 .622.446 1.422 1.07 1.778l9.8 5.692c.623.356 1.069.089 1.069-.534 0-.622-.446-1.423-1.069-1.779l-9.8-5.692c-.624-.355-1.07-.177-1.07.534zm-2.583 4.001c.802.445 1.425 1.601 1.425 2.49 0 .89-.623 1.335-1.425.801-.802-.445-1.426-1.6-1.426-2.49 0-.89.624-1.245 1.426-.8zm2.583 2.846c0 .623.446 1.423 1.07 1.78l9.8 5.691c.623.356 1.069.089 1.069-.534 0-.622-.446-1.422-1.069-1.778l-9.8-5.692c-.624-.356-1.07-.09-1.07.533z" fill="#7BC6EA"/><path d="M321.505 113.643c3.475-2.401 2.317-4.625 1.159-8.716-7.573-28.016-8.82-29.616-12.117-31.04l-2.672 11.029 7.127 22.946c-5.346 3.735-10.78 6.315-15.858 7.471-.891.178-2.762.089-3.564-.356-2.138-1.245-3.385-1.245-5.613-1.779v3.647s-2.583.444-5.969-.178c-4.633-.89-6.593.089-3.831 5.336 1.782 3.291 5.168 4.358 13.72 2.935 2.495-.445 6.237-1.423 9.266-2.401 7.84-2.757 14.522-6.315 18.352-8.894z" fill="#EDBAA0"/><path d="M310.547 73.888s-3.296 2.045-4.009 7.204c-.713 5.158 4.989 18.588 4.989 18.588s5.969.177 9.266-3.825c0 0-4.188-13.785-4.989-16.72-.891-2.846-4.009-4.803-5.257-5.247z" fill="#27DEBF"/><path d="M310.547 73.888s-3.296 2.045-4.009 7.204c-.713 5.158 4.989 18.588 4.989 18.588s5.969.177 9.266-3.825c0 0-4.188-13.785-4.989-16.72-.891-2.846-4.009-4.803-5.257-5.247z" fill="#465573"/><path d="M230.098 79.669v4.09s2.227 3.38 4.633 4.626c2.405 1.245 2.316 6.225-.624 6.937-2.94.711-7.038-2.935-7.394-4.98-.268-2.046.445-10.94 3.385-10.673z" fill="#FFA8A7"/><path d="M108.346 35.27l21.913-.534c.802-.622 5.166-5.863 5.166-5.863s12.025-1.51 12.025-1.066c.089.444-11.758 13.06-13.005 14.392-.623.71-1.247 1.243-2.761 1.332-3.118.178-20.22 1.244-20.22 1.244l-3.118-9.506z" fill="#EDBAA0"/><path d="M129.457 98.878l-.623-.355c-.98-.533-1.693-1.866-1.693-2.932v-60.41c0-1.067.802-2.4 1.693-2.932l52.465-30.206c.98-.533 2.494-.533 3.385 0l.624.356c.979.533 1.692 1.865 1.692 2.931v60.411c0 1.066-.802 2.399-1.692 2.932l-52.466 30.205c-.891.533-2.405.533-3.385 0z" fill="#27DEBF"/><path d="M129.457 98.878l-.623-.355c-.98-.533-1.693-1.866-1.693-2.932v-60.41c0-1.067.802-2.4 1.693-2.932l52.465-30.206c.98-.533 2.494-.533 3.385 0l.624.356c.979.533 1.692 1.865 1.692 2.931v60.411c0 1.066-.802 2.399-1.692 2.932l-52.466 30.205c-.891.533-2.405.533-3.385 0z" fill="url(#paint16_linear)"/><path d="M127.141 65.386V35.18c0-.533.178-1.154.535-1.688l7.482 4.265v59.7l-2.316 1.332c-.98.533-2.494.533-3.385 0l-.623-.355c-.98-.533-1.693-1.866-1.693-2.932V65.386z" fill="#27DEBF"/><path d="M127.141 65.386V35.18c0-.533.178-1.154.535-1.688l7.482 4.265v59.7l-2.316 1.332c-.98.533-2.494.533-3.385 0l-.623-.355c-.98-.533-1.693-1.866-1.693-2.932V65.386z" fill="url(#paint17_linear)"/><path d="M185.308 4.353L132.842 34.56c-.98.533-1.692 1.865-1.692 2.931V97.9c0 1.067.801 1.511 1.692.978l52.466-30.205c.979-.533 1.692-1.866 1.692-2.932V5.331c0-1.067-.713-1.51-1.692-.978z" fill="#27DEBF"/><path d="M185.308 4.353L132.842 34.56c-.98.533-1.692 1.865-1.692 2.931V97.9c0 1.067.801 1.511 1.692.978l52.466-30.205c.979-.533 1.692-1.866 1.692-2.932V5.331c0-1.067-.713-1.51-1.692-.978z" fill="url(#paint18_linear)"/><path d="M149.766 61.566c0-6.841 4.187-14.837 9.353-17.768v-7.463c-4.632 2.665-8.729 7.64-11.669 14.037-5.166 11.549-4.186 23.453 2.227 26.74l3.563-7.906c-2.137-1.066-3.474-3.731-3.474-7.64z" fill="#7BC6EA"/><path d="M159.119 36.335v7.463c5.167-2.932 9.353.177 9.353 7.018 0 6.84-4.186 14.836-9.353 17.768-2.227 1.244-4.275 1.421-5.879.622l-3.563 7.906c2.851 1.422 5.79 1.067 9.442-.977 8.284-4.797 14.965-17.501 14.965-28.517 0-11.016-6.77-16.08-14.965-11.283z" fill="#7BC6EA"/><path d="M159.119 76.046c8.284-4.797 14.965-17.5 14.965-28.517l-5.612 3.287c0 6.84-4.186 14.747-9.353 17.68-2.227 1.243-4.275 1.42-5.879.621l-3.563 7.907c2.851 1.421 5.79 1.155 9.442-.978zm-23.961-37.579c-.802.445-1.425 1.6-1.425 2.488 0 .888.623 1.333 1.425.8.802-.445 1.425-1.6 1.425-2.488 0-.888-.623-1.244-1.425-.8zm14.519-6.574c0 .622-.445 1.422-1.069 1.777l-9.798 5.686c-.623.355-1.069.089-1.069-.533s.446-1.422 1.069-1.777l9.798-5.686c.624-.355 1.069-.089 1.069.533z" fill="#7BC6EA"/><path d="M151.993 28.784c-.801.444-1.425 1.599-1.425 2.487 0 .889.624 1.333 1.425.8.802-.444 1.425-1.6 1.425-2.487 0-.889-.623-1.244-1.425-.8z" fill="#455A64"/><path d="M166.513 22.21c0 .622-.446 1.421-1.069 1.777l-9.799 5.685c-.623.356-1.069.09-1.069-.533 0-.622.446-1.421 1.069-1.776l9.799-5.686c.534-.356 1.069-.09 1.069.533z" fill="#7BC6EA"/><path d="M168.74 19.012c-.802.444-1.426 1.599-1.426 2.487 0 .889.624 1.333 1.426.8.801-.444 1.425-1.6 1.425-2.488 0-.888-.624-1.244-1.425-.8z" fill="#37474F"/><path d="M183.259 12.438c0 .621-.446 1.42-1.069 1.776l-9.798 5.686c-.624.355-1.069.089-1.069-.533s.445-1.422 1.069-1.777l9.798-5.686c.623-.266 1.069-.088 1.069.534z" fill="#7BC6EA"/><path d="M116.63 33.492h-15.588c-8.64 0-15.588-6.93-15.588-15.546v-2.4C85.454 6.93 92.402 0 101.042 0c8.64 0 15.588 6.93 15.588 15.547v17.945z" fill="#263238"/><path d="M147.985 18.479c-1.782 1.421-3.83 2.22-3.83 2.931 0 1.066 1.692 1.155 2.227.889l2.583-1.422s.801.178 3.295 1.777c1.426.977 2.227 4.709 4.098 4.53 1.96-.177 3.652-1.065 3.919-2.398.357-1.688-.534-5.419-2.494-6.752-4.632-3.109-7.928-1.066-9.798.445z" fill="#EDBAA0"/><path d="M103.447 172.97c0 .622 0 1.155.535 2.132.623 1.244 2.315 3.287 3.563 4.62 1.87 2.043 4.721 4.442 6.769 6.219 1.158.977 1.158 2.487-.445 3.02-1.603.533-5.256.711-8.908-1.244-2.048-1.066-4.899-6.13-6.591-6.84-1.96-.889-3.029-1.333-3.652-2.221-.98-1.333-1.247-2.31-.357-3.909.891-1.688 2.316-4.353 2.85-3.998l-.177.533c.445 1.422 4.186 3.021 6.146 2.576l.267-.888z" fill="#263238"/><path d="M105.229 166.307c-.891 3.021-1.604 5.419-1.693 6.663.089 1.155.089 1.155.535 2.132.623 1.244 2.316 3.287 3.563 4.62.89.977 2.048 2.043 3.295 3.109.089.178.179.356.179.533 0 1.066-2.584 1.333-4.098.889-1.871-.533-3.385-1.955-4.632-3.554-.891-1.155-2.85-3.376-4.097-5.064-.535-.71-.98-1.332-1.07-1.688-.445-1.066-.355-1.865-.177-2.398l.089-.267c.712-2.043 1.069-4.264 1.247-6.396M87.235 175.28c.357 1.954.446 3.909.446 5.863v4.353h6.502v-7.462s.09 0 .09-.089c0 0 .088-1.421.267-3.731" fill="#EDBAA0"/><path d="M105.229 166.307c3.563-11.549 11.579-32.248 12.648-35.891 1.158-3.909-.267-37.668-1.158-48.595l-33.848-1.777c-2.584 11.016-.09 25.852.801 35.092.891 8.973 1.96 19.544 1.96 19.544s-2.672 9.151-1.96 16.525c.446 4.619 2.672 18.212 3.652 24.164 2.495.711 4.9.355 7.394-.977.445-5.242 1.158-14.748 1.96-20.967 1.157-9.328 1.514-16.168 2.493-21.587 1.247-6.841 1.604-33.493 1.604-33.493l3.919 30.205s-2.049 3.465-3.474 8.973c-1.158 4.265-2.316 20.433-2.761 27.452 1.514 1.155 3.83 1.599 6.77 1.332z" fill="#465573"/><path d="M100.597 98.345s6.146-2.132 9.709-5.42c0 0-2.405 4.088-7.215 6.309l-.089 17.679-2.405-18.568z" fill="#263238"/><path d="M95.698 35.536s-7.84.71-8.908 1.155c5.612 6.13-2.94 8.617-2.94 8.617l6.503 21.588c-3.652 4.709-6.859 8.35-7.66 13.948 3.919 6.93 26.01 7.907 34.115 2.754-.712-9.684-2.316-16.524-1.781-19.456 3.83-11.816 2.672-14.303 2.316-17.057-.713-5.33-5.968-9.861-8.997-11.816h-2.761l-9.887.267z" fill="#465573"/><path d="M94.183 182.387v-.888c.178 1.421 2.049 5.774 4.632 8.084 2.049 1.866 4.81 3.998 5.523 6.13.712 2.132-3.296 3.021-5.968 2.754-3.118-.266-5.523-2.132-6.68-3.465-1.693-1.954-1.693-3.198-2.406-4.264-.802-1.066-2.583-2.221-3.029-3.465-.267-.71 0-2.132.357-3.376.267-1.155.623-2.398.98-2.309v.71c.445.533 1.781 1.066 3.206 1.066 1.158-.088 3.474-.266 3.385-.977z" fill="#263238"/><path d="M87.77 182.121c.445.533 1.781 1.066 3.207 1.066.98 0 3.295-.178 3.206-.889v-.888c.178 1.421 2.049 5.774 4.632 8.084.535.444.98.889 1.603 1.422 1.069 1.243.802 2.309-1.781 2.487-2.583.178-4.81-1.332-6.77-3.731-1.87-2.31-4.097-7.551-4.097-7.551zm23.783-174.57c1.603.978 3.652 5.064 3.474 13.77-.178 7.374-2.583 9.15-3.741 9.684-1.158.533-3.474.178-5.79-.178v4.442s3.117 3.554 2.939 5.597c-.178 2.043-4.453 2.488-7.393.533-2.94-1.954-5.344-5.863-5.344-5.863l.089-10.128s-1.337 1.244-3.564-.71c-1.87-1.6-2.494-4.354-1.068-5.775 1.425-1.422 4.097-1.066 5.166.977 0 0 1.247-3.465 6.413-5.153 4.632-1.421 7.216-3.198 8.819-7.196z" fill="#EDBAA0"/><path d="M105.496 30.827c-2.405-.266-7.215-1.688-8.017-3.642 0 0 .267 1.244 1.692 2.487 1.426 1.244 6.325 2.665 6.325 2.665v-1.51z" fill="#F28F8F"/><path d="M91.867 40.155c1.782 2.577 12.471 24.165 12.471 24.165s12.292-.889 18.617-1.6c1.959-.177 1.514-2.31 2.316-4.441.801-2.133 1.87-1.6 1.87-1.6v2.666c0 1.155 2.405 3.109 4.009 3.109 4.186-.089 8.373-4.175 8.551-.8.089 2.221-.891 5.508-2.762 6.397-5.433 2.487-8.284 1.688-11.847 1.954-2.761.178-18.705 2.577-22.447 2.754-1.959.09-3.474-.266-5.166-2.754-1.692-2.398-12.025-21.854-12.025-21.854-3.92-5.597-1.693-10.306 1.247-11.372 1.781-.621 3.474.8 5.166 3.376z" fill="#EDBAA0"/><defs><linearGradient id="paint0_linear" x1="43.908" y1="91.875" x2="67.676" y2="130.996" gradientUnits="userSpaceOnUse"><stop stop-color="#E6E6E6"/><stop offset="1" stop-color="#fff" stop-opacity=".01"/></linearGradient><linearGradient id="paint1_linear" x1="328.299" y1="103.961" x2="310.798" y2="132.802" gradientUnits="userSpaceOnUse"><stop stop-color="#E6E6E6"/><stop offset="1" stop-color="#fff" stop-opacity=".01"/></linearGradient><linearGradient id="paint2_linear" x1="325.824" y1="117.315" x2="381.521" y2="117.315" gradientUnits="userSpaceOnUse"><stop stop-color="#D6DCED"/><stop offset="1" stop-color="#B1D8F4"/></linearGradient><linearGradient id="paint3_linear" x1="21.433" y1="70.843" x2="65.274" y2="70.843" gradientUnits="userSpaceOnUse"><stop stop-color="#D6DCED"/><stop offset="1" stop-color="#B1D8F4"/></linearGradient><linearGradient id="paint4_linear" x1="108.752" y1="272.418" x2="220.294" y2="272.418" gradientUnits="userSpaceOnUse"><stop stop-color="#D6DCED"/><stop offset="1" stop-color="#F0F0F9"/></linearGradient><linearGradient id="paint5_linear" x1="108.752" y1="272.448" x2="164.523" y2="272.448" gradientUnits="userSpaceOnUse"><stop stop-color="#D6DCED"/><stop offset="1" stop-color="#F0F0F9"/></linearGradient><linearGradient id="paint6_linear" x1="109.747" y1="267.807" x2="219.299" y2="267.807" gradientUnits="userSpaceOnUse"><stop stop-color="#D6DCED"/><stop offset="1" stop-color="#B1D8F4"/></linearGradient><linearGradient id="paint7_linear" x1="124.687" y1="244.964" x2="236.228" y2="244.964" gradientUnits="userSpaceOnUse"><stop stop-color="#D6DCED"/><stop offset="1" stop-color="#F0F0F9"/></linearGradient><linearGradient id="paint8_linear" x1="124.686" y1="244.994" x2="180.458" y2="244.994" gradientUnits="userSpaceOnUse"><stop stop-color="#D6DCED"/><stop offset="1" stop-color="#F0F0F9"/></linearGradient><linearGradient id="paint9_linear" x1="125.682" y1="240.353" x2="235.234" y2="240.353" gradientUnits="userSpaceOnUse"><stop stop-color="#D6DCED"/><stop offset="1" stop-color="#B1D8F4"/></linearGradient><linearGradient id="paint10_linear" x1="140.621" y1="217.51" x2="252.162" y2="217.51" gradientUnits="userSpaceOnUse"><stop stop-color="#D6DCED"/><stop offset="1" stop-color="#F0F0F9"/></linearGradient><linearGradient id="paint11_linear" x1="140.62" y1="217.54" x2="196.392" y2="217.54" gradientUnits="userSpaceOnUse"><stop stop-color="#D6DCED"/><stop offset="1" stop-color="#F0F0F9"/></linearGradient><linearGradient id="paint12_linear" x1="141.616" y1="212.899" x2="251.167" y2="212.899" gradientUnits="userSpaceOnUse"><stop stop-color="#D6DCED"/><stop offset="1" stop-color="#B1D8F4"/></linearGradient><linearGradient id="paint13_linear" x1="230.132" y1="156.742" x2="289.977" y2="156.742" gradientUnits="userSpaceOnUse"><stop stop-color="#D6DCED"/><stop offset="1" stop-color="#F0F0F9"/></linearGradient><linearGradient id="paint14_linear" x1="281.997" y1="156.57" x2="289.977" y2="156.57" gradientUnits="userSpaceOnUse"><stop stop-color="#D6DCED"/><stop offset="1" stop-color="#F0F0F9"/></linearGradient><linearGradient id="paint15_linear" x1="230.132" y1="156.577" x2="285.987" y2="156.577" gradientUnits="userSpaceOnUse"><stop stop-color="#D6DCED"/><stop offset="1" stop-color="#B1D8F4"/></linearGradient><linearGradient id="paint16_linear" x1="127.179" y1="99.287" x2="187.014" y2="99.287" gradientUnits="userSpaceOnUse"><stop stop-color="#D6DCED"/><stop offset="1" stop-color="#F0F0F9"/></linearGradient><linearGradient id="paint17_linear" x1="127.179" y1="99.115" x2="135.157" y2="99.115" gradientUnits="userSpaceOnUse"><stop stop-color="#D6DCED"/><stop offset="1" stop-color="#F0F0F9"/></linearGradient><linearGradient id="paint18_linear" x1="131.168" y1="99.123" x2="187.014" y2="99.123" gradientUnits="userSpaceOnUse"><stop stop-color="#D6DCED"/><stop offset="1" stop-color="#B1D8F4"/></linearGradient></defs></svg>