<svg width="653" height="361" fill="none" xmlns="http://www.w3.org/2000/svg"><path d="M259.24 53.056v126.261c0 4.383-3.57 7.931-7.98 7.931H16.48c-4.41 0-7.98-3.548-7.98-7.931V53.057c0-4.383 3.57-7.93 7.98-7.93h234.57c4.62-.21 8.19 3.338 8.19 7.93z" fill="#E0E0E0" opacity=".7"/><path d="M648.512 350.5H355.488c-2.099 0-3.988-1.68-3.988-3.989V63.489c0-2.1 1.679-3.989 3.988-3.989h293.024c2.099 0 3.988 1.68 3.988 3.99v283.02c-.21 2.309-1.889 3.989-3.988 3.989z" fill="url(#paint0_linear)"/><path d="M243.89 178.462H9.32c-4.41 0-7.98-3.551-7.98-7.937V8.646C1.34 4.26 4.91.71 9.32.71h234.57c4.41 0 7.98 3.55 7.98 7.937v161.67c0 4.595-3.57 8.146-7.98 8.146z" fill="#fff" opacity=".79"/><path d="M224.392 105.5h-39.784c-1.658 0-3.108-1.517-3.108-3.25v-6.5c0-1.733 1.45-3.25 3.108-3.25h39.784c1.658 0 3.108 1.517 3.108 3.25v6.5c0 1.95-1.45 3.25-3.108 3.25z" fill="url(#paint1_linear)"/><path d="M224.392 127.5h-39.784c-1.658 0-3.108-1.517-3.108-3.25v-6.5c0-1.733 1.45-3.25 3.108-3.25h39.784c1.658 0 3.108 1.517 3.108 3.25v6.5c0 1.733-1.45 3.25-3.108 3.25z" fill="url(#paint2_linear)"/><path d="M224.392 150.5h-39.784c-1.658 0-3.108-1.517-3.108-3.25v-6.5c0-1.733 1.45-3.25 3.108-3.25h39.784c1.658 0 3.108 1.517 3.108 3.25v6.5c0 1.733-1.45 3.25-3.108 3.25z" fill="url(#paint3_linear)"/><path fill="#E0E0E0" d="M10.5 201.5h57v7h-57z"/><path fill="#78C3D6" d="M78.5 201.5h41v7h-41zm206 0h41v7h-41z"/><path d="M301.813 69.275h-26.66c-.826 0-1.653-.832-1.653-1.664v-5.823c0-.832.827-1.664 1.653-1.664h26.66c.827 0 1.654.832 1.654 1.664v5.823c0 1.04-.827 1.664-1.654 1.664zm0 21.838h-26.66c-.826 0-1.653-.832-1.653-1.663v-5.824c0-.832.827-1.664 1.653-1.664h26.66c.827 0 1.654.832 1.654 1.664v5.823c0 1.04-.827 1.664-1.654 1.664zm0 21.839h-26.66c-.826 0-1.653-.832-1.653-1.664v-5.824c0-.832.827-1.664 1.653-1.664h26.66c.827 0 1.654.832 1.654 1.664v5.824c0 1.04-.827 1.664-1.654 1.664zm0 21.838h-26.66c-.826 0-1.653-.832-1.653-1.664v-5.824c0-.831.827-1.663 1.653-1.663h26.66c.827 0 1.654.832 1.654 1.663v5.824c0 1.04-.827 1.664-1.654 1.664zm0 21.838h-26.66c-.826 0-1.653-.832-1.653-1.664v-5.823c0-.832.827-1.664 1.653-1.664h26.66c.827 0 1.654.832 1.654 1.664v5.823c0 .832-.827 1.664-1.654 1.664zm0 21.838h-26.66c-.826 0-1.653-.832-1.653-1.664v-5.823c0-.832.827-1.664 1.653-1.664h26.66c.827 0 1.654.832 1.654 1.664v5.823c0 .832-.827 1.664-1.654 1.664zM323.1 69.275h-5.2c-.8 0-1.6-.832-1.6-1.664v-5.823c0-.832.8-1.664 1.6-1.664h5.2c.8 0 1.6.832 1.6 1.664v5.823c0 1.04-.6 1.664-1.6 1.664zm0 21.838h-5.2c-.8 0-1.6-.832-1.6-1.663v-5.824c0-.832.8-1.664 1.6-1.664h5.2c.8 0 1.6.832 1.6 1.664v5.823c0 1.04-.6 1.664-1.6 1.664zm0 21.839h-5.2c-.8 0-1.6-.832-1.6-1.664v-5.824c0-.832.8-1.664 1.6-1.664h5.2c.8 0 1.6.832 1.6 1.664v5.824c0 1.04-.6 1.664-1.6 1.664zm0 21.838h-5.2c-.8 0-1.6-.832-1.6-1.664v-5.824c0-.831.8-1.663 1.6-1.663h5.2c.8 0 1.6.832 1.6 1.663v5.824c0 1.04-.6 1.664-1.6 1.664zm0 21.838h-5.2c-.8 0-1.6-.832-1.6-1.664v-5.823c0-.832.8-1.664 1.6-1.664h5.2c.8 0 1.6.832 1.6 1.664v5.823c0 .832-.6 1.664-1.6 1.664zm0 21.838h-5.2c-.8 0-1.6-.832-1.6-1.664v-5.823c0-.832.8-1.664 1.6-1.664h5.2c.8 0 1.6.832 1.6 1.664v5.823c0 .832-.6 1.664-1.6 1.664z" fill="#E0E0E0"/><path fill="#78C3D6" d="M131.5 201.5h52v7h-52zm89 0h52v7h-52z"/><path fill="#E0E0E0" d="M191.5 201.5h20v7h-20z"/><path fill="#78C3D6" d="M10.5 222.5h29v7h-29zm35 0h10v7h-10z"/><path fill="#E0E0E0" d="M245.5 222.5h80v7h-80z"/><path fill="#78C3D6" d="M63.5 222.5h10v7h-10zm148 0h26v7h-26zm-63 0h56v7h-56zm-27 0h20v7h-20zm-40 0h33v7h-33z"/><path fill="url(#paint4_linear)" d="M220.5 299.5h13v51h-13z"/><path fill="url(#paint5_linear)" d="M242.5 283.5h13v67h-13z"/><path fill="url(#paint6_linear)" d="M265.5 265.5h13v85h-13z"/><path fill="url(#paint7_linear)" d="M287.5 275.5h13v75h-13z"/><path fill="url(#paint8_linear)" d="M312.5 252.5h13v98h-13z"/><path fill="#E0E0E0" d="M7.974 252.337h1.264v97.523H7.974zm38.758 0h1.264v97.523h-1.264zm38.757 0h1.264v97.523h-1.264zm38.758 0h1.264v97.523h-1.264zm38.757 0h1.264v97.523h-1.264zm38.758 0h1.264v97.523h-1.264z"/><path d="M21.5 350.5s17.263-63.354 39.79-56.574c22.526 6.781 15.368 36.021 33.894 36.021 15.579 0 15.579-49.369 35.579-48.734 20 .636 18.316 37.08 40.632 13.561S190.132 268.5 201.5 268.5v82h-180z" fill="url(#paint9_linear)"/><path d="M8.5 350.29s9.24-38.935 25.411-33.252c16.171 5.471 6.51 27.359 24.362 27.359 18.06 0 14.28-46.09 34.651-42.723 20.371 3.157 8.821 29.464 23.312 30.306 14.49.842 15.54-58.928 49.142-56.402C198.98 278.103 201.5 350.5 201.5 350.5H8.5v-.21zm371.141-32.999l-2.097-2.094 53.891-50.87 54.521 11.932 52.214-59.453 45.294 2.722 35.439-48.777 2.516 1.675-36.487 50.242-45.504-2.722-52.424 59.663-54.73-11.933-52.633 49.615z" fill="#78C3D6"/><path d="M486.585 286.099c4.517 0 8.178-3.656 8.178-8.165 0-4.509-3.661-8.164-8.178-8.164-4.517 0-8.178 3.655-8.178 8.164s3.661 8.165 8.178 8.165z" fill="#E6E6E6"/><path fill-rule="evenodd" clip-rule="evenodd" d="M476.939 280.028c1.258 5.233 6.291 8.373 11.533 7.327 5.243-1.256 8.598-6.281 7.34-11.305-1.259-5.233-6.291-8.374-11.534-7.327-5.242 1.047-8.387 6.071-7.339 11.305zm3.145-.838c-.838-3.559 1.468-6.908 5.033-7.745 3.565-.838 7.13 1.465 7.759 5.024.839 3.559-1.468 6.908-5.033 7.745-3.565.838-6.92-1.465-7.759-5.024z" fill="#78C3D6"/><path d="M538.799 227.064c4.517 0 8.178-3.655 8.178-8.164s-3.661-8.165-8.178-8.165c-4.517 0-8.178 3.656-8.178 8.165 0 4.509 3.661 8.164 8.178 8.164z" fill="#E6E6E6"/><path fill-rule="evenodd" clip-rule="evenodd" d="M529.153 220.993c1.258 5.234 6.291 8.374 11.533 7.327 5.243-1.047 8.598-6.28 7.34-11.514-1.259-5.233-6.291-8.374-11.534-7.327-5.242 1.256-8.387 6.28-7.339 11.514zm3.145-.628c-.838-3.559 1.468-6.908 5.033-7.746 3.565-.837 7.13 1.466 7.759 5.025.839 3.558-1.468 6.908-5.033 7.745-3.565.838-6.92-1.465-7.759-5.024z" fill="#78C3D6"/><path d="M583.883 228.948c4.517 0 8.179-3.655 8.179-8.164s-3.662-8.165-8.179-8.165c-4.516 0-8.178 3.656-8.178 8.165 0 4.509 3.662 8.164 8.178 8.164z" fill="#E6E6E6"/><path fill-rule="evenodd" clip-rule="evenodd" d="M574.238 222.877c1.258 5.234 6.29 8.374 11.533 7.327 5.242-1.256 8.597-6.28 7.339-11.514-1.258-5.233-6.291-8.373-11.533-7.327-5.243 1.256-8.388 6.281-7.339 11.514zm3.145-.837c-.839-3.559 1.468-6.909 5.033-7.746 3.564-.628 7.129 1.465 7.758 5.024.839 3.559-1.468 6.909-5.032 7.746-3.565.837-6.92-1.465-7.759-5.024z" fill="#78C3D6"/><path d="M431.855 275.003c4.516 0 8.178-3.655 8.178-8.164s-3.662-8.164-8.178-8.164c-4.517 0-8.178 3.655-8.178 8.164s3.661 8.164 8.178 8.164z" fill="#E6E6E6"/><path fill-rule="evenodd" clip-rule="evenodd" d="M422.418 268.932c1.258 5.234 6.291 8.374 11.534 7.327 5.242-1.256 8.387-6.28 7.339-11.513-1.258-5.234-6.291-8.374-11.533-7.327-5.243 1.256-8.388 6.28-7.34 11.513zm2.936-.837c-.839-3.559 1.468-6.908 5.033-7.746 3.565-.628 7.129 1.466 7.758 5.025.839 3.558-1.467 6.908-5.032 7.745-3.565.838-6.92-1.465-7.759-5.024z" fill="#78C3D6"/><path fill="#fff" d="M423.677 296.775h33.132v6.28h-33.132zm23.066-65.315h33.132v6.28h-33.132zm68.78 45.637h33.132v6.28h-33.132zm29.777-89.599h33.132v6.28H545.3zm48.02 53.383h33.132v6.28H593.32z"/><path fill="#78C3D6" d="M374.709 81.736h117.539v11.489H374.709z"/><path fill="#fff" d="M374.709 112.86h117.539v11.489H374.709zm0 31.124h117.539v11.489H374.709z"/><path fill="#78C3D6" d="M516.53 81.736h19.939v11.489H516.53z"/><path fill="#fff" d="M516.53 112.86h19.939v11.489H516.53zm0 31.124h19.939v11.489H516.53z"/><path fill-rule="evenodd" clip-rule="evenodd" d="M90.685 18.754c29.252-1.05 57.031 16.792 67.343 45.759 12.838 35.893-5.892 75.565-42.089 88.579-27.99 9.865-58.084.84-76.182-20.361-4.21-5.037-7.997-10.915-10.733-17.212-.631-1.469-1.263-2.938-1.684-4.408-5.26-14.693-5.26-30.016-.841-43.87 6.313-19.94 21.676-36.942 42.93-44.499 6.946-2.519 14.1-3.778 21.256-3.988zm-37.46 102.643c13.47 15.952 35.987 22.879 57.032 15.323 26.937-9.656 41.037-39.462 31.777-66.33-7.786-21.83-28.621-35.054-50.507-34.424-5.261 0-10.733 1.05-15.994 2.939-15.994 5.667-27.569 18.471-32.199 33.374-3.367 10.495-3.367 21.83.632 32.955l1.262 3.149c2.105 4.827 4.84 9.235 7.997 13.014z" fill="url(#paint10_linear)"/><path d="M43.124 72.28l-16.626-5.248c6.314-19.941 21.466-36.943 42.932-44.5 6.945-2.519 14.1-3.778 21.255-3.988l.421 17.212c-5.261.21-10.733 1.05-15.994 2.939-15.784 6.087-27.358 18.681-31.988 33.584z" fill="url(#paint11_linear)"/><path d="M45.018 108.592l-15.994 6.927c-.631-1.469-1.263-2.938-1.684-4.408-5.26-14.693-5.26-30.016-.841-43.87l16.625 5.248c-3.157 10.285-3.367 21.83.631 32.955.421.84.842 2.099 1.263 3.148z" fill="url(#paint12_linear)"/><path d="M39.967 132.731c-4.42-5.037-7.997-10.915-10.733-17.212l15.994-6.927c2.105 4.828 4.84 9.026 7.997 13.015l-13.258 11.124z" fill="url(#paint13_linear)"/><defs><linearGradient id="paint0_linear" x1="351.551" y1="350.468" x2="652.378" y2="350.468" gradientUnits="userSpaceOnUse"><stop stop-color="#D0D4E3"/><stop offset="1" stop-color="#A9D4E6"/></linearGradient><linearGradient id="paint1_linear" x1="181.52" y1="105.606" x2="227.469" y2="105.606" gradientUnits="userSpaceOnUse"><stop stop-color="#D0D4E3"/><stop offset="1" stop-color="#A9D4E6"/></linearGradient><linearGradient id="paint2_linear" x1="181.52" y1="127.546" x2="227.469" y2="127.546" gradientUnits="userSpaceOnUse"><stop stop-color="#D0D4E3"/><stop offset="1" stop-color="#A9D4E6"/></linearGradient><linearGradient id="paint3_linear" x1="181.52" y1="150.484" x2="227.469" y2="150.484" gradientUnits="userSpaceOnUse"><stop stop-color="#D0D4E3"/><stop offset="1" stop-color="#A9D4E6"/></linearGradient><linearGradient id="paint4_linear" x1="220.589" y1="350.661" x2="233.614" y2="350.661" gradientUnits="userSpaceOnUse"><stop stop-color="#D0D4E3"/><stop offset="1" stop-color="#A9D4E6"/></linearGradient><linearGradient id="paint5_linear" x1="242.491" y1="350.535" x2="255.518" y2="350.535" gradientUnits="userSpaceOnUse"><stop stop-color="#D0D4E3"/><stop offset="1" stop-color="#A9D4E6"/></linearGradient><linearGradient id="paint6_linear" x1="265.395" y1="350.497" x2="278.42" y2="350.497" gradientUnits="userSpaceOnUse"><stop stop-color="#D0D4E3"/><stop offset="1" stop-color="#A9D4E6"/></linearGradient><linearGradient id="paint7_linear" x1="287.56" y1="350.64" x2="300.585" y2="350.64" gradientUnits="userSpaceOnUse"><stop stop-color="#D0D4E3"/><stop offset="1" stop-color="#A9D4E6"/></linearGradient><linearGradient id="paint8_linear" x1="312.519" y1="350.56" x2="325.544" y2="350.56" gradientUnits="userSpaceOnUse"><stop stop-color="#D0D4E3"/><stop offset="1" stop-color="#A9D4E6"/></linearGradient><linearGradient id="paint9_linear" x1="21.509" y1="350.372" x2="201.571" y2="350.372" gradientUnits="userSpaceOnUse"><stop stop-color="#D0D4E3"/><stop offset="1" stop-color="#A9D4E6"/></linearGradient><linearGradient id="paint10_linear" x1="23.361" y1="156.963" x2="162.072" y2="156.963" gradientUnits="userSpaceOnUse"><stop stop-color="#D0D4E3"/><stop offset="1" stop-color="#A9D4E6"/></linearGradient><linearGradient id="paint11_linear" x1="26.526" y1="72.393" x2="91.161" y2="72.393" gradientUnits="userSpaceOnUse"><stop stop-color="#D0D4E3"/><stop offset="1" stop-color="#A9D4E6"/></linearGradient><linearGradient id="paint12_linear" x1="23.361" y1="115.395" x2="45.051" y2="115.395" gradientUnits="userSpaceOnUse"><stop stop-color="#D0D4E3"/><stop offset="1" stop-color="#A9D4E6"/></linearGradient><linearGradient id="paint13_linear" x1="29.139" y1="132.624" x2="53.108" y2="132.624" gradientUnits="userSpaceOnUse"><stop stop-color="#D0D4E3"/><stop offset="1" stop-color="#A9D4E6"/></linearGradient></defs></svg>