<svg xmlns="http://www.w3.org/2000/svg" width="158.354" height="292.878"><defs><clipPath id="a"><path d="M0 0h-60.28v158.461H0z" transform="rotate(-180 .079 -.05)" fill="none"/></clipPath><clipPath id="b"><path d="M-6.63 22.2s-17.464 22.55-25.05 24.431c-6.2 1.538-33.086-7.193-33.086-7.193l1.623-8.31s10.931 3.747 18.237 4.36c4.478.376 10.066 1.854 10.729 1.437.663-.417 13.449-18.981 14.362-20.984a53.807 53.807 0 017.663-11.748A13.911 13.911 0 01-4.06 0C6.389 6.844-6.63 22.2-6.63 22.2" transform="rotate(-180 .064 -.055)" fill="none"/></clipPath><clipPath id="d"><path d="M-20.519.693c1.9.672 12.45 1.765 16.323 4.831C.263 9.054-.488 26.86-.488 26.86s-10.217 17.556-11.124 19.908c-.906 2.352-1.047 11.788.282 13.2C-5.188 66.52 0 83.955 0 83.955c-7.663 6.888-46.057-.241-45.81-4.021.247-3.78.248-22.329-1.07-29.133-1.319-6.8 1.4-9.072-1.483-15.876-2.884-6.8-4.285-12.6-2.884-16.464 1.4-3.864 9.394-14.448 11.454-14.868C-37.733 3.172-31.8.316-31.8.316A32.722 32.722 0 01-27.049 0a24.093 24.093 0 016.53.693" transform="rotate(-180 .022 -.042)" fill="none"/></clipPath><clipPath id="e"><path d="M-12.12 6.466c4.339 8.393 4.317 11.975 4.9 16.072.548 3.87 3.019 14.435 3.269 15.526C-3.7 39.155 1.9 52.166-.672 56.713c-2.58 4.571-28.788 18.025-28.621 19.033.167 1.007-4.539-10.172-4.539-10.172s10.6-5.946 12.341-7.776c2.822-2.974 8.773-6.177 7.55-9.866-1.437-4.333-5.75-18.952-6.752-21.093-1-2.14-9.72-23.855-3.338-26.583A8.832 8.832 0 01-21.8 0c2.576 0 6.83.944 9.685 6.466" transform="rotate(-180 0 -.046)" fill="none"/></clipPath><linearGradient id="c" x1="1" y1=".5" x2="0" y2=".5" gradientUnits="objectBoundingBox"><stop offset="0" stop-color="#b1d8f4"/><stop offset="1" stop-color="#d6dbed"/></linearGradient></defs><path d="M49.862 255.945c-6.836-4.823-14.836-38.437-15.313-58.459-.244-10.256-3.266-14.529-5.931-18.3-2.548-3.6-4.749-6.716-3.467-13.861 2.449-13.654-3.992-19.548-4.057-19.606l.745-.853c.287.252 6.994 6.332 4.424 20.662-1.2 6.677.777 9.469 3.276 13 2.623 3.709 5.887 8.325 6.14 18.927.512 21.491 8.691 53.228 14.833 57.562z" fill="#009fe6"/><path d="M52.419 258.437a8.573 8.573 0 007.113-3.523c1.762-2.2 3.1-5.245 4.653-8.772v-.008a188.282 188.282 0 012.066-4.581c3.905-8.271 7.365-9.633 13.1-11.889l.021-.008c1.4-.55 2.975-1.172 4.709-1.954 8.209-3.7 6.62-9.156 5.218-13.968a59.243 59.243 0 01-.561-2.011c-.723-2.831.665-4.251 2.764-6.4l.007-.007a24 24 0 004.995-6.719c1.639-3.437.8-5.28-.185-6.221a5.664 5.664 0 00-3.972-1.272 16.052 16.052 0 00-7.447 2.14 16.488 16.488 0 00-3.791 3.275c-2.891 3.037-6.488 6.816-15.584 6.858-5.187.024-8.028.743-9.5 2.4-1.669 1.883-1.355 4.7-.919 8.6v.029c.15 1.342.319 2.863.422 4.5a26.453 26.453 0 01-5.239 17.04c-3.468 4.158-7.737 12.744-5.895 18.03a6.314 6.314 0 005.138 4.146 14.631 14.631 0 002.887.315zm39.955-66.212a4.54 4.54 0 013.167.979c1.3 1.235.686 3.351-.057 4.908a22.715 22.715 0 01-4.783 6.418c-2.2 2.249-3.932 4.026-3.052 7.475.165.65.36 1.319.548 1.966l.023.08c1.4 4.793 2.715 9.32-4.6 12.616-1.712.773-3.282 1.391-4.667 1.936h-.013c-5.785 2.278-9.607 3.783-13.7 12.46a184.848 184.848 0 00-2.081 4.613c-3.077 7-5.11 11.621-10.73 11.622a13.568 13.568 0 01-2.672-.294 5.25 5.25 0 01-4.296-3.4c-1.624-4.659 2.262-12.818 5.692-16.916a27.13 27.13 0 005.5-17.839c-.1-1.67-.276-3.206-.427-4.562v-.025c-.4-3.61-.695-6.218.64-7.723 1.22-1.375 3.891-2 8.662-2.021 9.576-.045 13.357-4.017 16.4-7.208a15.466 15.466 0 013.514-3.07 15.2 15.2 0 016.932-2.015z" fill="#009fe6"/><path d="M49.652 264.985l-1.129-.06c.056-1.064 1.479-26.15 11.518-33.491 11.013-8.055 14.485-16.71 16.139-22.521 1.948-6.85 11.866-8.676 12.284-8.75l.2 1.117c-.1.017-9.643 1.783-11.4 7.945-1.7 5.971-5.265 14.865-16.56 23.126-9.605 7.027-11.04 32.379-11.052 32.634" fill="#009fe6"/><path d="M60.279 112.429H-.001V270.89h60.28z" fill="none"/><g clip-path="url(#a)" transform="rotate(180 30.219 56.164)"><path d="M10.039-158.562a2.537 2.537 0 00-1.164.264c-2.363 1.18-2.277 5.925-2.147 13.109.164 9.077.388 21.509-4.347 32.941-5.032 12.148-.544 15.7 3.8 19.13 4.859 3.846 9.449 7.478.64 23.87-4.046 7.53-5.33 12.623-4.043 16.027 1.272 3.365 4.844 4.676 8.625 6.065 6.528 2.4 13.926 5.114 12.971 18.974-.293 4.249.2 6.862 1.567 8.224a5.009 5.009 0 003.853 1.25c.733 0 1.509-.057 2.331-.117.905-.066 1.841-.135 2.789-.135a10.419 10.419 0 019.11 4.465c.4 1.245 3.994 12.223 8.294 14.1a3.3 3.3 0 001.319.294 3.015 3.015 0 001.31-.307c2.972-1.426 4.7-3.118 5.272-5.171 1-3.571-1.605-7.6-4.624-12.263-4.745-7.33-10.122-15.638-4.545-25.525 7.375-13.072 3.479-17.646-1.912-23.978l-.007-.008c-3.086-3.626-6.584-7.735-8.922-14.436-1.882-5.393 1.328-10.535 4.433-15.508 3.895-6.238 7.922-12.689-.557-18.287-7.249-4.785-14.446-15.279-19.207-23.239-5.255-8.788-8.761-16.451-8.8-16.527l-.058-.125-.108-.085c-2.597-2.049-4.465-3.002-5.873-3.002zm19.744 138.72a4.006 4.006 0 01-3.049-.921c-1.1-1.1-1.5-3.5-1.238-7.341 1.014-14.712-7.149-17.709-13.709-20.118-3.685-1.354-6.868-2.523-7.957-5.4-1.163-3.075.1-7.869 3.98-15.087 9.261-17.232 4.078-21.333-.935-25.3-4.193-3.317-8.153-6.45-3.451-17.8 4.826-11.653 4.6-24.221 4.433-33.4v-.013c-.112-6.258-.2-11.2 1.521-12.06a1.463 1.463 0 01.659-.141c1.1 0 2.8.9 5.074 2.671a185.331 185.331 0 009.357 17.517 118.627 118.627 0 008.828 12.785 47.178 47.178 0 0010.166 9.816c7.556 4.987 4.157 10.432.221 16.736-3.1 4.958-6.6 10.577-4.542 16.485 2.41 6.907 5.983 11.1 9.136 14.806 5.282 6.2 8.771 10.3 1.787 22.684-5.916 10.485-.1 19.476 4.58 26.7 2.87 4.432 5.348 8.26 4.485 11.338-.482 1.721-2.011 3.178-4.672 4.454a1.884 1.884 0 01-.823.2 2.147 2.147 0 01-.871-.2c-3.946-1.724-7.546-13.016-7.7-13.5l-.029-.095-.059-.079a11.6 11.6 0 00-10.074-4.991c-.994 0-1.946.07-2.868.138-.802.057-1.565.116-2.25.116z" fill="#009fe6"/></g><path d="M73.69 138.959c-7.135-2.455-5.653 11.343-8.667 21.552s-33.539 4.454-20.727 30.018-16.2 8.549-7.537 30.858.754 46.168 10.175 40.1 5.293-34.162 15.091-37.5 11.4-7.232 1.7-16.307 25.416-18.083 16.748-36.408" fill="#b1d8f4"/><path d="M50.215 260.022c-.9-3.819-8.56-37.428-1.41-41.49 6.3-3.58 6.147-17.507 5.163-30.658-.867-11.642 14.034-17.083 14.669-17.309l.378 1.069c-.147.052-14.722 5.379-13.916 16.154 1.01 13.506 1.117 27.837-5.734 31.731-5.429 3.084-.431 30.1 1.953 40.243z" fill="#fff"/><path d="M23.298 248.054l10.187 38.778H56.25l10.187-38.778z" fill="#d6dced"/><path d="M23.298 248.054s22.426 4.225 22.426 38.778H56.25l10.187-38.778z" fill="#b1d8f4"/><path d="M105.523 26.88s-10.4 22.007-3.242 23.323c9.832 1.807 13.81-16.423 13.81-16.423z" fill="#252740"/><path d="M48.716 81.552s-3.252-1.02-3.514-2.957a10.969 10.969 0 00-2.146-4.214c-.605-.81-1.54-3.989-2.563-3.234s1.287 5.315 1.581 6.369-4.158-.952-5.258-.676-3.992 7.856-.781 8.877 7.314-.014 7.843.278a20.565 20.565 0 002.307.836z" fill="#eea886"/><path d="M37.625 76.901s-10.039-2.472-10.845-2.075-.907.951.022 1.221 9.63 2.67 9.63 2.67-12.371-.922-13.1-.742c-.429.106-.688 1.166-.2 1.357s12.686 1.809 12.686 1.809-11.552-.84-12.119-.507a.8.8 0 00.361 1.449c.853.121 11.531 1.509 11.531 1.509s-8.447-.081-8.76.485c-.192.346-.459 1.252 1.722 1.205s7.335.383 7.335.383z" fill="#eea886"/><path d="M131.226 271.922s-5.388 8.028-7.559 9.964c0 0-4.825 1.775-5.307 5.164s-.4 5.65 5.307 5.811 9.452-.867 10.5-4.337a15.806 15.806 0 013.334-5.831v7.262h1.284s.322-7.02.4-8.31.926-6.254-1.788-8.452a7.511 7.511 0 00-6.171-1.271m-26.97-6.413a23.2 23.2 0 01-2.694 4.518c-1.291 1.691-5.307 8.633-7.077 9.117s-7.237 1.452-7.72 4.518-.724 5.244 4.664 5.486 8.926.565 11.5-3.227a28.051 28.051 0 016.674-6.536v9.895h2.091s.962-10.3 1.527-11.023 2.01-8.633-2.975-12.748-5.991 0-5.991 0" fill="#3f446e"/><path d="M134.844 116.971s6.8 8.875 8.648 19.4-1.09 45.868-1.009 51.072 4.906 18.162 3.94 27.962-9.026 57.789-9.026 57.789l-6.171-1.27s.6-49.741 0-53.856-1.814-19.114-2.055-20.808-15.315-46.187-15.315-53.778 4.584-38.9 20.988-26.511" fill="#eea886"/><path d="M100.669 120.44s-11.177 42.8-12.5 48.732-3.249 10.821-3.249 13.339c0 5.842 2.163 15.223 2.163 15.223l17.176 67.774 7.124 1.123s-4.122-41.647-4.322-49.637c-.2-8.008-6.347-19.38-5.141-22.769s19.42-42.48 19.42-42.48 13.786-43.727-20.671-31.305m22.998 161.447s5.517 3.1 9.07-.879a28.112 28.112 0 004.66-7.815l-6.171-1.27z" fill="#eea886"/><path d="M94.485 279.144s4.825 1.21 6.674 0 8.137-11.874 10.22-12.512c0 0-2.018-4.108-7.124-1.123 0 0-8.4 11.861-9.77 13.636" fill="#eea886"/><path d="M84.915 182.511s25.853 11.138 64.346 11.138c0 0-1.689-50.317-7.285-62.92s-42.2-6.933-42.2-6.933-14.861 48.157-14.861 58.715" fill="#3f446e"/><path d="M103.597 69.188s-17.464 22.55-25.05 24.431c-6.2 1.538-33.086-7.193-33.086-7.193l1.623-8.31s10.931 3.747 18.237 4.36c4.478.376 10.066 1.854 10.729 1.437.663-.417 13.449-18.981 14.362-20.984a53.807 53.807 0 017.663-11.748 13.911 13.911 0 018.092-4.193c10.449 6.844-2.57 22.2-2.57 22.2" fill="none"/><g clip-path="url(#b)" transform="rotate(180 55.177 23.439)"><path d="M-6.63 22.2s-17.464 22.55-25.05 24.431c-6.2 1.538-33.086-7.193-33.086-7.193l1.623-8.31s10.931 3.747 18.237 4.36c4.478.376 10.066 1.854 10.729 1.437.663-.417 13.449-18.981 14.362-20.984a53.807 53.807 0 017.663-11.748A13.911 13.911 0 01-4.06 0C6.389 6.844-6.63 22.2-6.63 22.2" transform="rotate(-180 .064 -.055)" fill="url(#c)"/></g><path d="M124.791 43.655c1.9.672 12.45 1.765 16.323 4.831 4.459 3.53 3.708 21.336 3.708 21.336s-10.217 17.556-11.124 19.908c-.906 2.352-1.047 11.788.282 13.2 6.142 6.552 11.33 23.987 11.33 23.987-7.663 6.888-46.057-.241-45.81-4.021.247-3.78.248-22.329-1.07-29.133-1.319-6.8 1.4-9.072-1.483-15.876-2.884-6.8-4.285-12.6-2.884-16.464 1.4-3.864 9.394-14.448 11.454-14.868 2.06-.421 7.993-3.277 7.993-3.277a32.722 32.722 0 014.751-.316 24.093 24.093 0 016.53.693" fill="none"/><g clip-path="url(#d)" transform="rotate(180 72.677 21.439)"><path d="M-20.519.693c1.9.672 12.45 1.765 16.323 4.831C.263 9.054-.488 26.86-.488 26.86s-10.217 17.556-11.124 19.908c-.906 2.352-1.047 11.788.282 13.2C-5.188 66.52 0 83.955 0 83.955c-7.663 6.888-46.057-.241-45.81-4.021.247-3.78.248-22.329-1.07-29.133-1.319-6.8 1.4-9.072-1.483-15.876-2.884-6.8-4.285-12.6-2.884-16.464 1.4-3.864 9.394-14.448 11.454-14.868C-37.733 3.172-31.8.316-31.8.316A32.722 32.722 0 01-27.049 0a24.093 24.093 0 016.53.693" transform="rotate(-180 .022 -.042)" fill="url(#c)"/></g><path d="M111.421 36.215s1.157 11.016.915 14.6c0 0 6.024 6.253 12.875-7.3a19.2 19.2 0 01-.713-13.2c2.17-7.604-13.077 5.9-13.077 5.9m6.692 88.495a4.809 4.809 0 001.574-.234s.841-.505 1.459-.827a4.613 4.613 0 01.488-.227 8.946 8.946 0 002.683-1.175 62.371 62.371 0 004.829-5.283l-1.779-2.8-1.305-2.873s-7.916.529-8.982 1.122a3.036 3.036 0 00-.3.186 11.834 11.834 0 00-1.675 1.773c-.152.135-1.578 1.581-1.529 2.2a2.03 2.03 0 00.948 1.7 4.931 4.931 0 001 2.445 3.024 3.024 0 001.394 2.221s.312 1.55 1.192 1.774" fill="#eea886"/><path d="M146.234 53.437c4.339 8.393 4.317 11.975 4.9 16.072.548 3.87 3.019 14.435 3.269 15.526.251 1.091 5.851 14.102 3.279 18.649-2.58 4.571-28.788 18.025-28.621 19.033.167 1.007-4.539-10.172-4.539-10.172s10.6-5.946 12.341-7.776c2.822-2.974 8.773-6.177 7.55-9.866-1.437-4.333-5.75-18.952-6.752-21.093-1-2.14-9.72-23.855-3.338-26.583a8.832 8.832 0 012.231-.256c2.576 0 6.83.944 9.685 6.466" fill="none"/><g clip-path="url(#e)" transform="rotate(180 79.177 23.439)"><path d="M-12.12 6.466c4.339 8.393 4.317 11.975 4.9 16.072.548 3.87 3.019 14.435 3.269 15.526C-3.7 39.155 1.9 52.166-.672 56.713c-2.58 4.571-28.788 18.025-28.621 19.033.167 1.007-4.539-10.172-4.539-10.172s10.6-5.946 12.341-7.776c2.822-2.974 8.773-6.177 7.55-9.866-1.437-4.333-5.75-18.952-6.752-21.093-1-2.14-9.72-23.855-3.338-26.583A8.832 8.832 0 01-21.8 0c2.576 0 6.83.944 9.685 6.466" transform="rotate(-180 0 -.046)" fill="url(#c)"/></g><path d="M128.331 16.241s1.373-1.643 1.882.011-1.162 6.575-1.346 7.287c0 0-.832 2.761-1.164 2.408s.628-9.706.628-9.706m-23.979.204s-1.371-1.643-1.883.012 1.165 6.574 1.349 7.286c0 0 .832 2.761 1.164 2.408s-.63-9.706-.63-9.706" fill="#eea987"/><path d="M114.189.511s-12.6 1.934-10.754 21.717 12.964 18.213 13.706 18.2 11.156.409 12.056-23.732c0 0 .419-17.852-15.008-16.185" fill="#eea987"/><path d="M126.779 15.514s-13.983 4.146-20.677 2.82c0 0-.427 2.462-1.388 2.614s-1.452-4.706-1.452-4.706S102.933.153 117.532 0s11.633 17.427 11.633 17.427l-.2 3s-2.091.823-2.187-4.917" fill="#252740"/><path d="M122.095 38.537s-4.412 4.167-11.2.343a7.074 7.074 0 005.811 3.257 6.4 6.4 0 005.389-3.6" fill="#a77860"/><path d="M128.973 44.997s-4.279 12.6-16.028 11.674-5.572-10.64-5.572-10.64a25.942 25.942 0 013.754-1.832c.824-.158 12.99-.312 12.99-.312z" fill="#eea886"/></svg>