<svg width="1024" height="381" fill="none" xmlns="http://www.w3.org/2000/svg"><path fill-rule="evenodd" clip-rule="evenodd" d="M1 125.568L-6 307l1220-122.5-189-83.773V-121H1v246.568z" fill="#D1E2EF" fill-opacity=".2"/><path fill-rule="evenodd" clip-rule="evenodd" d="M1 125.568L-6 307l1220-122.5-189-83.773V-121H1v246.568z" fill="url(#paint0_linear)" fill-opacity=".2"/><g filter="url(#filter0_d)" fill-rule="evenodd" clip-rule="evenodd"><path d="M-2.245-2.049l2.06 127.268L366.587 381 1031 285l109-415H112L-2.245-2.049z" fill="#D1E2EF"/><path d="M-2.245-2.049l2.06 127.268L366.587 381 1031 285l109-415H112L-2.245-2.049z" fill="url(#paint1_linear)"/></g><defs><linearGradient id="paint0_linear" x1="-141.361" y1="46.089" x2="79.662" y2="547.202" gradientUnits="userSpaceOnUse"><stop stop-color="#EAEBEF"/><stop offset="1" stop-color="#D1E2EF"/></linearGradient><linearGradient id="paint1_linear" x1="-128.978" y1="69.492" x2="176.389" y2="612.421" gradientUnits="userSpaceOnUse"><stop stop-color="#EAEBEF"/><stop offset="1" stop-color="#D1E2EF"/></linearGradient><filter id="filter0_d" x="-2.245" y="-153" width="1165.24" height="534" filterUnits="userSpaceOnUse" color-interpolation-filters="sRGB"><feFlood flood-opacity="0" result="BackgroundImageFix"/><feColorMatrix in="SourceAlpha" values="0 0 0 0 0 0 0 0 0 0 0 0 0 0 0 0 0 0 127 0"/><feOffset dx="13" dy="-13"/><feGaussianBlur stdDeviation="5"/><feColorMatrix values="0 0 0 0 0 0 0 0 0 0 0 0 0 0 0 0 0 0 0.5 0"/><feBlend in2="BackgroundImageFix" result="effect1_dropShadow"/><feBlend in="SourceGraphic" in2="effect1_dropShadow" result="shape"/></filter></defs></svg>