<svg width="1024" height="504" fill="none" xmlns="http://www.w3.org/2000/svg"><path fill-rule="evenodd" clip-rule="evenodd" d="M-177 228.388L577.344 497 847 301.772V-18H-177v246.388z" fill="#D1E2EF" fill-opacity=".2"/><path fill-rule="evenodd" clip-rule="evenodd" d="M-177 228.388L577.344 497 847 301.772V-18H-177v246.388z" fill="url(#paint0_linear)" fill-opacity=".2"/><path fill-rule="evenodd" clip-rule="evenodd" d="M1 125.568L335 463l690-263.994V-121H1v246.568z" fill="#D1E2EF" fill-opacity=".2"/><path fill-rule="evenodd" clip-rule="evenodd" d="M1 125.568L335 463l690-263.994V-121H1v246.568z" fill="url(#paint1_linear)" fill-opacity=".2"/><g filter="url(#filter0_d)" fill-rule="evenodd" clip-rule="evenodd"><path d="M112.455 63.506v180.021L319.097 504l821.363-310.177V-130H112.455V63.506z" fill="#D1E2EF"/><path d="M112.455 63.506v180.021L319.097 504l821.363-310.177V-130H112.455V63.506z" fill="url(#paint2_linear)"/></g><defs><linearGradient id="paint0_linear" x1="-290.614" y1="183.054" x2="34.74" y2="697.607" gradientUnits="userSpaceOnUse"><stop stop-color="#EAEBEF"/><stop offset="1" stop-color="#D1E2EF"/></linearGradient><linearGradient id="paint1_linear" x1="-112.614" y1="106.991" x2="274.176" y2="646.433" gradientUnits="userSpaceOnUse"><stop stop-color="#EAEBEF"/><stop offset="1" stop-color="#D1E2EF"/></linearGradient><linearGradient id="paint2_linear" x1="-1.603" y1="117.511" x2="427.781" y2="671.283" gradientUnits="userSpaceOnUse"><stop stop-color="#EAEBEF"/><stop offset="1" stop-color="#D1E2EF"/></linearGradient><filter id="filter0_d" x="112.455" y="-153" width="1051" height="657" filterUnits="userSpaceOnUse" color-interpolation-filters="sRGB"><feFlood flood-opacity="0" result="BackgroundImageFix"/><feColorMatrix in="SourceAlpha" values="0 0 0 0 0 0 0 0 0 0 0 0 0 0 0 0 0 0 127 0"/><feOffset dx="13" dy="-13"/><feGaussianBlur stdDeviation="5"/><feColorMatrix values="0 0 0 0 0 0 0 0 0 0 0 0 0 0 0 0 0 0 0.5 0"/><feBlend in2="BackgroundImageFix" result="effect1_dropShadow"/><feBlend in="SourceGraphic" in2="effect1_dropShadow" result="shape"/></filter></defs></svg>