<svg xmlns="http://www.w3.org/2000/svg" width="168.892" height="23.461"><path d="M55.738 5l3.159 9.782L62.056 5h3.341l-4.491 13H56.87L52.397 5zm15.659 13h3V5h-3zm18.135-1.659a3.634 3.634 0 01-1.516 1.367 5.287 5.287 0 01-2.427.511 5.671 5.671 0 01-3.537-1.058 3.839 3.839 0 01-1.516-2.953h3.285a1.756 1.756 0 00.514 1.148 1.571 1.571 0 001.128.42 1.3 1.3 0 00.939-.328 1.157 1.157 0 00.343-.875 1.141 1.141 0 00-.316-.821 2.5 2.5 0 00-.785-.537q-.469-.21-1.3-.5a15.773 15.773 0 01-1.976-.815 3.646 3.646 0 01-1.317-1.167 3.4 3.4 0 01-.551-2.014 3.412 3.412 0 01.578-1.986 3.682 3.682 0 011.597-1.287A5.774 5.774 0 0185.012 5 5.205 5.205 0 0188.4 6.021a3.91 3.91 0 011.412 2.808h-3.338a1.741 1.741 0 00-.46-1.012 1.344 1.344 0 00-1-.374 1.286 1.286 0 00-.876.291 1.077 1.077 0 00-.333.857 1.1 1.1 0 00.3.775 2.261 2.261 0 00.749.52q.451.2 1.3.509a14.14 14.14 0 012 .831 3.838 3.838 0 011.334 1.195 3.438 3.438 0 01.559 2.042 3.579 3.579 0 01-.515 1.878m13.039 1.878a6.438 6.438 0 01-3.258-.848 6.219 6.219 0 01-2.328-2.361 6.834 6.834 0 01-.857-3.41 6.782 6.782 0 01.857-3.4 6.234 6.234 0 012.328-2.351A6.43 6.43 0 01102.571 5a6.452 6.452 0 013.274.849 6.166 6.166 0 012.321 2.351 6.833 6.833 0 01.848 3.4 6.825 6.825 0 01-.857 3.409 6.215 6.215 0 01-2.329 2.362 6.436 6.436 0 01-3.257.848zm0-10.319a3.09 3.09 0 00-2.409.993 3.921 3.921 0 00-.894 2.707 3.921 3.921 0 00.894 2.7 3.076 3.076 0 002.409 1 3.082 3.082 0 002.4-1 3.9 3.9 0 00.9-2.7 3.922 3.922 0 00-.893-2.7 3.077 3.077 0 00-2.407-1zm14.509 9.955h-1.281V5h3.807a4.524 4.524 0 013.2 1 3.633 3.633 0 011.06 2.757 3.529 3.529 0 01-1.092 2.762 4.632 4.632 0 01-3.168.975h-2.526v5.36zm0-11.778V11.4h2.419a3.386 3.386 0 002.364-.684 2.582 2.582 0 00.722-1.959 2.636 2.636 0 00-.722-2 3.39 3.39 0 00-2.364-.681zm14.817 10.756h4.618v1.022h-5.9V5h1.282zm11.494.73h-1.352L146.731 5h1.425l4.692 12.561h-1.371l-1.138-3.134h-5.793l-1.154 3.135zm4.061-11.087l-2.544 6.929h5.053l-2.509-6.929zm21.44 11.36h-1.282L160.645 7.1v10.736h-1.282V5h1.282l6.965 10.758V5h1.282z" fill="#252626"/><path d="M8.978 8.152L0 23.461h17.956z" fill="#004d95"/><path d="M20.242 15.309L11.264 0h17.957z" fill="#00b8c6"/><path d="M32.085 8.152l-8.978 15.309h17.957z" fill="#aa007b"/></svg>