<svg xmlns="http://www.w3.org/2000/svg" width="127.166" height="17.596"><path d="M41.859 5.839l2.187 6.772 2.187-6.772h2.313l-3.109 9h-2.791l-3.1-9zm11.687 9h2v-9h-2zm13.865-.798a2.732 2.732 0 01-1.14 1.025 3.994 3.994 0 01-1.828.383 4.282 4.282 0 01-2.663-.793 2.876 2.876 0 01-1.142-2.215h2.473a1.315 1.315 0 00.387.861 1.186 1.186 0 00.849.315.981.981 0 00.707-.246.866.866 0 00.257-.657.854.854 0 00-.238-.616 1.88 1.88 0 00-.591-.4q-.352-.163-.977-.379a11.9 11.9 0 01-1.488-.608 2.742 2.742 0 01-.991-.876 2.542 2.542 0 01-.415-1.51 2.552 2.552 0 01.435-1.49 2.77 2.77 0 011.2-.965 4.362 4.362 0 011.765-.335 3.93 3.93 0 012.545.766 2.929 2.929 0 011.067 2.106h-2.512a1.3 1.3 0 00-.346-.759 1.014 1.014 0 00-.754-.28.97.97 0 00-.659.218.806.806 0 00-.251.643.821.821 0 00.224.581 1.7 1.7 0 00.564.39q.339.15.978.382a10.67 10.67 0 011.508.623 2.886 2.886 0 011.006.9 2.571 2.571 0 01.418 1.53 2.677 2.677 0 01-.388 1.406m9.819 1.408a4.85 4.85 0 01-2.451-.636 4.669 4.669 0 01-1.755-1.77 5.105 5.105 0 01-.645-2.557 5.069 5.069 0 01.645-2.551 4.675 4.675 0 011.755-1.764 4.858 4.858 0 012.451-.636 4.884 4.884 0 012.466.636 4.626 4.626 0 011.746 1.764 5.111 5.111 0 01.637 2.551 5.105 5.105 0 01-.645 2.557 4.669 4.669 0 01-1.755 1.77 4.85 4.85 0 01-2.449.636zm0-7.74a2.331 2.331 0 00-1.813.745 2.929 2.929 0 00-.673 2.031 2.933 2.933 0 00.673 2.023 2.321 2.321 0 001.813.752 2.329 2.329 0 001.807-.752 2.918 2.918 0 00.679-2.023 2.934 2.934 0 00-.672-2.024 2.321 2.321 0 00-1.814-.752zm10.925 7.644h-.965V5.712h2.867a3.41 3.41 0 012.412.752 2.714 2.714 0 01.795 2.065 2.64 2.64 0 01-.822 2.072 3.493 3.493 0 01-2.385.732h-1.902v4.019zm0-8.834v3.993h1.821a2.557 2.557 0 001.78-.513 1.931 1.931 0 00.543-1.47 1.972 1.972 0 00-.543-1.5 2.558 2.558 0 00-1.78-.51zm11.155 8.068h3.478v.766h-4.443V5.712h.965zm8.656.767h-1.019l3.532-9.423h1.074l3.532 9.421h-1.032l-.856-2.351h-4.362l-.869 2.352zm3.057-8.316l-1.915 5.193h3.8zm16.142 8.315h-.965l-5.244-8.054v8.054h-.965V5.726h.965l5.244 8.068V5.726h.965z" fill="#252626"/><path d="M6.76 6.114L0 17.596h13.52z" fill="#004d95"/><path d="M15.241 11.482L8.481 0h13.52z" fill="#00b8c6"/><path d="M24.158 6.114l-6.76 11.482h13.52z" fill="#aa007b"/></svg>